<?xml version="1.0" encoding="iso-8859-1"?>
<!-- Generator: Adobe Illustrator 19.0.0, SVG Export Plug-In . SVG Version: 6.00 Build 0)  -->
<svg version="1.1" id="Layer_1" xmlns="http://www.w3.org/2000/svg" xmlns:xlink="http://www.w3.org/1999/xlink" x="0px" y="0px"
	 viewBox="0 0 512 512" style="enable-background:new 0 0 512 512;" xml:space="preserve">
<g>
	<g>
		<path d="M446.268,421.187c-4.466,0-8.084,3.618-8.084,8.084v61.709c0,0.17-0.009,0.337-0.025,0.504
			c-0.251,2.478-2.326,4.346-4.826,4.346h-63.122v-71.154c0-9.475-6.305-17.499-14.936-20.114v-94.198c0.004,0,0.009,0,0.013,0.001
			c46.08,4.041,76.514,38.668,82.044,94.18c0.442,4.443,4.416,7.69,8.845,7.243c4.443-0.442,7.686-4.403,7.243-8.845
			c-3.104-31.173-13.821-57.733-30.99-76.81c-13.231-14.701-30.052-24.587-49.472-29.248V189.14c2.8-4.798,4.413-10.37,4.413-16.315
			c0-5.945-1.613-11.516-4.413-16.315v-39.548C372.96,52.469,320.491,0,255.999,0c-64.493,0-116.962,52.469-116.962,116.961v179.926
			c-19.418,4.662-36.239,14.547-49.469,29.248c-17.169,19.077-27.885,45.637-30.989,76.811c-0.618,6.21-0.931,12.636-0.931,19.099
			v68.936c0,0.717,0.036,1.437,0.108,2.14C58.85,503.883,67.839,512,78.666,512h71.206h30.566h148.821h32.869h71.206
			c10.827,0,19.817-8.115,20.911-18.879c0.071-0.703,0.108-1.423,0.108-2.14v-61.709
			C454.353,424.806,450.733,421.187,446.268,421.187z M357.368,162.334c0.235,0.278,0.455,0.571,0.673,0.867
			c1.982,2.701,3.163,6.024,3.163,9.623c0,3.599-1.181,6.923-3.164,9.625c-0.217,0.295-0.438,0.587-0.672,0.866
			c-0.126,0.15-0.262,0.291-0.393,0.437c-0.202,0.223-0.404,0.444-0.618,0.654c-0.142,0.14-0.29,0.275-0.438,0.41
			c-0.222,0.204-0.446,0.404-0.678,0.594c-0.144,0.119-0.291,0.234-0.44,0.348c-0.257,0.196-0.517,0.385-0.785,0.566
			c-0.135,0.092-0.269,0.182-0.406,0.269c-0.304,0.192-0.614,0.373-0.929,0.544c-0.112,0.061-0.223,0.125-0.337,0.184
			c-0.364,0.188-0.737,0.359-1.115,0.52c-0.075,0.032-0.15,0.069-0.226,0.099c-0.451,0.183-0.909,0.347-1.375,0.489
			c-0.012,0.003-0.023,0.009-0.034,0.012c-0.493,0.149-0.993,0.275-1.5,0.377v-31.987c1,0.202,1.976,0.498,2.916,0.88
			c0.069,0.028,0.135,0.06,0.204,0.089c0.385,0.163,0.764,0.337,1.135,0.529c0.111,0.057,0.218,0.12,0.328,0.179
			c0.318,0.174,0.632,0.356,0.938,0.55c0.136,0.086,0.268,0.176,0.401,0.266c0.268,0.181,0.531,0.371,0.789,0.568
			c0.148,0.113,0.294,0.227,0.438,0.346c0.233,0.191,0.458,0.391,0.68,0.596c0.147,0.135,0.294,0.268,0.435,0.409
			c0.213,0.211,0.417,0.433,0.619,0.656C357.107,162.044,357.243,162.184,357.368,162.334z M156.724,404.565
			c-8.632,2.616-14.936,10.64-14.936,20.114v71.153H78.666c-2.5,0-4.575-1.868-4.826-4.346c-0.017-0.166-0.025-0.334-0.025-0.504
			v-68.937c0-5.931,0.287-11.818,0.852-17.497c5.53-55.514,35.966-90.141,82.049-94.18c0.002,0,0.005,0,0.008,0V404.565z
			 M155.718,294.227c-0.171,0.014-0.343,0.023-0.512,0.038V116.961c0-55.577,45.216-100.793,100.794-100.793
			c55.577,0,100.792,45.216,100.792,100.793v25.647c-0.023-0.009-0.045-0.015-0.068-0.024c-2.72-1.068-5.613-1.785-8.63-2.081
			v-16.765c0-2.463-1.122-4.791-3.049-6.325l-36.3-28.897c-3.132-2.494-7.626-2.313-10.556,0.42
			c-0.587,0.549-59.465,54.816-126.345,56.028c-4.408,0.08-7.938,3.676-7.938,8.083v45.275c0,32.661,17.506,61.305,43.625,77.06
			v8.851l-12.578,3.944c-3.094-3.778-7.412-6.406-12.277-7.405c-0.041-0.009-0.082-0.016-0.123-0.025
			c-0.66-0.132-1.327-0.236-2.005-0.307c-0.065-0.006-0.13-0.011-0.195-0.016c-0.683-0.065-1.372-0.105-2.071-0.105
			c-0.673,0-1.337,0.04-1.993,0.101c-0.199,0.018-0.396,0.045-0.594,0.07c-0.47,0.056-0.936,0.127-1.396,0.213
			c-0.204,0.039-0.407,0.076-0.61,0.12c-0.52,0.113-1.032,0.246-1.537,0.397c-0.111,0.033-0.225,0.058-0.335,0.093
			c-0.607,0.191-1.199,0.411-1.781,0.653c-0.163,0.068-0.32,0.144-0.481,0.216c-0.425,0.189-0.842,0.389-1.251,0.604
			c-0.186,0.098-0.371,0.197-0.553,0.301c-0.406,0.229-0.802,0.471-1.191,0.724c-0.142,0.093-0.288,0.179-0.427,0.275
			c-0.509,0.349-1.004,0.717-1.48,1.107c-0.117,0.096-0.226,0.199-0.341,0.297c-0.361,0.308-0.713,0.626-1.053,0.957
			c-0.156,0.152-0.308,0.308-0.46,0.466c-0.298,0.308-0.585,0.625-0.865,0.951c-0.135,0.157-0.273,0.311-0.403,0.472
			c-0.384,0.473-0.752,0.958-1.095,1.464c-0.056,0.083-0.105,0.171-0.159,0.255c-0.288,0.437-0.561,0.884-0.816,1.342
			c-0.109,0.195-0.21,0.394-0.313,0.593c-0.192,0.371-0.374,0.746-0.544,1.129c-0.094,0.209-0.188,0.418-0.275,0.631
			c-0.04,0.098-0.088,0.193-0.127,0.292c-0.259,0.016-0.515,0.04-0.773,0.058C156.857,294.139,156.286,294.18,155.718,294.227z
			 M209.302,306.927l34.914,43.618l-13.373,9.056l-31.003-42.091v-13.922l7.69-2.411v0.7
			C207.529,303.713,208.154,305.495,209.302,306.927z M223.696,299.039v-0.824c0-0.006,0.001-0.013,0.001-0.019v-15.145
			c0.383,0.136,0.773,0.252,1.158,0.384c3.083,1.053,6.238,1.945,9.46,2.66c0.183,0.041,0.364,0.087,0.548,0.127
			c0.957,0.207,1.924,0.388,2.893,0.564c0.406,0.074,0.812,0.15,1.219,0.219c0.858,0.143,1.721,0.273,2.588,0.391
			c0.566,0.078,1.132,0.149,1.699,0.217c0.755,0.088,1.508,0.175,2.268,0.245c0.773,0.072,1.547,0.125,2.322,0.177
			c0.591,0.039,1.179,0.087,1.773,0.114c1.404,0.067,2.81,0.107,4.217,0.107h4.32c1.407,0,2.813-0.041,4.217-0.107
			c0.594-0.028,1.182-0.076,1.773-0.114c0.775-0.052,1.549-0.105,2.322-0.177c0.76-0.07,1.514-0.155,2.268-0.245
			c0.567-0.068,1.133-0.138,1.698-0.217c0.867-0.119,1.729-0.248,2.588-0.391c0.407-0.068,0.813-0.144,1.219-0.219
			c0.969-0.176,1.935-0.357,2.892-0.564c0.183-0.04,0.364-0.086,0.548-0.127c3.222-0.717,6.378-1.607,9.461-2.66
			c0.385-0.13,0.774-0.247,1.157-0.383v15.146c0,0.001,0,0.001,0,0.002v0.84l-32.302,40.352L223.696,299.039z M222.433,375.448
			c1.581,2.146,4.029,3.291,6.516,3.291c1.562,0,3.14-0.453,4.527-1.392l22.524-15.254l22.523,15.254
			c1.387,0.939,2.964,1.392,4.527,1.392c2.487,0,4.935-1.146,6.516-3.291l22.594-30.673v58.883h-112.32v-58.884L222.433,375.448z
			 M281.156,359.603l-13.373-9.057l34.915-43.616c1.148-1.434,1.773-3.215,1.773-5.053v-0.698l7.689,2.411v13.924L281.156,359.603z
			 M287.03,266.196c-0.091,0.039-0.181,0.08-0.272,0.119c-0.929,0.392-1.871,0.759-2.819,1.113c-0.335,0.125-0.67,0.247-1.007,0.367
			c-0.696,0.249-1.398,0.485-2.104,0.714c-0.597,0.193-1.196,0.376-1.798,0.553c-0.495,0.147-0.991,0.288-1.49,0.424
			c-0.527,0.143-1.054,0.287-1.583,0.418c-0.76,0.189-1.524,0.365-2.293,0.53c-0.539,0.115-1.08,0.221-1.621,0.324
			c-0.518,0.099-1.04,0.192-1.562,0.28c-0.669,0.113-1.341,0.219-2.013,0.314c-0.688,0.097-1.378,0.187-2.072,0.264
			c-0.388,0.044-0.776,0.087-1.164,0.125c-0.985,0.094-1.975,0.171-2.97,0.226c-0.257,0.014-0.514,0.024-0.771,0.036
			c-1.106,0.05-2.215,0.084-3.332,0.084h-4.32c-1.118,0-2.227-0.036-3.332-0.084c-0.257-0.012-0.514-0.022-0.771-0.036
			c-0.996-0.055-1.985-0.133-2.97-0.226c-0.389-0.038-0.776-0.081-1.164-0.125c-0.694-0.078-1.384-0.167-2.072-0.264
			c-0.673-0.095-1.344-0.201-2.013-0.314c-0.523-0.088-1.043-0.18-1.562-0.28c-0.541-0.104-1.082-0.209-1.621-0.324
			c-0.768-0.165-1.533-0.342-2.293-0.53c-0.529-0.131-1.056-0.275-1.582-0.417c-0.5-0.136-0.997-0.278-1.493-0.425
			c-0.6-0.177-1.199-0.36-1.795-0.552c-0.707-0.229-1.41-0.465-2.107-0.715c-0.336-0.12-0.672-0.241-1.006-0.365
			c-0.948-0.355-1.891-0.721-2.82-1.113c-0.091-0.038-0.181-0.08-0.272-0.119c-26.367-11.258-44.895-37.441-44.895-67.873v-37.551
			c58.42-4.209,107.976-41.968,123.89-55.396l27.963,22.258v21.28h-0.001v47.817v1.591
			C331.925,228.755,313.397,254.938,287.03,266.196z M183.675,301.878v18.291v90.498c0,0.217-0.039,0.423-0.064,0.633
			c-0.032,0.239-0.071,0.477-0.13,0.708c-0.026,0.101-0.06,0.198-0.093,0.296c-0.073,0.227-0.154,0.453-0.255,0.666
			c-0.04,0.084-0.088,0.163-0.133,0.245c-0.117,0.216-0.24,0.428-0.385,0.624c-0.047,0.065-0.102,0.123-0.153,0.185
			c-0.16,0.197-0.324,0.39-0.51,0.564c-0.054,0.051-0.115,0.093-0.171,0.141c-0.194,0.168-0.393,0.33-0.61,0.469
			c-0.072,0.046-0.151,0.08-0.225,0.123c-0.212,0.123-0.427,0.242-0.655,0.336c-0.125,0.051-0.259,0.08-0.388,0.121
			c-0.191,0.061-0.378,0.131-0.577,0.17c-0.338,0.067-0.686,0.106-1.043,0.106s-0.705-0.039-1.043-0.106
			c-0.198-0.04-0.386-0.109-0.577-0.17c-0.129-0.041-0.264-0.07-0.389-0.121c-0.229-0.094-0.443-0.213-0.655-0.336
			c-0.074-0.042-0.153-0.077-0.224-0.122c-0.217-0.14-0.417-0.302-0.612-0.471c-0.055-0.047-0.115-0.089-0.169-0.14
			c-0.185-0.174-0.351-0.368-0.511-0.566c-0.05-0.061-0.105-0.12-0.151-0.183c-0.144-0.197-0.268-0.41-0.386-0.626
			c-0.044-0.081-0.092-0.16-0.132-0.243c-0.102-0.214-0.183-0.44-0.257-0.668c-0.031-0.098-0.066-0.194-0.092-0.294
			c-0.059-0.232-0.098-0.471-0.126-0.714c-0.025-0.209-0.064-0.415-0.064-0.631V301.89v-0.014c0-2.972,2.418-5.389,5.389-5.389
			c0.344,0,0.677,0.04,1.002,0.101c0.087,0.016,0.17,0.042,0.255,0.063c0.247,0.059,0.489,0.133,0.722,0.224
			c0.073,0.029,0.144,0.059,0.217,0.091c0.262,0.117,0.514,0.252,0.752,0.409c0.028,0.018,0.057,0.033,0.085,0.053
			c0.557,0.38,1.039,0.862,1.42,1.421c0.017,0.026,0.032,0.055,0.05,0.082c0.156,0.237,0.29,0.488,0.407,0.75
			c0.037,0.083,0.07,0.169,0.104,0.255c0.087,0.223,0.158,0.454,0.214,0.691c0.022,0.089,0.045,0.177,0.061,0.267
			c0,0.002,0,0.003,0.001,0.005C183.635,301.218,183.675,301.543,183.675,301.878z M354.044,495.832h-16.701v-53.369
			c0-4.466-3.618-8.084-8.084-8.084h-29.576c-4.466,0-8.084,3.618-8.084,8.084c0,4.466,3.618,8.084,8.084,8.084h21.492v45.284
			H188.521v-45.284h84.213c4.466,0,8.084-3.618,8.084-8.084c0-4.466-3.619-8.084-8.084-8.084h-92.297
			c-4.466,0-8.084,3.618-8.084,8.084v53.369h-14.397v-71.154c0-1.383,0.583-2.631,1.513-3.515c2.494,4.452,6.523,7.916,11.364,9.706
			c0.157,0.058,0.313,0.117,0.471,0.172c0.336,0.115,0.675,0.225,1.019,0.324c0.361,0.106,0.728,0.196,1.096,0.282
			c0.312,0.072,0.623,0.14,0.94,0.198c0.467,0.087,0.938,0.16,1.413,0.217c0.195,0.023,0.389,0.044,0.586,0.061
			c0.635,0.057,1.275,0.097,1.924,0.097c0.653,0,1.298-0.04,1.937-0.098c0.218-0.019,0.433-0.046,0.65-0.072
			c0.416-0.051,0.828-0.114,1.237-0.19c0.253-0.045,0.507-0.086,0.757-0.141c0.419-0.093,0.832-0.204,1.242-0.32
			c0.501-0.141,0.993-0.303,1.479-0.479c0.14-0.052,0.281-0.1,0.42-0.154c5.16-1.989,9.356-5.9,11.724-10.86
			c0.013-0.028,0.029-0.054,0.042-0.082h116.457c0.018,0.039,0.04,0.075,0.059,0.113c2.37,4.944,6.559,8.842,11.707,10.828
			c0.141,0.055,0.284,0.104,0.426,0.156c0.482,0.174,0.968,0.335,1.465,0.475c0.414,0.117,0.83,0.23,1.254,0.323
			c0.249,0.054,0.502,0.095,0.756,0.141c0.41,0.074,0.821,0.138,1.237,0.19c0.217,0.026,0.431,0.053,0.649,0.072
			c0.64,0.058,1.284,0.098,1.937,0.098c0.648,0,1.288-0.04,1.923-0.097c0.197-0.017,0.392-0.039,0.587-0.061
			c0.474-0.056,0.943-0.128,1.409-0.216c0.322-0.059,0.639-0.128,0.956-0.203c0.363-0.085,0.724-0.175,1.08-0.278
			c0.347-0.1,0.689-0.211,1.028-0.328c0.152-0.053,0.302-0.11,0.453-0.166c4.846-1.789,8.881-5.256,11.377-9.712
			c0.931,0.885,1.513,2.133,1.513,3.515V495.832z M328.329,410.663v-90.496v-18.293c0-0.337,0.04-0.665,0.099-0.986
			c0.016-0.087,0.04-0.172,0.06-0.259c0.056-0.237,0.128-0.468,0.216-0.691c0.034-0.089,0.068-0.178,0.107-0.264
			c0.116-0.258,0.249-0.507,0.403-0.742c0.018-0.028,0.033-0.059,0.053-0.087c0.381-0.557,0.861-1.038,1.419-1.419
			c0.028-0.018,0.057-0.034,0.085-0.053c0.238-0.156,0.49-0.291,0.752-0.409c0.071-0.031,0.143-0.063,0.217-0.091
			c0.233-0.093,0.474-0.165,0.722-0.224c0.085-0.021,0.169-0.046,0.255-0.063c0.326-0.061,0.66-0.101,1.002-0.101
			c2.972,0,5.389,2.418,5.389,5.404v108.775c0,0.215-0.039,0.419-0.064,0.627c-0.031,0.246-0.07,0.487-0.13,0.72
			c-0.025,0.096-0.057,0.188-0.087,0.28c-0.074,0.234-0.157,0.465-0.262,0.682c-0.037,0.078-0.082,0.15-0.123,0.225
			c-0.12,0.222-0.248,0.441-0.397,0.642c-0.043,0.058-0.092,0.11-0.137,0.166c-0.164,0.205-0.334,0.403-0.525,0.582
			c-0.049,0.045-0.103,0.083-0.153,0.126c-0.199,0.174-0.404,0.34-0.627,0.483c-0.067,0.043-0.141,0.074-0.21,0.114
			c-0.217,0.126-0.435,0.248-0.669,0.343c-0.122,0.05-0.253,0.078-0.379,0.118c-0.194,0.063-0.384,0.133-0.585,0.174
			c-0.337,0.067-0.686,0.106-1.042,0.106c-0.358,0-0.706-0.039-1.043-0.106c-0.195-0.039-0.378-0.108-0.566-0.167
			c-0.134-0.042-0.272-0.072-0.401-0.125c-0.223-0.092-0.433-0.209-0.64-0.329c-0.08-0.045-0.164-0.082-0.24-0.13
			c-0.211-0.136-0.405-0.294-0.595-0.458c-0.061-0.053-0.128-0.099-0.188-0.154c-0.18-0.169-0.341-0.357-0.496-0.549
			c-0.055-0.068-0.115-0.132-0.167-0.203c-0.14-0.191-0.26-0.397-0.374-0.606c-0.049-0.088-0.1-0.174-0.143-0.264
			c-0.098-0.207-0.177-0.425-0.248-0.646c-0.035-0.106-0.071-0.21-0.099-0.319c-0.057-0.223-0.094-0.455-0.122-0.689
			C328.369,411.095,328.329,410.885,328.329,410.663z M353.802,294.041c-0.043-0.11-0.096-0.214-0.141-0.323
			c-0.077-0.186-0.158-0.368-0.24-0.552c-0.184-0.416-0.382-0.825-0.592-1.226c-0.091-0.172-0.178-0.346-0.273-0.516
			c-0.284-0.508-0.583-1.006-0.904-1.488c-0.026-0.039-0.049-0.081-0.075-0.121c-0.35-0.517-0.729-1.014-1.122-1.499
			c-0.116-0.143-0.24-0.281-0.36-0.421c-0.294-0.344-0.597-0.679-0.912-1.003c-0.141-0.146-0.281-0.29-0.427-0.432
			c-0.355-0.346-0.722-0.679-1.101-1c-0.101-0.086-0.197-0.178-0.3-0.262c-0.481-0.394-0.98-0.766-1.494-1.118
			c-0.133-0.091-0.272-0.174-0.406-0.261c-0.396-0.258-0.798-0.504-1.21-0.736c-0.18-0.101-0.361-0.199-0.544-0.295
			c-0.413-0.217-0.833-0.418-1.261-0.609c-0.158-0.07-0.313-0.147-0.473-0.212c-0.583-0.243-1.177-0.462-1.784-0.654
			c-0.109-0.034-0.222-0.059-0.332-0.093c-0.505-0.151-1.019-0.284-1.539-0.397c-0.203-0.044-0.406-0.082-0.61-0.12
			c-0.46-0.086-0.926-0.157-1.396-0.213c-0.197-0.024-0.393-0.052-0.593-0.07c-0.658-0.06-1.32-0.101-1.994-0.101
			c-0.698,0-1.388,0.04-2.072,0.105c-0.065,0.006-0.129,0.01-0.193,0.016c-0.679,0.07-1.347,0.176-2.008,0.307
			c-0.039,0.008-0.079,0.015-0.117,0.024c-4.867,0.999-9.186,3.627-12.28,7.406l-12.577-3.944v-8.851
			c24.275-14.642,41.082-40.426,43.338-70.215c3.12-0.279,6.114-1.002,8.92-2.105c0.022-0.009,0.043-0.014,0.065-0.023v91.228
			c-0.166-0.015-0.334-0.024-0.5-0.038c-0.569-0.047-1.139-0.088-1.709-0.128C354.322,294.081,354.063,294.057,353.802,294.041z"/>
	</g>
</g>
<g>
</g>
<g>
</g>
<g>
</g>
<g>
</g>
<g>
</g>
<g>
</g>
<g>
</g>
<g>
</g>
<g>
</g>
<g>
</g>
<g>
</g>
<g>
</g>
<g>
</g>
<g>
</g>
<g>
</g>
</svg>
