<?xml version="1.0" encoding="UTF-8"?>
<svg width="992px" height="968px" viewBox="0 0 992 968" version="1.1" xmlns="http://www.w3.org/2000/svg" xmlns:xlink="http://www.w3.org/1999/xlink">
    <!-- Generator: Sketch 52.6 (67491) - http://www.bohemiancoding.com/sketch -->
    <title>Group</title>
    <desc>Created with Sketch.</desc>
    <g id="Page-1" stroke="none" stroke-width="1" fill="none" fill-rule="evenodd">
        <g id="Group">
            <ellipse id="Oval" fill="#114B4F" cx="496" cy="484" rx="496" ry="484"></ellipse>
            <g id="trip" transform="translate(185.000000, 215.000000)" fill="#FFFFFF" fill-rule="nonzero">
                <path d="M607.401653,509.756712 L394.33822,509.756712 L320.125158,259.297253 L596.619704,172.759819 C600.869551,171.430367 604.229806,168.025034 605.614697,163.645307 C606.999588,159.263562 606.238189,154.454134 603.575236,150.766367 C540.51511,63.4199649 440.177528,11.2727687 335.172493,11.2727687 C311.87214,11.2727687 288.62423,13.832821 265.753135,18.8722305 C262.6415,19.7477724 254.13792,21.6380553 251.34483,22.3865024 L247.759264,10.0441856 C245.589666,2.57787075 238.00093,-1.6424834 230.814259,0.602857984 C223.625646,2.85626888 219.554494,10.7341288 221.722149,18.2024611 L225.30383,30.5306562 C222.584549,31.5050496 216.023313,33.8673989 211.435498,35.8666202 C155.604775,58.7517529 107.139418,96.4161946 70.1066964,146.003339 C28.2025767,202.10863 3.96795632,269.079517 0.023056574,339.671598 C-0.235275118,344.275254 1.68958734,348.719537 5.17415166,351.576144 C7.60208109,353.565278 10.5777514,354.612297 13.5961533,354.612297 C14.9111199,354.612297 16.2299711,354.414594 17.5196872,354.011119 L294.089985,267.447459 L365.890656,509.756712 L183.215188,509.756712 C175.706088,509.756712 169.618783,516.079174 169.618783,523.878356 C169.618783,531.677538 175.706088,538 183.215188,538 L607.403595,538 C614.912695,538 621,531.677538 621,523.878356 C620.998058,516.079174 614.910753,509.756712 607.401653,509.756712 Z M245.38577,52.7061565 C245.387709,52.7061565 245.387709,52.7061565 245.389648,52.7061565 C252.419486,50.4980428 259.505562,48.5667009 266.630424,46.8899083 C320.553643,53.5465731 366.554962,81.7671956 403.393251,130.832573 C421.180195,154.521815 432.559805,177.776707 438.652977,192.065809 L158.206086,280.105505 C155.706372,264.691133 152.855652,238.755393 155.116835,208.775149 C159.798223,146.699476 183.154737,96.7148931 224.532847,60.1325298 C231.361001,57.4132974 238.311329,54.9284119 245.38383,52.7081768 L245.38577,52.7061565 Z M568.718686,151.491467 L465.299931,183.857798 C458.96825,168.486309 446.397972,141.946723 425.814674,114.430306 C400.835076,81.0347786 371.110111,55.8063617 337.915811,39.4862385 C426.543836,40.4469566 511.270071,81.8122151 568.718686,151.491467 Z M161.944559,95.0137615 C143.098931,127.631825 131.82881,165.646206 128.788129,207.710855 C126.269428,242.524578 129.911648,271.917765 132.812617,288.393287 L29.3285421,320.825688 C40.2513221,228.424324 89.649299,146.363549 161.944559,95.0137615 Z" id="Shape"></path>
            </g>
        </g>
    </g>
</svg>