<svg id="svg" xmlns="http://www.w3.org/2000/svg" xmlns:xlink="http://www.w3.org/1999/xlink" width="400" height="136.2924281984334" viewBox="0, 0, 400,136.2924281984334"><g id="svgg"><path id="path0" d="M275.333 57.833 L 275.333 77.500 289.833 77.500 L 304.333 77.500 304.333 57.833 L 304.333 38.167 289.833 38.167 L 275.333 38.167 275.333 57.833 M299.473 56.095 C 300.665 56.690,300.921 58.301,299.963 59.176 C 298.662 60.364,295.997 59.464,296.001 57.838 C 296.005 56.390,298.029 55.374,299.473 56.095 " stroke="none" fill="#fb5b5c" fill-rule="evenodd"></path><path id="path1" d="M275.144 37.801 C 274.755 38.074,274.646 77.246,275.033 77.633 C 275.323 77.923,304.177 77.923,304.467 77.633 C 304.678 77.422,304.771 38.824,304.562 38.043 L 304.462 37.670 289.959 37.627 C 278.235 37.592,275.396 37.625,275.144 37.801 M304.418 38.208 C 304.467 38.415,304.488 47.358,304.462 58.083 L 304.417 77.583 289.750 77.583 L 275.083 77.583 275.041 57.935 C 275.010 43.553,275.049 38.225,275.186 38.060 C 275.342 37.872,277.862 37.833,289.851 37.833 L 304.327 37.833 304.418 38.208 M297.339 56.307 C 295.524 57.280,296.272 59.601,298.354 59.457 L 299.250 59.395 298.306 59.364 C 296.286 59.298,295.816 57.100,297.658 56.337 C 299.380 55.624,300.926 57.560,299.708 58.905 C 299.283 59.374,299.280 59.387,299.667 59.081 C 301.481 57.641,299.423 55.189,297.339 56.307 " stroke="none" fill="#6c242c" fill-rule="evenodd"></path><path id="path2" d="M275.186 38.060 C 275.049 38.225,275.010 43.553,275.041 57.935 L 275.083 77.583 289.750 77.583 L 304.417 77.583 304.462 58.083 C 304.488 47.358,304.467 38.415,304.418 38.208 L 304.327 37.833 289.851 37.833 C 277.862 37.833,275.342 37.872,275.186 38.060 M304.333 57.833 L 304.333 77.500 289.833 77.500 L 275.333 77.500 275.333 57.833 L 275.333 38.167 289.833 38.167 L 304.333 38.167 304.333 57.833 M297.105 56.164 C 295.162 57.407,295.952 59.649,298.338 59.661 C 299.823 59.669,300.500 59.111,300.500 57.880 C 300.500 56.193,298.578 55.222,297.105 56.164 M299.331 56.249 C 300.594 56.902,300.723 58.270,299.603 59.131 C 298.109 60.278,295.644 58.777,296.456 57.214 C 297.003 56.159,298.310 55.721,299.331 56.249 " stroke="none" fill="#943434" fill-rule="evenodd"></path><path id="path3" d="M275.167 37.449 C 274.486 37.692,274.500 37.250,274.500 57.859 C 274.500 77.260,274.506 77.658,274.822 77.827 C 275.362 78.116,304.407 78.062,304.648 77.772 C 304.972 77.382,304.826 37.703,304.500 37.496 C 304.238 37.331,275.627 37.285,275.167 37.449 M304.562 38.043 C 304.771 38.824,304.678 77.422,304.467 77.633 C 304.177 77.923,275.323 77.923,275.033 77.633 C 274.646 77.246,274.755 38.074,275.144 37.801 C 275.396 37.625,278.235 37.592,289.959 37.627 L 304.462 37.670 304.562 38.043 M297.386 56.492 C 296.197 57.216,296.382 59.333,297.634 59.333 C 297.816 59.333,297.727 59.185,297.358 58.875 C 296.237 57.935,296.844 56.508,298.368 56.503 C 299.833 56.498,300.491 57.801,299.502 58.748 C 299.228 59.011,299.041 59.263,299.087 59.309 C 299.133 59.355,299.394 59.178,299.668 58.915 C 301.134 57.511,299.157 55.412,297.386 56.492 " stroke="none" fill="#2c0c0c" fill-rule="evenodd"></path><path id="path4" d="M39.292 34.780 C 38.880 34.890,38.855 38.164,39.262 38.571 C 39.493 38.802,40.480 38.833,47.595 38.833 L 55.667 38.833 55.667 60.250 L 55.667 81.667 57.458 81.664 C 58.444 81.663,59.362 81.590,59.500 81.504 C 59.720 81.365,59.755 78.770,59.794 60.089 L 59.838 38.833 67.660 38.833 L 75.481 38.833 75.741 38.463 C 76.036 38.041,76.108 35.430,75.837 35.000 C 75.684 34.758,40.181 34.545,39.292 34.780 M77.200 34.867 C 76.918 35.148,76.951 36.261,77.250 36.560 C 77.387 36.697,77.500 37.040,77.500 37.321 C 77.500 37.611,77.645 37.978,77.833 38.167 C 78.041 38.374,78.167 38.722,78.167 39.089 C 78.167 39.458,78.260 39.713,78.417 39.773 C 78.580 39.836,78.667 40.095,78.667 40.523 C 78.667 40.951,78.753 41.210,78.917 41.273 C 79.078 41.335,79.167 41.593,79.167 41.997 C 79.167 42.353,79.275 42.716,79.417 42.833 C 79.554 42.947,79.667 43.280,79.667 43.572 C 79.667 43.864,79.777 44.249,79.911 44.426 C 80.046 44.604,80.158 44.926,80.161 45.141 C 80.164 45.356,80.275 45.731,80.407 45.974 C 80.539 46.218,80.692 46.698,80.748 47.042 C 80.803 47.385,80.920 47.667,81.008 47.667 C 81.095 47.667,81.167 47.876,81.167 48.131 C 81.167 48.387,81.317 48.890,81.500 49.250 C 81.683 49.610,81.833 50.061,81.833 50.253 C 81.833 50.446,81.943 50.749,82.078 50.926 C 82.213 51.104,82.325 51.442,82.328 51.676 C 82.331 51.911,82.443 52.249,82.578 52.426 C 82.713 52.604,82.825 52.977,82.828 53.255 C 82.831 53.532,82.943 53.916,83.078 54.108 C 83.213 54.301,83.372 54.767,83.433 55.146 C 83.493 55.524,83.600 55.833,83.669 55.833 C 83.739 55.833,83.846 56.169,83.907 56.579 C 83.969 56.990,84.081 57.364,84.157 57.411 C 84.233 57.458,84.344 57.756,84.404 58.074 C 84.464 58.392,84.622 58.862,84.755 59.118 C 84.889 59.374,85.001 59.733,85.004 59.917 C 85.008 60.100,85.121 60.396,85.255 60.574 C 85.390 60.751,85.500 61.102,85.500 61.353 C 85.500 61.604,85.612 61.922,85.750 62.060 C 85.888 62.197,86.000 62.535,86.000 62.810 C 86.000 63.085,86.112 63.422,86.250 63.560 C 86.388 63.697,86.500 64.026,86.500 64.290 C 86.500 64.554,86.610 64.915,86.745 65.093 C 86.879 65.271,86.992 65.651,86.995 65.938 C 86.998 66.225,87.103 66.544,87.228 66.649 C 87.354 66.753,87.499 67.154,87.551 67.541 C 87.603 67.927,87.725 68.269,87.823 68.302 C 87.920 68.334,88.000 68.524,88.001 68.722 C 88.002 68.921,88.114 69.298,88.251 69.561 C 88.388 69.823,88.500 70.212,88.500 70.424 C 88.500 70.636,88.610 70.920,88.745 71.055 C 88.880 71.190,89.041 71.614,89.102 71.998 C 89.164 72.381,89.316 72.734,89.440 72.782 C 89.578 72.835,89.667 73.126,89.667 73.523 C 89.667 73.951,89.753 74.210,89.917 74.273 C 90.080 74.336,90.167 74.595,90.167 75.023 C 90.167 75.451,90.253 75.710,90.417 75.773 C 90.580 75.836,90.667 76.095,90.667 76.523 C 90.667 76.951,90.753 77.210,90.917 77.273 C 91.079 77.335,91.167 77.594,91.167 78.006 C 91.167 78.356,91.279 78.755,91.417 78.893 C 91.554 79.030,91.667 79.413,91.667 79.743 C 91.667 80.123,91.758 80.379,91.917 80.440 C 92.054 80.492,92.167 80.700,92.167 80.901 C 92.167 81.551,92.473 81.667,94.200 81.667 L 95.833 81.667 95.833 81.184 C 95.833 80.910,95.941 80.661,96.083 80.606 C 96.255 80.541,96.333 80.273,96.333 79.755 C 96.333 79.195,96.398 79.000,96.583 79.000 C 96.769 79.000,96.833 78.806,96.833 78.250 C 96.833 77.694,96.898 77.500,97.083 77.500 C 97.272 77.500,97.333 77.296,97.333 76.667 C 97.333 76.037,97.394 75.833,97.583 75.833 C 97.768 75.833,97.833 75.641,97.833 75.103 C 97.833 74.512,97.897 74.355,98.167 74.285 C 98.430 74.216,98.500 74.058,98.500 73.533 C 98.500 73.097,98.586 72.836,98.750 72.773 C 98.921 72.707,99.000 72.439,99.000 71.922 C 99.000 71.362,99.065 71.167,99.250 71.167 C 99.423 71.167,99.500 70.993,99.500 70.604 C 99.500 70.294,99.612 69.947,99.750 69.833 C 99.888 69.719,100.000 69.367,100.000 69.051 C 100.000 68.735,100.112 68.364,100.250 68.226 C 100.388 68.089,100.500 67.766,100.500 67.509 C 100.500 67.251,100.612 66.947,100.750 66.833 C 100.888 66.719,101.000 66.370,101.000 66.058 C 101.000 65.706,101.095 65.453,101.250 65.394 C 101.420 65.328,101.500 65.063,101.500 64.566 C 101.500 64.053,101.569 63.833,101.731 63.833 C 101.961 63.833,102.160 63.350,102.164 62.780 C 102.166 62.613,102.279 62.364,102.417 62.226 C 102.554 62.089,102.667 61.717,102.667 61.400 C 102.667 61.041,102.761 60.787,102.917 60.727 C 103.086 60.662,103.167 60.396,103.167 59.899 C 103.167 59.359,103.232 59.167,103.417 59.167 C 103.602 59.167,103.667 58.972,103.667 58.417 C 103.667 57.861,103.731 57.667,103.917 57.667 C 104.101 57.667,104.167 57.474,104.167 56.934 C 104.167 56.437,104.247 56.172,104.417 56.106 C 104.588 56.041,104.667 55.773,104.667 55.255 C 104.667 54.695,104.731 54.500,104.917 54.500 C 105.102 54.500,105.167 54.306,105.167 53.750 C 105.167 53.194,105.231 53.000,105.417 53.000 C 105.605 53.000,105.667 52.798,105.667 52.186 C 105.667 51.512,105.724 51.357,106.000 51.285 C 106.265 51.216,106.333 51.058,106.333 50.516 C 106.333 50.020,106.402 49.833,106.583 49.833 C 106.768 49.833,106.833 49.641,106.833 49.101 C 106.833 48.604,106.914 48.338,107.083 48.273 C 107.255 48.207,107.333 47.939,107.333 47.422 C 107.333 46.862,107.398 46.667,107.583 46.667 C 107.764 46.667,107.833 46.481,107.833 45.995 C 107.833 45.551,107.918 45.290,108.083 45.227 C 108.228 45.172,108.333 44.922,108.333 44.637 C 108.333 44.365,108.446 44.030,108.583 43.893 C 108.721 43.755,108.833 43.383,108.833 43.066 C 108.833 42.707,108.928 42.453,109.083 42.394 C 109.246 42.331,109.333 42.072,109.333 41.649 C 109.333 41.111,109.390 41.000,109.667 41.000 C 109.945 41.000,110.000 41.111,110.000 41.672 C 110.000 42.115,110.085 42.376,110.250 42.440 C 110.420 42.505,110.500 42.771,110.500 43.268 C 110.500 43.808,110.566 44.000,110.750 44.000 C 110.929 44.000,111.000 44.183,111.000 44.646 C 111.000 45.002,111.103 45.378,111.228 45.482 C 111.354 45.586,111.499 45.988,111.551 46.374 C 111.603 46.760,111.725 47.103,111.823 47.135 C 111.920 47.168,112.000 47.404,112.000 47.660 C 112.000 47.916,112.112 48.219,112.250 48.333 C 112.388 48.447,112.500 48.783,112.500 49.078 C 112.500 49.403,112.631 49.734,112.833 49.917 C 113.036 50.100,113.167 50.430,113.167 50.758 C 113.167 51.084,113.266 51.336,113.417 51.394 C 113.588 51.459,113.667 51.727,113.667 52.245 C 113.667 52.805,113.731 53.000,113.917 53.000 C 114.102 53.000,114.167 53.194,114.167 53.750 C 114.167 54.306,114.231 54.500,114.417 54.500 C 114.601 54.500,114.667 54.692,114.667 55.232 C 114.667 55.729,114.747 55.995,114.917 56.060 C 115.082 56.124,115.167 56.385,115.167 56.833 C 115.167 57.281,115.251 57.543,115.417 57.606 C 115.586 57.672,115.667 57.937,115.667 58.434 C 115.667 58.974,115.732 59.167,115.917 59.167 C 116.096 59.167,116.167 59.350,116.167 59.813 C 116.167 60.184,116.273 60.548,116.417 60.667 C 116.554 60.781,116.667 61.084,116.667 61.340 C 116.667 61.975,116.823 62.333,117.101 62.333 C 117.265 62.333,117.333 62.553,117.333 63.083 C 117.333 63.639,117.398 63.833,117.583 63.833 C 117.769 63.833,117.833 64.028,117.833 64.589 C 117.833 65.106,117.912 65.374,118.083 65.440 C 118.235 65.498,118.333 65.750,118.333 66.081 C 118.333 66.381,118.446 66.719,118.583 66.833 C 118.721 66.947,118.833 67.289,118.833 67.592 C 118.833 67.895,118.946 68.255,119.083 68.393 C 119.221 68.530,119.333 68.868,119.333 69.143 C 119.333 69.418,119.446 69.755,119.583 69.893 C 119.721 70.030,119.833 70.373,119.833 70.655 C 119.833 70.999,119.915 71.167,120.083 71.167 C 120.269 71.167,120.333 71.363,120.333 71.932 C 120.333 72.558,120.394 72.714,120.667 72.785 C 120.936 72.855,121.000 73.012,121.000 73.603 C 121.000 74.141,121.066 74.333,121.250 74.333 C 121.435 74.333,121.500 74.528,121.500 75.083 C 121.500 75.639,121.565 75.833,121.750 75.833 C 121.939 75.833,122.000 76.037,122.000 76.667 C 122.000 77.296,122.061 77.500,122.250 77.500 C 122.435 77.500,122.500 77.694,122.500 78.250 C 122.500 78.806,122.565 79.000,122.750 79.000 C 122.935 79.000,123.000 79.194,123.000 79.742 C 123.000 80.204,123.088 80.534,123.234 80.617 C 123.363 80.690,123.494 80.938,123.526 81.167 C 123.583 81.578,123.605 81.584,125.375 81.631 L 127.167 81.678 127.167 81.167 C 127.167 80.867,127.270 80.617,127.417 80.560 C 127.586 80.495,127.667 80.229,127.667 79.732 C 127.667 79.192,127.732 79.000,127.917 79.000 C 128.101 79.000,128.167 78.808,128.167 78.268 C 128.167 77.771,128.247 77.505,128.417 77.440 C 128.588 77.374,128.667 77.106,128.667 76.589 C 128.667 76.028,128.731 75.833,128.917 75.833 C 129.102 75.833,129.167 75.639,129.167 75.083 C 129.167 74.553,129.235 74.333,129.399 74.333 C 129.680 74.333,129.833 73.974,129.833 73.314 C 129.833 73.031,129.939 72.782,130.083 72.727 C 130.253 72.662,130.333 72.396,130.333 71.899 C 130.333 71.359,130.399 71.167,130.583 71.167 C 130.768 71.167,130.833 70.974,130.833 70.434 C 130.833 69.937,130.914 69.672,131.083 69.606 C 131.255 69.541,131.333 69.273,131.333 68.755 C 131.333 68.195,131.398 68.000,131.583 68.000 C 131.748 68.000,131.833 67.836,131.833 67.520 C 131.833 67.257,131.946 66.947,132.083 66.833 C 132.225 66.716,132.333 66.353,132.333 65.997 C 132.333 65.593,132.422 65.335,132.583 65.273 C 132.747 65.210,132.833 64.951,132.833 64.523 C 132.833 64.107,132.921 63.835,133.074 63.777 C 133.207 63.726,133.367 63.399,133.431 63.050 C 133.495 62.702,133.649 62.269,133.774 62.088 C 133.898 61.907,134.000 61.521,134.000 61.231 C 134.000 60.915,134.101 60.664,134.250 60.606 C 134.413 60.544,134.500 60.284,134.500 59.856 C 134.500 59.429,134.587 59.169,134.750 59.106 C 134.913 59.044,135.000 58.784,135.000 58.356 C 135.000 57.929,135.087 57.669,135.250 57.606 C 135.421 57.541,135.500 57.273,135.500 56.755 C 135.500 56.195,135.565 56.000,135.750 56.000 C 135.935 56.000,136.000 55.806,136.000 55.250 C 136.000 54.694,136.065 54.500,136.250 54.500 C 136.434 54.500,136.500 54.308,136.500 53.768 C 136.500 53.271,136.580 53.005,136.750 52.940 C 136.921 52.874,137.000 52.606,137.000 52.089 C 137.000 51.554,137.068 51.333,137.232 51.333 C 137.510 51.333,137.667 50.975,137.667 50.338 C 137.667 50.075,137.776 49.827,137.917 49.773 C 138.082 49.710,138.167 49.448,138.167 49.000 C 138.167 48.552,138.251 48.290,138.417 48.227 C 138.585 48.162,138.667 47.898,138.667 47.417 C 138.667 46.935,138.748 46.671,138.917 46.606 C 139.080 46.544,139.167 46.284,139.167 45.856 C 139.167 45.429,139.253 45.169,139.417 45.106 C 139.554 45.054,139.669 44.802,139.672 44.547 C 139.675 44.292,139.787 43.938,139.922 43.760 C 140.057 43.582,140.167 43.220,140.167 42.956 C 140.167 42.692,140.279 42.364,140.417 42.226 C 140.554 42.089,140.667 41.750,140.667 41.473 C 140.667 41.196,140.817 40.779,141.000 40.545 C 141.183 40.312,141.333 39.990,141.333 39.830 C 141.333 39.669,141.445 39.323,141.582 39.061 C 141.719 38.798,141.832 38.409,141.832 38.196 C 141.833 37.984,141.946 37.697,142.083 37.560 C 142.221 37.422,142.333 37.015,142.333 36.655 C 142.333 36.295,142.408 36.000,142.500 36.000 C 142.882 36.000,142.668 35.054,142.242 34.860 C 140.869 34.234,138.667 34.718,138.667 35.645 C 138.667 36.071,138.580 36.331,138.417 36.394 C 138.253 36.456,138.167 36.716,138.167 37.144 C 138.167 37.571,138.080 37.831,137.917 37.894 C 137.745 37.959,137.667 38.227,137.667 38.745 C 137.667 39.305,137.602 39.500,137.417 39.500 C 137.231 39.500,137.167 39.694,137.167 40.250 C 137.167 40.806,137.102 41.000,136.917 41.000 C 136.733 41.000,136.667 41.190,136.667 41.713 C 136.667 42.220,136.570 42.508,136.333 42.711 C 136.121 42.893,136.000 43.203,136.000 43.564 C 136.000 43.914,135.904 44.168,135.750 44.227 C 135.592 44.288,135.500 44.543,135.500 44.923 C 135.500 45.254,135.387 45.636,135.250 45.774 C 135.112 45.911,135.000 46.310,135.000 46.661 C 135.000 47.073,134.912 47.331,134.750 47.394 C 134.585 47.457,134.500 47.718,134.500 48.161 C 134.500 48.648,134.431 48.833,134.250 48.833 C 134.066 48.833,134.000 49.026,134.000 49.566 C 134.000 50.063,133.920 50.328,133.750 50.394 C 133.579 50.459,133.500 50.727,133.500 51.245 C 133.500 51.805,133.435 52.000,133.250 52.000 C 133.065 52.000,133.000 52.194,133.000 52.750 C 133.000 53.277,132.932 53.500,132.769 53.500 C 132.526 53.500,132.339 53.990,132.336 54.637 C 132.334 54.850,132.221 55.136,132.083 55.274 C 131.946 55.411,131.833 55.773,131.833 56.077 C 131.833 56.416,131.736 56.668,131.583 56.727 C 131.420 56.790,131.333 57.049,131.333 57.477 C 131.333 57.905,131.247 58.164,131.083 58.227 C 130.913 58.292,130.833 58.559,130.833 59.060 C 130.833 59.562,130.753 59.828,130.583 59.894 C 130.420 59.956,130.333 60.216,130.333 60.644 C 130.333 61.071,130.247 61.331,130.083 61.394 C 129.918 61.457,129.833 61.719,129.833 62.167 C 129.833 62.615,129.749 62.876,129.583 62.940 C 129.414 63.005,129.333 63.271,129.333 63.768 C 129.333 64.308,129.268 64.500,129.083 64.500 C 128.903 64.500,128.833 64.685,128.833 65.167 C 128.833 65.611,128.722 65.944,128.500 66.167 C 128.311 66.355,128.167 66.722,128.167 67.012 C 128.167 67.293,128.054 67.636,127.917 67.774 C 127.779 67.911,127.667 68.249,127.667 68.524 C 127.667 68.799,127.554 69.136,127.417 69.274 C 127.279 69.411,127.167 69.810,127.167 70.161 C 127.167 70.573,127.079 70.831,126.917 70.894 C 126.753 70.956,126.667 71.216,126.667 71.644 C 126.667 72.071,126.580 72.331,126.417 72.394 C 126.253 72.456,126.167 72.716,126.167 73.144 C 126.167 73.571,126.080 73.831,125.917 73.894 C 125.747 73.959,125.667 74.225,125.667 74.725 C 125.667 75.321,125.603 75.478,125.333 75.548 C 125.042 75.624,125.000 75.553,125.000 74.984 C 125.000 74.517,124.930 74.333,124.750 74.333 C 124.565 74.333,124.500 74.139,124.500 73.583 C 124.500 73.028,124.435 72.833,124.250 72.833 C 124.065 72.833,124.000 72.638,124.000 72.078 C 124.000 71.561,123.921 71.293,123.750 71.227 C 123.580 71.162,123.500 70.896,123.500 70.399 C 123.500 69.859,123.434 69.667,123.250 69.667 C 123.065 69.667,123.000 69.472,123.000 68.917 C 123.000 68.361,122.935 68.167,122.750 68.167 C 122.566 68.167,122.500 67.974,122.500 67.434 C 122.500 66.937,122.420 66.672,122.250 66.606 C 122.084 66.543,122.000 66.280,122.000 65.823 C 122.000 65.276,121.932 65.118,121.667 65.048 C 121.397 64.978,121.333 64.821,121.333 64.231 C 121.333 63.692,121.268 63.500,121.083 63.500 C 120.898 63.500,120.833 63.305,120.833 62.745 C 120.833 62.227,120.755 61.959,120.583 61.894 C 120.420 61.831,120.333 61.571,120.333 61.144 C 120.333 60.716,120.247 60.456,120.083 60.394 C 119.914 60.328,119.833 60.063,119.833 59.566 C 119.833 59.026,119.768 58.833,119.583 58.833 C 119.398 58.833,119.333 58.638,119.333 58.078 C 119.333 57.561,119.255 57.293,119.083 57.227 C 118.931 57.168,118.833 56.916,118.833 56.577 C 118.833 56.273,118.734 55.924,118.612 55.802 C 118.490 55.680,118.342 55.282,118.282 54.917 C 118.223 54.551,118.098 54.227,118.004 54.196 C 117.910 54.164,117.833 53.913,117.833 53.637 C 117.833 53.276,117.740 53.111,117.500 53.048 C 117.231 52.978,117.167 52.821,117.167 52.231 C 117.167 51.692,117.101 51.500,116.917 51.500 C 116.728 51.500,116.667 51.296,116.667 50.667 C 116.667 50.037,116.606 49.833,116.417 49.833 C 116.231 49.833,116.167 49.639,116.167 49.083 C 116.167 48.528,116.102 48.333,115.917 48.333 C 115.731 48.333,115.667 48.138,115.667 47.578 C 115.667 47.061,115.588 46.793,115.417 46.727 C 115.253 46.664,115.167 46.405,115.167 45.977 C 115.167 45.549,115.080 45.290,114.917 45.227 C 114.747 45.162,114.667 44.896,114.667 44.399 C 114.667 43.859,114.601 43.667,114.417 43.667 C 114.243 43.667,114.167 43.492,114.167 43.097 C 114.167 42.363,114.023 42.000,113.732 42.000 C 113.568 42.000,113.500 41.780,113.500 41.250 C 113.500 40.694,113.435 40.500,113.250 40.500 C 113.065 40.500,113.000 40.306,113.000 39.750 C 113.000 39.194,112.935 39.000,112.750 39.000 C 112.565 39.000,112.500 38.805,112.500 38.245 C 112.500 37.727,112.421 37.459,112.250 37.394 C 112.097 37.335,112.000 37.082,112.000 36.744 C 112.000 36.440,111.888 36.078,111.750 35.940 C 111.612 35.803,111.500 35.506,111.500 35.280 C 111.500 34.753,111.249 34.667,109.725 34.667 C 108.295 34.667,107.833 34.847,107.833 35.405 C 107.833 35.621,107.721 35.841,107.583 35.894 C 107.420 35.956,107.333 36.216,107.333 36.641 C 107.333 37.017,107.228 37.380,107.083 37.500 C 106.940 37.619,106.833 37.983,106.833 38.354 C 106.833 38.817,106.763 39.000,106.583 39.000 C 106.398 39.000,106.333 39.194,106.333 39.750 C 106.333 40.306,106.269 40.500,106.083 40.500 C 105.899 40.500,105.833 40.692,105.833 41.232 C 105.833 41.729,105.753 41.995,105.583 42.060 C 105.412 42.126,105.333 42.394,105.333 42.911 C 105.333 43.446,105.265 43.667,105.101 43.667 C 104.823 43.667,104.667 44.025,104.667 44.662 C 104.667 44.925,104.557 45.173,104.417 45.227 C 104.253 45.290,104.167 45.549,104.167 45.974 C 104.167 46.350,104.061 46.714,103.917 46.833 C 103.775 46.951,103.667 47.314,103.667 47.669 C 103.667 48.074,103.578 48.332,103.417 48.394 C 103.253 48.456,103.167 48.716,103.167 49.144 C 103.167 49.571,103.080 49.831,102.917 49.894 C 102.779 49.946,102.664 50.198,102.661 50.453 C 102.658 50.708,102.546 51.062,102.411 51.240 C 102.277 51.418,102.167 51.780,102.167 52.044 C 102.167 52.308,102.054 52.636,101.917 52.774 C 101.779 52.911,101.667 53.273,101.667 53.577 C 101.667 53.906,101.569 54.169,101.426 54.223 C 101.293 54.274,101.133 54.594,101.069 54.934 C 101.005 55.274,100.852 55.747,100.728 55.984 C 100.604 56.222,100.502 56.591,100.501 56.804 C 100.500 57.016,100.388 57.303,100.250 57.440 C 100.112 57.578,100.000 57.940,100.000 58.244 C 100.000 58.582,99.903 58.835,99.750 58.894 C 99.592 58.954,99.500 59.210,99.500 59.590 C 99.500 59.920,99.388 60.303,99.250 60.440 C 99.112 60.578,99.000 60.950,99.000 61.267 C 99.000 61.626,98.906 61.880,98.750 61.940 C 98.580 62.005,98.500 62.271,98.500 62.768 C 98.500 63.308,98.434 63.500,98.250 63.500 C 98.066 63.500,98.000 63.692,98.000 64.232 C 98.000 64.729,97.920 64.995,97.750 65.060 C 97.579 65.126,97.500 65.394,97.500 65.911 C 97.500 66.443,97.432 66.667,97.269 66.667 C 97.031 66.667,96.840 67.154,96.836 67.774 C 96.834 67.970,96.721 68.174,96.583 68.227 C 96.425 68.288,96.333 68.543,96.333 68.923 C 96.333 69.254,96.221 69.636,96.083 69.774 C 95.946 69.911,95.833 70.310,95.833 70.661 C 95.833 71.073,95.745 71.331,95.583 71.394 C 95.440 71.448,95.333 71.697,95.333 71.974 C 95.333 72.241,95.221 72.553,95.083 72.667 C 94.946 72.781,94.833 73.133,94.833 73.449 C 94.833 73.765,94.721 74.136,94.583 74.274 C 94.446 74.411,94.333 74.743,94.333 75.012 C 94.333 75.389,94.257 75.500,94.000 75.500 C 93.711 75.500,93.667 75.389,93.667 74.667 C 93.667 74.037,93.606 73.833,93.417 73.833 C 93.231 73.833,93.167 73.639,93.167 73.083 C 93.167 72.528,93.102 72.333,92.917 72.333 C 92.731 72.333,92.667 72.138,92.667 71.578 C 92.667 71.061,92.588 70.793,92.417 70.727 C 92.247 70.662,92.167 70.396,92.167 69.899 C 92.167 69.359,92.101 69.167,91.917 69.167 C 91.731 69.167,91.667 68.972,91.667 68.417 C 91.667 67.861,91.602 67.667,91.417 67.667 C 91.228 67.667,91.167 67.463,91.167 66.833 C 91.167 66.204,91.106 66.000,90.917 66.000 C 90.731 66.000,90.667 65.806,90.667 65.250 C 90.667 64.611,90.617 64.500,90.333 64.500 C 90.044 64.500,90.000 64.389,90.000 63.667 C 90.000 63.037,89.939 62.833,89.750 62.833 C 89.565 62.833,89.500 62.639,89.500 62.083 C 89.500 61.528,89.435 61.333,89.250 61.333 C 89.065 61.333,89.000 61.139,89.000 60.583 C 89.000 60.028,88.935 59.833,88.750 59.833 C 88.561 59.833,88.500 59.630,88.500 59.000 C 88.500 58.370,88.439 58.167,88.250 58.167 C 88.065 58.167,88.000 57.972,88.000 57.417 C 88.000 56.861,87.935 56.667,87.750 56.667 C 87.565 56.667,87.500 56.472,87.500 55.911 C 87.500 55.394,87.421 55.126,87.250 55.060 C 87.087 54.998,87.000 54.738,87.000 54.310 C 87.000 53.883,86.913 53.623,86.750 53.560 C 86.580 53.495,86.500 53.229,86.500 52.732 C 86.500 52.111,86.449 52.000,86.167 52.000 C 85.878 52.000,85.833 51.889,85.833 51.167 C 85.833 50.537,85.772 50.333,85.583 50.333 C 85.398 50.333,85.333 50.139,85.333 49.583 C 85.333 49.028,85.269 48.833,85.083 48.833 C 84.898 48.833,84.833 48.638,84.833 48.078 C 84.833 47.561,84.755 47.293,84.583 47.227 C 84.415 47.162,84.333 46.898,84.333 46.417 C 84.333 45.935,84.252 45.671,84.083 45.606 C 83.918 45.543,83.833 45.282,83.833 44.839 C 83.833 44.352,83.764 44.167,83.583 44.167 C 83.399 44.167,83.333 43.974,83.333 43.437 C 83.333 42.992,83.236 42.627,83.083 42.500 C 82.946 42.386,82.833 42.051,82.833 41.755 C 82.833 41.430,82.702 41.099,82.500 40.917 C 82.298 40.734,82.167 40.403,82.167 40.078 C 82.167 39.783,82.054 39.447,81.917 39.333 C 81.776 39.216,81.667 38.853,81.667 38.500 C 81.667 38.147,81.558 37.784,81.417 37.667 C 81.279 37.553,81.167 37.211,81.167 36.908 C 81.167 36.605,81.054 36.245,80.917 36.107 C 80.779 35.970,80.667 35.635,80.667 35.363 C 80.667 35.066,80.561 34.829,80.403 34.768 C 79.915 34.581,77.409 34.658,77.200 34.867 M152.444 34.778 C 152.383 34.839,152.333 45.414,152.333 58.278 L 152.333 81.667 154.050 81.667 L 155.766 81.667 155.967 81.113 C 156.227 80.393,156.260 36.077,156.000 35.917 C 155.908 35.860,155.833 35.602,155.833 35.343 C 155.833 34.996,155.735 34.846,155.458 34.772 C 154.948 34.635,152.583 34.640,152.444 34.778 M185.939 34.912 C 185.677 35.052,185.114 35.168,184.689 35.169 C 183.679 35.172,183.167 35.318,183.167 35.603 C 183.167 35.765,182.943 35.833,182.411 35.833 C 181.894 35.833,181.626 35.912,181.560 36.083 C 181.498 36.247,181.238 36.333,180.810 36.333 C 180.383 36.333,180.123 36.420,180.060 36.583 C 180.007 36.723,179.759 36.833,179.500 36.833 C 179.241 36.833,178.993 36.944,178.940 37.083 C 178.887 37.221,178.652 37.333,178.417 37.333 C 178.182 37.333,177.949 37.439,177.899 37.568 C 177.850 37.698,177.640 37.846,177.433 37.898 C 177.227 37.949,176.854 38.181,176.605 38.411 C 176.356 38.642,175.968 38.877,175.743 38.933 C 175.518 38.990,175.333 39.141,175.333 39.268 C 175.333 39.396,175.218 39.500,175.078 39.500 C 174.938 39.500,174.780 39.612,174.727 39.750 C 174.674 39.887,174.527 40.000,174.399 40.000 C 174.271 40.000,174.167 40.112,174.167 40.250 C 174.167 40.387,174.097 40.500,174.012 40.500 C 173.798 40.500,172.682 41.223,172.674 41.366 C 172.670 41.430,172.477 41.687,172.246 41.937 C 172.014 42.187,171.658 42.607,171.454 42.871 C 171.250 43.135,170.840 43.615,170.542 43.938 C 170.244 44.260,170.000 44.633,170.000 44.767 C 170.000 44.902,169.775 45.231,169.500 45.500 C 169.225 45.769,169.000 46.144,169.000 46.333 C 169.000 46.522,168.887 46.720,168.750 46.773 C 168.612 46.826,168.500 47.051,168.500 47.273 C 168.500 47.495,168.387 47.720,168.250 47.773 C 168.111 47.827,168.000 48.074,168.000 48.333 C 168.000 48.592,167.889 48.840,167.750 48.894 C 167.612 48.946,167.500 49.163,167.500 49.374 C 167.500 49.586,167.397 49.907,167.271 50.088 C 167.146 50.269,166.988 50.665,166.922 50.970 C 166.856 51.274,166.697 51.724,166.569 51.970 C 166.437 52.222,166.335 52.902,166.334 53.528 C 166.334 54.268,166.264 54.662,166.125 54.708 C 165.839 54.804,165.828 61.264,166.113 61.848 C 166.221 62.069,166.344 62.763,166.387 63.390 C 166.429 64.018,166.547 64.614,166.649 64.715 C 166.750 64.817,166.836 65.054,166.839 65.242 C 166.842 65.430,166.990 65.883,167.167 66.250 C 167.344 66.617,167.491 67.076,167.494 67.271 C 167.497 67.466,167.605 67.713,167.734 67.820 C 167.862 67.926,168.014 68.198,168.070 68.424 C 168.127 68.649,168.247 68.833,168.337 68.833 C 168.426 68.833,168.500 69.023,168.500 69.255 C 168.500 69.487,168.612 69.720,168.750 69.773 C 168.887 69.826,169.000 70.013,169.000 70.190 C 169.000 70.366,169.112 70.554,169.250 70.606 C 169.387 70.659,169.500 70.842,169.500 71.012 C 169.500 71.182,169.719 71.546,169.986 71.819 C 170.253 72.093,170.516 72.454,170.569 72.623 C 170.623 72.791,171.004 73.286,171.417 73.723 C 171.829 74.160,172.167 74.588,172.167 74.675 C 172.167 74.762,172.279 74.833,172.417 74.833 C 172.554 74.833,172.667 74.946,172.667 75.083 C 172.667 75.221,172.740 75.333,172.830 75.333 C 172.920 75.333,173.277 75.593,173.622 75.910 C 174.619 76.825,174.759 76.936,175.054 77.049 C 175.208 77.108,175.333 77.234,175.333 77.328 C 175.333 77.423,175.414 77.500,175.512 77.500 C 175.610 77.500,175.803 77.613,175.940 77.750 C 176.078 77.887,176.335 78.000,176.512 78.000 C 176.689 78.000,176.833 78.112,176.833 78.250 C 176.833 78.387,176.937 78.500,177.063 78.500 C 177.189 78.500,177.386 78.612,177.500 78.750 C 177.614 78.887,177.877 79.000,178.083 79.000 C 178.290 79.000,178.553 79.113,178.667 79.250 C 178.781 79.387,179.043 79.500,179.250 79.500 C 179.457 79.500,179.719 79.612,179.833 79.750 C 179.947 79.887,180.257 80.000,180.520 80.000 C 180.818 80.000,181.000 80.088,181.000 80.231 C 181.000 80.469,181.487 80.660,182.105 80.664 C 182.300 80.666,182.553 80.779,182.667 80.917 C 182.805 81.083,183.178 81.167,183.782 81.167 C 184.367 81.167,184.779 81.256,184.940 81.417 C 185.314 81.791,195.519 81.791,195.893 81.417 C 196.034 81.276,196.441 81.167,196.827 81.167 C 197.281 81.167,197.543 81.083,197.606 80.917 C 197.671 80.748,197.936 80.667,198.421 80.667 C 199.298 80.667,199.667 80.538,199.667 80.232 C 199.667 80.078,199.863 80.000,200.250 80.000 C 200.657 80.000,200.833 79.925,200.833 79.750 C 200.833 79.583,201.000 79.500,201.333 79.500 C 201.667 79.500,201.833 79.417,201.833 79.250 C 201.833 79.083,202.000 79.000,202.333 79.000 C 202.667 79.000,202.833 78.917,202.833 78.750 C 202.833 78.583,203.000 78.500,203.333 78.500 C 203.667 78.500,203.833 78.417,203.833 78.250 C 203.833 78.112,203.948 78.000,204.089 78.000 C 204.229 78.000,204.387 77.887,204.440 77.750 C 204.492 77.612,204.629 77.500,204.742 77.500 C 204.856 77.500,205.107 77.369,205.299 77.208 C 205.492 77.048,205.838 76.767,206.067 76.583 C 206.297 76.400,206.488 76.156,206.492 76.042 C 206.497 75.927,206.612 75.833,206.750 75.833 C 206.969 75.833,207.000 74.713,207.000 66.750 L 207.000 57.667 205.270 57.667 C 202.863 57.667,203.091 56.823,203.041 65.900 C 202.998 73.614,202.965 74.333,202.663 74.333 C 202.574 74.333,202.350 74.483,202.167 74.667 C 201.983 74.850,201.721 75.000,201.583 75.000 C 201.446 75.000,201.333 75.112,201.333 75.250 C 201.333 75.387,201.230 75.500,201.104 75.500 C 200.977 75.500,200.781 75.612,200.667 75.750 C 200.553 75.888,200.241 76.000,199.974 76.000 C 199.697 76.000,199.448 76.107,199.394 76.250 C 199.340 76.389,199.093 76.500,198.836 76.500 C 198.582 76.500,198.281 76.612,198.167 76.750 C 198.049 76.892,197.685 77.000,197.325 77.000 C 196.976 77.000,196.578 77.112,196.440 77.250 C 196.288 77.403,195.878 77.500,195.387 77.501 C 194.945 77.502,194.369 77.614,194.106 77.751 C 193.417 78.111,187.236 78.105,186.760 77.745 C 186.563 77.596,186.064 77.500,185.486 77.500 C 184.795 77.500,184.509 77.432,184.440 77.250 C 184.377 77.087,184.118 77.000,183.692 77.000 C 183.317 77.000,182.953 76.894,182.833 76.750 C 182.719 76.612,182.442 76.500,182.218 76.500 C 181.993 76.500,181.697 76.387,181.560 76.250 C 181.422 76.112,181.142 76.000,180.938 76.000 C 180.734 76.000,180.483 75.916,180.381 75.814 C 180.163 75.596,179.634 75.287,178.875 74.935 C 178.577 74.797,178.333 74.605,178.333 74.509 C 178.333 74.412,178.240 74.332,178.125 74.331 C 178.010 74.329,177.663 74.104,177.352 73.831 C 177.042 73.557,176.648 73.333,176.477 73.333 C 176.307 73.333,176.167 73.221,176.167 73.083 C 176.167 72.946,176.054 72.833,175.917 72.833 C 175.779 72.833,175.667 72.721,175.667 72.583 C 175.667 72.446,175.554 72.333,175.417 72.333 C 175.279 72.333,175.167 72.221,175.167 72.083 C 175.167 71.946,175.054 71.833,174.917 71.833 C 174.778 71.833,174.667 71.685,174.667 71.500 C 174.667 71.315,174.556 71.167,174.417 71.167 C 174.264 71.167,174.167 71.011,174.167 70.768 C 174.167 70.548,174.054 70.326,173.917 70.273 C 173.779 70.220,173.667 70.062,173.667 69.922 C 173.667 69.782,173.554 69.667,173.417 69.667 C 173.279 69.667,173.167 69.563,173.167 69.437 C 173.167 69.311,173.054 69.114,172.917 69.000 C 172.779 68.886,172.667 68.652,172.667 68.480 C 172.667 68.278,172.548 68.167,172.333 68.167 C 172.063 68.167,172.000 68.056,172.000 67.583 C 172.000 67.176,171.925 67.000,171.750 67.000 C 171.583 67.000,171.500 66.833,171.500 66.500 C 171.500 66.167,171.417 66.000,171.250 66.000 C 171.065 66.000,171.000 65.806,171.000 65.250 C 171.000 64.694,170.935 64.500,170.750 64.500 C 170.555 64.500,170.500 64.277,170.500 63.495 C 170.500 62.755,170.434 62.464,170.250 62.394 C 170.037 62.312,170.000 61.692,170.000 58.227 C 170.000 54.762,170.037 54.142,170.250 54.060 C 170.424 53.993,170.500 53.722,170.500 53.167 C 170.500 52.611,170.576 52.340,170.750 52.273 C 170.915 52.210,171.000 51.949,171.000 51.505 C 171.000 51.019,171.069 50.833,171.250 50.833 C 171.415 50.833,171.500 50.669,171.500 50.351 C 171.500 50.076,171.607 49.828,171.750 49.773 C 171.896 49.717,172.000 49.467,172.000 49.172 C 172.000 48.830,172.082 48.667,172.254 48.667 C 172.403 48.667,172.550 48.460,172.608 48.167 C 172.663 47.892,172.811 47.667,172.938 47.667 C 173.064 47.667,173.167 47.586,173.167 47.488 C 173.167 47.390,173.279 47.197,173.417 47.060 C 173.554 46.922,173.667 46.665,173.667 46.488 C 173.667 46.311,173.779 46.167,173.917 46.167 C 174.054 46.167,174.167 46.054,174.167 45.917 C 174.167 45.779,174.279 45.667,174.417 45.667 C 174.554 45.667,174.667 45.554,174.667 45.417 C 174.667 45.279,174.779 45.167,174.917 45.167 C 175.054 45.167,175.170 45.073,175.174 44.958 C 175.178 44.844,175.403 44.566,175.674 44.341 C 175.945 44.116,176.167 43.835,176.167 43.716 C 176.167 43.597,176.282 43.500,176.422 43.500 C 176.562 43.500,176.720 43.387,176.773 43.250 C 176.826 43.112,176.973 43.000,177.101 43.000 C 177.229 43.000,177.333 42.887,177.333 42.750 C 177.333 42.594,177.491 42.500,177.755 42.500 C 177.987 42.500,178.220 42.387,178.273 42.250 C 178.326 42.112,178.473 42.000,178.601 42.000 C 178.729 42.000,178.833 41.887,178.833 41.750 C 178.833 41.594,178.991 41.500,179.255 41.500 C 179.487 41.500,179.720 41.387,179.773 41.250 C 179.826 41.112,180.051 41.000,180.273 41.000 C 180.495 41.000,180.720 40.887,180.773 40.750 C 180.826 40.612,181.005 40.500,181.171 40.500 C 181.651 40.500,182.000 40.317,182.000 40.066 C 182.000 39.905,182.209 39.833,182.672 39.833 C 183.115 39.833,183.376 39.748,183.440 39.583 C 183.504 39.415,183.769 39.333,184.250 39.333 C 184.731 39.333,184.996 39.252,185.060 39.083 C 185.133 38.894,185.441 38.833,186.333 38.833 C 187.226 38.833,187.534 38.773,187.606 38.583 C 187.685 38.379,188.093 38.333,189.833 38.333 C 191.574 38.333,191.982 38.379,192.060 38.583 C 192.137 38.784,192.505 38.833,193.911 38.833 C 195.361 38.833,195.667 38.877,195.667 39.083 C 195.667 39.278,195.889 39.333,196.667 39.333 C 197.444 39.333,197.667 39.389,197.667 39.583 C 197.667 39.758,197.843 39.833,198.250 39.833 C 198.662 39.833,198.833 39.908,198.833 40.087 C 198.833 40.235,199.038 40.383,199.323 40.440 C 199.592 40.493,199.852 40.641,199.901 40.769 C 199.950 40.896,200.179 41.000,200.411 41.000 C 200.643 41.000,200.833 41.074,200.833 41.163 C 200.833 41.253,201.035 41.378,201.281 41.439 C 201.527 41.501,201.937 41.765,202.192 42.026 C 202.460 42.300,202.833 42.500,203.078 42.500 C 203.342 42.500,203.500 42.594,203.500 42.750 C 203.500 42.887,203.612 43.000,203.750 43.000 C 203.887 43.000,204.000 43.112,204.000 43.250 C 204.000 43.444,204.222 43.500,205.000 43.500 C 205.750 43.500,206.000 43.441,206.000 43.265 C 206.000 43.135,206.225 42.840,206.500 42.609 C 207.063 42.135,207.239 41.000,206.750 41.000 C 206.612 41.000,206.500 40.887,206.500 40.750 C 206.500 40.612,206.387 40.500,206.250 40.500 C 206.112 40.500,206.000 40.387,206.000 40.250 C 206.000 40.112,205.887 40.000,205.750 40.000 C 205.612 40.000,205.500 39.887,205.500 39.750 C 205.500 39.612,205.387 39.500,205.250 39.500 C 205.112 39.500,205.000 39.393,205.000 39.261 C 205.000 39.130,204.857 38.977,204.682 38.922 C 204.507 38.866,204.322 38.711,204.271 38.577 C 204.219 38.443,203.987 38.333,203.755 38.333 C 203.491 38.333,203.333 38.240,203.333 38.083 C 203.333 37.946,203.229 37.833,203.101 37.833 C 202.973 37.833,202.826 37.721,202.773 37.583 C 202.720 37.446,202.487 37.333,202.255 37.333 C 201.991 37.333,201.833 37.240,201.833 37.083 C 201.833 36.916,201.666 36.833,201.328 36.833 C 201.033 36.833,200.783 36.729,200.727 36.583 C 200.662 36.414,200.396 36.333,199.899 36.333 C 199.359 36.333,199.167 36.268,199.167 36.083 C 199.167 35.897,198.970 35.833,198.393 35.833 C 197.877 35.833,197.555 35.745,197.425 35.566 C 197.312 35.412,196.881 35.261,196.407 35.209 C 195.954 35.159,195.530 35.036,195.465 34.934 C 195.259 34.615,186.535 34.595,185.939 34.912 M220.278 34.778 C 220.217 34.839,220.167 45.414,220.167 58.278 L 220.167 81.667 221.844 81.667 C 224.458 81.667,224.167 83.038,224.167 70.746 L 224.167 60.170 238.833 60.127 L 253.500 60.083 253.500 70.593 C 253.500 82.950,253.244 81.696,255.752 81.631 L 257.583 81.583 257.626 58.333 C 257.666 36.623,257.650 35.070,257.386 34.875 C 256.978 34.575,254.326 34.596,253.907 34.903 C 253.593 35.132,253.582 35.467,253.537 45.653 L 253.490 56.167 238.829 56.167 L 224.167 56.167 224.167 45.750 C 224.167 33.455,224.410 34.667,221.944 34.667 C 221.089 34.667,220.339 34.717,220.278 34.778 M272.125 34.774 C 271.849 34.853,271.833 36.115,271.833 58.262 L 271.833 81.667 273.717 81.667 C 275.969 81.667,276.000 81.646,276.000 80.133 L 276.000 79.000 290.326 79.000 L 304.653 79.000 304.701 80.292 L 304.750 81.583 306.578 81.583 C 308.361 81.583,308.412 81.573,308.618 81.167 C 308.989 80.433,308.924 35.874,308.551 35.329 C 308.123 34.704,308.025 34.672,306.492 34.669 C 304.867 34.666,304.667 34.780,304.667 35.700 L 304.667 36.333 290.355 36.333 L 276.044 36.333 275.953 35.653 C 275.902 35.279,275.811 34.922,275.750 34.861 C 275.618 34.728,272.543 34.655,272.125 34.774 M323.549 34.996 C 323.501 35.182,323.395 35.333,323.314 35.333 C 323.042 35.333,323.127 81.260,323.399 81.486 C 323.552 81.612,324.228 81.662,325.358 81.631 L 327.083 81.583 327.127 74.042 L 327.170 66.500 334.460 66.499 C 342.889 66.498,344.501 66.438,345.417 66.097 C 345.783 65.960,346.225 65.845,346.397 65.841 C 346.989 65.827,348.000 65.447,348.000 65.239 C 348.000 65.117,348.130 65.065,348.317 65.114 C 348.719 65.219,350.667 64.336,350.667 64.049 C 350.667 63.929,350.855 63.833,351.089 63.833 C 351.321 63.833,351.554 63.721,351.606 63.583 C 351.659 63.446,351.807 63.333,351.934 63.333 C 352.062 63.333,352.167 63.221,352.167 63.083 C 352.167 62.917,352.333 62.833,352.667 62.833 C 353.000 62.833,353.167 62.750,353.167 62.583 C 353.167 62.446,353.249 62.333,353.351 62.333 C 353.753 62.333,355.833 60.043,355.833 59.601 C 355.833 59.326,355.925 59.167,356.083 59.167 C 356.221 59.167,356.333 59.054,356.333 58.917 C 356.333 58.779,356.410 58.667,356.504 58.667 C 356.597 58.667,356.765 58.460,356.877 58.208 C 356.988 57.956,357.174 57.651,357.290 57.530 C 357.405 57.409,357.500 57.047,357.500 56.726 C 357.500 56.405,357.613 56.030,357.750 55.893 C 357.906 55.737,358.000 55.328,358.000 54.810 C 358.000 54.291,358.094 53.882,358.250 53.726 C 358.612 53.364,358.617 48.051,358.255 47.574 C 358.121 47.396,358.008 46.903,358.005 46.479 C 358.002 46.002,357.905 45.628,357.750 45.500 C 357.613 45.386,357.500 45.079,357.500 44.818 C 357.500 44.218,356.875 43.000,356.567 43.000 C 356.419 43.000,356.333 42.817,356.333 42.500 C 356.333 42.167,356.250 42.000,356.083 42.000 C 355.927 42.000,355.833 41.842,355.833 41.578 C 355.833 41.346,355.721 41.113,355.583 41.060 C 355.446 41.008,355.333 40.860,355.333 40.732 C 355.333 40.604,355.221 40.500,355.083 40.500 C 354.946 40.500,354.833 40.387,354.833 40.250 C 354.833 40.112,354.721 40.000,354.583 40.000 C 354.446 40.000,354.333 39.887,354.333 39.750 C 354.333 39.612,354.221 39.500,354.083 39.500 C 353.946 39.500,353.833 39.400,353.833 39.278 C 353.833 39.155,353.461 38.874,353.006 38.653 C 352.552 38.431,352.177 38.156,352.173 38.042 C 352.170 37.927,352.017 37.833,351.833 37.833 C 351.650 37.833,351.500 37.760,351.500 37.670 C 351.500 37.580,351.313 37.459,351.083 37.402 C 350.854 37.344,350.667 37.193,350.667 37.065 C 350.667 36.913,350.473 36.833,350.101 36.833 C 349.752 36.833,349.499 36.738,349.440 36.583 C 349.376 36.418,349.115 36.333,348.672 36.333 C 348.186 36.333,348.000 36.264,348.000 36.083 C 348.000 35.891,347.787 35.833,347.083 35.833 C 346.389 35.833,346.086 35.753,345.833 35.500 C 345.556 35.223,345.278 35.167,344.181 35.167 C 343.273 35.167,342.839 35.102,342.792 34.958 C 342.652 34.540,323.659 34.577,323.549 34.996 M304.500 37.496 C 304.826 37.703,304.972 77.382,304.648 77.772 C 304.407 78.062,275.362 78.116,274.822 77.827 C 274.506 77.658,274.500 77.260,274.500 57.859 C 274.500 37.250,274.486 37.692,275.167 37.449 C 275.627 37.285,304.238 37.331,304.500 37.496 M344.333 39.083 C 344.474 39.253,344.851 39.333,345.503 39.333 C 346.204 39.333,346.490 39.401,346.560 39.583 C 346.616 39.729,346.866 39.833,347.161 39.833 C 347.498 39.833,347.667 39.916,347.667 40.081 C 347.667 40.243,347.905 40.367,348.348 40.438 C 348.722 40.498,349.068 40.649,349.115 40.774 C 349.163 40.898,349.299 41.000,349.417 41.000 C 349.535 41.000,349.674 41.112,349.727 41.250 C 349.780 41.387,350.013 41.500,350.245 41.500 C 350.509 41.500,350.667 41.594,350.667 41.750 C 350.667 41.887,350.779 42.000,350.917 42.000 C 351.054 42.000,351.167 42.112,351.167 42.250 C 351.167 42.387,351.279 42.500,351.417 42.500 C 351.554 42.500,351.667 42.612,351.667 42.750 C 351.667 42.889,351.815 43.000,352.000 43.000 C 352.246 43.000,352.333 43.111,352.333 43.422 C 352.333 43.654,352.446 43.887,352.583 43.940 C 352.721 43.992,352.833 44.178,352.833 44.351 C 352.833 44.525,352.946 44.667,353.083 44.667 C 353.250 44.667,353.333 44.833,353.333 45.167 C 353.333 45.500,353.417 45.667,353.583 45.667 C 353.775 45.667,353.833 45.880,353.833 46.589 C 353.833 47.254,353.903 47.537,354.083 47.606 C 354.293 47.687,354.333 48.185,354.333 50.664 C 354.333 53.093,354.288 53.663,354.083 53.833 C 353.924 53.966,353.833 54.334,353.833 54.854 C 353.833 55.465,353.771 55.667,353.583 55.667 C 353.417 55.667,353.333 55.833,353.333 56.167 C 353.333 56.500,353.250 56.667,353.083 56.667 C 352.917 56.667,352.833 56.833,352.833 57.167 C 352.833 57.500,352.750 57.667,352.583 57.667 C 352.446 57.667,352.333 57.779,352.333 57.917 C 352.333 58.054,352.252 58.167,352.154 58.167 C 351.939 58.167,350.667 59.461,350.667 59.680 C 350.667 59.764,350.554 59.833,350.417 59.833 C 350.279 59.833,350.167 59.946,350.167 60.083 C 350.167 60.240,350.009 60.333,349.745 60.333 C 349.513 60.333,349.280 60.446,349.227 60.583 C 349.174 60.721,349.027 60.833,348.899 60.833 C 348.771 60.833,348.667 60.946,348.667 61.083 C 348.667 61.257,348.492 61.333,348.095 61.333 C 347.781 61.333,347.411 61.446,347.274 61.583 C 347.136 61.721,346.829 61.833,346.590 61.833 C 346.351 61.833,346.113 61.946,346.060 62.083 C 345.988 62.271,345.685 62.333,344.836 62.333 C 344.036 62.333,343.647 62.406,343.500 62.583 C 343.321 62.799,342.193 62.833,335.230 62.833 L 327.167 62.833 327.167 50.833 L 327.167 38.833 335.646 38.833 C 342.980 38.833,344.154 38.867,344.333 39.083 M297.183 56.927 C 296.341 57.815,297.121 59.333,298.419 59.333 C 299.058 59.333,300.000 58.434,300.000 57.824 C 300.000 56.622,298.059 56.005,297.183 56.927 " stroke="none" fill="#040404" fill-rule="evenodd"></path></g></svg>