<?xml version="1.0" encoding="UTF-8"?>
<svg width="36px" height="29px" viewBox="0 0 36 29" version="1.1" xmlns="http://www.w3.org/2000/svg">
    <g id="Desktop" stroke="none" stroke-width="1" fill="none" fill-rule="evenodd">
        <g id="Desktop/Profile/Edit-filled" transform="translate(-882.000000, -429.000000)" fill="#1E1E1E" fill-rule="nonzero">
            <g id="Group-6" transform="translate(825.000000, 368.000000)">
                <g id="photo-camera-copy" transform="translate(57.000000, 61.000000)">
                    <path d="M31.0600772,2.0903925 L12.4240309,2.0903925 C12.4240309,0.937802333 11.4950757,0 10.3533591,0 L7.59246331,0 C6.45074664,0 5.5217915,0.937802333 5.5217915,2.0903925 L4.83156756,2.0903925 C2.16738944,2.0903925 0,4.27851084 0,6.96797498 L0,23.6911149 C0,26.3805791 2.16738944,28.5686974 4.83156756,28.5686974 L31.0600772,28.5686974 C33.7242553,28.5686974 35.8916447,26.3805791 35.8916447,23.6911149 L35.8916447,6.96797498 C35.8916447,4.27851084 33.7242553,2.0903925 31.0600772,2.0903925 Z M7.59246331,1.393595 L10.3533591,1.393595 C10.7339313,1.393595 11.043583,1.70619577 11.043583,2.0903925 L6.90223937,2.0903925 C6.90223937,1.70619577 7.21189108,1.393595 7.59246331,1.393595 Z M31.0600772,27.1751024 L4.83156756,27.1751024 C2.92862016,27.1751024 1.38044787,25.6121856 1.38044787,23.6911149 L1.38044787,10.4519625 L6.90223937,10.4519625 C7.28341554,10.4519625 7.59246331,10.1399714 7.59246331,9.75516498 C7.59246331,9.37035856 7.28341554,9.05836748 6.90223937,9.05836748 L1.38044787,9.05836748 L1.38044787,6.96797498 C1.38044787,5.04690428 2.92862016,3.48398749 4.83156756,3.48398749 L31.0600772,3.48398749 C32.9630246,3.48398749 34.5111969,5.04690428 34.5111969,6.96797498 L34.5111969,9.05836748 L28.9894054,9.05836748 C28.6082292,9.05836748 28.2991814,9.37035856 28.2991814,9.75516498 C28.2991814,10.1399714 28.6082292,10.4519625 28.9894054,10.4519625 L34.5111969,10.4519625 L34.5111969,23.6911149 C34.5111969,25.6121856 32.9630246,27.1751024 31.0600772,27.1751024 Z" id="Shape"></path>
                    <path d="M17.9458224,4.87758249 C12.2369802,4.87758249 7.59246331,9.56633286 7.59246331,15.329545 C7.59246331,21.0927571 12.2369802,25.7815074 17.9458224,25.7815074 C23.6546645,25.7815074 28.2991814,21.0927571 28.2991814,15.329545 C28.2991814,9.56633286 23.6546645,4.87758249 17.9458224,4.87758249 Z M17.9458224,24.3879124 C12.9981246,24.3879124 8.97291118,20.3243636 8.97291118,15.329545 C8.97291118,10.3347263 12.9981246,6.27117749 17.9458224,6.27117749 C22.8935201,6.27117749 26.9187335,10.3347263 26.9187335,15.329545 C26.9187335,20.3243636 22.8935201,24.3879124 17.9458224,24.3879124 Z" id="Shape"></path>
                    <path d="M17.9458224,7.66477248 C13.7593554,7.66477248 10.3533591,11.1032068 10.3533591,15.329545 C10.3533591,19.5558831 13.7593554,22.9943174 17.9458224,22.9943174 C22.1322894,22.9943174 25.5382857,19.5558831 25.5382857,15.329545 C25.5382857,11.1032068 22.1322894,7.66477248 17.9458224,7.66477248 Z M17.9458224,21.6007224 C14.5204998,21.6007224 11.7338069,18.7874896 11.7338069,15.329545 C11.7338069,11.8716003 14.5204998,9.05836748 17.9458224,9.05836748 C21.3711449,9.05836748 24.1578378,11.8716003 24.1578378,15.329545 C24.1578378,18.7874896 21.3711449,21.6007224 17.9458224,21.6007224 Z" id="Shape"></path>
                    <path d="M17.9458224,10.4519625 C17.5646462,10.4519625 17.2555984,10.7639536 17.2555984,11.14876 C17.2555984,11.5335664 17.5646462,11.8455575 17.9458224,11.8455575 C19.8487698,11.8455575 21.396942,13.4084743 21.396942,15.329545 C21.396942,15.7143514 21.7059898,16.0263425 22.087166,16.0263425 C22.4683422,16.0263425 22.7773899,15.7143514 22.7773899,15.329545 C22.7773899,12.6400808 20.6100005,10.4519625 17.9458224,10.4519625 Z" id="Shape"></path>
                    <path d="M30.3698532,8.36156998 C31.5115699,8.36156998 32.440525,7.42385475 32.440525,6.27117749 C32.440525,5.11850022 31.5115699,4.18078499 30.3698532,4.18078499 C29.2281366,4.18078499 28.2991814,5.11850022 28.2991814,6.27117749 C28.2991814,7.42385475 29.2281366,8.36156998 30.3698532,8.36156998 Z M30.3698532,5.57437999 C30.7504255,5.57437999 31.0600772,5.88698076 31.0600772,6.27117749 C31.0600772,6.65537421 30.7504255,6.96797498 30.3698532,6.96797498 C29.989281,6.96797498 29.6796293,6.65537421 29.6796293,6.27117749 C29.6796293,5.88698076 29.989281,5.57437999 30.3698532,5.57437999 Z" id="Shape"></path>
                </g>
            </g>
        </g>
    </g>
</svg>