<?xml version="1.0" encoding="UTF-8"?>
<svg width="45px" height="45px" viewBox="0 0 45 45" version="1.1" xmlns="http://www.w3.org/2000/svg" xmlns:xlink="http://www.w3.org/1999/xlink">
    <!-- Generator: sketchtool 42 (36781) - http://www.bohemiancoding.com/sketch -->
    <title>75DBA650-D293-459A-9910-5C0DBF79EF2A</title>
    <desc>Created with sketchtool.</desc>
    <defs></defs>
    <g id="Page-1" stroke="none" stroke-width="1" fill="none" fill-rule="evenodd">
        <g id="icons" transform="translate(-818.000000, -240.000000)" fill-rule="nonzero">
            <g id="copy-link" transform="translate(818.000000, 240.000000)">
                <ellipse id="XMLID_30_" fill="#0EDC84" cx="22.3399115" cy="22.1439474" rx="22.3399115" ry="22.1439474"></ellipse>
                <g id="web-link" transform="translate(11.000000, 11.000000)" fill="#FFFFFF">
                    <path d="M8.423175,18.2479125 L7.259375,19.4036625 C6.2505375,20.4035875 4.609775,20.40445 3.6015125,19.4036625 C3.1167875,18.922675 2.8505625,18.28385 2.8505625,17.604775 C2.8505625,16.9257 3.117075,16.2865875 3.601225,15.8056 L7.884975,11.5554875 C8.772775,10.6751625 10.4428625,9.378825 11.6601375,10.5860375 C12.21875,11.1409125 13.120925,11.137175 13.6755125,10.57885 C14.2303875,10.020525 14.2269375,9.1180625 13.668325,8.5637625 C11.5991875,6.5104375 8.54105,6.8899375 5.87765,9.5326375 L1.5936125,13.7830375 C0.5658,14.803375 0,16.160375 0,17.604775 C0,19.049175 0.5658,20.4058875 1.5939,21.426225 C2.6516125,22.4756 4.040525,23 5.4300125,23 C6.8197875,23 8.209275,22.4756 9.2675625,21.42565 L10.432225,20.2696125 C10.99055,19.7153125 10.9937125,18.8131375 10.4388375,18.254525 C9.884825,17.6964875 8.9817875,17.693325 8.423175,18.2479125 Z M21.405525,1.73765 C19.18315,-0.467475 16.07585,-0.587075 14.0185,1.454175 L12.567775,2.8942625 C12.0091625,3.44885 12.0057125,4.3507375 12.5605875,4.90935 C13.1154625,5.4679625 14.0176375,5.471125 14.57625,4.9165375 L16.0264,3.4773125 C17.0921625,2.419025 18.4876875,2.85775 19.3979125,3.7607875 C19.8832125,4.241775 20.149725,4.8808875 20.149725,5.5599625 C20.149725,6.239325 19.882925,6.8784375 19.3984875,7.359425 L14.8281,11.8933 C12.7382625,13.96675 11.7578875,12.9935625 11.339575,12.5784125 C10.7809625,12.023825 9.879075,12.027275 9.3242,12.5856 C8.769325,13.143925 8.772775,14.0463875 9.3313875,14.6006875 C10.290775,15.5528875 11.3858625,16.0249625 12.53385,16.0249625 C13.9394375,16.0249625 15.4240875,15.3171375 16.8357125,13.915575 L21.4061,9.3817 C22.433625,8.3613625 23,7.004075 23,5.559675 C23,4.11585 22.433625,2.7585625 21.405525,1.73765 Z" id="Shape"></path>
                </g>
            </g>
        </g>
    </g>
</svg>