<svg id="Layer_1" enable-background="new 0 0 510 510" height="512" viewBox="0 0 510 510" width="512" xmlns="http://www.w3.org/2000/svg"><path d="m198 289h-25.515l-12.485-12.485-12 12v-26.283c23.628-11.255 40-35.365 40-63.232v-15.05c1.88.668 3.894 1.05 6 1.05 9.925 0 18-8.075 18-18s-8.075-18-18-18c-2.106 0-4.12.382-6 1.05v-23.05c0-38.598-31.402-70-70-70s-70 31.402-70 70v23.05c-1.88-.668-3.894-1.05-6-1.05-9.925 0-18 8.075-18 18s8.075 18 18 18c2.106 0 4.12-.382 6-1.05v15.05c0 27.867 16.372 51.977 40 63.232v26.283l-12-12-12.485 12.485h-25.515c-20.953 0-38 17.047-38 38v126h236v-126c0-20.953-17.047-38-38-38zm-26.485 16-33.515 33.515-11.515-11.515 33.515-33.515zm-39.515 136h-28v-51.515l14-14 14 14zm-2.485-94-11.515 11.515-11.515-11.515 11.515-11.515zm64.485-186c3.309 0 6 2.691 6 6s-2.691 6-6 6-6-2.691-6-6 2.691-6 6-6zm-76-92c31.981 0 58 26.019 58 58v1.515l-15.515-15.515h-16.485v6c0 14.336-11.664 26-26 26s-26-11.664-26-26v-6h-16.485l-15.515 15.515v-1.515c0-31.981 26.019-58 58-58zm-76 104c-3.309 0-6-2.691-6-6s2.691-6 6-6 6 2.691 6 6-2.691 6-6 6zm18 26v-53.515l20.475-20.475c2.889 18.108 18.617 31.99 37.525 31.99s34.636-13.882 37.525-31.989l20.475 20.474v53.515c0 31.981-26.019 58-58 58s-58-26.019-58-58zm40 67.643c5.747 1.531 11.778 2.357 18 2.357s12.253-.827 18-2.357v33.872l-18 18-18-18zm9.515 60.357-11.515 11.515-33.515-33.515 11.515-11.515zm-97.515 0c0-14.336 11.664-26 26-26h13.515l-4 4 62 62-17.515 17.515v56.485h-40v-98h-12v98h-28zm212 114h-28v-98h-12v98h-40v-56.485l-17.515-17.515 62-62-4-4h13.515c14.336 0 26 11.664 26 26z"/><path d="m486 291.684v-164.684c0-38.598-31.402-70-70-70h-48c-38.598 0-70 31.402-70 70v164.684c-14.043 5.587-24 19.306-24 35.316v126h236v-126c0-16.01-9.957-29.729-24-35.316zm-176-164.684c0-31.981 26.019-58 58-58h48c31.981 0 58 26.019 58 58v162.053c-.663-.035-1.329-.053-2-.053h-50v-26.768c23.628-11.255 40-35.365 40-63.232v-50.485l-36.599-36.599-103.401 43.084v44c0 27.867 16.372 51.977 40 63.232v26.768h-50c-.671 0-1.337.019-2 .053zm82 130c-31.981 0-58-26.019-58-58v-36l88.599-36.916 27.401 27.401v45.515c0 31.981-26.019 58-58 58zm-18 9.643c5.747 1.531 11.778 2.357 18 2.357s12.253-.827 18-2.357v34.357h23.565c-2.921 20.326-20.443 36-41.565 36-21.121 0-38.643-15.674-41.565-36h23.565zm18 82.357c16.95 0 32.092-7.856 42-20.111v112.111h-84v-112.111c9.908 12.255 25.05 20.111 42 20.111zm-106-22c0-14.336 11.664-26 26-26h26v140h-12v-98h-12v98h-28zm212 114h-28v-98h-12v98h-12v-140h26c14.336 0 26 11.664 26 26z"/></svg>