<?xml version="1.0" encoding="UTF-8"?>
<svg width="512px" height="512px" viewBox="0 0 512 512" version="1.1" xmlns="http://www.w3.org/2000/svg" xmlns:xlink="http://www.w3.org/1999/xlink">
    <!-- Generator: Sketch 52.6 (67491) - http://www.bohemiancoding.com/sketch -->
    <title>letter-l</title>
    <desc>Created with Sketch.</desc>
    <g id="Page-1" stroke="none" stroke-width="1" fill="none" fill-rule="evenodd">
        <g id="letter-l" transform="translate(0.000000, -1.000000)">
            <g id="Group" transform="translate(256.000000, 257.000000) scale(-1, 1) rotate(-180.000000) translate(-256.000000, -257.000000) translate(0.000000, 0.500000)">
                <g id="Path">
                    <g>
                        <path d="M512,57.38875 C512,25.97125 486.5275,0.5 455.11125,0.5 L56.88875,0.5 C25.4725,0.5 0,25.9725 0,57.38875 L0,455.61125 C0,487.0275 25.4725,512.5 56.88875,512.5 L455.11125,512.5 C486.5275,512.5 512,487.0275 512,455.61125 L512,57.38875 Z" fill="#114B4F"></path>
                        <path d="M181.945,382.28125 C181.945,404.32625 196.05375,416.67 215.01125,416.67 C233.96875,416.67 248.0775,404.325 248.0775,382.28125 L248.0775,160.92625 L326.58375,160.92625 C349.06875,160.92625 358.76875,144.15875 358.3425,129.1675 C357.44625,114.61875 345.98375,100.055 326.58375,100.055 L216.3325,100.055 C194.72875,100.055 181.94375,114.16375 181.94375,136.2225 L181.94375,382.28125 L181.945,382.28125 Z" fill="#FFFFFF"></path>
                    </g>
                </g>
            </g>
        </g>
    </g>
</svg>