<?xml version="1.0" encoding="UTF-8"?>
<svg width="40px" height="40px" viewBox="0 0 40 40" version="1.1" xmlns="http://www.w3.org/2000/svg" xmlns:xlink="http://www.w3.org/1999/xlink">
    <!-- Generator: sketchtool 50.2 (55047) - http://www.bohemiancoding.com/sketch -->
    <title>D4787857-00BB-4FDA-B31B-7454531CC08C</title>
    <desc>Created with sketchtool.</desc>
    <defs></defs>
    <g id="Desktop" stroke="none" stroke-width="1" fill="none" fill-rule="evenodd">
        <g id="Desktop/Profile/Edit-filling" transform="translate(-115.000000, -1692.000000)">
            <g id="icon_sport" transform="translate(115.000000, 1692.000000)">
                <circle id="Oval-6" fill="#489CFF" cx="20" cy="20" r="20"></circle>
                <path d="M20.016383,28.9672075 C20.1001438,29.0482772 20.2093127,29.088812 20.318697,29.088812 C20.4285119,29.088812 20.5385421,29.0478549 20.6225182,28.9659408 L28.48505,21.2955712 C29.4397937,20.3641149 29.9653979,19.1299141 29.9653979,17.820344 C29.9653979,16.5209075 29.4456074,15.2983183 28.5018452,14.3776291 C27.558729,13.4575732 26.3064084,12.9506768 24.9759255,12.9506768 C23.6348917,12.9506768 22.3709437,13.4632734 21.416846,14.3938852 C21.1308966,14.6727732 20.7381469,15.0591207 20.2808001,15.510915 L19.1288202,14.3871294 C18.1732152,13.4546175 16.908406,12.9411765 15.5673722,12.9411765 C14.2401191,12.9411765 12.9905978,13.4470172 12.0492042,14.3655953 C11.1071645,15.2845956 10.5882353,16.5046514 10.5882353,17.800921 C10.5882353,19.1102801 11.1149162,20.3453253 12.0713825,21.2784705 C13.1706081,22.3509542 19.9479102,28.9011273 20.016383,28.9672075 Z M12.656416,14.9641172 C13.4354558,14.2040894 14.4690078,13.7856518 15.5671569,13.7856518 C16.6788713,13.7856518 17.7279266,14.2119008 18.5211778,14.9858624 L19.9789168,16.4077478 C20.0598783,16.4869174 20.1787368,16.5363192 20.2840299,16.5308301 C20.3983666,16.5304079 20.5079662,16.4854395 20.5884971,16.4058477 C21.1741766,15.8269599 21.6782486,15.3306195 22.0244885,14.9928293 C22.8160171,14.2205566 23.8642111,13.7953633 24.9761408,13.7953633 C26.0775197,13.7953633 27.1138709,14.2146453 27.8946334,14.9763621 C28.6747498,15.7374455 29.1043199,16.747438 29.1043199,17.8205551 C29.1043199,18.9038058 28.6687208,19.9254099 27.8778381,20.6970493 L20.3171897,28.0720637 C19.3081846,27.0969057 16.0253649,23.9235785 14.0586016,22.0186532 L14.8339809,22.0186532 C14.9308764,22.0186532 15.025188,21.9865631 15.1011972,21.9274499 L15.8991855,21.3086605 L16.6136283,21.9935301 C16.7271037,22.1022563 16.8922567,22.1406799 17.0434137,22.0944449 C17.194786,22.0479987 17.3078307,21.9236497 17.3375454,21.7707997 L17.7744364,19.5327289 L18.2462099,23.9624243 C18.2670962,24.158976 18.4242823,24.3149928 18.6243176,24.3380048 C18.6413282,24.3401159 18.6579081,24.3409604 18.6747033,24.3409604 C18.8555749,24.3409604 19.0196513,24.2292786 19.0808031,24.0586945 L19.9123819,21.7365984 L20.1503141,21.8297018 C20.3565939,21.9107715 20.5919423,21.8244239 20.6933596,21.6306168 L21.2555688,20.556233 L21.8834517,22.0287869 C21.9379285,22.1565138 22.0529112,22.2500394 22.1911488,22.2789627 C22.329171,22.307886 22.4732223,22.2684068 22.5761469,22.1731922 L23.0083008,21.7739665 L23.3917917,21.9707292 C23.4535895,22.0021859 23.5220623,22.0186532 23.5916118,22.0186532 L24.3155288,22.0186532 C24.4333107,22.1455356 24.6014782,22.2263941 24.7903168,22.2263941 C25.1462463,22.2263941 25.4345642,21.9434949 25.4345642,21.5947266 C25.4345642,21.2459582 25.1460309,20.963059 24.7901015,20.963059 C24.5997556,20.963059 24.4305115,21.0456065 24.3125143,21.1741778 L23.6973355,21.1741778 L23.1359876,20.8864229 C22.9734184,20.8030309 22.774675,20.8296319 22.6411745,20.9531364 L22.43834,21.1403988 L21.6928906,19.392546 C21.6282935,19.2409626 21.4797204,19.1398367 21.3124142,19.133292 C21.1463999,19.1275918 20.9889986,19.2164728 20.9125588,19.3625671 L20.1061729,20.9031012 L19.8148404,20.788886 C19.7056715,20.74624 19.5837984,20.7487734 19.4767827,20.7964862 C19.369767,20.8441991 19.2875135,20.9324468 19.24854,21.0409619 L18.9033767,22.0045082 L18.3278174,16.6002882 C18.3056391,16.392125 18.1310119,16.2312525 17.9178418,16.2221743 C17.7033797,16.212674 17.5166944,16.3589794 17.4766442,16.5648202 L16.6422663,20.8399767 L16.2301374,20.4449734 C16.07532,20.2963457 15.8320046,20.2838897 15.6618991,20.4156278 L14.6843312,21.1741778 L13.1874033,21.1741778 C12.9671275,20.9605256 12.791639,20.7901527 12.6785943,20.6795264 C11.8857737,19.9061981 11.4493133,18.8837496 11.4493133,17.8007099 C11.449098,16.7309708 11.8778068,15.7235117 12.656416,14.9641172 Z" id="Shape" stroke="#FFFFFF" stroke-width="0.5" fill="#FFFFFF" fill-rule="nonzero"></path>
            </g>
        </g>
    </g>
</svg>