<svg xmlns="http://www.w3.org/2000/svg" width="40" height="40" viewBox="0 0 40 40">
    <g fill="none" fill-rule="evenodd">
        <path fill="#FFF" d="M-115-1514h1200V426H-115z"/>
        <g>
            <circle cx="20" cy="20" r="20" fill="#489CFF"/>
            <g fill="#FFF" fill-rule="nonzero" stroke="#FFF" stroke-width=".5">
                <path d="M28.277 27.941c.93 0 1.688-.763 1.688-1.701V14.643c0-.938-.757-1.702-1.688-1.702h-16c-.931 0-1.689.764-1.689 1.702V26.24c0 .938.758 1.701 1.689 1.701h16zM11.533 26.24V14.643c0-.413.334-.75.744-.75h16c.41 0 .743.337.743.75V26.24c0 .413-.333.749-.743.749h-16a.747.747 0 0 1-.744-.75z"/>
                <path d="M17.983 24.234c.179 0 .36-.06.53-.173l4.683-2.935a.518.518 0 0 0 .033-.022c.058-.043.348-.28.348-.666 0-.4-.322-.636-.398-.688l-4.656-2.928a.978.978 0 0 0-.54-.18c-.387 0-.778.293-.778.948v5.696c0 .655.39.948.778.948zm.167-6.524l4.346 2.734-4.346 2.723V17.71z"/>
            </g>
        </g>
    </g>
</svg>
