<?xml version="1.0" encoding="UTF-8"?>
<svg width="40px" height="40px" viewBox="0 0 40 40" version="1.1" xmlns="http://www.w3.org/2000/svg" xmlns:xlink="http://www.w3.org/1999/xlink">
    <!-- Generator: sketchtool 50.2 (55047) - http://www.bohemiancoding.com/sketch -->
    <title>19D2A4D3-8CF0-4E22-8153-5DA4B8420134</title>
    <desc>Created with sketchtool.</desc>
    <defs></defs>
    <g id="Desktop" stroke="none" stroke-width="1" fill="none" fill-rule="evenodd">
        <g id="Desktop/Profile/Edit-filling" transform="translate(-115.000000, -1622.000000)">
            <g id="icon_music" transform="translate(115.000000, 1622.000000)">
                <circle id="Oval-6" fill="#489CFF" cx="20" cy="20" r="20"></circle>
                <g id="noun_70850_cc" transform="translate(10.588235, 9.411765)" fill="#FFFFFF" fill-rule="nonzero" stroke="#FFFFFF" stroke-width="0.5">
                    <path d="M18.910243,17.3305437 C19.1679827,17.3305437 19.3771626,17.1118371 19.3771626,16.8423594 L19.3771626,10.3675706 C19.3771626,4.7851828 15.0336432,0.243848073 9.69441781,0.243848073 C4.36359695,0.243848073 0.020077542,4.78493871 0.0116729895,10.3668383 C0.00420227623,15.6404496 0.0114395297,16.8343043 0.0114395297,16.8457767 C0.0133072081,17.1152544 0.225522158,17.3337169 0.481627548,17.3305437 C0.739367157,17.328591 0.947146371,17.1086639 0.945278693,16.8389421 C0.945278693,16.8274698 0.938041439,15.6343473 0.945745612,10.3680588 C0.952982866,5.32389421 4.87790887,1.21997264 9.69465127,1.21997264 C14.5186309,1.22021673 18.4433235,5.32365012 18.4433235,10.3675706 L18.4433235,16.8423594 C18.4433235,17.1118371 18.6525034,17.3305437 18.910243,17.3305437 Z" id="Shape"></path>
                    <path d="M6.53687414,20.5037419 L6.53687414,13.4250691 C6.53687414,13.1555913 6.32769417,12.9368847 6.06995456,12.9368847 L3.49769458,12.9368847 C2.59887439,12.9368847 1.86767833,13.7013814 1.86767833,14.6411362 L1.86767833,19.2874306 C1.86767833,20.2274295 2.59887439,20.9919262 3.49769458,20.9919262 L6.06995456,20.9919262 C6.32769417,20.9919262 6.53687414,20.7732196 6.53687414,20.5037419 Z M5.60303498,20.0155575 L3.49769458,20.0155575 C3.11388669,20.0155575 2.80151749,19.6889622 2.80151749,19.2876747 L2.80151749,14.6411362 C2.80151749,14.2398487 3.11388669,13.9132534 3.49769458,13.9132534 L5.60303498,13.9132534 L5.60303498,20.0155575 Z" id="Shape"></path>
                    <path d="M17.5094843,14.6411362 C17.5094843,13.7013814 16.7782882,12.9368847 15.879468,12.9368847 L13.3072081,12.9368847 C13.0494685,12.9368847 12.8402885,13.1555913 12.8402885,13.4250691 L12.8402885,20.5037419 C12.8402885,20.7732196 13.0494685,20.9919262 13.3072081,20.9919262 L15.879468,20.9919262 C16.7782882,20.9919262 17.5094843,20.2274295 17.5094843,19.2876747 L17.5094843,14.6411362 Z M16.5756451,19.2876747 C16.5756451,19.6889622 16.2632759,20.0155575 15.879468,20.0155575 L13.7741277,20.0155575 L13.7741277,13.9132534 L15.879468,13.9132534 C16.2632759,13.9132534 16.5756451,14.2398487 16.5756451,14.6411362 L16.5756451,19.2876747 Z" id="Shape"></path>
                </g>
            </g>
        </g>
    </g>
</svg>