<?xml version="1.0" encoding="UTF-8"?>
<svg width="992px" height="968px" viewBox="0 0 992 968" version="1.1" xmlns="http://www.w3.org/2000/svg" xmlns:xlink="http://www.w3.org/1999/xlink">
    <!-- Generator: Sketch 52.6 (67491) - http://www.bohemiancoding.com/sketch -->
    <title>Group 2</title>
    <desc>Created with Sketch.</desc>
    <g id="Page-1" stroke="none" stroke-width="1" fill="none" fill-rule="evenodd">
        <g id="Group-2">
            <ellipse id="Oval" fill="#114B4F" cx="496" cy="484" rx="496" ry="484"></ellipse>
            <g id="profile" transform="translate(214.000000, 215.000000)" fill="#FFFFFF" fill-rule="nonzero">
                <path d="M280.79,301.559 C364.056,301.559 431.593,234.021 431.593,150.756 C431.593,67.491 364.055,0.415 280.79,0.415 C197.525,0.415 129.987,67.953 129.987,150.756 C129.987,233.559 197.524,301.559 280.79,301.559 Z M280.79,39.735 C341.851,39.735 391.811,89.694 391.811,150.756 C391.811,211.818 341.851,261.776 280.79,261.776 C219.729,261.776 169.769,211.817 169.769,150.755 C169.769,89.693 219.728,39.735 280.79,39.735 Z" id="Shape"></path>
                <path d="M19.891,537.015 L543.539,537.015 C554.641,537.015 563.43,528.226 563.43,517.124 C563.43,413.042 478.777,327.926 374.232,327.926 L189.198,327.926 C85.116,327.926 0,412.579 0,517.124 C0,528.226 8.789,537.015 19.891,537.015 Z M189.198,367.708 L374.232,367.708 C450.096,367.708 512.545,424.144 522.26,497.232 L41.17,497.232 C50.884,424.607 113.334,367.708 189.198,367.708 Z" id="Shape"></path>
            </g>
        </g>
    </g>
</svg>