<?xml version="1.0" encoding="UTF-8"?>
<svg width="146px" height="209px" viewBox="0 0 146 209" version="1.1" xmlns="http://www.w3.org/2000/svg" xmlns:xlink="http://www.w3.org/1999/xlink">
    <!-- Generator: Sketch 52.6 (67491) - http://www.bohemiancoding.com/sketch -->
    <title>person</title>
    <desc>Created with Sketch.</desc>
    <g id="Page-1" stroke="none" stroke-width="1" fill="none" fill-rule="evenodd">
        <g id="person" transform="translate(5.000000, 0.000000)">
            <path d="M114.622,65.305 L114.622,45.533 C114.504527,20.4633202 94.148455,0.202409817 69.0785,0.202409817 C44.008545,0.202409817 23.6524727,20.4633202 23.535,45.533 L23.535,65.305 C23.6524727,90.3746798 44.008545,110.63559 69.0785,110.63559 C94.148455,110.63559 114.504527,90.3746798 114.622,65.305 Z M35.535,65.305 L35.535,45.533 C35.6357604,27.0789198 50.6241447,12.1721495 69.0785,12.1721495 C87.5328553,12.1721495 102.52124,27.0789198 102.622,45.533 L102.622,65.305 C102.52124,83.7590802 87.5328553,98.6658505 69.0785,98.6658505 C50.6241447,98.6658505 35.6357604,83.7590802 35.535,65.305 Z" id="Shape" fill="#000000" fill-rule="nonzero"></path>
            <path d="M68.7307332,125.572972 C81.5714545,125.602211 93.7940783,120.290974 102.234,111.014414 C121.283956,113.539963 135.476232,129.140823 135.494,147.575471 L135.494,203.425 L0.668,203.425 L0.668,147.575471 C0.791262148,128.675696 15.6953526,112.875833 35.3,110.862 C43.6938497,120.176893 55.8900119,125.543732 68.7307332,125.572972 Z" id="Shape" stroke="#000000" stroke-width="10" fill="#FF595E"></path>
        </g>
    </g>
</svg>