<?xml version="1.0" encoding="UTF-8"?>
<svg width="1022px" height="771px" viewBox="0 0 1022 771" version="1.1" xmlns="http://www.w3.org/2000/svg" xmlns:xlink="http://www.w3.org/1999/xlink">
    <!-- Generator: Sketch 52.6 (67491) - http://www.bohemiancoding.com/sketch -->
    <title>Group 2</title>
    <desc>Created with Sketch.</desc>
    <g id="Page-1" stroke="none" stroke-width="1" fill="none" fill-rule="evenodd">
        <g id="Group-2" transform="translate(0.000000, 2.000000)">
            <g id="Group">
                <polygon id="Path" fill="#114B4F" points="0.5 703.6 314.9 453.7 566 453.7 675 557.6 731.6 557.6 930.7 703.6"></polygon>
                <g transform="translate(32.000000, 440.000000)" id="Path" stroke="#161D38" stroke-linecap="round" stroke-width="2">
                    <polyline points="25.5 261.1 292.9 6.7 308.9 6.7 86.4 256.6"></polyline>
                    <path d="M0.8,284.7 L17,269.2"></path>
                    <path d="M319.5,6.7 L163.7,256.6"></path>
                    <path d="M241.6,256.6 L330.2,6.7"></path>
                    <path d="M342.3,6.7 L316.8,256.6"></path>
                    <path d="M357.1,6.7 L373.5,256.6"></path>
                    <path d="M373.5,6.7 L443.6,256.6"></path>
                    <path d="M394,6.7 C394,6.7 514,256.6 512.7,256.6"></path>
                    <path d="M613.6,292.9 L635.4,323.9"></path>
                    <path d="M412.7,6.7 L595,266.2"></path>
                    <path d="M432.3,3.4 L684.4,256.6"></path>
                    <path d="M454.7,3.4 L770.8,256.6"></path>
                    <path d="M833.6,248.9 L484.1,0.7"></path>
                </g>
                <g transform="translate(290.000000, 248.000000)" id="Rectangle" stroke="#E5D9C6">
                    <g>
                        <rect x="0.2" y="0.3" width="22.2" height="9.3"></rect>
                        <rect x="22.4" y="0.3" width="22.2" height="9.3"></rect>
                        <rect x="44.7" y="0.3" width="22.2" height="9.3"></rect>
                        <rect x="66.9" y="0.3" width="22.2" height="9.3"></rect>
                        <rect x="89.1" y="0.3" width="22.2" height="9.3"></rect>
                        <rect x="111.3" y="0.3" width="22.2" height="9.3"></rect>
                        <rect x="133.6" y="0.3" width="22.2" height="9.3"></rect>
                        <rect x="155.8" y="0.3" width="22.2" height="9.3"></rect>
                        <rect x="178" y="0.3" width="22.2" height="9.3"></rect>
                        <rect x="200.3" y="0.3" width="22.2" height="9.3"></rect>
                        <rect x="222.5" y="0.3" width="22.2" height="9.3"></rect>
                        <rect x="244.7" y="0.3" width="22.2" height="9.3"></rect>
                    </g>
                    <g transform="translate(11.000000, 9.000000)">
                        <rect x="0.3" y="0.5" width="22.2" height="9.3"></rect>
                        <rect x="22.5" y="0.5" width="22.2" height="9.3"></rect>
                        <rect x="44.8" y="0.5" width="22.2" height="9.3"></rect>
                        <rect x="67" y="0.5" width="22.2" height="9.3"></rect>
                        <rect x="89.2" y="0.5" width="22.2" height="9.3"></rect>
                        <rect x="111.5" y="0.5" width="22.2" height="9.3"></rect>
                        <rect x="133.7" y="0.5" width="22.2" height="9.3"></rect>
                        <rect x="155.9" y="0.5" width="22.2" height="9.3"></rect>
                        <rect x="178.1" y="0.5" width="22.2" height="9.3"></rect>
                        <rect x="200.4" y="0.5" width="22.2" height="9.3"></rect>
                        <rect x="222.6" y="0.5" width="22.2" height="9.3"></rect>
                        <rect x="244.8" y="0.5" width="22.2" height="9.3"></rect>
                    </g>
                    <g transform="translate(0.000000, 19.000000)">
                        <rect x="0.2" y="0.1" width="22.2" height="9.3"></rect>
                        <rect x="22.4" y="0.1" width="22.2" height="9.3"></rect>
                        <rect x="44.7" y="0.1" width="22.2" height="9.3"></rect>
                        <rect x="66.9" y="0.1" width="22.2" height="9.3"></rect>
                        <rect x="89.1" y="0.1" width="22.2" height="9.3"></rect>
                        <rect x="111.3" y="0.1" width="22.2" height="9.3"></rect>
                        <rect x="133.6" y="0.1" width="22.2" height="9.3"></rect>
                        <rect x="155.8" y="0.1" width="22.2" height="9.3"></rect>
                        <rect x="178" y="0.1" width="22.2" height="9.3"></rect>
                        <rect x="200.3" y="0.1" width="22.2" height="9.3"></rect>
                        <rect x="222.5" y="0.1" width="22.2" height="9.3"></rect>
                        <rect x="244.7" y="0.1" width="22.2" height="9.3"></rect>
                    </g>
                    <g transform="translate(11.000000, 28.000000)">
                        <rect x="0.3" y="0.3" width="22.2" height="9.3"></rect>
                        <rect x="22.5" y="0.3" width="22.2" height="9.3"></rect>
                        <rect x="44.8" y="0.3" width="22.2" height="9.3"></rect>
                        <rect x="67" y="0.3" width="22.2" height="9.3"></rect>
                        <rect x="89.2" y="0.3" width="22.2" height="9.3"></rect>
                        <rect x="111.5" y="0.3" width="22.2" height="9.3"></rect>
                        <rect x="133.7" y="0.3" width="22.2" height="9.3"></rect>
                        <rect x="155.9" y="0.3" width="22.2" height="9.3"></rect>
                        <rect x="178.1" y="0.3" width="22.2" height="9.3"></rect>
                        <rect x="200.4" y="0.3" width="22.2" height="9.3"></rect>
                        <rect x="222.6" y="0.3" width="22.2" height="9.3"></rect>
                        <rect x="244.8" y="0.3" width="22.2" height="9.3"></rect>
                    </g>
                    <g transform="translate(0.000000, 37.000000)">
                        <rect x="0.2" y="0.8" width="22.2" height="9.3"></rect>
                        <rect x="22.4" y="0.8" width="22.2" height="9.3"></rect>
                        <rect x="44.7" y="0.8" width="22.2" height="9.3"></rect>
                        <rect x="66.9" y="0.8" width="22.2" height="9.3"></rect>
                        <rect x="89.1" y="0.8" width="22.2" height="9.3"></rect>
                        <rect x="111.3" y="0.8" width="22.2" height="9.3"></rect>
                        <rect x="133.6" y="0.8" width="22.2" height="9.3"></rect>
                        <rect x="155.8" y="0.8" width="22.2" height="9.3"></rect>
                        <rect x="178" y="0.8" width="22.2" height="9.3"></rect>
                        <rect x="200.3" y="0.8" width="22.2" height="9.3"></rect>
                        <rect x="222.5" y="0.8" width="22.2" height="9.3"></rect>
                        <rect x="244.7" y="0.8" width="22.2" height="9.3"></rect>
                    </g>
                    <g transform="translate(11.000000, 47.000000)">
                        <rect x="0.3" y="0" width="22.2" height="9.3"></rect>
                        <rect x="22.5" y="0" width="22.2" height="9.3"></rect>
                        <rect x="44.8" y="0" width="22.2" height="9.3"></rect>
                        <rect x="67" y="0" width="22.2" height="9.3"></rect>
                        <rect x="89.2" y="0" width="22.2" height="9.3"></rect>
                        <rect x="111.5" y="0" width="22.2" height="9.3"></rect>
                        <rect x="133.7" y="0" width="22.2" height="9.3"></rect>
                        <rect x="155.9" y="0" width="22.2" height="9.3"></rect>
                        <rect x="178.1" y="0" width="22.2" height="9.3"></rect>
                        <rect x="200.4" y="0" width="22.2" height="9.3"></rect>
                        <rect x="222.6" y="0" width="22.2" height="9.3"></rect>
                        <rect x="244.8" y="0" width="22.2" height="9.3"></rect>
                    </g>
                    <g transform="translate(0.000000, 56.000000)">
                        <rect x="0.2" y="0.5" width="22.2" height="9.3"></rect>
                        <rect x="22.4" y="0.5" width="22.2" height="9.3"></rect>
                        <rect x="44.7" y="0.5" width="22.2" height="9.3"></rect>
                        <rect x="66.9" y="0.5" width="22.2" height="9.3"></rect>
                        <rect x="89.1" y="0.5" width="22.2" height="9.3"></rect>
                        <rect x="111.3" y="0.5" width="22.2" height="9.3"></rect>
                        <rect x="133.6" y="0.5" width="22.2" height="9.3"></rect>
                        <rect x="155.8" y="0.5" width="22.2" height="9.3"></rect>
                        <rect x="178" y="0.5" width="22.2" height="9.3"></rect>
                        <rect x="200.3" y="0.5" width="22.2" height="9.3"></rect>
                        <rect x="222.5" y="0.5" width="22.2" height="9.3"></rect>
                        <rect x="244.7" y="0.5" width="22.2" height="9.3"></rect>
                    </g>
                    <g transform="translate(11.000000, 65.000000)">
                        <rect x="0.3" y="0.7" width="22.2" height="9.3"></rect>
                        <rect x="22.5" y="0.7" width="22.2" height="9.3"></rect>
                        <rect x="44.8" y="0.7" width="22.2" height="9.3"></rect>
                        <rect x="67" y="0.7" width="22.2" height="9.3"></rect>
                        <rect x="89.2" y="0.7" width="22.2" height="9.3"></rect>
                        <rect x="111.5" y="0.7" width="22.2" height="9.3"></rect>
                        <rect x="133.7" y="0.7" width="22.2" height="9.3"></rect>
                        <rect x="155.9" y="0.7" width="22.2" height="9.3"></rect>
                        <rect x="178.1" y="0.7" width="22.2" height="9.3"></rect>
                        <rect x="200.4" y="0.7" width="22.2" height="9.3"></rect>
                        <rect x="222.6" y="0.7" width="22.2" height="9.3"></rect>
                        <rect x="244.8" y="0.7" width="22.2" height="9.3"></rect>
                    </g>
                    <g transform="translate(0.000000, 75.000000)">
                        <rect x="0.2" y="0.3" width="22.2" height="9.3"></rect>
                        <rect x="22.4" y="0.3" width="22.2" height="9.3"></rect>
                        <rect x="44.7" y="0.3" width="22.2" height="9.3"></rect>
                        <rect x="66.9" y="0.3" width="22.2" height="9.3"></rect>
                        <rect x="89.1" y="0.3" width="22.2" height="9.3"></rect>
                        <rect x="111.3" y="0.3" width="22.2" height="9.3"></rect>
                        <rect x="133.6" y="0.3" width="22.2" height="9.3"></rect>
                        <rect x="155.8" y="0.3" width="22.2" height="9.3"></rect>
                        <rect x="178" y="0.3" width="22.2" height="9.3"></rect>
                        <rect x="200.3" y="0.3" width="22.2" height="9.3"></rect>
                        <rect x="222.5" y="0.3" width="22.2" height="9.3"></rect>
                        <rect x="244.7" y="0.3" width="22.2" height="9.3"></rect>
                    </g>
                    <g transform="translate(11.000000, 84.000000)">
                        <rect x="0.3" y="0.5" width="22.2" height="9.3"></rect>
                        <rect x="22.5" y="0.5" width="22.2" height="9.3"></rect>
                        <rect x="44.8" y="0.5" width="22.2" height="9.3"></rect>
                        <rect x="67" y="0.5" width="22.2" height="9.3"></rect>
                        <rect x="89.2" y="0.5" width="22.2" height="9.3"></rect>
                        <rect x="111.5" y="0.5" width="22.2" height="9.3"></rect>
                        <rect x="133.7" y="0.5" width="22.2" height="9.3"></rect>
                        <rect x="155.9" y="0.5" width="22.2" height="9.3"></rect>
                        <rect x="178.1" y="0.5" width="22.2" height="9.3"></rect>
                        <rect x="200.4" y="0.5" width="22.2" height="9.3"></rect>
                        <rect x="222.6" y="0.5" width="22.2" height="9.3"></rect>
                        <rect x="244.8" y="0.5" width="22.2" height="9.3"></rect>
                    </g>
                    <g transform="translate(0.000000, 94.000000)">
                        <rect x="0.2" y="0" width="22.2" height="9.3"></rect>
                        <rect x="22.4" y="0" width="22.2" height="9.3"></rect>
                        <rect x="44.7" y="0" width="22.2" height="9.3"></rect>
                        <rect x="66.9" y="0" width="22.2" height="9.3"></rect>
                        <rect x="89.1" y="0" width="22.2" height="9.3"></rect>
                        <rect x="111.3" y="0" width="22.2" height="9.3"></rect>
                        <rect x="133.6" y="0" width="22.2" height="9.3"></rect>
                        <rect x="155.8" y="0" width="22.2" height="9.3"></rect>
                        <rect x="178" y="0" width="22.2" height="9.3"></rect>
                        <rect x="200.3" y="0" width="22.2" height="9.3"></rect>
                        <rect x="222.5" y="0" width="22.2" height="9.3"></rect>
                        <rect x="244.7" y="0" width="22.2" height="9.3"></rect>
                    </g>
                    <g transform="translate(11.000000, 103.000000)">
                        <rect x="0.3" y="0.2" width="22.2" height="9.3"></rect>
                        <rect x="22.5" y="0.2" width="22.2" height="9.3"></rect>
                        <rect x="44.8" y="0.2" width="22.2" height="9.3"></rect>
                        <rect x="67" y="0.2" width="22.2" height="9.3"></rect>
                        <rect x="89.2" y="0.2" width="22.2" height="9.3"></rect>
                        <rect x="111.5" y="0.2" width="22.2" height="9.3"></rect>
                        <rect x="133.7" y="0.2" width="22.2" height="9.3"></rect>
                        <rect x="155.9" y="0.2" width="22.2" height="9.3"></rect>
                        <rect x="178.1" y="0.2" width="22.2" height="9.3"></rect>
                        <rect x="200.4" y="0.2" width="22.2" height="9.3"></rect>
                        <rect x="222.6" y="0.2" width="22.2" height="9.3"></rect>
                        <rect x="244.8" y="0.2" width="22.2" height="9.3"></rect>
                    </g>
                    <g transform="translate(0.000000, 112.000000)">
                        <rect x="0.2" y="0.8" width="22.2" height="9.3"></rect>
                        <rect x="22.4" y="0.8" width="22.2" height="9.3"></rect>
                        <rect x="44.7" y="0.8" width="22.2" height="9.3"></rect>
                        <rect x="66.9" y="0.8" width="22.2" height="9.3"></rect>
                        <rect x="89.1" y="0.8" width="22.2" height="9.3"></rect>
                        <rect x="111.3" y="0.8" width="22.2" height="9.3"></rect>
                        <rect x="133.6" y="0.8" width="22.2" height="9.3"></rect>
                        <rect x="155.8" y="0.8" width="22.2" height="9.3"></rect>
                        <rect x="178" y="0.8" width="22.2" height="9.3"></rect>
                        <rect x="200.3" y="0.8" width="22.2" height="9.3"></rect>
                        <rect x="222.5" y="0.8" width="22.2" height="9.3"></rect>
                        <rect x="244.7" y="0.8" width="22.2" height="9.3"></rect>
                    </g>
                    <g transform="translate(11.000000, 121.000000)">
                        <rect x="0.3" y="0.9" width="22.2" height="9.3"></rect>
                        <rect x="22.5" y="0.9" width="22.2" height="9.3"></rect>
                        <rect x="44.8" y="0.9" width="22.2" height="9.3"></rect>
                        <rect x="67" y="0.9" width="22.2" height="9.3"></rect>
                        <rect x="89.2" y="0.9" width="22.2" height="9.3"></rect>
                        <rect x="111.5" y="0.9" width="22.2" height="9.3"></rect>
                        <rect x="133.7" y="0.9" width="22.2" height="9.3"></rect>
                        <rect x="155.9" y="0.9" width="22.2" height="9.3"></rect>
                        <rect x="178.1" y="0.9" width="22.2" height="9.3"></rect>
                        <rect x="200.4" y="0.9" width="22.2" height="9.3"></rect>
                        <rect x="222.6" y="0.9" width="22.2" height="9.3"></rect>
                        <rect x="244.8" y="0.9" width="22.2" height="9.3"></rect>
                    </g>
                </g>
                <rect id="Rectangle" stroke="#161D38" stroke-width="4" fill="#FAF6EF" stroke-linecap="round" x="302.6" y="421.2" width="151.7" height="32.5"></rect>
                <path d="M431.8,399.7 L431.8,382.4 C431.8,378.5 428.7,375.4 424.8,375.4 L333.5,375.4 C329.6,375.4 326.5,378.5 326.5,382.4 L326.5,399.7 L431.8,399.7 Z" id="Path" stroke="#161D38" stroke-width="4" fill="#FF595E" stroke-linecap="round"></path>
                <path d="M454.8,409.9 L431.8,399.7 L379.2,399.7 L326.6,399.7 L303.6,409.9 C303.6,409.9 297.2,412 297.2,416.3 C297.2,420.6 297.2,434.2 297.2,434.2 L379.2,434.2 L461.2,434.2 C461.2,434.2 461.2,420.6 461.2,416.3 C461.2,412 454.8,409.9 454.8,409.9 Z" id="Path" stroke="#161D38" stroke-width="4" fill="#F1C390" stroke-linecap="round"></path>
                <g transform="translate(303.000000, 423.000000)" fill="#114B4F" id="Path" stroke="#161D38" stroke-linecap="round" stroke-linejoin="round" stroke-width="2">
                    <polygon points="7.9 0.8 0.4 11.2 7.9 11.2 15.4 11.2"></polygon>
                    <polygon points="22.9 0.8 15.4 11.2 22.9 11.2 30.4 11.2"></polygon>
                    <polygon points="37.9 0.8 37.9 0.8 37.9 0.8 37.9 0.8 37.9 0.8 30.4 11.2 37.9 11.2 37.9 11.2 45.4 11.2"></polygon>
                    <polygon points="52.9 0.8 45.4 11.2 52.9 11.2 60.4 11.2"></polygon>
                    <polygon points="67.9 0.8 60.4 11.2 67.9 11.2 75.4 11.2"></polygon>
                    <polygon points="82.9 0.8 75.4 11.2 82.9 11.2 90.4 11.2"></polygon>
                    <polygon points="98 0.8 90.4 11.2 98 11.2 105.5 11.2"></polygon>
                    <polygon points="113 0.8 105.5 11.2 113 11.2 120.5 11.2"></polygon>
                    <polygon points="128 0.8 120.5 11.2 128 11.2 135.5 11.2"></polygon>
                </g>
                <polygon id="Path" fill="#FF595E" points="104.769642 45.4 291.1 233.9 291.1 485.2 92 647.9"></polygon>
                <path d="M203.1,210.2 L167.4,183.6 L203.1,210.2 Z" id="Path" fill="#161D38"></path>
                <polygon id="Path" fill="#FF595E" points="807.2 82.6 735.8 127.3 670.9 127.3 566 227.9 566 489.7 670.9 563.6 732.4 563.6 807.2 611.7"></polygon>
                <polyline id="Path" stroke="#161D38" stroke-width="4" stroke-linecap="round" points="12.4 695.9 288.5 476.4 288.5 234.8 102.1 37.1"></polyline>
                <polygon id="Path" stroke="#161D38" stroke-width="4" fill="#F3EBDF" stroke-linecap="round" stroke-linejoin="round" points="307.8 496.4 253.8 496.4 253.8 399.7 307.8 399"></polygon>
                <polygon id="Path" stroke="#161D38" stroke-width="2" fill="#FF595E" stroke-linecap="round" stroke-linejoin="round" points="253.8 450.4 307.8 450.4 253.8 485.3"></polygon>
                <polygon id="Path" stroke="#161D38" stroke-width="2" fill="#FF595E" stroke-linecap="round" stroke-linejoin="round" points="253.8 489.7 307.8 489.7 253.8 547.6"></polygon>
                <polyline id="Path" stroke="#161D38" stroke-width="4" stroke-linecap="round" points="1014.7 766.1 734.4 557.6 670.9 557.6 566 481.9 566 234.8 670.9 131.4 735.8 131.4 1019.5 0.5"></polyline>
                <path d="M670.9,557.6 L670.9,183.5" id="Path" stroke="#161D38" stroke-width="4" stroke-linecap="round"></path>
                <path d="M670.9,131.4 L670.9,161.9" id="Path" stroke="#161D38" stroke-width="4" stroke-linecap="round"></path>
                <path d="M735.8,131.4 L735.8,473.4" id="Path" stroke="#161D38" stroke-width="4" stroke-linecap="round"></path>
                <path d="M735.8,494.9 L735.8,528.9" id="Path" stroke="#161D38" stroke-width="4" stroke-linecap="round"></path>
                <path d="M541.3,234.8 L566,234.8" id="Path" stroke="#161D38" stroke-width="4" stroke-linecap="round"></path>
                <path d="M288.5,234.8 L520.7,234.8" id="Path" stroke="#161D38" stroke-width="4" stroke-linecap="round"></path>
                <path d="M288.5,251.2 L566,251.2" id="Path" stroke="#161D38" stroke-width="4" stroke-linecap="round"></path>
                <rect id="Rectangle" stroke="#161D38" stroke-width="4" fill="#FAF6EF" stroke-linecap="round" x="437.7" y="375.4" width="128.3" height="91.6"></rect>
                <rect id="Rectangle" stroke="#161D38" stroke-width="4" fill="#E56565" stroke-linecap="round" x="439.8" y="234.8" width="8.5" height="137.7"></rect>
                <rect id="Rectangle" fill="#161D38" x="433.9" y="372.4" width="132.1" height="6"></rect>
                <rect id="Rectangle" stroke="#161D38" stroke-width="4" fill="#E56565" stroke-linecap="round" x="431.8" y="467" width="134.3" height="12.8"></rect>
                <rect id="Rectangle" stroke="#161D38" stroke-width="4" fill="#E6EBE0" stroke-linecap="round" x="185.7" y="415.1" width="66.1" height="143"></rect>
                <polygon id="Path" stroke="#161D38" stroke-width="4" fill="#E6EBE0" stroke-linecap="round" stroke-linejoin="round" points="185.7 415.1 256.5 397.1 307.8 397.1 251.8 415.1"></polygon>
                <polygon id="Path" stroke="#161D38" stroke-width="4" stroke-linecap="round" stroke-linejoin="round" points="307.8 397.1 307.8 496.4 251.8 556.7 251.8 415.1"></polygon>
                <path d="M251.8,426.1 L307.8,406.1" id="Path" stroke="#161D38" stroke-width="4" stroke-linecap="round" stroke-linejoin="round"></path>
                <path d="M307.8,450.4 L251.8,486.6" id="Path" stroke="#161D38" stroke-width="4" stroke-linecap="round" stroke-linejoin="round"></path>
                <path d="M251.8,548.1 L307.8,489.7" id="Path" stroke="#161D38" stroke-width="4" stroke-linecap="round" stroke-linejoin="round"></path>
                <path d="M554.2,437.6 C554.2,441.3 551.2,444.3 547.5,444.3 L485.1,444.3 C481.4,444.3 478.4,441.3 478.4,437.6 L478.4,421.1 C478.4,417.4 481.4,414.4 485.1,414.4 L547.5,414.4 C551.2,414.4 554.2,417.4 554.2,421.1 L554.2,437.6 Z" id="Path" stroke="#161D38" stroke-width="4" fill="#E6EBE0" stroke-linecap="round" stroke-linejoin="round"></path>
                <path d="M528.1,445.1 L545.4,404.8 C545.4,404.8 548.1,396.7 564.1,399.8 C580.1,402.8 627.1,418.8 627.1,418.8 C627.1,418.8 638.8,424.7 634.8,434.3 L622.5,460.8 L536.5,460.8 L528.1,445.1 Z" id="Path" stroke="#161D38" stroke-width="4" fill="#E6EBE0" stroke-linecap="round"></path>
                <path d="M470.5,453.7 L470.5,444.3 C470.5,444.3 473.5,432.7 488.5,432.7 C503.5,432.7 533.8,432.7 533.8,432.7 L610.5,460.7 L506.1,460.7 L506.1,518.9 C506.1,518.9 503,519.4 499.9,514.4 C496.8,509.4 476.1,473.4 476.1,473.4 L476.1,460.7 C476.1,460.7 470.5,458.1 470.5,453.7 Z" id="Path" stroke="#161D38" stroke-width="4" fill="#E6EBE0" stroke-linecap="round" stroke-linejoin="round"></path>
                <path d="M476.1,460.7 L506.1,499.1" id="Path" stroke="#161D38" stroke-width="4" stroke-linecap="round" stroke-linejoin="round"></path>
                <path d="M516.3,518.9 L509,541 C509,541 504.2,543.5 500.5,541 L504.4,518.6 C504.5,518.6 511.1,517.3 516.3,518.9 Z" id="Path" stroke="#161D38" stroke-width="4" fill="#E6EBE0" stroke-linecap="round"></path>
                <path d="M622.5,521 L626.8,540.8 C626.8,540.8 629.8,543 633.7,541.5 L634.3,519 C634.4,518.9 629.2,512.5 622.5,521 Z" id="Path" stroke="#161D38" stroke-width="4" fill="#E56565" stroke-linecap="round"></path>
                <path d="M434,281 C433.8,281 433.7,281 433.5,281 C424.8,281 409.9,281 409.9,281 C409.9,281 395,281 386.3,281 C386.1,281 386,281 385.8,281 C377.5,281.4 373.7,292.3 373.7,292.3 L410,292.3 L446.3,292.3 C446.1,292.3 442.3,281.5 434,281 Z" id="Path" stroke="#161D38" stroke-width="4" fill="#FAF6EF" stroke-linecap="round"></path>
                <path d="M415.8,275.8 L415.8,264.3 C415.8,264.3 414.1,258 407.9,258.8 C401.7,258 400,264.3 400,264.3 L400,275.8 L395.4,281 L407.8,281 L420.2,281 L415.8,275.8 Z" id="Path" stroke="#161D38" stroke-width="4" stroke-linecap="round"></path>
                <path d="M408.5,161.9 L408.5,258.8" id="Path" stroke="#161D38" stroke-width="4" stroke-linecap="round"></path>
                <g transform="translate(295.000000, 271.000000)">
                    <rect id="Rectangle" fill="#DCECEF" x="6.2" y="1.8" width="59.5" height="67.3"></rect>
                    <polygon id="Path" fill="#FFFFFF" opacity="0.6" points="6.2 40.5 6.2 48.6 49.7 1.8 42.1 1.8"></polygon>
                    <polygon id="Path" fill="#FFFFFF" opacity="0.6" points="6.2 53 6.2 56.8 57.2 1.8 53.8 1.8"></polygon>
                    <polygon id="Path" fill="#FFFFFF" opacity="0.6" points="26.1 69.1 65.7 26.5 65.7 22.8 22.7 69.1"></polygon>
                    <polygon id="Path" fill="#D1D3D4" points="4.5 71.2 0.2 73 72.5 73 67.6 71.2"></polygon>
                    <polygon id="Path" fill="#FFFFFF" opacity="0.6" points="18.2 69.1 65.7 18 65.7 16.5 16.8 69.1"></polygon>
                    <path d="M6.7,20.7 C6.7,20.7 13.3,25.1 20.2,22.6 C27.1,20 27.7,14.7 27.7,14.7 C27.7,14.7 29.7,15.3 31.6,14.7 C33.5,14.1 34.3,12.3 34.3,12.3 C34.3,12.3 36.5,15.3 44.2,14.4 C51.9,13.5 53.6,8.8 53.6,8.8 C53.6,8.8 55.3,11.1 59.1,11.5 C63,11.9 65.7,9.4 65.7,9.4 L65.7,2.6 L6.7,2.6 L6.7,20.3" id="Path" fill="#FFFFFF"></path>
                    <path d="M4.5,0.4 L4.5,71.2 L67.6,71.2 L67.6,0.4 L4.5,0.4 Z M7.2,3.3 L34.3,3.3 L34.3,67.4 L7.2,67.4 L7.2,3.3 Z M64.4,67.4 L37.7,67.4 L37.7,3.3 L64.4,3.3 L64.4,67.4 Z" id="Shape" stroke="#161D38" stroke-width="1.5" fill="#FFFFFF" fill-rule="nonzero" stroke-linecap="round"></path>
                    <path d="M19.9,27.7 C19.9,27.7 21.2,25.3 25.1,25.6 C25.1,25.6 25.5,23.6 29,23.4 C29,23.4 26,22.5 24.7,24.9 C24.7,24.9 21,24.4 19.9,27.7 Z" id="Path" fill="#A7A9AC"></path>
                    <path d="M43.8,29.7 C43.8,29.7 45,28.8 46.8,29.9 C46.8,29.9 47.5,29 49.2,29.7 C49.2,29.7 47.9,28.6 46.8,29.4 C46.8,29.5 45.1,28.4 43.8,29.7 Z" id="Path" fill="#A7A9AC"></path>
                    <path d="M39.5,20.3 C39.5,20.3 40.7,19.4 42.5,20.5 C42.5,20.5 43.2,19.6 44.9,20.3 C44.9,20.3 43.6,19.2 42.5,20 C42.5,20 40.8,18.9 39.5,20.3 Z" id="Path" fill="#A7A9AC"></path>
                    <path d="M67,85.6 C67,86.7 66.1,87.6 65,87.6 L55,87.6 C53.9,87.6 53,86.7 53,85.6 C53,84.5 53.9,83.6 55,83.6 L65,83.6 C66.1,83.6 67,84.5 67,85.6 Z" id="Path" stroke="#161D38" stroke-width="2" stroke-linecap="round"></path>
                </g>
                <g transform="translate(472.000000, 271.000000)">
                    <rect id="Rectangle" fill="#DCECEF" x="6.4" y="1.8" width="59.5" height="67.3"></rect>
                    <polygon id="Path" fill="#FFFFFF" opacity="0.6" points="6.4 40.5 6.4 48.6 49.9 1.8 42.3 1.8"></polygon>
                    <polygon id="Path" fill="#FFFFFF" opacity="0.6" points="6.4 53 6.4 56.8 57.4 1.8 54 1.8"></polygon>
                    <polygon id="Path" fill="#FFFFFF" opacity="0.6" points="26.3 69.1 65.9 26.5 65.9 22.8 22.8 69.1"></polygon>
                    <polygon id="Path" fill="#D1D3D4" points="4.7 72.1 0.4 74 72.7 74 67.8 72.1"></polygon>
                    <polygon id="Path" fill="#FFFFFF" opacity="0.6" points="18.4 69.1 65.9 18 65.9 16.5 17 69.1"></polygon>
                    <path d="M6.9,20.7 C6.9,20.7 13.5,25.1 20.4,22.6 C27.3,20 27.9,14.7 27.9,14.7 C27.9,14.7 29.9,15.3 31.8,14.7 C33.7,14.1 34.5,12.3 34.5,12.3 C34.5,12.3 36.7,15.3 44.4,14.4 C52.1,13.5 53.8,8.8 53.8,8.8 C53.8,8.8 55.5,11.1 59.3,11.5 C63.2,11.9 65.9,9.4 65.9,9.4 L65.9,2.6 L6.9,2.6 L6.9,20.3" id="Path" fill="#FFFFFF"></path>
                    <path d="M4.7,0.4 L4.7,71.2 L67.8,71.2 L67.8,0.4 L4.7,0.4 Z M7.4,3.3 L34.5,3.3 L34.5,67.4 L7.4,67.4 L7.4,3.3 Z M64.6,67.4 L38,67.4 L38,3.3 L64.7,3.3 L64.7,67.4 L64.6,67.4 Z" id="Shape" stroke="#161D38" stroke-width="1.5" fill="#FFFFFF" fill-rule="nonzero" stroke-linecap="round"></path>
                    <path d="M20.1,27.7 C20.1,27.7 21.4,25.3 25.3,25.6 C25.3,25.6 25.7,23.6 29.2,23.4 C29.2,23.4 26.2,22.5 24.9,24.9 C24.9,24.9 21.2,24.4 20.1,27.7 Z" id="Path" fill="#A7A9AC"></path>
                    <path d="M44,29.7 C44,29.7 45.2,28.8 47,29.9 C47,29.9 47.7,29 49.4,29.7 C49.4,29.7 48.1,28.6 47,29.4 C47,29.5 45.3,28.4 44,29.7 Z" id="Path" fill="#A7A9AC"></path>
                    <path d="M39.7,20.3 C39.7,20.3 40.9,19.4 42.7,20.5 C42.7,20.5 43.4,19.6 45.1,20.3 C45.1,20.3 43.8,19.2 42.7,20 C42.7,20 41,18.9 39.7,20.3 Z" id="Path" fill="#A7A9AC"></path>
                </g>
                <path d="M546.5,359.3 C546.5,360.8 545.3,362.1 543.7,362.1 L490.1,362.1 C488.6,362.1 487.3,360.9 487.3,359.3 C487.3,357.8 488.5,356.5 490.1,356.5 L543.7,356.5 C545.2,356.6 546.5,357.8 546.5,359.3 Z" id="Path" stroke="#161D38" stroke-width="2" stroke-linecap="round"></path>
                <path d="M556.2,318.3 C556.2,319 555.6,319.6 554.9,319.6 L552.4,319.6 C551.7,319.6 551.1,319 551.1,318.3 C551.1,317.6 551.7,317 552.4,317 L554.9,317 C555.6,317 556.2,317.6 556.2,318.3 Z" id="Path" stroke="#161D38" stroke-width="2" stroke-linecap="round"></path>
                <g transform="translate(392.000000, 326.000000)">
                    <circle id="Oval" stroke="#161D38" fill="#F1C390" stroke-linecap="round" cx="14.3" cy="14.1" r="13.8"></circle>
                    <circle id="Oval" stroke="#161D38" fill="#FFF9F3" stroke-linecap="round" cx="14.3" cy="14.1" r="11.8"></circle>
                    <text id="12" fill="#000000" font-family="Helvetica" font-size="2.273" font-weight="normal">
                        <tspan x="13.0337" y="4.981">12</tspan>
                    </text>
                    <text id="3" fill="#000000" font-family="Helvetica" font-size="2.273" font-weight="normal">
                        <tspan x="24.4556" y="14.6001">3</tspan>
                    </text>
                    <text id="9" fill="#000000" font-family="Helvetica" font-size="2.273" font-weight="normal">
                        <tspan x="3.1558" y="14.6001">9</tspan>
                    </text>
                    <text id="6" fill="#000000" font-family="Helvetica" font-size="2.273" font-weight="normal">
                        <tspan x="13.6646" y="24.0278">6</tspan>
                    </text>
                    <circle id="Oval" fill="#000000" cx="14.7" cy="14.1" r="1"></circle>
                    <path d="M15.2,10.2 C15.1,8.5 14.7,6.3 14.7,6.3 C14.7,6.3 14.3,8.5 14.2,10.2 C14.1,11.9 14.7,14.1 14.7,14.1 C14.7,14.1 15.3,11.9 15.2,10.2 Z" id="Path" fill="#000000"></path>
                    <path d="M16.2,17.7 C17.1,19.1 20,23.1 20,23.1 C20,23.1 17.8,18.7 17.1,17.2 C16.4,15.7 14.7,14.1 14.7,14.1 C14.7,14.1 15.3,16.3 16.2,17.7 Z" id="Path" fill="#000000"></path>
                </g>
                <path d="M634.8,515.7 C634.8,519.6 631.7,522.7 627.8,522.7 L513.1,522.7 C509.2,522.7 506.1,519.6 506.1,515.7 L506.1,453.7 C506.1,449.8 509.2,446.7 513.1,446.7 L627.8,446.7 C631.7,446.7 634.8,449.8 634.8,453.7 L634.8,515.7 Z" id="Path" stroke="#161D38" stroke-width="4" fill="#E6EBE0" stroke-linecap="round" stroke-linejoin="round"></path>
                <path d="M34.8,678 L893,678" id="Path"></path>
                <g transform="translate(193.000000, 353.000000)" id="Rectangle" stroke="#161D38" stroke-linecap="round" stroke-width="2">
                    <rect fill="#EEB659" x="0.9" y="11.9" width="8.1" height="48.2"></rect>
                    <rect fill="#7BCCC2" x="10.7" y="11.9" width="8.1" height="48.2"></rect>
                    <rect fill="#9AB2AE" x="20.5" y="11.9" width="12.1" height="48.2"></rect>
                    <rect fill="#F3A04E" x="34.2" y="0.5" width="12.1" height="59.6"></rect>
                    <rect fill="#E47A25" x="47.8" y="0.5" width="12.1" height="59.6"></rect>
                </g>
                <path d="M261.4,708.1 L256.7,718.3" id="Path" stroke="#161D38" stroke-width="2" stroke-linecap="round"></path>
                <polygon id="Path" stroke="#161D38" stroke-width="1.5" fill="#FFFFFF" stroke-linecap="round" points="596.6 291.5 575.3 291.5 575.3 293.6 617.9 296.1 649.7 296.1 649.7 293"></polygon>
                <path d="M616.4,296.2 L616.4,292.3" id="Path" stroke="#161D38" stroke-width="1.5" fill="#FFFFFF" stroke-linecap="round"></path>
                <g transform="translate(555.000000, 471.000000)">
                    <rect id="Rectangle" stroke="#161D38" stroke-width="3" fill="#93D6E1" stroke-linecap="round" x="0.2" y="0.6" width="94.6" height="67.9"></rect>
                    <rect id="Rectangle" stroke="#161D38" stroke-width="3" fill="#8B572A" stroke-linecap="round" x="4.2" y="38" width="86.5" height="27.1"></rect>
                    <rect id="Rectangle" stroke="#161D38" stroke-width="3" fill="#8B572A" stroke-linecap="round" x="4.2" y="6" width="86.5" height="27.1"></rect>
                    <path d="M37.8,4.7 C37.8,8.4 42.1,11.4 47.4,11.4 C52.7,11.4 57,8.4 57,4.7 C57,4.3 56.9,4 56.9,3.6 L37.9,3.6 C37.8,4 37.8,4.4 37.8,4.7 Z" id="Path" fill="#161D38"></path>
                    <path d="M37.8,36.6 C37.8,40.3 42.1,43.3 47.4,43.3 C52.7,43.3 57,40.3 57,36.6 C57,36.2 56.9,35.9 56.9,35.5 L37.9,35.5 C37.8,35.9 37.8,36.3 37.8,36.6 Z" id="Path" fill="#161D38"></path>
                    <rect id="Rectangle" stroke="#161D38" stroke-width="3" fill="#93D6E1" stroke-linecap="round" x="94.7" y="0.6" width="94.6" height="67.9"></rect>
                    <rect id="Rectangle" stroke="#161D38" stroke-width="3" fill="#8B572A" stroke-linecap="round" x="98.8" y="38" width="86.5" height="27.1"></rect>
                    <rect id="Rectangle" stroke="#161D38" stroke-width="3" fill="#8B572A" stroke-linecap="round" x="98.8" y="6" width="86.5" height="27.1"></rect>
                    <path d="M132.4,4.7 C132.4,8.4 136.7,11.4 142,11.4 C147.3,11.4 151.6,8.4 151.6,4.7 C151.6,4.3 151.5,4 151.5,3.6 L132.5,3.6 C132.4,4 132.4,4.4 132.4,4.7 Z" id="Path" fill="#161D38"></path>
                    <path d="M132.4,36.6 C132.4,40.3 136.7,43.3 142,43.3 C147.3,43.3 151.6,40.3 151.6,36.6 C151.6,36.2 151.5,35.9 151.5,35.5 L132.5,35.5 C132.4,35.9 132.4,36.3 132.4,36.6 Z" id="Path" fill="#161D38"></path>
                    <path d="M14.8,68.5 L11.5,68.5 C11.5,68.5 3.6,103 3.7,104.3 C3.8,105.6 4.8,105.4 4.8,105.4 C4.8,105.4 5.8,105.5 5.9,104.3 C6,103 18,68.5 18,68.5 L14.8,68.5 Z" id="Path" stroke="#161D38" stroke-width="3" fill="#FCB764" stroke-linecap="round"></path>
                    <path d="M176.2,68.5 L179.5,68.5 C179.5,68.5 185.9,103 185.8,104.3 C185.7,105.6 184.7,105.4 184.7,105.4 C184.7,105.4 183.7,105.5 183.6,104.3 C183.5,103 173,68.5 173,68.5 L176.2,68.5 Z" id="Path" stroke="#161D38" stroke-width="3" fill="#FCB764" stroke-linecap="round"></path>
                </g>
            </g>
        </g>
    </g>
</svg>