<?xml version="1.0" encoding="UTF-8"?>
<svg width="1400px" height="980px" viewBox="0 0 1400 980" version="1.1" xmlns="http://www.w3.org/2000/svg" xmlns:xlink="http://www.w3.org/1999/xlink">
    <!-- Generator: Sketch 52.6 (67491) - http://www.bohemiancoding.com/sketch -->
    <title>50</title>
    <desc>Created with Sketch.</desc>
    <g id="Page-1" stroke="none" stroke-width="1" fill="none" fill-rule="evenodd">
        <g id="50">
            <rect id="Rectangle" fill="#FFFFFF" x="0" y="0" width="1399.995" height="980"></rect>
            <g id="Group" transform="translate(235.000000, 659.000000)">
                <g transform="translate(282.000000, 0.000000)">
                    <polygon id="Path" fill="#E6EBE0" points="75.36 27.989 2.584 198.344 285.129 145.872 212.352 2.549"></polygon>
                    <path d="M2.584,200.301 C1.995,200.301 1.431,200.037 1.057,199.567 C0.606,199.005 0.501,198.237 0.784,197.576 L73.559,27.222 C73.817,26.618 74.358,26.186 75.002,26.068 C212.169,0.592 212.169,0.592 212.351,0.592 C213.089,0.592 213.761,1.005 214.096,1.662 L286.873,144.985 C287.152,145.535 287.156,146.185 286.883,146.739 C286.608,147.294 286.09,147.683 285.482,147.798 C284.854,147.913 2.941,200.267 2.941,200.267 C2.823,200.289 2.703,200.301 2.584,200.301 Z M76.748,29.721 L5.82,195.752 C224.535,155.133 271.88,146.342 282.207,144.439 L211.269,4.739 C197.458,7.304 88.522,27.535 76.748,29.721 Z" id="Shape" fill="#000000" fill-rule="nonzero"></path>
                </g>
                <g>
                    <polygon id="Path" fill="#114B4F" points="220.37 2.549 2.043 145.872 284.584 198.344 357.36 27.989"></polygon>
                    <path d="M284.584,200.301 C284.465,200.301 284.347,200.289 284.227,200.267 L1.685,147.795 C0.9,147.649 0.282,147.041 0.123,146.258 C-0.033,145.475 0.301,144.676 0.968,144.237 L219.296,0.914 C219.716,0.635 220.229,0.527 220.727,0.627 L357.717,26.068 C358.302,26.174 358.804,26.542 359.086,27.065 C359.365,27.588 359.394,28.211 359.16,28.758 L286.385,199.112 C286.071,199.842 285.356,200.301 284.584,200.301 Z M7.186,144.836 L283.401,196.135 L354.6,29.469 L220.787,4.616 L7.186,144.836 Z" id="Shape" fill="#000000" fill-rule="nonzero"></path>
                </g>
                <g transform="translate(492.000000, 0.000000)">
                    <polygon id="Path" fill="#114B4F" points="139.344 27.989 2.352 2.549 75.129 145.872 357.671 198.344"></polygon>
                    <path d="M357.671,200.301 C357.552,200.301 357.434,200.289 357.312,200.267 L74.772,147.795 C74.174,147.684 73.661,147.302 73.385,146.759 L0.607,3.436 C0.271,2.771 0.339,1.972 0.785,1.375 C1.232,0.783 1.978,0.484 2.71,0.626 L139.7,26.067 C140.01,26.124 140.3,26.254 140.544,26.445 L358.875,196.8 C359.586,197.358 359.826,198.324 359.455,199.147 C359.135,199.857 358.428,200.301 357.671,200.301 Z M76.437,144.125 L350.149,194.957 L138.514,29.828 L5.891,5.197 L76.437,144.125 Z" id="Shape" fill="#000000" fill-rule="nonzero"></path>
                </g>
            </g>
            <path d="M592.362,674.15 C592.24,674.15 592.115,674.138 591.991,674.116 L472.274,651.121 C471.211,650.915 470.518,649.891 470.72,648.828 C470.926,647.769 471.956,647.1 473.012,647.276 L592.729,670.271 C593.792,670.477 594.485,671.501 594.283,672.564 C594.101,673.501 593.281,674.15 592.362,674.15 Z" id="Path" fill="#000000"></path>
            <path d="M532.5,874.254 C531.577,874.254 530.755,873.6 530.58,872.659 C530.379,871.596 531.079,870.572 532.14,870.374 L776.105,824.385 C777.175,824.182 778.194,824.881 778.391,825.945 C778.591,827.008 777.892,828.032 776.831,828.23 L532.866,874.219 C532.742,874.242 532.62,874.254 532.5,874.254 Z" id="Path" fill="#000000"></path>
            <g id="Group" transform="translate(594.000000, 94.000000)" fill="#114B4F" fill-rule="nonzero">
                <g id="Shape">
                    <path d="M212.86,424.177 C164.764,424.177 117.636,407.581 80.157,377.439 L77.134,374.951 C69.008,368.167 61.249,360.614 54.076,352.514 L52.705,350.97 L52.705,351.034 L49.46,347.208 C22.645,314.692 6.25,275.457 2.051,233.756 L1.963,233.263 L1.6,229.273 L1.627,228.241 C1.182,222.423 0.966,217.229 0.966,212.275 L1.021,207.543 C1.285,196.745 2.357,185.924 4.205,175.386 L4.368,174.469 L4.354,174.469 L5.01,170.999 C11.64,137.39 26.642,105.474 48.391,78.699 L49.427,77.422 L49.398,77.422 L52.099,74.223 C92.561,27.293 151.159,0.373 212.861,0.373 C272.224,0.373 329.256,25.535 369.333,69.407 L372.734,73.279 C404.227,109.434 422.624,155.779 424.533,203.779 L424.595,205.308 L424.619,205.285 L424.744,209.696 C424.757,210.556 424.765,211.416 424.765,212.276 C424.764,329.117 329.704,424.177 212.86,424.177 Z M82.257,374.9 L82.944,375.447 C119.693,404.729 165.831,420.855 212.861,420.855 C326.456,420.855 420.02,328.452 421.428,214.877 L421.451,212.951 L408.572,225.843 L367.272,184.536 L353.347,184.536 L349.546,188.343 L349.546,200.941 L331.747,218.737 L341.78,228.786 L341.78,239.985 L315.883,265.888 L315.883,295.511 L305.911,305.495 L305.911,332.052 L284.728,353.236 L271.763,353.236 L253.657,335.126 L253.657,314.555 L244.865,305.764 L244.865,268.508 L224.082,247.723 L196.143,247.723 L174.431,226.005 L174.431,200.056 L200.271,174.225 L228.931,174.225 L242.356,160.797 L257.863,176.304 L289.74,176.304 L297.642,168.407 L297.642,156.726 L290.275,149.357 L279.67,149.357 L271.72,157.322 L251.925,157.322 L239.177,144.583 L217.713,166.182 L207.882,166.182 L202.067,160.365 L202.067,144.862 L221.864,125.055 L238.258,125.055 L242.133,113.722 L234.775,106.357 L234.775,96.427 L254.28,76.941 L275.52,76.941 L286.111,87.528 L315.34,87.528 L325.173,77.69 L353.702,77.69 L361.736,69.663 L365.077,69.663 L363.814,68.341 C324.609,27.256 269.587,3.691 212.857,3.691 C153.839,3.691 97.327,28.876 57.807,72.782 L56.63,74.089 L73.318,74.089 L78.484,68.929 L88.506,78.944 L76.543,90.892 L55.772,90.892 L42.098,107.412 L52.169,117.492 L66.483,117.492 L77.472,106.495 L93.529,106.495 L110.569,123.531 L84.944,149.156 L60.115,149.156 L37.774,171.497 L37.774,188.158 L24.09,174.47 L7.708,174.47 L7.594,175.116 C5.964,184.213 4.924,193.532 4.506,202.808 L4.425,204.562 L13.786,196.868 L13.786,208.213 L23.554,217.983 L23.554,233.914 L30.205,240.561 L44.049,226.706 L67.863,226.706 L87.536,246.372 L94.365,239.538 L102.481,247.657 L111.442,247.657 L138.83,275.036 L138.83,287.412 L125.452,300.797 L125.452,316.415 L89.613,352.265 L89.613,367.535 L82.257,374.9 Z M52.705,345.905 L52.889,346.123 C60.878,355.629 69.702,364.442 79.114,372.324 L79.662,372.783 L86.296,366.163 L86.296,350.882 L122.133,315.033 L122.133,299.419 L135.515,286.045 L135.515,276.413 L110.076,250.975 L101.113,250.975 L94.37,244.237 L87.544,251.079 L66.489,230.03 L45.426,230.03 L30.208,245.269 L20.236,235.289 L20.236,219.358 L10.468,209.581 L10.468,203.916 L4.322,208.954 C4.322,208.954 4.28,211.293 4.28,212.275 C4.28,218.7 4.59,225.305 5.197,231.906 L5.223,232.185 L29.37,256.342 L29.37,289.993 L52.704,313.332 L52.704,345.905 L52.705,345.905 Z M256.977,333.758 L273.139,349.91 L283.356,349.91 L302.584,330.692 L302.584,304.12 L312.562,294.144 L312.562,264.521 L338.459,238.614 L338.459,230.152 L327.046,218.738 L346.226,199.566 L346.226,186.964 L351.971,181.212 L368.65,181.212 L408.572,221.135 L421.389,208.308 L421.383,207.975 C420.378,158.19 401.542,110.343 368.348,73.248 L368.115,72.988 L363.113,72.988 L355.079,81.014 L326.554,81.014 L316.723,90.853 L284.741,90.853 L274.148,80.257 L255.65,80.257 L238.104,97.809 L238.104,104.98 L245.953,112.831 L240.647,128.38 L223.247,128.38 L205.391,146.234 L205.391,158.993 L209.265,162.865 L216.327,162.865 L239.175,139.874 L253.296,153.998 L270.341,153.998 L278.299,146.04 L291.654,146.04 L300.975,155.359 L300.975,169.788 L291.113,179.63 L256.495,179.63 L242.358,165.503 L230.311,177.543 L201.648,177.543 L177.761,201.428 L177.761,224.633 L197.522,244.398 L225.459,244.398 L248.192,267.137 L248.192,304.404 L256.98,313.191 L256.98,333.758 L256.977,333.758 Z M6.078,239.738 C10.881,276.233 25.371,310.912 47.981,340.03 L49.384,341.834 L49.384,314.715 L26.049,291.365 L26.049,257.714 L5.778,237.452 L6.078,239.738 Z M34.452,180.126 L34.452,170.112 L58.748,145.833 L83.572,145.833 L105.86,123.53 L92.159,109.827 L78.85,109.827 L67.867,120.805 L50.797,120.805 L37.605,107.626 L54.211,87.574 L75.172,87.574 L83.807,78.944 L78.488,73.638 L74.696,77.422 L53.738,77.422 L53.503,77.701 C31.047,104.277 15.5,136.266 8.545,170.211 L8.352,171.151 L25.47,171.151 L34.452,180.126 Z"></path>
                    <path d="M315.199,306.207 L336.144,285.246 L335.97,307.163 L315.199,327.941 L315.199,306.207 Z M318.526,307.575 L318.526,319.894 L332.657,305.774 L332.76,293.34 L318.526,307.575 Z"></path>
                    <path d="M127.563,90.292 L127.563,77.973 L116.688,67.099 L129.646,54.153 L145.705,54.153 L156.509,43.355 L194.764,43.355 L205.751,55.311 L174.219,86.833 L153.722,86.833 L138.915,101.66 L127.563,90.292 Z M130.884,88.919 L138.915,96.938 L152.352,83.521 L172.845,83.521 L201.139,55.21 L193.298,46.667 L157.879,46.667 L147.074,57.469 L131.016,57.469 L121.395,67.097 L130.884,76.588 L130.884,88.919 Z"></path>
                    <path d="M80.25,59.427 L83.073,52.86 L107.854,52.86 L112.556,48.159 L133.076,48.044 L121.139,59.969 L100.548,59.969 L90.675,69.838 L80.25,59.427 Z M84.205,58.67 L90.682,65.141 L99.628,56.193 L85.26,56.193 L84.205,58.67 Z M113.942,51.473 L108.784,56.644 L119.76,56.644 L124.99,51.408 L113.942,51.473 Z"></path>
                </g>
            </g>
            <g id="Group" transform="translate(550.000000, 369.000000)">
                <g>
                    <path d="M116.877,2.653 C54.605,2.653 4.013,52.541 2.813,114.527 C2.8,115.277 2.76,116.022 2.76,116.771 C2.76,119.921 2.897,123.047 3.15,126.132 C4.654,144.597 10.573,161.813 19.825,176.75 C20.263,177.453 20.689,178.156 21.139,178.852 L38.215,208.429 L93.752,304.619 L116.495,344.012 L116.877,344.673 L140.005,304.619 L189.969,218.072 L212.621,178.837 C224.229,160.968 230.997,139.666 230.997,116.771 C230.998,53.75 179.904,2.653 116.877,2.653 Z" id="Path" fill="#FF595E"></path>
                    <path d="M116.877,346.63 C116.179,346.63 115.531,346.259 115.182,345.651 L19.444,179.83 C19.165,179.402 18.844,178.886 18.525,178.366 L18.164,177.785 C8.543,162.252 2.678,144.447 1.199,126.292 C0.937,123.073 0.803,119.871 0.803,116.771 C0.803,116.301 0.818,115.831 0.833,115.361 L0.856,114.493 C2.071,51.743 54.117,0.697 116.877,0.697 C180.883,0.697 232.955,52.768 232.955,116.771 C232.955,139.25 226.491,161.079 214.264,179.904 L118.573,345.652 C118.222,346.255 117.576,346.63 116.877,346.63 Z M116.877,4.61 C56.235,4.61 5.943,53.936 4.77,114.565 L4.745,115.486 C4.73,115.914 4.717,116.342 4.717,116.77 C4.717,119.767 4.845,122.863 5.101,125.97 C6.529,143.514 12.195,160.714 21.489,175.717 L22.781,177.784 L116.878,340.758 L210.929,177.858 C222.797,159.584 229.042,138.488 229.042,116.77 C229.041,54.927 178.725,4.61 116.877,4.61 Z" id="Shape" fill="#000000" fill-rule="nonzero"></path>
                </g>
                <g transform="translate(39.000000, 40.000000)">
                    <circle id="Oval" fill="#FFFFFF" cx="77.878" cy="77.723" r="75.344"></circle>
                    <path d="M77.879,155.023 C35.255,155.023 0.578,120.348 0.578,77.722 C0.578,35.096 35.255,0.42 77.879,0.42 C120.503,0.42 155.18,35.096 155.18,77.722 C155.18,120.348 120.503,155.023 77.879,155.023 Z M77.879,4.335 C37.413,4.335 4.491,37.256 4.491,77.723 C4.491,118.189 37.412,151.11 77.879,151.11 C118.345,151.11 151.266,118.189 151.266,77.723 C151.266,37.256 118.345,4.335 77.879,4.335 Z" id="Shape" fill="#000000" fill-rule="nonzero"></path>
                </g>
            </g>
        </g>
    </g>
</svg>