<?xml version="1.0" encoding="UTF-8"?>
<svg width="1213px" height="1152px" viewBox="0 0 1213 1152" version="1.1" xmlns="http://www.w3.org/2000/svg" xmlns:xlink="http://www.w3.org/1999/xlink">
    <!-- Generator: Sketch 52.6 (67491) - http://www.bohemiancoding.com/sketch -->
    <title>Group 2</title>
    <desc>Created with Sketch.</desc>
    <g id="Page-1" stroke="none" stroke-width="1" fill="none" fill-rule="evenodd">
        <g id="Group-2">
            <g id="Group" transform="translate(527.000000, 932.000000)">
                <polygon id="Path" fill="#E6EBE0" points="252.9 2.8 252.9 216.8 2.5 216.8 2.5 2.8 26.9 2.8 228.5 2.8"></polygon>
                <path d="M252.9,219.3 L2.5,219.3 C1.1,219.3 0,218.2 0,216.8 L0,2.8 C0,1.4 1.1,0.3 2.5,0.3 L252.9,0.3 C254.3,0.3 255.4,1.4 255.4,2.8 L255.4,216.8 C255.4,218.2 254.3,219.3 252.9,219.3 Z M5,214.2 L250.3,214.2 L250.3,5.3 L5,5.3 L5,214.2 Z" id="Shape" fill="#000000" fill-rule="nonzero"></path>
            </g>
            <g id="Group" transform="translate(551.000000, 885.000000)">
                <polygon id="Path" fill="#114B4F" points="204.5 3.2 204.5 49.8 2.9 49.8 2.9 3.2 25.9 3.2 183.4 3.2"></polygon>
                <path d="M204.5,52.3 L2.9,52.3 C1.5,52.3 0.4,51.2 0.4,49.8 L0.4,3.2 C0.4,1.8 1.5,0.7 2.9,0.7 L204.5,0.7 C205.9,0.7 207,1.8 207,3.2 L207,49.8 C207,51.2 205.9,52.3 204.5,52.3 Z M5.4,47.3 L201.9,47.3 L201.9,5.8 L5.4,5.8 L5.4,47.3 Z" id="Shape" fill="#000000" fill-rule="nonzero"></path>
            </g>
            <g id="Group" transform="translate(475.000000, 517.000000)">
                <path d="M191.6,5 L203.6,7.9 C204.6,8.3 228.5,18.4 240.7,40.6 C241.1,41.3 241.5,41.9 241.7,42.5 L279.4,106.9 L307,154.1 C307.3,154.5 314.2,164.8 314.2,182.5 C314.2,190.4 312.8,198.7 310,207.1 L264,328.6 L259.4,371.2 L101.9,371.2 L100.4,367.1 L85.6,332.2 C85.1,331.1 74.6,304.5 74.6,276.8 C74.6,267.9 75.7,259.8 77.9,252.7 L35.3,184 L59.7,170.7 L35.1,135.4 C35.1,135.4 25.7,123.9 2.6,127.7 L2.7,126.9 C2.7,126.9 2.7,126.9 2.7,126.9 C2.7,126.9 2.7,126.9 2.7,126.9 L2.9,124.3 L3.4,124.2 C4,122.2 4.8,120.3 6.3,118.6 L6.9,117.9 L7.8,117.6 C8.4,117.4 69.9,98.1 109.5,171.6 C109.8,172 138.2,209.7 161.4,199.9 C161.7,199.8 189.1,192.6 189.1,160.6 C189.1,159.6 189,158.6 188.9,157.6 C188.7,153.9 188.3,150.1 187.5,146.4 L152.6,47.7 L151.6,47 L142.6,40.8 L131.5,40.8 C117.5,38.5 110.5,33.5 110.5,25.9 C110.5,25.9 110.5,25.9 110.5,25.9 C110.5,19.5 116,14.3 116.9,13.5 C124.3,8 135.3,4.5 149.6,3.2 C170.4,1.4 191.2,4.9 191.6,5 Z" id="Path" fill="#FFEDDD"></path>
                <path d="M259.4,373.8 L101.9,373.8 C100.8,373.8 99.9,373.1 99.5,372.1 L98,368 L83.2,333.2 C83.1,332.9 72,305.6 72,276.8 C72,268.1 73,260.1 75.1,253 L33.2,185.4 C32.8,184.8 32.7,184.1 32.9,183.4 C33.1,182.7 33.5,182.2 34.1,181.8 L56,169.9 L33.1,137 C33,136.9 26.7,129.6 11.7,129.6 C9,129.6 6.1,129.8 3.1,130.3 C2.3,130.4 1.6,130.2 1,129.7 C0.4,129.2 0.1,128.4 0.2,127.6 L0.4,124.2 C0.5,123.5 0.8,122.9 1.3,122.4 C2,120.4 3,118.6 4.3,117 L4.9,116.3 C5.2,115.9 5.6,115.7 6.1,115.5 L7,115.2 C7.1,115.2 15,112.6 26.9,112.6 C46.9,112.6 84.6,120.1 111.8,170.4 C111.8,170.4 133.6,199 153.3,199 C155.8,199 158.2,198.5 160.4,197.6 C161.8,197.2 186.6,190.4 186.6,160.6 C186.6,160.1 186.6,159.6 186.5,159 L186.4,157.7 C186.2,153.7 185.8,150.2 185.1,147 L150.6,49.4 L141.9,43.4 L131.6,43.4 C115.8,40.9 108,35 108,26 C108,18.5 114,12.8 115.2,11.7 C123.2,5.7 134.6,2.1 149.3,0.8 C153.5,0.4 158.1,0.2 162.8,0.2 C178.9,0.2 192.1,2.4 192.2,2.5 L204.2,5.4 C205.6,5.9 230.2,16.2 242.9,39.3 C243.3,40 243.7,40.7 244,41.2 L309.2,152.7 C309.4,153 316.7,163.7 316.7,182.4 C316.7,190.6 315.3,199.1 312.4,207.8 L266.5,329.1 L261.9,371.4 C261.8,372.8 260.7,373.8 259.4,373.8 Z M103.7,368.7 L257.2,368.7 L261.6,328.4 C261.6,328.2 261.7,328 261.7,327.8 L307.7,206.3 C310.3,198.2 311.7,190.2 311.7,182.5 C311.7,165.4 305.1,155.6 305,155.5 L239.6,43.7 C239.3,43.1 238.9,42.4 238.5,41.8 C226.7,20.2 202.9,10.3 202.7,10.2 L191.1,7.4 C191.1,7.4 178.4,5.3 162.8,5.3 C158.2,5.3 153.8,5.5 149.7,5.9 C136,7.1 125.4,10.4 118.3,15.7 C118.3,15.8 113,20.6 113,26.1 C113,32.3 119.4,36.5 131.9,38.5 L142.6,38.5 C143.1,38.5 143.6,38.7 144,38.9 L154.1,45.8 C154.5,46.1 154.9,46.5 155,47 L189.9,145.7 C190.7,149.5 191.2,153.3 191.4,157.6 L191.5,158.8 C191.5,159.5 191.6,160.1 191.6,160.7 C191.6,194.5 162.2,202.4 161.9,202.5 C159.4,203.6 156.4,204.2 153.2,204.2 C153.2,204.2 153.2,204.2 153.2,204.2 C130.7,204.2 107.6,173.5 107.4,173.2 C82.6,127.3 49.9,117.8 26.8,117.8 C15.8,117.8 8.6,120.1 8.5,120.1 L8.2,120.3 C7.1,121.6 6.4,123 5.9,124.8 C7.9,124.6 9.8,124.5 11.7,124.5 C29.2,124.5 36.8,133.5 37.1,133.9 L61.8,169.3 C62.2,169.9 62.4,170.6 62.2,171.3 C62,172 61.6,172.6 60.9,172.9 L38.8,184.9 L79.9,251.2 C80.3,251.8 80.4,252.6 80.2,253.3 C78.1,260.2 77,268 77,276.7 C77,304.6 87.7,330.9 87.8,331.2 L103.7,368.7 Z" id="Shape" fill="#000000" fill-rule="nonzero"></path>
            </g>
            <path d="M510.3,703.5 C509.5,703.5 508.6,703.1 508.1,702.3 L479.8,656.7 C479.6,656.5 477.4,654 476.1,650.2 C476,650.1 475.8,650 475.7,649.9 C475.1,649.4 474.8,648.6 474.9,647.8 L475.1,644.5 C475.2,643.3 476.1,642.4 477.2,642.2 C480.4,641.7 483.6,641.4 486.6,641.4 C504.1,641.4 511.7,650.4 512,650.8 L536.7,686.2 C537.1,686.8 537.3,687.5 537.1,688.2 C536.9,688.9 536.5,689.5 535.8,689.8 L511.4,703.1 C511.1,703.5 510.7,703.5 510.3,703.5 Z M480.4,646.9 C480.5,647 480.5,647.2 480.6,647.4 C481.4,651 483.6,653.4 483.9,653.7 L511.2,697.6 L531,686.8 L508.1,653.9 C508,653.8 501.7,646.5 486.7,646.5 C484.7,646.5 482.6,646.7 480.4,646.9 Z" id="Shape" fill="#000000" fill-rule="nonzero"></path>
            <g id="Group" transform="translate(358.000000, 355.000000)">
                <rect id="Rectangle" fill="#E6EBE0" x="2.7" y="2.8" width="559.5" height="307"></rect>
                <path d="M562.2,312.3 L2.7,312.3 C1.3,312.3 0.2,311.2 0.2,309.8 L0.2,2.8 C0.2,1.4 1.3,0.3 2.7,0.3 L562.2,0.3 C563.6,0.3 564.7,1.4 564.7,2.8 L564.7,309.8 C564.8,311.2 563.6,312.3 562.2,312.3 Z M5.3,307.3 L559.7,307.3 L559.7,5.3 L5.3,5.3 L5.3,307.3 Z" id="Shape" fill="#231F20" fill-rule="nonzero"></path>
            </g>
            <g id="Group" transform="translate(474.000000, 641.000000)">
                <path d="M36.1,11.9 L60.7,47.2 L36.3,60.5 L30.2,50.6 L26.6,44.8 L8,14.8 C7.1,13.9 5,11.1 4.1,7.3 L3.4,7.4 L3.6,4.1 C26.7,0.4 36.1,11.9 36.1,11.9 Z" id="Path" fill="#E6D4C5"></path>
                <path d="M36.3,62.9 C35.5,62.9 34.6,62.5 34.1,61.7 L5.8,16.1 C5.6,15.9 3.4,13.5 2.1,9.6 C2,9.5 1.8,9.4 1.7,9.3 C1.1,8.8 0.8,8 0.9,7.2 L1.1,3.9 C1.2,2.7 2.1,1.8 3.2,1.6 C6.4,1.1 9.6,0.8 12.6,0.8 C30.1,0.8 37.7,9.8 38,10.2 L62.7,45.6 C63.1,46.2 63.3,46.9 63.1,47.6 C62.9,48.3 62.5,48.9 61.8,49.2 L37.4,62.5 C37.1,62.8 36.7,62.9 36.3,62.9 Z M6.4,6.3 C6.5,6.4 6.5,6.6 6.5,6.7 C7.2,9.7 8.9,12.1 9.8,13 L37.1,56.9 L56.9,46.1 L34,13.2 C33.9,13.1 27.6,5.8 12.6,5.8 C10.7,5.9 8.6,6.1 6.4,6.3 Z" id="Shape" fill="#000000" fill-rule="nonzero"></path>
            </g>
            <g id="Group" transform="translate(392.000000, 385.000000)">
                <rect id="Rectangle" fill="#FF595E" x="3.3" y="2.8" width="147.8" height="152.9"></rect>
                <path d="M151.1,158.2 L3.3,158.2 C1.9,158.2 0.8,157.1 0.8,155.7 L0.8,2.8 C0.8,1.4 1.9,0.3 3.3,0.3 L151.1,0.3 C152.5,0.3 153.6,1.4 153.6,2.8 L153.6,155.7 C153.6,157 152.5,158.2 151.1,158.2 Z M5.8,153.1 L148.5,153.1 L148.5,5.3 L5.8,5.3 L5.8,153.1 Z" id="Shape" fill="#000000" fill-rule="nonzero"></path>
            </g>
            <g id="Group" transform="translate(593.000000, 405.000000)">
                <rect id="Rectangle" fill="#114B4F" x="3.2" y="3.3" width="275.3" height="34.5"></rect>
                <path d="M278.5,40.3 L3.2,40.3 C1.8,40.3 0.7,39.2 0.7,37.8 L0.7,3.3 C0.7,1.9 1.8,0.8 3.2,0.8 L278.5,0.8 C279.9,0.8 281,1.9 281,3.3 L281,37.8 C281.1,39.2 279.9,40.3 278.5,40.3 Z M5.7,35.3 L276,35.3 L276,5.9 L5.7,5.9 L5.7,35.3 Z" id="Shape" fill="#231F20" fill-rule="nonzero"></path>
            </g>
            <g id="Group" transform="translate(593.000000, 481.000000)">
                <rect id="Rectangle" fill="#114B4F" x="3.2" y="3.4" width="275.3" height="34.5"></rect>
                <path d="M278.5,40.4 L3.2,40.4 C1.8,40.4 0.7,39.3 0.7,37.9 L0.7,3.4 C0.7,2 1.8,0.9 3.2,0.9 L278.5,0.9 C279.9,0.9 281,2 281,3.4 L281,37.9 C281.1,39.3 279.9,40.4 278.5,40.4 Z M5.7,35.3 L276,35.3 L276,5.9 L5.7,5.9 L5.7,35.3 Z" id="Shape" fill="#231F20" fill-rule="nonzero"></path>
            </g>
            <g id="Group" transform="translate(654.000000, 559.000000)">
                <path d="M23.6,29.5 C22.8,28.4 23,27 23.9,26.3 C26.1,24.7 28.3,23.1 30.5,21.5 C31.5,20.8 31.7,19.4 31,18.4 C28,14.1 25.2,9.5 22.7,4.8 C22.1,3.7 20.8,3.3 19.7,3.8 C14.4,6.5 9,9.2 3.7,12 C2.6,12.5 2.3,14 3,15.3 C9.7,27.9 18.1,39.4 27.9,49.5 C28.9,50.5 30.5,52.2 31.6,53.2 C41.7,63 53.2,71.4 65.8,78.1 C67.1,78.8 68.6,78.4 69.1,77.4 C71.8,72.1 74.5,66.7 77.3,61.4 C77.8,60.3 77.4,59 76.3,58.4 C71.6,55.9 67.1,53.1 62.7,50.1 C61.7,49.4 60.3,49.6 59.6,50.6 C58,52.8 56.4,55 54.8,57.2 C54.1,58.2 52.6,58.3 51.6,57.5 C47,54 42.6,50.2 38.4,46.2 C37.4,45.3 35.9,43.7 35,42.8 C30.9,38.5 27.1,34.1 23.6,29.5 Z" id="Path" fill="#FFFFFF"></path>
                <path d="M67.1,80.9 C66.2,80.9 65.3,80.7 64.5,80.2 C51.8,73.5 40.1,64.9 29.7,54.9 C28.7,53.9 27,52.2 26,51.2 C16,40.8 7.5,29.1 0.7,16.4 C1.11022302e-16,15.1 -0.1,13.6 0.3,12.3 C0.7,11.1 1.5,10.2 2.5,9.6 L18.5,1.4 C20.8,0.2 23.7,1.2 24.9,3.5 C27.4,8.1 30.1,12.6 33.1,16.8 C34.6,18.9 34.1,21.9 32.1,23.4 L25.5,28.2 C29.2,32.4 32.9,36.8 36.8,40.8 C37.7,41.7 39.2,43.3 40.2,44.2 C44.3,48.1 48.6,51.9 53.2,55.3 L57.7,48.9 C59.2,46.9 62.2,46.4 64.3,47.8 C68.5,50.8 73,53.5 77.6,56 C79.9,57.2 80.8,60.1 79.7,62.3 L71.5,78.3 C70.5,80 68.9,80.9 67.1,80.9 Z M20.5,6 L4.9,14.2 C11.8,26.4 20,37.7 29.7,47.7 C30.7,48.7 32.3,50.3 33.3,51.3 C43.3,61 54.6,69.2 66.9,75.7 L67.1,75.8 L67.1,78.3 L67.1,75.8 L74.9,60.1 C70.2,58 65.5,55.1 61.2,52 L60.6,53.3 L56.8,58.5 C55.3,60.5 52.1,60.9 50,59.3 C45.3,55.8 40.8,51.9 36.6,47.8 C35.6,46.9 34.1,45.3 33.1,44.3 C29.1,40.1 25.2,35.6 21.6,30.9 C20.8,29.8 20.4,28.4 20.6,27.1 C20.8,25.9 21.4,24.8 22.4,24.1 L29,19.3 C25.9,15.5 23,10.8 20.5,6 Z" id="Shape" fill="#000000" fill-rule="nonzero"></path>
            </g>
            <g id="Group" transform="translate(404.000000, 559.000000)">
                <polygon id="Path" fill="#FFFFFF" points="65.2 35.4 33.9 2.9 2.7 35.4 12.1 35.4 12.1 79 55.8 79 55.8 35.4"></polygon>
                <path d="M55.8,81.6 L12,81.6 C10.6,81.6 9.5,80.5 9.5,79.1 L9.5,38 L2.7,38 C1.7,38 0.8,37.4 0.4,36.5 C-5.49560397e-14,35.6 0.2,34.5 0.9,33.7 L32.2,1.2 C33.2,0.2 34.9,0.2 35.9,1.2 L67.2,33.7 C67.9,34.4 68.1,35.5 67.7,36.5 C67.3,37.4 66.4,38 65.4,38 L58.6,38 L58.6,79 C58.4,80.4 57.2,81.6 55.8,81.6 Z M14.6,76.5 L53.3,76.5 L53.3,35.4 C53.3,34 54.4,32.9 55.8,32.9 L59.2,32.9 L33.9,6.6 L8.6,32.9 L12,32.9 C13.4,32.9 14.5,34 14.5,35.4 L14.5,76.5 L14.6,76.5 Z" id="Shape" fill="#000000" fill-rule="nonzero"></path>
            </g>
            <g id="Group" transform="translate(564.000000, 968.000000)">
                <circle id="Oval" fill="#114B4F" cx="32.2" cy="31.7" r="29.2"></circle>
                <path d="M32.2,63.4 C14.7,63.4 0.5,49.2 0.5,31.7 C0.5,14.2 14.7,-1.13686838e-13 32.2,-1.13686838e-13 C49.7,-1.13686838e-13 63.9,14.2 63.9,31.7 C63.9,49.2 49.7,63.4 32.2,63.4 Z M32.2,5 C17.5,5 5.6,17 5.6,31.6 C5.6,46.3 17.6,58.2 32.2,58.2 C46.9,58.2 58.8,46.2 58.8,31.6 C58.8,17 46.9,5 32.2,5 Z" id="Shape" fill="#231F20" fill-rule="nonzero"></path>
            </g>
            <path d="M742.6,1125.3 C741.2,1125.3 740.1,1124.2 740.1,1122.8 L740.1,1041.8 C740.1,1040.4 741.2,1039.3 742.6,1039.3 C744,1039.3 745.1,1040.4 745.1,1041.8 L745.1,1122.8 C745.1,1124.1 744,1125.3 742.6,1125.3 Z" id="Path" fill="#231F20"></path>
            <path d="M742.6,1019.3 C741.2,1019.3 740.1,1018.2 740.1,1016.8 L740.1,974.3 C740.1,972.9 741.2,971.8 742.6,971.8 C744,971.8 745.1,972.9 745.1,974.3 L745.1,1016.8 C745.1,1018.2 744,1019.3 742.6,1019.3 Z" id="Path" fill="#231F20"></path>
            <g id="Group" transform="translate(416.000000, 468.000000)">
                <path d="M103.4,72.6 L103.4,22.6 C103.4,12 95.2,3.3 85.1,3.3 L21.2,3.3 C11.2,3.3 2.9,12 2.9,22.6 L2.9,72.6 L103.4,72.6 Z" id="Path" fill="#FFFFFF"></path>
                <path d="M103.4,75.2 L3,75.2 C1.6,75.2 0.5,74.1 0.5,72.7 L0.5,22.7 C0.5,10.7 9.8,0.9 21.3,0.9 L85.2,0.9 C96.7,0.9 106,10.7 106,22.7 L106,72.7 C105.9,74 104.8,75.2 103.4,75.2 Z M5.5,70.1 L100.8,70.1 L100.8,22.6 C100.8,13.4 93.7,5.9 85.1,5.9 L21.2,5.9 C12.5,5.9 5.5,13.4 5.5,22.6 L5.5,70.1 Z" id="Shape" fill="#000000" fill-rule="nonzero"></path>
            </g>
            <g id="Group" transform="translate(445.000000, 405.000000)">
                <path d="M45,36.6 C45,48.1 35.7,57.4 24.2,57.4 C12.7,57.4 3.4,48.1 3.4,36.6 L3.4,24.1 C3.4,12.6 12.7,3.3 24.2,3.3 C35.7,3.3 45,12.6 45,24.1 L45,36.6 Z" id="Path" fill="#FFFFFF"></path>
                <path d="M24.2,60 C11.3,60 0.8,49.5 0.8,36.6 L0.8,24.1 C0.8,11.2 11.3,0.7 24.2,0.7 C37.1,0.7 47.6,11.2 47.6,24.1 L47.6,36.6 C47.6,49.5 37.1,60 24.2,60 Z M24.2,5.8 C14.1,5.8 5.9,14 5.9,24.1 L5.9,36.6 C5.9,46.7 14.1,54.9 24.2,54.9 C34.3,54.9 42.5,46.7 42.5,36.6 L42.5,24.1 C42.5,14 34.3,5.8 24.2,5.8 Z" id="Shape" fill="#000000" fill-rule="nonzero"></path>
            </g>
            <g id="Group" transform="translate(439.000000, 507.000000)">
                <path d="M3,33.7 L3,3.4" id="Path" fill="#FFFFFF"></path>
                <path d="M3,36.2 C1.6,36.2 0.5,35.1 0.5,33.7 L0.5,3.4 C0.5,2 1.6,0.9 3,0.9 C4.4,0.9 5.5,2 5.5,3.4 L5.5,33.7 C5.5,35.1 4.4,36.2 3,36.2 Z" id="Path" fill="#000000"></path>
            </g>
            <g id="Group" transform="translate(493.000000, 507.000000)">
                <path d="M3.4,33.7 L3.4,3.4" id="Path" fill="#FFFFFF"></path>
                <path d="M3.4,36.2 C2,36.2 0.9,35.1 0.9,33.7 L0.9,3.4 C0.9,2 2,0.9 3.4,0.9 C4.8,0.9 5.9,2 5.9,3.4 L5.9,33.7 C6,35.1 4.8,36.2 3.4,36.2 Z" id="Path" fill="#000000"></path>
            </g>
            <g id="Group" transform="translate(466.000000, 481.000000)">
                <path d="M3.2,3 L3.2,47" id="Path" fill="#FFFFFF"></path>
                <path d="M3.2,49.6 C1.8,49.6 0.7,48.5 0.7,47.1 L0.7,3 C0.7,1.6 1.8,0.5 3.2,0.5 C4.6,0.5 5.7,1.6 5.7,3 L5.7,47 C5.7,48.4 4.6,49.6 3.2,49.6 Z" id="Path" fill="#000000"></path>
            </g>
            <g id="Group" transform="translate(425.000000, 617.000000)">
                <rect id="Rectangle" fill="#FFFFFF" x="2.9" y="2.9" width="20.2" height="17.4"></rect>
                <path d="M23,22.9 L2.8,22.9 C1.4,22.9 0.3,21.8 0.3,20.4 L0.3,3 C0.3,1.6 1.4,0.5 2.8,0.5 L23,0.5 C24.4,0.5 25.5,1.6 25.5,3 L25.5,20.4 C25.6,21.8 24.4,22.9 23,22.9 Z M5.4,17.9 L20.5,17.9 L20.5,5.5 L5.4,5.5 L5.4,17.9 Z" id="Shape" fill="#000000" fill-rule="nonzero"></path>
            </g>
            <rect id="Rectangle" fill="#114B4F" x="503.6" y="557.5" width="121" height="31.1"></rect>
            <rect id="Rectangle" fill="#114B4F" x="758.1" y="557.6" width="121" height="31.1"></rect>
            <rect id="Rectangle" fill="#114B4F" x="758.1" y="606.4" width="121" height="31.1"></rect>
            <rect id="Rectangle" fill="#114B4F" x="503.6" y="605.7" width="121" height="31.1"></rect>
            <path d="M634.3,591.1 L503.6,591.1 C502.2,591.1 501.1,590 501.1,588.6 L501.1,563.2 C501.1,561.8 502.2,560.7 503.6,560.7 C505,560.7 506.1,561.8 506.1,563.2 L506.1,586 L634.2,586 C635.6,586 636.7,587.1 636.7,588.5 C636.8,590 635.7,591.1 634.3,591.1 Z" id="Path" fill="#231F20"></path>
            <path d="M634.3,639.3 L503.6,639.3 C502.2,639.3 501.1,638.2 501.1,636.8 L501.1,611.4 C501.1,610 502.2,608.9 503.6,608.9 C505,608.9 506.1,610 506.1,611.4 L506.1,634.2 L634.2,634.2 C635.6,634.2 636.7,635.3 636.7,636.7 C636.8,638.2 635.7,639.3 634.3,639.3 Z" id="Path" fill="#231F20"></path>
            <g id="Group" transform="translate(475.000000, 630.000000)">
                <path d="M101.9,258.6 L100.4,254.5 L85.6,219.6 C85.1,218.5 74.6,191.9 74.6,164.2 C74.6,155.3 75.7,147.2 77.9,140 L35.4,71.4 L59.8,58.1 L35.2,22.8 C35.2,22.8 25.8,11.3 2.7,15.1 L2.8,14.3 C2.8,14.3 2.8,14.3 2.8,14.3 C2.8,14.3 2.8,14.3 2.8,14.3 L3,11.7 L3.5,11.6 C4.1,9.6 4.9,7.7 6.4,6 L7,5.3 L7.9,5 C8.5,4.8 70,-14.5 109.6,59 C109.9,59.4 138.3,97.1 161.5,87.3" id="Path" fill="#FFEDDD"></path>
                <path d="M101.9,261.2 C100.9,261.2 99.9,260.6 99.5,259.5 L98,255.4 L83.2,220.6 C83,220.3 72,193 72,164.2 C72,155.5 73,147.5 75.1,140.4 L33.2,72.8 C32.8,72.2 32.7,71.5 32.9,70.8 C33.1,70.1 33.5,69.6 34.1,69.2 L56,57.3 L33.1,24.4 C32.9,24.1 24.3,14.3 3.1,17.8 C2.4,17.9 1.6,17.7 1,17.2 C0.4,16.7 0.1,15.9 0.2,15.1 L0.4,11.7 C0.5,11 0.8,10.4 1.3,9.9 C2,7.9 3,6.1 4.3,4.5 L4.9,3.8 C5.2,3.4 5.6,3.2 6.1,3 L7,2.7 C7.6,2.5 71,-17.6 111.7,57.9 C111.8,58 139.2,94 160.3,85.1 C161.6,84.6 163.1,85.2 163.6,86.5 C164.1,87.8 163.5,89.3 162.2,89.8 C136.8,100.4 107.6,61 107.3,60.6 C68.6,-11 9,7.3 8.4,7.5 L8.1,7.7 C7,9 6.3,10.4 5.8,12.2 C27.4,9.9 36.6,20.8 37,21.3 L61.7,56.7 C62.1,57.3 62.3,58 62.1,58.7 C61.9,59.4 61.5,60 60.8,60.3 L38.7,72.3 L79.8,138.6 C80.2,139.2 80.3,140 80.1,140.7 C78,147.6 76.9,155.4 76.9,164.1 C76.9,192 87.6,218.3 87.7,218.6 L104.1,257.7 C104.6,259 103.9,260.5 102.6,261 C102.5,261.1 102.2,261.2 101.9,261.2 Z" id="Path" fill="#000000"></path>
            </g>
            <path d="M871.5,591.2 L758.1,591.2 C756.7,591.2 755.6,590.1 755.6,588.7 L755.6,563.3 C755.6,561.9 756.7,560.8 758.1,560.8 C759.5,560.8 760.6,561.9 760.6,563.3 L760.6,586.1 L871.5,586.1 C872.9,586.1 874,587.2 874,588.6 C874,590 872.9,591.2 871.5,591.2 Z" id="Path" fill="#231F20"></path>
            <path d="M871.5,639.5 L758.1,639.5 C756.7,639.5 755.6,638.4 755.6,637 L755.6,611.6 C755.6,610.2 756.7,609.1 758.1,609.1 C759.5,609.1 760.6,610.2 760.6,611.6 L760.6,634.4 L871.5,634.4 C872.9,634.4 874,635.5 874,636.9 C874,638.3 872.9,639.5 871.5,639.5 Z" id="Path" fill="#231F20"></path>
            <path d="M499,499.5 L469.2,499.5 C467.8,499.5 466.7,498.4 466.7,497 C466.7,495.6 467.8,494.5 469.2,494.5 L499,494.5 C500.4,494.5 501.5,495.6 501.5,497 C501.5,498.4 500.4,499.5 499,499.5 Z" id="Path" fill="#000000"></path>
            <g id="Group" transform="translate(960.000000, 172.000000)">
                <path d="M125.3,103.7 C124.7,103.7 124.2,103.5 123.7,103.1 L1,4.5 C0.2,3.8 -0.2,2.7 0.2,1.7 C0.6,0.7 1.5,-2.84217094e-14 2.6,-2.84217094e-14 L248,-2.84217094e-14 C249.1,-2.84217094e-14 250,0.7 250.4,1.7 C250.8,2.7 250.4,3.8 249.6,4.5 L126.9,103.1 C126.5,103.5 125.9,103.7 125.3,103.7 Z M9.9,5.2 L125.3,98 L240.8,5.2 L9.9,5.2 Z" id="Shape" fill="#000000" fill-rule="nonzero"></path>
                <g>
                    <polygon id="Path" fill="#E6EBE0" points="125.3 101.2 2.7 2.6 2.7 165.5 248 165.5 248 2.6"></polygon>
                    <path d="M248,168 L2.7,168 C1.3,168 0.2,166.9 0.2,165.5 L0.2,2.6 C0.2,1.6 0.8,0.7 1.6,0.3 C2.5,-0.1 3.5,-2.45359288e-14 4.3,0.6 L125.4,97.9 L246.5,0.6 C247.3,-2.45359288e-14 248.3,-0.1 249.2,0.3 C250.1,0.7 250.6,1.6 250.6,2.6 L250.6,165.5 C250.5,166.9 249.4,168 248,168 Z M5.2,162.9 L245.4,162.9 L245.4,7.9 L126.9,103.2 C126,103.9 124.6,103.9 123.7,103.2 L5.2,7.9 L5.2,162.9 Z" id="Shape" fill="#000000" fill-rule="nonzero"></path>
                </g>
            </g>
            <path d="M1131,390 L1055.7,390 C1054.3,390 1053.2,388.9 1053.2,387.5 C1053.2,386.1 1054.3,385 1055.7,385 L1131,385 C1132.4,385 1133.5,386.1 1133.5,387.5 C1133.5,388.9 1132.4,390 1131,390 Z" id="Path" fill="#000000"></path>
            <g id="Group" transform="translate(1035.000000, 0.000000)">
                <rect id="Rectangle" fill="#FF595E" x="2.5" y="2.7" width="170.5" height="120.1"></rect>
                <path d="M173,125.3 L2.5,125.3 C1.1,125.3 0,124.2 0,122.8 L0,2.7 C0,1.3 1.1,0.2 2.5,0.2 L173,0.2 C174.4,0.2 175.5,1.3 175.5,2.7 L175.5,122.8 C175.5,124.2 174.4,125.3 173,125.3 Z M5.1,120.3 L170.5,120.3 L170.5,5.3 L5.1,5.3 L5.1,120.3 Z" id="Shape" fill="#000000" fill-rule="nonzero"></path>
            </g>
            <path d="M992.5,155.5 C991.1,155.5 990,154.4 990,153 L990,62.5 C990,61.1 991.1,60 992.5,60 L1037.3,60 C1038.7,60 1039.8,61.1 1039.8,62.5 C1039.8,63.9 1038.7,65 1037.3,65 L995,65 L995,153 C995,154.4 993.9,155.5 992.5,155.5 Z" id="Path" fill="#000000"></path>
            <g id="Group" transform="translate(971.000000, 126.000000)">
                <polygon id="Path" fill="#54C5FF" points="40.2 2.7 21.7 34.8 3.2 2.7"></polygon>
                <path d="M21.7,37.3 C20.8,37.3 20,36.8 19.5,36 L1,4 C0.5,3.2 0.5,2.2 1,1.5 C1.5,0.7 2.3,0.2 3.2,0.2 L40.2,0.2 C41.1,0.2 41.9,0.7 42.4,1.5 C42.9,2.3 42.9,3.3 42.4,4 L23.9,36 C23.4,36.8 22.6,37.3 21.7,37.3 Z M7.6,5.3 L21.7,29.7 L35.8,5.3 L7.6,5.3 Z" id="Shape" fill="#000000" fill-rule="nonzero"></path>
            </g>
            <g id="Group" transform="translate(1074.000000, 16.000000)" fill="#FFFFFF">
                <path d="M48.8,74.6 C34.3,74.6 22.5,62.8 22.5,48.3 C22.5,33.8 34.3,22 48.8,22 C63.3,22 75.1,33.8 75.1,48.3 C75,62.8 63.2,74.6 48.8,74.6 Z M48.8,27.1 C37.1,27.1 27.6,36.6 27.6,48.3 C27.6,60 37.1,69.5 48.8,69.5 C60.5,69.5 70,60 70,48.3 C69.9,36.6 60.4,27.1 48.8,27.1 Z" id="Shape" fill-rule="nonzero"></path>
                <path d="M32.2,93.1 C31.9,93.1 31.6,93 31.3,92.9 C12.8,85.7 0.8,68.1 0.8,48.2 C0.8,21.8 22.3,0.3 48.7,0.3 C75.1,0.3 96.6,21.8 96.6,48.2 L96.6,70 C96.6,75.8 91.9,80.5 86.1,80.5 L80.3,80.5 C74.5,80.5 69.8,75.8 69.8,70 L69.8,48.2 C69.8,46.8 70.9,45.7 72.3,45.7 C73.7,45.7 74.8,46.8 74.8,48.2 L74.8,70 C74.8,73 77.2,75.4 80.2,75.4 L86,75.4 C89,75.4 91.4,73 91.4,70 L91.4,48.2 C91.4,24.6 72.2,5.4 48.5,5.4 C24.9,5.4 5.6,24.6 5.6,48.2 C5.6,66 16.3,81.7 32.8,88.1 C34.1,88.6 34.7,90.1 34.2,91.4 C34.2,92.5 33.2,93.1 32.2,93.1 Z" id="Path"></path>
            </g>
            <g id="Group" transform="translate(0.000000, 679.000000)">
                <g transform="translate(35.000000, 36.000000)">
                    <rect id="Rectangle" fill="#FF595E" x="3.1" y="3.3" width="147.8" height="152.9"></rect>
                    <path d="M150.9,158.7 L3.1,158.7 C1.7,158.7 0.6,157.6 0.6,156.2 L0.6,3.3 C0.6,1.9 1.7,0.8 3.1,0.8 L150.9,0.8 C152.3,0.8 153.4,1.9 153.4,3.3 L153.4,156.2 C153.4,157.6 152.3,158.7 150.9,158.7 Z M5.6,153.7 L148.3,153.7 L148.3,5.9 L5.6,5.9 L5.6,153.7 Z" id="Shape" fill="#000000" fill-rule="nonzero"></path>
                </g>
                <g transform="translate(59.000000, 120.000000)">
                    <path d="M103.2,72.2 L103.2,22.2 C103.2,11.6 95,2.9 84.9,2.9 L21,2.9 C11,2.9 2.7,11.6 2.7,22.2 L2.7,72.2 L103.2,72.2 Z" id="Path" fill="#FFFFFF"></path>
                    <path d="M103.2,74.7 L2.8,74.7 C1.4,74.7 0.3,73.6 0.3,72.2 L0.3,22.2 C0.3,10.2 9.6,0.4 21.1,0.4 L85,0.4 C96.5,0.4 105.8,10.2 105.8,22.2 L105.8,72.2 C105.7,73.6 104.6,74.7 103.2,74.7 Z M5.3,69.7 L100.6,69.7 L100.6,22.2 C100.6,13 93.5,5.5 84.9,5.5 L21,5.5 C12.3,5.5 5.3,13 5.3,22.2 L5.3,69.7 Z" id="Shape" fill="#000000" fill-rule="nonzero"></path>
                </g>
                <g transform="translate(88.000000, 57.000000)">
                    <path d="M44.8,36.2 C44.8,47.7 35.5,57 24,57 C12.5,57 3.2,47.7 3.2,36.2 L3.2,23.7 C3.2,12.2 12.5,2.9 24,2.9 C35.5,2.9 44.8,12.2 44.8,23.7 L44.8,36.2 Z" id="Path" fill="#FFFFFF"></path>
                    <path d="M24,59.6 C11.1,59.6 0.6,49.1 0.6,36.2 L0.6,23.7 C0.6,10.8 11.1,0.3 24,0.3 C36.9,0.3 47.4,10.8 47.4,23.7 L47.4,36.2 C47.3,49.1 36.8,59.6 24,59.6 Z M24,5.4 C13.9,5.4 5.7,13.6 5.7,23.7 L5.7,36.2 C5.7,46.3 13.9,54.5 24,54.5 C34.1,54.5 42.3,46.3 42.3,36.2 L42.3,23.7 C42.2,13.6 34,5.4 24,5.4 Z" id="Shape" fill="#000000" fill-rule="nonzero"></path>
                </g>
                <g transform="translate(82.000000, 159.000000)" id="Path">
                    <path d="M2.7,33.3 L2.7,2.9" fill="#FFFFFF"></path>
                    <path d="M2.7,35.8 C1.3,35.8 0.2,34.7 0.2,33.3 L0.2,3 C0.2,1.6 1.3,0.5 2.7,0.5 C4.1,0.5 5.2,1.6 5.2,3 L5.2,33.3 C5.3,34.7 4.1,35.8 2.7,35.8 Z" fill="#000000"></path>
                </g>
                <g transform="translate(136.000000, 159.000000)" id="Path">
                    <path d="M3.2,33.3 L3.2,2.9" fill="#FFFFFF"></path>
                    <path d="M3.2,35.8 C1.8,35.8 0.7,34.7 0.7,33.3 L0.7,3 C0.7,1.6 1.8,0.5 3.2,0.5 C4.6,0.5 5.7,1.6 5.7,3 L5.7,33.3 C5.7,34.7 4.6,35.8 3.2,35.8 Z" fill="#000000"></path>
                </g>
                <g transform="translate(109.000000, 133.000000)" id="Path">
                    <path d="M3,2.5 L3,46.6" fill="#FFFFFF"></path>
                    <path d="M3,49.1 C1.6,49.1 0.5,48 0.5,46.6 L0.5,2.5 C0.5,1.1 1.6,2.84217094e-14 3,2.84217094e-14 C4.4,2.84217094e-14 5.5,1.1 5.5,2.5 L5.5,46.6 C5.5,48 4.4,49.1 3,49.1 Z" fill="#000000"></path>
                </g>
                <path d="M141.7,151.1 L112,151.1 C110.6,151.1 109.5,150 109.5,148.6 C109.5,147.2 110.6,146.1 112,146.1 L141.8,146.1 C143.2,146.1 144.3,147.2 144.3,148.6 C144.3,150 143.1,151.1 141.7,151.1 Z" id="Path" fill="#000000"></path>
                <path d="M289.6,418.9 L2.8,418.9 C1.4,418.9 0.3,417.8 0.3,416.4 L0.3,2.7 C0.3,1.3 1.4,0.2 2.8,0.2 L221.9,0.2 C222.6,0.2 223.2,0.5 223.7,0.9 L291.4,68.6 C291.9,69.1 292.1,69.7 292.1,70.4 L292.1,416.4 C292.1,417.7 291,418.9 289.6,418.9 Z M5.4,413.8 L287.1,413.8 L287.1,71.4 L220.9,5.2 L5.4,5.2 L5.4,413.8 Z" id="Shape" fill="#000000" fill-rule="nonzero"></path>
                <g transform="translate(219.000000, 0.000000)">
                    <polygon id="Path" fill="#FFFFFF" points="2.9 70.4 70.6 70.4 2.9 2.7"></polygon>
                    <path d="M70.6,72.9 L2.9,72.9 C1.5,72.9 0.4,71.8 0.4,70.4 L0.4,2.7 C0.4,1.7 1,0.7 2,0.4 C2.9,5.27355937e-16 4,0.2 4.8,1 L72.5,68.7 C73.2,69.4 73.4,70.5 73.1,71.5 C72.8,72.5 71.6,72.9 70.6,72.9 Z M5.5,67.8 L64.5,67.8 L5.5,8.8 L5.5,67.8 Z" id="Shape" fill="#000000" fill-rule="nonzero"></path>
                </g>
                <rect id="Rectangle" fill="#E6EBE0" x="38.1" y="224.3" width="220.9" height="161.5"></rect>
                <path d="M228.7,194.7 L185.9,194.7 C184.5,194.7 183.4,193.6 183.4,192.2 C183.4,190.8 184.5,189.7 185.9,189.7 L228.7,189.7 C230.1,189.7 231.2,190.8 231.2,192.2 C231.2,193.6 230.1,194.7 228.7,194.7 Z" id="Path" fill="#000000"></path>
                <path d="M215.2,164.5 L185.9,164.5 C184.5,164.5 183.4,163.4 183.4,162 C183.4,160.6 184.5,159.5 185.9,159.5 L215.2,159.5 C216.6,159.5 217.7,160.6 217.7,162 C217.7,163.4 216.6,164.5 215.2,164.5 Z" id="Path" fill="#000000"></path>
                <path d="M38.1,360.9 C36.7,360.9 35.6,359.8 35.6,358.4 L35.6,223.9 C35.6,222.5 36.7,221.4 38.1,221.4 L238,221.4 C239.4,221.4 240.5,222.5 240.5,223.9 C240.5,225.3 239.4,226.4 238,226.4 L40.6,226.4 L40.6,358.3 C40.6,359.7 39.5,360.9 38.1,360.9 Z" id="Path" fill="#000000"></path>
                <path d="M259,388.4 L219.4,388.4 C218,388.4 216.9,387.3 216.9,385.9 C216.9,384.5 218,383.4 219.4,383.4 L256.5,383.4 L256.5,337.9 C256.5,336.5 257.6,335.4 259,335.4 C260.4,335.4 261.5,336.5 261.5,337.9 L261.5,385.9 C261.5,387.2 260.4,388.4 259,388.4 Z" id="Path" fill="#000000"></path>
            </g>
            <g id="Group" transform="translate(970.000000, 484.000000)">
                <polygon id="Path" fill="#C6EBFE" points="2.6 2.9 2.6 82.7 2.6 304.3 90.7 304.3 152.4 304.3 240.4 304.3 240.4 82.7 240.4 2.9"></polygon>
                <path d="M240.4,306.8 L2.6,306.8 C1.2,306.8 0.1,305.7 0.1,304.3 L0.1,2.9 C0.1,1.5 1.2,0.4 2.6,0.4 L240.4,0.4 C241.8,0.4 242.9,1.5 242.9,2.9 L242.9,304.3 C243,305.7 241.8,306.8 240.4,306.8 Z M5.1,301.7 L237.9,301.7 L237.9,5.4 L5.1,5.4 L5.1,301.7 Z" id="Shape" fill="#000000" fill-rule="nonzero"></path>
            </g>
            <g id="Group" transform="translate(970.000000, 785.000000)">
                <polygon id="Path" fill="#E6EBE0" points="152.4 3.3 90.7 3.3 2.6 3.3 2.6 65 240.4 65 240.4 3.3"></polygon>
                <path d="M240.4,67.5 L2.6,67.5 C1.2,67.5 0.1,66.4 0.1,65 L0.1,3.3 C0.1,1.9 1.2,0.8 2.6,0.8 L240.4,0.8 C241.8,0.8 242.9,1.9 242.9,3.3 L242.9,65 C243,66.4 241.8,67.5 240.4,67.5 Z M5.1,62.4 L237.9,62.4 L237.9,5.8 L5.1,5.8 L5.1,62.4 Z" id="Shape" fill="#000000" fill-rule="nonzero"></path>
            </g>
            <g id="Group" transform="translate(970.000000, 433.000000)">
                <path d="M206.2,3 L36.9,3 C18,3 2.6,18.3 2.6,37.3 L2.6,53.9 L240.4,53.9 L240.4,37.3 C240.4,18.4 225.1,3 206.2,3 Z" id="Path" fill="#E6EBE0"></path>
                <path d="M240.4,56.4 L2.6,56.4 C1.2,56.4 0.1,55.3 0.1,53.9 L0.1,37.3 C0.1,17 16.6,0.5 36.9,0.5 L206.2,0.5 C226.5,0.5 243,17 243,37.3 L243,53.9 C243,55.3 241.8,56.4 240.4,56.4 Z M5.1,51.3 L237.9,51.3 L237.9,37.3 C237.9,19.8 223.7,5.6 206.2,5.6 L36.9,5.6 C19.4,5.6 5.2,19.8 5.2,37.3 L5.2,51.3 L5.1,51.3 Z" id="Shape" fill="#000000" fill-rule="nonzero"></path>
            </g>
            <path d="M1133.9,464 L1049.5,464 C1048.1,464 1047,462.9 1047,461.5 C1047,460.1 1048.1,459 1049.5,459 L1133.9,459 C1135.3,459 1136.4,460.1 1136.4,461.5 C1136.4,462.9 1135.3,464 1133.9,464 Z" id="Path" fill="#000000"></path>
            <g id="Group" transform="translate(1069.000000, 797.000000)">
                <path d="M42.1,22.1 C42.1,32.9 33.3,41.7 22.5,41.7 C11.7,41.7 2.9,32.9 2.9,22.1 C2.9,11.3 11.7,2.5 22.5,2.5 C33.3,2.5 42.1,11.3 42.1,22.1 Z" id="Path" fill="#114B4F"></path>
                <path d="M22.5,44.2 C10.3,44.2 0.4,34.3 0.4,22.1 C0.4,9.9 10.3,0 22.5,0 C34.7,0 44.6,9.9 44.6,22.1 C44.6,34.3 34.7,44.2 22.5,44.2 Z M22.5,5 C13.1,5 5.4,12.7 5.4,22.1 C5.4,31.5 13.1,39.2 22.5,39.2 C31.9,39.2 39.6,31.5 39.6,22.1 C39.6,12.7 31.9,5 22.5,5 Z" id="Shape" fill="#000000" fill-rule="nonzero"></path>
            </g>
            <path d="M1170.2,814 L1135.5,814 C1134.1,814 1133,812.9 1133,811.5 C1133,810.1 1134.1,809 1135.5,809 L1170.2,809 C1171.6,809 1172.7,810.1 1172.7,811.5 C1172.8,812.9 1171.6,814 1170.2,814 Z" id="Path" fill="#000000"></path>
            <path d="M1170.2,830 L1135.5,830 C1134.1,830 1133,828.9 1133,827.5 C1133,826.1 1134.1,825 1135.5,825 L1170.2,825 C1171.6,825 1172.7,826.1 1172.7,827.5 C1172.8,828.8 1171.6,830 1170.2,830 Z" id="Path" fill="#000000"></path>
            <path d="M1048.2,822 L1013.5,822 C1012.1,822 1011,820.9 1011,819.5 C1011,818.1 1012.1,817 1013.5,817 L1048.2,817 C1049.6,817 1050.7,818.1 1050.7,819.5 C1050.7,820.9 1049.6,822 1048.2,822 Z" id="Path" fill="#000000"></path>
            <g id="Group" transform="translate(236.000000, 227.000000)">
                <rect id="Rectangle" fill="#FF595E" x="3.2" y="2.9" width="109" height="109"></rect>
                <path d="M112.2,114.4 L3.2,114.4 C1.8,114.4 0.7,113.3 0.7,111.9 L0.7,2.9 C0.7,1.5 1.8,0.4 3.2,0.4 L112.2,0.4 C113.6,0.4 114.7,1.5 114.7,2.9 L114.7,111.9 C114.7,113.3 113.6,114.4 112.2,114.4 Z M5.7,109.3 L109.6,109.3 L109.6,5.4 L5.7,5.4 L5.7,109.3 Z" id="Shape" fill="#231F20" fill-rule="nonzero"></path>
            </g>
            <g id="Group" transform="translate(323.000000, 707.000000)">
                <rect id="Rectangle" fill="#114B4F" x="3.2" y="2.8" width="109" height="109"></rect>
                <path d="M112.2,114.3 L3.2,114.3 C1.8,114.3 0.7,113.2 0.7,111.8 L0.7,2.8 C0.7,1.4 1.8,0.3 3.2,0.3 L112.2,0.3 C113.6,0.3 114.7,1.4 114.7,2.8 L114.7,111.8 C114.7,113.2 113.6,114.3 112.2,114.3 Z M5.7,109.2 L109.6,109.2 L109.6,5.3 L5.7,5.3 L5.7,109.2 Z" id="Shape" fill="#000000" fill-rule="nonzero"></path>
            </g>
            <g id="Group" transform="translate(335.000000, 722.000000)">
                <polygon id="Path" fill="#FFFFFF" points="13.2 32.4 85.5 3.4 56.5 75.7 46.1 56.7 17.1 85.8 3.2 71.9 32.2 42.8"></polygon>
                <path d="M17.1,88.3 C16.4,88.3 15.8,88 15.3,87.6 L1.4,73.7 C0.4,72.7 0.4,71.1 1.4,70.1 L28.1,43.4 L12.1,34.7 C11.2,34.2 10.7,33.3 10.8,32.3 C10.9,31.3 11.5,30.5 12.4,30.1 L84.7,1.1 C85.6,0.7 86.7,0.9 87.4,1.7 C88.1,2.4 88.3,3.5 88,4.4 L59,76.7 C58.6,77.6 57.8,78.2 56.8,78.3 C55.8,78.4 54.9,77.8 54.4,77 L45.7,61 L19,87.7 C18.4,88 17.7,88.3 17.1,88.3 Z M6.8,71.9 L17.1,82.2 L44.4,54.9 C45,54.3 45.8,54.1 46.6,54.2 C47.4,54.3 48.1,54.8 48.5,55.5 L56.3,69.8 L81,8 L19.2,32.8 L33.5,40.6 C34.2,41 34.7,41.7 34.8,42.5 C34.9,43.3 34.6,44.1 34.1,44.7 L6.8,71.9 Z" id="Shape" fill="#000000" fill-rule="nonzero"></path>
            </g>
            <path d="M1009.55,721.75 C1008.95,721.75 1008.25,721.55 1007.75,721.05 C1006.75,720.05 1006.75,718.45 1007.75,717.45 L1171.45,553.75 C1172.45,552.75 1174.05,552.75 1175.05,553.75 C1176.05,554.75 1176.05,556.35 1175.05,557.35 L1011.35,721.05 C1010.85,721.45 1010.25,721.75 1009.55,721.75 Z" id="Path" fill="#FFFFFF"></path>
            <path d="M1101.55,733.45 C1100.95,733.45 1100.25,733.25 1099.75,732.75 C1098.75,731.75 1098.75,730.15 1099.75,729.15 L1179.15,649.75 C1180.15,648.75 1181.75,648.75 1182.75,649.75 C1183.75,650.75 1183.75,652.35 1182.75,653.35 L1103.35,732.75 C1102.85,733.25 1102.25,733.45 1101.55,733.45 Z" id="Path" fill="#FFFFFF"></path>
            <path d="M997.55,629.45 C996.85,629.45 996.25,629.25 995.75,628.75 C994.75,627.75 994.75,626.15 995.75,625.15 L1075.15,545.75 C1076.15,544.75 1077.75,544.75 1078.75,545.75 C1079.75,546.75 1079.75,548.35 1078.75,549.35 L999.35,628.75 C998.85,629.15 998.15,629.45 997.55,629.45 Z" id="Path" fill="#FFFFFF"></path>
            <g id="Group" transform="translate(259.000000, 243.000000)">
                <polygon id="Path" fill="#FFFFFF" points="65.9 35.8 34.7 3.3 3.4 35.8 12.8 35.8 12.8 79.5 56.6 79.5 56.6 35.8"></polygon>
                <path d="M56.6,82 L12.8,82 C11.4,82 10.3,80.9 10.3,79.5 L10.3,38.4 L3.5,38.4 C2.5,38.4 1.6,37.8 1.2,36.9 C0.8,36 1,34.9 1.7,34.1 L33,1.6 C34,0.6 35.7,0.6 36.7,1.6 L68,34.1 C68.7,34.8 68.9,35.9 68.5,36.9 C68.1,37.8 67.2,38.4 66.2,38.4 L59.4,38.4 L59.4,79.5 C59.1,80.9 58,82 56.6,82 Z M15.3,76.9 L54,76.9 L54,35.8 C54,34.4 55.1,33.3 56.5,33.3 L59.9,33.3 L34.7,7 L9.4,33.3 L12.8,33.3 C14.2,33.3 15.3,34.4 15.3,35.8 L15.3,76.9 Z" id="Shape" fill="#000000" fill-rule="nonzero"></path>
            </g>
            <g id="Group" transform="translate(281.000000, 301.000000)">
                <rect id="Rectangle" fill="#FFFFFF" x="2.6" y="3.4" width="20.2" height="17.4"></rect>
                <path d="M22.7,23.3 L2.5,23.3 C1.1,23.3 0,22.2 0,20.8 L0,3.4 C0,2 1.1,0.9 2.5,0.9 L22.7,0.9 C24.1,0.9 25.2,2 25.2,3.4 L25.2,20.8 C25.3,22.2 24.1,23.3 22.7,23.3 Z M5.1,18.3 L20.2,18.3 L20.2,5.9 L5.1,5.9 L5.1,18.3 Z" id="Shape" fill="#000000" fill-rule="nonzero"></path>
            </g>
        </g>
    </g>
</svg>