<?xml version="1.0" encoding="UTF-8"?>
<svg width="1245px" height="761px" viewBox="0 0 1245 761" version="1.1" xmlns="http://www.w3.org/2000/svg" xmlns:xlink="http://www.w3.org/1999/xlink">
    <!-- Generator: Sketch 52.6 (67491) - http://www.bohemiancoding.com/sketch -->
    <title>Group 2</title>
    <desc>Created with Sketch.</desc>
    <g id="Page-1" stroke="none" stroke-width="1" fill="none" fill-rule="evenodd">
        <g id="Group-2">
            <g id="Group" transform="translate(251.000000, 147.000000)">
                <path d="M745.7,368.9 C745.7,387 730.9,401.8 712.8,401.8 L35.1,401.8 C17,401.8 2.2,387 2.2,368.9 L2.2,35.5 C2.2,17.4 17,2.6 35.1,2.6 L712.8,2.6 C730.9,2.6 745.7,17.4 745.7,35.5 L745.7,368.9 Z" id="Path" fill="#E6EBE0"></path>
                <path d="M712.8,404 L35.1,404 C15.8,404 0,388.3 0,368.9 L0,35.5 C0,16.2 15.7,0.4 35.1,0.4 L712.8,0.4 C732.1,0.4 747.9,16.1 747.9,35.5 L747.9,368.9 C747.9,388.3 732.2,404 712.8,404 Z M35.1,4.7 C18.1,4.7 4.3,18.5 4.3,35.5 L4.3,368.9 C4.3,385.9 18.1,399.7 35.1,399.7 L712.8,399.7 C729.8,399.7 743.6,385.9 743.6,368.9 L743.6,35.5 C743.6,18.5 729.8,4.7 712.8,4.7 L35.1,4.7 Z" id="Shape" fill="#000000" fill-rule="nonzero"></path>
            </g>
            <g id="Group" transform="translate(930.000000, 289.000000)">
                <path d="M39.5,99.3 C39.5,109.5 31.2,117.8 21,117.8 C10.8,117.8 2.5,109.5 2.5,99.3 L2.5,21.1 C2.5,10.9 10.8,2.6 21,2.6 C31.2,2.6 39.5,10.9 39.5,21.1 L39.5,99.3 Z" id="Path" fill="#BCBEC0"></path>
                <path d="M20.9,120 C9.5,120 0.2,110.7 0.2,99.3 L0.2,21.1 C0.2,9.7 9.5,0.4 20.9,0.4 C32.3,0.4 41.6,9.7 41.6,21.1 L41.6,99.3 C41.6,110.7 32.3,120 20.9,120 Z M20.9,4.7 C11.9,4.7 4.5,12 4.5,21.1 L4.5,99.3 C4.5,108.3 11.8,115.7 20.9,115.7 C29.9,115.7 37.3,108.4 37.3,99.3 L37.3,21.1 C37.3,12.1 30,4.7 20.9,4.7 Z" id="Shape" fill="#000000" fill-rule="nonzero"></path>
            </g>
            <path d="M285.8,402.8 C284.6,402.8 283.7,401.8 283.7,400.7 L283.7,297.8 C283.7,296.6 284.7,295.7 285.8,295.7 C287,295.7 287.9,296.7 287.9,297.8 L287.9,400.7 C288,401.9 287,402.8 285.8,402.8 Z" id="Path" fill="#000000"></path>
            <g id="Group" transform="translate(313.000000, 190.000000)">
                <rect id="Rectangle" fill="#F7FCFF" x="3" y="2.8" width="589.2" height="273.2"></rect>
                <path d="M592.2,278.1 L3,278.1 C1.8,278.1 0.9,277.1 0.9,276 L0.9,2.8 C0.9,1.6 1.9,0.7 3,0.7 L592.2,0.7 C593.4,0.7 594.3,1.7 594.3,2.8 L594.3,276 C594.3,277.2 593.3,278.1 592.2,278.1 Z M5.1,273.9 L590,273.9 L590,4.9 L5.1,4.9 L5.1,273.9 Z" id="Shape" fill="#000000" fill-rule="nonzero"></path>
            </g>
            <g id="Group" transform="translate(313.000000, 463.000000)">
                <rect id="Rectangle" fill="#DDC177" x="3" y="3" width="589.2" height="39.6"></rect>
                <path d="M592.2,44.8 L3,44.8 C1.8,44.8 0.9,43.8 0.9,42.7 L0.9,3 C0.9,1.8 1.9,0.9 3,0.9 L592.2,0.9 C593.4,0.9 594.3,1.9 594.3,3 L594.3,42.6 C594.3,43.8 593.3,44.8 592.2,44.8 Z M5.1,40.5 L590,40.5 L590,5.2 L5.1,5.2 L5.1,40.5 Z" id="Shape" fill="#000000" fill-rule="nonzero"></path>
            </g>
            <g id="Group" transform="translate(350.000000, 340.000000)">
                <polygon id="Path" fill="#FF595E" points="2.1 126 2.1 31.9 31.3 2.7 78.1 2.7 78.1 126"></polygon>
                <path d="M78.1,128.1 L2.1,128.1 C0.9,128.1 0,127.1 0,126 L0,31.9 C0,31.3 0.2,30.8 0.6,30.4 L29.8,1.2 C30.2,0.8 30.7,0.6 31.3,0.6 L78.1,0.6 C79.3,0.6 80.2,1.6 80.2,2.7 L80.2,126 C80.2,127.2 79.2,128.1 78.1,128.1 Z M4.2,123.9 L75.9,123.9 L75.9,4.9 L32.2,4.9 L4.2,32.9 L4.2,123.9 Z" id="Shape" fill="#000000" fill-rule="nonzero"></path>
            </g>
            <g id="Group" transform="translate(425.000000, 285.000000)">
                <polygon id="Path" fill="#E6EBE0" points="3.1 181 3.1 34.5 40.8 34.5 40.8 2.2 90.7 2.2 90.7 181"></polygon>
                <path d="M90.7,183.1 L3,183.1 C1.8,183.1 0.9,182.1 0.9,181 L0.9,34.5 C0.9,33.3 1.9,32.4 3,32.4 L38.6,32.4 L38.6,2.2 C38.6,1 39.6,0.1 40.7,0.1 L90.6,0.1 C91.8,0.1 92.7,1.1 92.7,2.2 L92.7,181 C92.9,182.2 91.9,183.1 90.7,183.1 Z M5.2,178.9 L88.6,178.9 L88.6,4.3 L43,4.3 L43,34.5 C43,35.7 42,36.6 40.9,36.6 L5.3,36.6 L5.3,178.9 L5.2,178.9 Z" id="Shape" fill="#000000" fill-rule="nonzero"></path>
            </g>
            <g id="Group" transform="translate(598.000000, 331.000000)">
                <rect id="Rectangle" fill="#E6E7E8" x="2.2" y="2.9" width="92" height="132.1"></rect>
                <path d="M94.2,137.1 L2.2,137.1 C1,137.1 0.1,136.1 0.1,135 L0.1,2.9 C0.1,1.7 1.1,0.8 2.2,0.8 L94.2,0.8 C95.4,0.8 96.3,1.8 96.3,2.9 L96.3,135 C96.3,136.2 95.4,137.1 94.2,137.1 Z M4.3,132.9 L92,132.9 L92,5.1 L4.3,5.1 L4.3,132.9 Z" id="Shape" fill="#000000" fill-rule="nonzero"></path>
            </g>
            <g id="Group" transform="translate(690.000000, 282.000000)">
                <polygon id="Path" fill="#114B4F" points="2.2 184 2.2 31.8 26 31.8 26 2.1 60.2 2.1 60.2 31.8 84.4 31.8 84.4 184"></polygon>
                <path d="M84.4,186.1 L2.2,186.1 C1,186.1 0.1,185.1 0.1,184 L0.1,31.8 C0.1,30.6 1.1,29.7 2.2,29.7 L23.8,29.7 L23.8,2.1 C23.8,0.9 24.8,-5.68434189e-14 25.9,-5.68434189e-14 L60.2,-5.68434189e-14 C61.4,-5.68434189e-14 62.3,1 62.3,2.1 L62.3,29.7 L84.3,29.7 C85.5,29.7 86.4,30.7 86.4,31.8 L86.4,184 C86.5,185.2 85.6,186.1 84.4,186.1 Z M4.3,181.9 L82.2,181.9 L82.2,34 L60.2,34 C59,34 58.1,33 58.1,31.9 L58.1,4.3 L28.1,4.3 L28.1,31.9 C28.1,33.1 27.1,34 26,34 L4.4,34 L4.4,181.9 L4.3,181.9 Z" id="Shape" fill="#000000" fill-rule="nonzero"></path>
            </g>
            <g id="Group" transform="translate(772.000000, 343.000000)">
                <polygon id="Path" fill="#FF595E" points="2.4 2.8 65.9 2.8 65.9 46.1 94.5 46.1 94.5 123 2.4 123"></polygon>
                <path d="M94.5,125.1 L2.4,125.1 C1.2,125.1 0.3,124.1 0.3,123 L0.3,2.8 C0.3,1.6 1.3,0.7 2.4,0.7 L65.9,0.7 C67.1,0.7 68,1.7 68,2.8 L68,43.9 L94.5,43.9 C95.7,43.9 96.6,44.9 96.6,46 L96.6,123 C96.6,124.2 95.7,125.1 94.5,125.1 Z M4.5,120.9 L92.3,120.9 L92.3,48.3 L65.8,48.3 C64.6,48.3 63.7,47.3 63.7,46.2 L63.7,5 L4.5,5 L4.5,120.9 Z" id="Shape" fill="#000000" fill-rule="nonzero"></path>
            </g>
            <g id="Group" transform="translate(494.000000, 232.000000)">
                <g>
                    <polygon id="Path" fill="#BCBEC0" points="96.5 2.9 63.9 2.9 31.3 2.9 2.4 31.8 21.7 31.8 106.2 31.8 125.5 31.8"></polygon>
                    <path d="M125.5,34 L2.4,34 C1.5,34 0.7,33.5 0.4,32.7 C0.1,31.9 0.3,31 0.9,30.4 L29.8,1.5 C30.2,1.1 30.7,0.9 31.3,0.9 L96.5,0.9 C97.1,0.9 97.6,1.1 98,1.5 L126.9,30.4 C127.5,31 127.7,31.9 127.4,32.7 C127.1,33.4 126.3,34 125.5,34 Z M7.6,29.7 L120.3,29.7 L95.7,5 L32.3,5 L7.6,29.7 Z" id="Shape" fill="#000000" fill-rule="nonzero"></path>
                </g>
                <g transform="translate(19.000000, 29.000000)">
                    <rect id="Rectangle" fill="#114B4F" x="2.7" y="2.8" width="84.5" height="202.2"></rect>
                    <path d="M87.2,207.1 L2.7,207.1 C1.5,207.1 0.6,206.1 0.6,205 L0.6,2.8 C0.6,1.6 1.6,0.7 2.7,0.7 L87.2,0.7 C88.4,0.7 89.3,1.7 89.3,2.8 L89.3,205 C89.3,206.2 88.4,207.1 87.2,207.1 Z M4.9,202.9 L85,202.9 L85,5 L4.8,5 L4.8,202.9 L4.9,202.9 Z" id="Shape" fill="#000000" fill-rule="nonzero"></path>
                </g>
            </g>
            <g id="Group" transform="translate(527.000000, 278.000000)">
                <rect id="Rectangle" fill="#FFFFFF" x="3" y="2.1" width="22.5" height="22.5"></rect>
                <path d="M25.5,26.7 L3,26.7 C1.8,26.7 0.9,25.7 0.9,24.6 L0.9,2.1 C0.9,0.9 1.9,-5.68434189e-14 3,-5.68434189e-14 L25.5,-5.68434189e-14 C26.7,-5.68434189e-14 27.6,1 27.6,2.1 L27.6,24.6 C27.6,25.8 26.7,26.7 25.5,26.7 Z M5.1,22.4 L23.3,22.4 L23.3,4.2 L5.1,4.2 L5.1,22.4 Z" id="Shape" fill="#000000" fill-rule="nonzero"></path>
            </g>
            <g id="Group" transform="translate(561.000000, 278.000000)">
                <rect id="Rectangle" fill="#FFFFFF" x="2.4" y="2.1" width="22.5" height="22.5"></rect>
                <path d="M24.9,26.7 L2.4,26.7 C1.2,26.7 0.3,25.7 0.3,24.6 L0.3,2.1 C0.3,0.9 1.3,-5.68434189e-14 2.4,-5.68434189e-14 L24.9,-5.68434189e-14 C26.1,-5.68434189e-14 27,1 27,2.1 L27,24.6 C27.1,25.8 26.1,26.7 24.9,26.7 Z M4.6,22.4 L22.8,22.4 L22.8,4.2 L4.6,4.2 L4.6,22.4 Z" id="Shape" fill="#000000" fill-rule="nonzero"></path>
            </g>
            <g id="Group" transform="translate(365.000000, 374.000000)">
                <rect id="Rectangle" fill="#FFFFFF" x="2.6" y="2.7" width="22.5" height="22.5"></rect>
                <path d="M25.1,27.4 L2.6,27.4 C1.4,27.4 0.5,26.4 0.5,25.3 L0.5,2.8 C0.5,1.6 1.5,0.7 2.6,0.7 L25.1,0.7 C26.3,0.7 27.2,1.7 27.2,2.8 L27.2,25.3 C27.2,26.4 26.3,27.4 25.1,27.4 Z M4.7,23.1 L22.9,23.1 L22.9,4.9 L4.7,4.9 L4.7,23.1 Z" id="Shape" fill="#000000" fill-rule="nonzero"></path>
            </g>
            <g id="Group" transform="translate(527.000000, 314.000000)">
                <rect id="Rectangle" fill="#FFFFFF" x="3" y="2.1" width="22.5" height="22.5"></rect>
                <path d="M25.5,26.7 L3,26.7 C1.8,26.7 0.9,25.7 0.9,24.6 L0.9,2.1 C0.9,0.9 1.9,-5.68434189e-14 3,-5.68434189e-14 L25.5,-5.68434189e-14 C26.7,-5.68434189e-14 27.6,1 27.6,2.1 L27.6,24.6 C27.6,25.7 26.7,26.7 25.5,26.7 Z M5.1,22.4 L23.3,22.4 L23.3,4.2 L5.1,4.2 L5.1,22.4 Z" id="Shape" fill="#000000" fill-rule="nonzero"></path>
            </g>
            <g id="Group" transform="translate(561.000000, 314.000000)">
                <rect id="Rectangle" fill="#FFFFFF" x="2.4" y="2.1" width="22.5" height="22.5"></rect>
                <path d="M24.9,26.7 L2.4,26.7 C1.2,26.7 0.3,25.7 0.3,24.6 L0.3,2.1 C0.3,0.9 1.3,-5.68434189e-14 2.4,-5.68434189e-14 L24.9,-5.68434189e-14 C26.1,-5.68434189e-14 27,1 27,2.1 L27,24.6 C27.1,25.7 26.1,26.7 24.9,26.7 Z M4.6,22.4 L22.8,22.4 L22.8,4.2 L4.6,4.2 L4.6,22.4 Z" id="Shape" fill="#000000" fill-rule="nonzero"></path>
            </g>
            <g id="Group" transform="translate(527.000000, 349.000000)">
                <rect id="Rectangle" fill="#FFFFFF" x="3" y="3" width="22.5" height="22.5"></rect>
                <path d="M25.5,27.7 L3,27.7 C1.8,27.7 0.9,26.7 0.9,25.6 L0.9,3 C0.9,1.8 1.9,0.9 3,0.9 L25.5,0.9 C26.7,0.9 27.6,1.9 27.6,3 L27.6,25.5 C27.6,26.7 26.7,27.7 25.5,27.7 Z M5.1,23.4 L23.3,23.4 L23.3,5.2 L5.1,5.2 L5.1,23.4 Z" id="Shape" fill="#000000" fill-rule="nonzero"></path>
            </g>
            <g id="Group" transform="translate(793.000000, 358.000000)">
                <rect id="Rectangle" fill="#FFFFFF" x="2.6" y="2.1" width="21.3" height="21.3"></rect>
                <path d="M23.8,25.5 L2.5,25.5 C1.3,25.5 0.4,24.5 0.4,23.4 L0.4,2.1 C0.4,0.9 1.4,-5.68434189e-14 2.5,-5.68434189e-14 L23.8,-5.68434189e-14 C25,-5.68434189e-14 25.9,1 25.9,2.1 L25.9,23.4 C26,24.5 25,25.5 23.8,25.5 Z M4.7,21.2 L21.7,21.2 L21.7,4.2 L4.7,4.2 L4.7,21.2 Z" id="Shape" fill="#000000" fill-rule="nonzero"></path>
            </g>
            <g id="Group" transform="translate(793.000000, 392.000000)">
                <rect id="Rectangle" fill="#FFFFFF" x="2.6" y="2.1" width="21.3" height="21.3"></rect>
                <path d="M23.8,25.5 L2.5,25.5 C1.3,25.5 0.4,24.5 0.4,23.4 L0.4,2.1 C0.4,0.9 1.4,-5.68434189e-14 2.5,-5.68434189e-14 L23.8,-5.68434189e-14 C25,-5.68434189e-14 25.9,1 25.9,2.1 L25.9,23.4 C26,24.5 25,25.5 23.8,25.5 Z M4.7,21.2 L21.7,21.2 L21.7,4.2 L4.7,4.2 L4.7,21.2 Z" id="Shape" fill="#000000" fill-rule="nonzero"></path>
            </g>
            <g id="Group" transform="translate(793.000000, 425.000000)">
                <rect id="Rectangle" fill="#FFFFFF" x="2.6" y="3" width="21.3" height="21.3"></rect>
                <path d="M23.8,26.4 L2.5,26.4 C1.3,26.4 0.4,25.4 0.4,24.3 L0.4,3 C0.4,1.8 1.4,0.9 2.5,0.9 L23.8,0.9 C25,0.9 25.9,1.9 25.9,3 L25.9,24.3 C26,25.5 25,26.4 23.8,26.4 Z M4.7,22.1 L21.7,22.1 L21.7,5.1 L4.7,5.1 L4.7,22.1 Z" id="Shape" fill="#000000" fill-rule="nonzero"></path>
            </g>
            <g id="Group" transform="translate(561.000000, 349.000000)">
                <rect id="Rectangle" fill="#FFFFFF" x="2.4" y="3" width="22.5" height="22.5"></rect>
                <path d="M24.9,27.7 L2.4,27.7 C1.2,27.7 0.3,26.7 0.3,25.6 L0.3,3 C0.3,1.8 1.3,0.9 2.4,0.9 L24.9,0.9 C26.1,0.9 27,1.9 27,3 L27,25.5 C27.1,26.7 26.1,27.7 24.9,27.7 Z M4.6,23.4 L22.8,23.4 L22.8,5.2 L4.6,5.2 L4.6,23.4 Z" id="Shape" fill="#000000" fill-rule="nonzero"></path>
            </g>
            <g id="Group" transform="translate(527.000000, 385.000000)">
                <rect id="Rectangle" fill="#FFFFFF" x="3" y="3" width="22.5" height="22.5"></rect>
                <path d="M25.5,27.6 L3,27.6 C1.8,27.6 0.9,26.6 0.9,25.5 L0.9,3 C0.9,1.8 1.9,0.9 3,0.9 L25.5,0.9 C26.7,0.9 27.6,1.9 27.6,3 L27.6,25.5 C27.6,26.7 26.7,27.6 25.5,27.6 Z M5.1,23.3 L23.3,23.3 L23.3,5.1 L5.1,5.1 L5.1,23.3 Z" id="Shape" fill="#000000" fill-rule="nonzero"></path>
            </g>
            <g id="Group" transform="translate(561.000000, 385.000000)">
                <rect id="Rectangle" fill="#FFFFFF" x="2.4" y="3" width="22.5" height="22.5"></rect>
                <path d="M24.9,27.6 L2.4,27.6 C1.2,27.6 0.3,26.6 0.3,25.5 L0.3,3 C0.3,1.8 1.3,0.9 2.4,0.9 L24.9,0.9 C26.1,0.9 27,1.9 27,3 L27,25.5 C27.1,26.7 26.1,27.6 24.9,27.6 Z M4.6,23.3 L22.8,23.3 L22.8,5.1 L4.6,5.1 L4.6,23.3 Z" id="Shape" fill="#000000" fill-rule="nonzero"></path>
            </g>
            <path d="M668,356.3 L600.2,356.3 C599,356.3 598.1,355.3 598.1,354.2 C598.1,353 599.1,352.1 600.2,352.1 L668,352.1 C669.2,352.1 670.1,353.1 670.1,354.2 C670.1,355.3 669.1,356.3 668,356.3 Z" id="Path" fill="#000000"></path>
            <path d="M668,378.7 L600.2,378.7 C599,378.7 598.1,377.7 598.1,376.6 C598.1,375.5 599.1,374.5 600.2,374.5 L668,374.5 C669.2,374.5 670.1,375.5 670.1,376.6 C670.1,377.7 669.1,378.7 668,378.7 Z" id="Path" fill="#000000"></path>
            <path d="M668,401.2 L600.2,401.2 C599,401.2 598.1,400.2 598.1,399.1 C598.1,397.9 599.1,397 600.2,397 L668,397 C669.2,397 670.1,398 670.1,399.1 C670.1,400.2 669.1,401.2 668,401.2 Z" id="Path" fill="#000000"></path>
            <path d="M668,423.7 L600.2,423.7 C599,423.7 598.1,422.7 598.1,421.6 C598.1,420.5 599.1,419.5 600.2,419.5 L668,419.5 C669.2,419.5 670.1,420.5 670.1,421.6 C670.1,422.7 669.1,423.7 668,423.7 Z" id="Path" fill="#000000"></path>
            <path d="M668,446.2 L600.2,446.2 C599,446.2 598.1,445.2 598.1,444.1 C598.1,442.9 599.1,442 600.2,442 L668,442 C669.2,442 670.1,443 670.1,444.1 C670.1,445.2 669.1,446.2 668,446.2 Z" id="Path" fill="#000000"></path>
            <g id="Group" transform="translate(706.000000, 330.000000)">
                <rect id="Rectangle" fill="#FFFFFF" x="2.7" y="2.4" width="49.2" height="13.5"></rect>
                <path d="M51.9,18 L2.7,18 C1.5,18 0.6,17 0.6,15.9 L0.6,2.4 C0.6,1.2 1.6,0.3 2.7,0.3 L51.9,0.3 C53.1,0.3 54,1.3 54,2.4 L54,15.9 C54,17 53.1,18 51.9,18 Z M4.8,13.7 L49.7,13.7 L49.7,4.5 L4.8,4.5 L4.8,13.7 Z" id="Shape" fill="#000000" fill-rule="nonzero"></path>
            </g>
            <g id="Group" transform="translate(426.000000, 333.000000)">
                <rect id="Rectangle" fill="#FFFFFF" x="2.1" y="3" width="49.2" height="13.5"></rect>
                <path d="M51.3,18.6 L2.1,18.6 C0.9,18.6 -1.13686838e-13,17.6 -1.13686838e-13,16.5 L-1.13686838e-13,3 C-1.13686838e-13,1.8 1,0.9 2.1,0.9 L51.3,0.9 C52.5,0.9 53.4,1.9 53.4,3 L53.4,16.5 C53.4,17.6 52.5,18.6 51.3,18.6 Z M4.2,14.3 L49.1,14.3 L49.1,5.1 L4.2,5.1 L4.2,14.3 Z" id="Shape" fill="#000000" fill-rule="nonzero"></path>
            </g>
            <g id="Group" transform="translate(426.000000, 362.000000)">
                <rect id="Rectangle" fill="#FFFFFF" x="2.1" y="2.9" width="49.2" height="13.5"></rect>
                <path d="M51.3,18.5 L2.1,18.5 C0.9,18.5 -1.13686838e-13,17.5 -1.13686838e-13,16.4 L-1.13686838e-13,2.9 C-1.13686838e-13,1.7 1,0.8 2.1,0.8 L51.3,0.8 C52.5,0.8 53.4,1.8 53.4,2.9 L53.4,16.4 C53.4,17.6 52.5,18.5 51.3,18.5 Z M4.2,14.2 L49.1,14.2 L49.1,5 L4.2,5 L4.2,14.2 Z" id="Shape" fill="#000000" fill-rule="nonzero"></path>
            </g>
            <g id="Group" transform="translate(426.000000, 391.000000)">
                <rect id="Rectangle" fill="#FFFFFF" x="2.1" y="2.8" width="49.2" height="13.5"></rect>
                <path d="M51.3,18.5 L2.1,18.5 C0.9,18.5 -1.13686838e-13,17.5 -1.13686838e-13,16.4 L-1.13686838e-13,2.9 C-1.13686838e-13,1.7 1,0.8 2.1,0.8 L51.3,0.8 C52.5,0.8 53.4,1.8 53.4,2.9 L53.4,16.4 C53.4,17.5 52.5,18.5 51.3,18.5 Z M4.2,14.2 L49.1,14.2 L49.1,5 L4.2,5 L4.2,14.2 Z" id="Shape" fill="#000000" fill-rule="nonzero"></path>
            </g>
            <g id="Group" transform="translate(426.000000, 420.000000)">
                <rect id="Rectangle" fill="#FFFFFF" x="2.1" y="2.8" width="49.2" height="13.5"></rect>
                <path d="M51.3,18.4 L2.1,18.4 C0.9,18.4 -1.13686838e-13,17.4 -1.13686838e-13,16.3 L-1.13686838e-13,2.8 C-1.13686838e-13,1.6 1,0.7 2.1,0.7 L51.3,0.7 C52.5,0.7 53.4,1.7 53.4,2.8 L53.4,16.3 C53.4,17.4 52.5,18.4 51.3,18.4 Z M4.2,14.1 L49.1,14.1 L49.1,4.9 L4.2,4.9 L4.2,14.1 Z" id="Shape" fill="#000000" fill-rule="nonzero"></path>
            </g>
            <g id="Group" transform="translate(706.000000, 356.000000)">
                <rect id="Rectangle" fill="#FFFFFF" x="2.7" y="2.2" width="49.2" height="13.5"></rect>
                <path d="M51.9,17.8 L2.7,17.8 C1.5,17.8 0.6,16.8 0.6,15.7 L0.6,2.2 C0.6,1 1.6,0.1 2.7,0.1 L51.9,0.1 C53.1,0.1 54,1.1 54,2.2 L54,15.7 C54,16.8 53.1,17.8 51.9,17.8 Z M4.8,13.5 L49.7,13.5 L49.7,4.3 L4.8,4.3 L4.8,13.5 Z" id="Shape" fill="#000000" fill-rule="nonzero"></path>
            </g>
            <g id="Group" transform="translate(706.000000, 381.000000)">
                <rect id="Rectangle" fill="#FFFFFF" x="2.7" y="3" width="49.2" height="13.5"></rect>
                <path d="M51.9,18.6 L2.7,18.6 C1.5,18.6 0.6,17.6 0.6,16.5 L0.6,3 C0.6,1.8 1.6,0.9 2.7,0.9 L51.9,0.9 C53.1,0.9 54,1.9 54,3 L54,16.5 C54,17.6 53.1,18.6 51.9,18.6 Z M4.8,14.3 L49.7,14.3 L49.7,5.1 L4.8,5.1 L4.8,14.3 Z" id="Shape" fill="#000000" fill-rule="nonzero"></path>
            </g>
            <g id="Group" transform="translate(706.000000, 407.000000)">
                <rect id="Rectangle" fill="#FFFFFF" x="2.7" y="2.8" width="49.2" height="13.5"></rect>
                <path d="M51.9,18.4 L2.7,18.4 C1.5,18.4 0.6,17.4 0.6,16.3 L0.6,2.8 C0.6,1.6 1.6,0.7 2.7,0.7 L51.9,0.7 C53.1,0.7 54,1.7 54,2.8 L54,16.3 C54,17.4 53.1,18.4 51.9,18.4 Z M4.8,14.1 L49.7,14.1 L49.7,4.9 L4.8,4.9 L4.8,14.1 Z" id="Shape" fill="#000000" fill-rule="nonzero"></path>
            </g>
            <path d="M428.1,380.5 L407,380.5 C405.8,380.5 404.9,379.5 404.9,378.4 C404.9,377.2 405.9,376.3 407,376.3 L428.1,376.3 C429.3,376.3 430.2,377.3 430.2,378.4 C430.2,379.6 429.2,380.5 428.1,380.5 Z" id="Path" fill="#000000"></path>
            <path d="M428.1,401.4 L407,401.4 C405.8,401.4 404.9,400.4 404.9,399.3 C404.9,398.1 405.9,397.2 407,397.2 L428.1,397.2 C429.3,397.2 430.2,398.2 430.2,399.3 C430.2,400.4 429.2,401.4 428.1,401.4 Z" id="Path" fill="#000000"></path>
            <g id="Group" transform="translate(365.000000, 418.000000)">
                <rect id="Rectangle" fill="#FFFFFF" x="2.6" y="2.1" width="22.5" height="22.5"></rect>
                <path d="M25.1,26.7 L2.6,26.7 C1.4,26.7 0.5,25.7 0.5,24.6 L0.5,2.1 C0.5,0.9 1.5,0 2.6,0 L25.1,0 C26.3,0 27.2,1 27.2,2.1 L27.2,24.6 C27.2,25.8 26.3,26.7 25.1,26.7 Z M4.7,22.4 L22.9,22.4 L22.9,4.2 L4.7,4.2 L4.7,22.4 Z" id="Shape" fill="#000000" fill-rule="nonzero"></path>
            </g>
            <path d="M428.1,423.8 L407,423.8 C405.8,423.8 404.9,422.8 404.9,421.7 C404.9,420.6 405.9,419.6 407,419.6 L428.1,419.6 C429.3,419.6 430.2,420.6 430.2,421.7 C430.2,422.8 429.2,423.8 428.1,423.8 Z" id="Path" fill="#000000"></path>
            <path d="M428.1,444.7 L407,444.7 C405.8,444.7 404.9,443.7 404.9,442.6 C404.9,441.5 405.9,440.5 407,440.5 L428.1,440.5 C429.3,440.5 430.2,441.5 430.2,442.6 C430.2,443.7 429.2,444.7 428.1,444.7 Z" id="Path" fill="#000000"></path>
            <g id="Group" transform="translate(661.000000, 311.000000)">
                <g>
                    <path d="M59.5,76.7 C59.5,92.3 46.8,105 31.2,105 C15.6,105 2.9,92.3 2.9,76.7 L2.9,31.3 C2.9,15.7 15.6,3 31.2,3 C46.8,3 59.5,15.7 59.5,31.3 L59.5,76.7 Z" id="Path" fill="#45AEA0"></path>
                    <path d="M31.2,107.1 C14.4,107.1 0.8,93.5 0.8,76.7 L0.8,31.3 C0.8,14.5 14.4,0.9 31.2,0.9 C48,0.9 61.6,14.5 61.6,31.3 L61.6,76.7 C61.6,93.5 48,107.1 31.2,107.1 Z M31.2,5.2 C16.8,5.2 5.1,16.9 5.1,31.3 L5.1,76.7 C5.1,91.1 16.8,102.8 31.2,102.8 C45.6,102.8 57.3,91.1 57.3,76.7 L57.3,31.3 C57.3,16.9 45.6,5.2 31.2,5.2 Z" id="Shape" fill="#000000" fill-rule="nonzero"></path>
                </g>
                <path d="M31.2,158.5 C30,158.5 29.1,157.5 29.1,156.4 L29.1,62.2 C29.1,61.6 29.3,61.1 29.7,60.7 L44.9,45.5 C45.7,44.7 47.1,44.7 47.9,45.5 C48.7,46.3 48.7,47.7 47.9,48.5 L33.4,63 L33.4,156.3 C33.3,157.6 32.4,158.5 31.2,158.5 Z" id="Path" fill="#000000"></path>
                <path d="M31.2,84.5 C30.7,84.5 30.1,84.3 29.7,83.9 L15.7,69.9 C14.9,69.1 14.9,67.7 15.7,66.9 C16.5,66.1 17.9,66.1 18.7,66.9 L32.7,80.9 C33.5,81.7 33.5,83.1 32.7,83.9 C32.3,84.3 31.7,84.5 31.2,84.5 Z" id="Path" fill="#000000"></path>
            </g>
            <g id="Group" transform="translate(447.000000, 351.000000)">
                <g>
                    <path d="M80.3,41.4 C80.3,62.9 62.9,80.3 41.4,80.3 C19.9,80.3 2.5,62.9 2.5,41.4 C2.5,19.9 19.9,2.4 41.4,2.4 C62.9,2.5 80.3,19.9 80.3,41.4 Z" id="Path" fill="#9CD025"></path>
                    <path d="M41.4,82.5 C18.7,82.5 0.3,64.1 0.3,41.4 C0.3,18.7 18.7,0.3 41.4,0.3 C64.1,0.3 82.5,18.7 82.5,41.4 C82.5,64.1 64,82.5 41.4,82.5 Z M41.4,4.6 C21.1,4.6 4.6,21.1 4.6,41.4 C4.6,61.7 21.1,78.2 41.4,78.2 C61.7,78.2 78.2,61.7 78.2,41.4 C78.2,21.1 61.7,4.6 41.4,4.6 Z" id="Shape" fill="#000000" fill-rule="nonzero"></path>
                </g>
                <path d="M41.4,117.1 C40.2,117.1 39.3,116.1 39.3,115 L39.3,80.4 C39.3,79.2 40.3,78.3 41.4,78.3 C42.6,78.3 43.5,79.3 43.5,80.4 L43.5,115 C43.5,116.2 42.6,117.1 41.4,117.1 Z" id="Path" fill="#000000"></path>
                <path d="M41.4,82.5 C40.2,82.5 39.3,81.5 39.3,80.4 L39.3,52.1 C39.3,50.9 40.3,50 41.4,50 L60.2,50 C61.4,50 62.3,51 62.3,52.1 C62.3,53.3 61.3,54.2 60.2,54.2 L43.6,54.2 L43.6,80.3 C43.5,81.6 42.6,82.5 41.4,82.5 Z" id="Path" fill="#000000"></path>
                <path d="M41.4,54.3 C40.2,54.3 39.3,53.3 39.3,52.2 L39.3,26.2 C39.3,25 40.3,24.1 41.4,24.1 C42.6,24.1 43.5,25.1 43.5,26.2 L43.5,52.2 C43.5,53.3 42.6,54.3 41.4,54.3 Z" id="Path" fill="#000000"></path>
                <path d="M41.4,66.1 C40.9,66.1 40.3,65.9 39.9,65.5 L19,44.6 C18.2,43.8 18.2,42.4 19,41.6 C19.8,40.8 21.2,40.8 22,41.6 L42.9,62.5 C43.7,63.3 43.7,64.7 42.9,65.5 C42.5,65.9 41.9,66.1 41.4,66.1 Z" id="Path" fill="#000000"></path>
            </g>
            <g id="Group" transform="translate(800.000000, 351.000000)">
                <g>
                    <path d="M80.3,41.4 C80.3,62.9 62.9,80.3 41.3,80.3 C19.8,80.3 2.4,62.9 2.4,41.4 C2.4,19.9 19.8,2.4 41.3,2.4 C62.8,2.5 80.3,19.9 80.3,41.4 Z" id="Path" fill="#9CD025"></path>
                    <path d="M41.3,82.5 C18.6,82.5 0.2,64.1 0.2,41.4 C0.2,18.7 18.6,0.3 41.3,0.3 C64,0.3 82.4,18.7 82.4,41.4 C82.4,64.1 64,82.5 41.3,82.5 Z M41.3,4.6 C21,4.6 4.5,21.1 4.5,41.4 C4.5,61.7 21,78.2 41.3,78.2 C61.6,78.2 78.1,61.7 78.1,41.4 C78.1,21.1 61.6,4.6 41.3,4.6 Z" id="Shape" fill="#000000" fill-rule="nonzero"></path>
                </g>
                <path d="M41.3,117.1 C40.1,117.1 39.2,116.1 39.2,115 L39.2,80.4 C39.2,79.2 40.2,78.3 41.3,78.3 C42.4,78.3 43.4,79.3 43.4,80.4 L43.4,115 C43.5,116.2 42.5,117.1 41.3,117.1 Z" id="Path" fill="#000000"></path>
                <path d="M41.3,82.5 C40.1,82.5 39.2,81.5 39.2,80.4 L39.2,52.1 C39.2,50.9 40.2,50 41.3,50 L60.1,50 C61.3,50 62.2,51 62.2,52.1 C62.2,53.3 61.2,54.2 60.1,54.2 L43.5,54.2 L43.5,80.3 C43.5,81.6 42.5,82.5 41.3,82.5 Z" id="Path" fill="#000000"></path>
                <path d="M41.3,54.3 C40.1,54.3 39.2,53.3 39.2,52.2 L39.2,26.2 C39.2,25 40.2,24.1 41.3,24.1 C42.4,24.1 43.4,25.1 43.4,26.2 L43.4,52.2 C43.5,53.3 42.5,54.3 41.3,54.3 Z" id="Path" fill="#000000"></path>
                <path d="M41.3,66.1 C40.8,66.1 40.2,65.9 39.8,65.5 L18.9,44.6 C18.1,43.8 18.1,42.4 18.9,41.6 C19.7,40.8 21.1,40.8 21.9,41.6 L42.8,62.5 C43.6,63.3 43.6,64.7 42.8,65.5 C42.4,65.9 41.9,66.1 41.3,66.1 Z" id="Path" fill="#000000"></path>
            </g>
            <g id="Group" transform="translate(980.000000, 0.000000)">
                <g transform="translate(22.000000, 22.000000)">
                    <path d="M42.6,2.5 C20.7,2.5 3,20.2 3,42.1 C3,64 20.7,81.7 42.6,81.7 C64.5,81.7 82.2,64 82.2,42.1 C82.2,20.3 64.4,2.5 42.6,2.5 Z" id="Path" fill="#FFFFFF"></path>
                    <path d="M42.6,83.9 C19.6,83.9 0.9,65.2 0.9,42.2 C0.9,19.2 19.6,0.4 42.6,0.4 C65.6,0.4 84.3,19.1 84.3,42.2 C84.3,65.2 65.6,83.9 42.6,83.9 Z M42.6,4.7 C21.9,4.7 5.2,21.5 5.2,42.2 C5.2,62.9 22,79.6 42.6,79.6 C63.3,79.6 80.1,62.8 80.1,42.2 C80,21.5 63.2,4.7 42.6,4.7 Z" id="Shape" fill="#000000" fill-rule="nonzero"></path>
                </g>
                <g fill-rule="nonzero" id="Shape">
                    <path d="M64.6,2.5 C30.4,2.5 2.7,30.2 2.7,64.4 C2.7,77.5 6.8,89.7 13.8,99.7 L64.6,184.5 L115.4,99.7 C122.4,89.7 126.4,77.5 126.4,64.4 C126.4,30.2 98.7,2.5 64.6,2.5 Z M64.6,103.7 C42.7,103.7 25,86 25,64.1 C25,42.2 42.7,24.5 64.6,24.5 C86.5,24.5 104.2,42.2 104.2,64.1 C104.2,86 86.4,103.7 64.6,103.7 Z" fill="#FF595E"></path>
                    <path d="M64.6,186.6 C63.8,186.6 63.1,186.2 62.8,185.6 L12,100.8 C4.6,90.2 0.6,77.5 0.6,64.4 C0.6,29.1 29.3,0.4 64.6,0.4 C99.9,0.4 128.6,29.1 128.6,64.4 C128.6,77.5 124.7,90.1 117.2,100.9 L66.5,185.6 C66,186.2 65.3,186.6 64.6,186.6 Z M64.6,4.6 C31.7,4.6 4.9,31.4 4.9,64.3 C4.9,76.5 8.6,88.3 15.6,98.3 L64.6,180.1 L113.6,98.4 C120.6,88.2 124.3,76.5 124.3,64.2 C124.3,31.4 97.5,4.6 64.6,4.6 Z M64.6,105.9 C41.6,105.9 22.9,87.2 22.9,64.2 C22.9,41.2 41.6,22.4 64.6,22.4 C87.6,22.4 106.3,41.1 106.3,64.2 C106.3,87.2 87.6,105.9 64.6,105.9 Z M64.6,26.7 C43.9,26.7 27.2,43.5 27.2,64.2 C27.2,84.9 44,101.6 64.6,101.6 C85.3,101.6 102.1,84.8 102.1,64.2 C102,43.5 85.2,26.7 64.6,26.7 Z" fill="#000000"></path>
                </g>
            </g>
            <g id="Group" transform="translate(153.000000, 624.000000)">
                <polygon id="Path" fill="#114B4F" points="167.990071 1.95276382 27.870922 1.95276382 27.870922 27.6080402 1.45957447 27.6080402 1.45957447 106.59397 27.870922 106.59397 27.870922 132.249246 167.990071 132.249246 167.990071 106.59397 194.401418 106.59397 194.401418 27.6080402 167.990071 27.6080402"></polygon>
                <path d="M167.990071,133.663317 L27.870922,133.663317 C27.0368794,133.663317 26.4113475,132.98995 26.4113475,132.249246 L26.4113475,108.075377 L1.45957447,108.075377 C0.625531915,108.075377 0,107.40201 0,106.661307 L0,27.6080402 C0,26.8 0.695035461,26.1939698 1.45957447,26.1939698 L26.4113475,26.1939698 L26.4113475,2.0201005 C26.4113475,1.2120603 27.106383,0.606030151 27.870922,0.606030151 L167.990071,0.606030151 C168.824113,0.606030151 169.449645,1.27939698 169.449645,2.0201005 L169.449645,26.1939698 L194.401418,26.1939698 C195.235461,26.1939698 195.860993,26.8673367 195.860993,27.6080402 L195.860993,106.59397 C195.860993,107.40201 195.165957,108.00804 194.401418,108.00804 L169.449645,108.00804 L169.449645,132.18191 C169.449645,133.057286 168.824113,133.663317 167.990071,133.663317 Z M29.4,130.767839 L166.530496,130.767839 L166.530496,106.59397 C166.530496,105.78593 167.225532,105.179899 167.990071,105.179899 L192.941844,105.179899 L192.941844,29.0894472 L167.990071,29.0894472 C167.156028,29.0894472 166.530496,28.4160804 166.530496,27.6753769 L166.530496,3.50150754 L29.4,3.50150754 L29.4,27.6080402 C29.4,28.4160804 28.7049645,29.0221106 27.9404255,29.0221106 L2.98865248,29.0221106 L2.98865248,105.112563 L27.9404255,105.112563 C28.7744681,105.112563 29.4,105.78593 29.4,106.526633 L29.4,130.767839 Z" id="Shape" fill="#000000" fill-rule="nonzero"></path>
            </g>
            <g id="Group" transform="translate(320.000000, 729.000000)">
                <path d="M1.85625,30.2666667 L18.08125,30.2666667 C25.4375,30.2666667 31.4875,24.4 31.4875,17.2666667 L31.4875,1.53333333 L1.85625,1.53333333 L1.85625,30.2666667 Z" id="Path" fill="#F1F2F2"></path>
                <path d="M18.08125,31.6666667 L1.85625,31.6666667 C1.03125,31.6666667 0.4125,31 0.4125,30.2666667 L0.4125,1.53333333 C0.4125,0.733333333 1.1,0.133333333 1.85625,0.133333333 L31.4875,0.133333333 C32.3125,0.133333333 32.93125,0.8 32.93125,1.53333333 L32.93125,17.2666667 C32.93125,25.2 26.2625,31.6666667 18.08125,31.6666667 Z M3.3,28.8 L18.08125,28.8 C24.6125,28.8 29.975,23.6 29.975,17.2666667 L29.975,2.93333333 L3.3,2.93333333 L3.3,28.8 Z" id="Shape" fill="#000000" fill-rule="nonzero"></path>
            </g>
            <g id="Group" transform="translate(320.000000, 622.000000)">
                <path d="M1.85625,1.4 L18.08125,1.4 C25.4375,1.4 31.4875,7.26666667 31.4875,14.4 L31.4875,30.1333333 L1.85625,30.1333333 L1.85625,1.4 Z" id="Path" fill="#F1F2F2"></path>
                <path d="M31.4875,31.5333333 L1.85625,31.5333333 C1.03125,31.5333333 0.4125,30.8666667 0.4125,30.1333333 L0.4125,1.4 C0.4125,0.6 1.1,-1.13686838e-13 1.85625,-1.13686838e-13 L18.08125,-1.13686838e-13 C26.2625,-1.13686838e-13 32.93125,6.46666667 32.93125,14.4 L32.93125,30.1333333 C32.93125,30.8666667 32.24375,31.5333333 31.4875,31.5333333 Z M3.3,28.6666667 L29.975,28.6666667 L29.975,14.3333333 C29.975,8 24.6125,2.8 18.08125,2.8 L3.3,2.8 L3.3,28.6666667 Z" id="Shape" fill="#000000" fill-rule="nonzero"></path>
            </g>
            <g id="Group" transform="translate(150.000000, 729.000000)">
                <path d="M31.14375,30.2666667 L14.91875,30.2666667 C7.5625,30.2666667 1.5125,24.4 1.5125,17.2666667 L1.5125,1.53333333 L31.14375,1.53333333 L31.14375,30.2666667 Z" id="Path" fill="#F1F2F2"></path>
                <path d="M31.14375,31.6666667 L14.91875,31.6666667 C6.7375,31.6666667 0.06875,25.2 0.06875,17.2666667 L0.06875,1.53333333 C0.06875,0.733333333 0.75625,0.133333333 1.5125,0.133333333 L31.14375,0.133333333 C31.96875,0.133333333 32.5875,0.8 32.5875,1.53333333 L32.5875,30.2666667 C32.5875,31.0666667 31.9,31.6666667 31.14375,31.6666667 Z M2.95625,3 L2.95625,17.3333333 C2.95625,23.6666667 8.31875,28.8666667 14.85,28.8666667 L29.63125,28.8666667 L29.63125,3 L2.95625,3 Z" id="Shape" fill="#000000" fill-rule="nonzero"></path>
            </g>
            <g id="Group" transform="translate(150.000000, 622.000000)">
                <path d="M31.14375,1.4 L14.91875,1.4 C7.5625,1.4 1.5125,7.26666667 1.5125,14.4 L1.5125,30.1333333 L31.14375,30.1333333 L31.14375,1.4 Z" id="Path" fill="#F1F2F2"></path>
                <path d="M31.14375,31.5333333 L1.5125,31.5333333 C0.6875,31.5333333 0.06875,30.8666667 0.06875,30.1333333 L0.06875,14.4 C0.06875,6.46666667 6.7375,-1.13686838e-13 14.91875,-1.13686838e-13 L31.14375,-1.13686838e-13 C31.96875,-1.13686838e-13 32.5875,0.666666667 32.5875,1.4 L32.5875,30.1333333 C32.5875,30.8666667 31.9,31.5333333 31.14375,31.5333333 Z M2.95625,28.6666667 L29.63125,28.6666667 L29.63125,2.8 L14.85,2.8 C8.31875,2.8 2.95625,8 2.95625,14.3333333 L2.95625,28.6666667 Z" id="Shape" fill="#000000" fill-rule="nonzero"></path>
            </g>
            <g id="Group" transform="translate(224.000000, 602.000000)">
                <path d="M52.3384615,23.8789474 L52.3384615,16.1473684 C52.3384615,8.00526316 45.6923077,1.43684211 37.4538462,1.43684211 L16.3384615,1.43684211 C8.1,1.43684211 1.45384615,8.00526316 1.45384615,16.1473684 L1.45384615,23.8789474 L52.3384615,23.8789474 Z" id="Path" fill="#FFFFFF"></path>
                <path d="M52.3384615,25.3842105 L1.52307692,25.3842105 C0.692307692,25.3842105 0.0692307692,24.7 0.0692307692,23.9473684 L0.0692307692,16.2157895 C0.0692307692,7.32105263 7.40769231,0.0684210526 16.4076923,0.0684210526 L37.5230769,0.0684210526 C46.5230769,0.0684210526 53.8615385,7.32105263 53.8615385,16.2157895 L53.8615385,23.9473684 C53.8615385,24.7 53.1692308,25.3842105 52.3384615,25.3842105 Z M2.97692308,22.4421053 L50.8153846,22.4421053 L50.8153846,16.2157895 C50.8153846,8.89473684 44.7923077,3.01052632 37.4538462,3.01052632 L16.3384615,3.01052632 C8.93076923,3.01052632 2.97692308,8.96315789 2.97692308,16.2157895 L2.97692308,22.4421053 Z" id="Shape" fill="#000000" fill-rule="nonzero"></path>
            </g>
            <g id="Group" transform="translate(256.000000, 643.000000)">
                <rect id="Rectangle" fill="#FFFFFF" x="1.74342105" y="1.9575" width="49.2342105" height="23.5575"></rect>
                <path d="M50.9776316,27 L1.74342105,27 C0.906578947,27 0.278947368,26.325 0.278947368,25.5825 L0.278947368,2.025 C0.278947368,1.215 0.976315789,0.6075 1.74342105,0.6075 L50.9776316,0.6075 C51.8144737,0.6075 52.4421053,1.2825 52.4421053,2.025 L52.4421053,25.5825 C52.4421053,26.325 51.8144737,27 50.9776316,27 Z M3.20789474,24.0975 L49.4434211,24.0975 L49.4434211,3.4425 L3.20789474,3.4425 L3.20789474,24.0975 Z" id="Shape" fill="#000000" fill-rule="nonzero"></path>
            </g>
            <g id="Group" transform="translate(265.000000, 655.000000)">
                <path d="M1.54,1.44 L33.11,1.44" id="Path" fill="#FFFFFF"></path>
                <path d="M33.11,2.76 L1.54,2.76 C0.7,2.76 0.07,2.16 0.07,1.5 C0.07,0.78 0.77,0.24 1.54,0.24 L33.11,0.24 C33.95,0.24 34.58,0.84 34.58,1.5 C34.65,2.16 33.95,2.76 33.11,2.76 Z" id="Path" fill="#000000"></path>
            </g>
            <g id="Group" transform="translate(0.000000, 726.000000)">
                <path d="M130.4,31.8 L130.4,28.5 C130.4,14.1 118.7,2.4 104.3,2.4 L28.6,2.4 C14.2,2.4 2.5,14.1 2.5,28.5 L2.5,31.8 L130.4,31.8 Z" id="Path" fill="#E6EBE0"></path>
                <path d="M130.4,34 L2.4,34 C1.2,34 0.3,33 0.3,31.9 L0.3,28.6 C0.3,13 13,0.3 28.6,0.3 L104.3,0.3 C119.9,0.3 132.6,13 132.6,28.6 L132.6,31.9 C132.5,33 131.6,34 130.4,34 Z M4.5,29.7 L128.2,29.7 L128.2,28.6 C128.2,15.4 117.4,4.6 104.2,4.6 L28.5,4.6 C15.3,4.6 4.5,15.4 4.5,28.6 L4.5,29.7 Z" id="Shape" fill="#000000" fill-rule="nonzero"></path>
            </g>
            <g id="Group" transform="translate(64.000000, 596.000000)">
                <path d="M2.4,128.4 L2.4,2.1" id="Path" fill="#FFFFFF"></path>
                <path d="M2.4,130.6 C1.2,130.6 0.3,129.6 0.3,128.5 L0.3,2.1 C0.3,0.9 1.3,0 2.4,0 C3.6,0 4.5,1 4.5,2.1 L4.5,128.4 C4.5,129.6 3.6,130.6 2.4,130.6 Z" id="Path" fill="#000000"></path>
            </g>
            <g id="Group" transform="translate(132.000000, 437.000000)">
                <path d="M98.7,51 C98.7,77.6 77.1,99.2 50.5,99.2 C23.9,99.2 2.3,77.6 2.3,51 C2.3,24.4 23.9,2.8 50.5,2.8 C77.2,2.8 98.7,24.4 98.7,51 Z" id="Path" fill="#FF595E"></path>
                <path d="M50.6,101.3 C22.9,101.3 0.3,78.7 0.3,51 C0.3,23.3 22.9,0.7 50.6,0.7 C78.3,0.7 100.9,23.3 100.9,51 C100.9,78.8 78.3,101.3 50.6,101.3 Z M50.6,5 C25.2,5 4.6,25.6 4.6,51 C4.6,76.4 25.2,97 50.6,97 C76,97 96.6,76.4 96.6,51 C96.6,25.6 75.9,5 50.6,5 Z" id="Shape" fill="#000000" fill-rule="nonzero"></path>
            </g>
            <g id="Group" transform="translate(1042.000000, 182.000000)" fill="#000000">
                <path d="M19.8,4.6 L2.6,4.6 C1.4,4.6 0.5,3.6 0.5,2.5 C0.5,1.3 1.5,0.4 2.6,0.4 L19.8,0.4 C21,0.4 21.9,1.4 21.9,2.5 C21.9,3.6 20.9,4.6 19.8,4.6 Z" id="Path"></path>
                <path d="M149.2,4.6 L118.7,4.6 C117.5,4.6 116.6,3.6 116.6,2.5 C116.6,1.3 117.6,0.4 118.7,0.4 L149.2,0.4 C150.4,0.4 151.3,1.4 151.3,2.5 C151.4,3.6 150.4,4.6 149.2,4.6 Z M84.5,4.6 L54,4.6 C52.8,4.6 51.9,3.6 51.9,2.5 C51.9,1.3 52.9,0.4 54,0.4 L84.5,0.4 C85.7,0.4 86.6,1.4 86.6,2.5 C86.6,3.6 85.7,4.6 84.5,4.6 Z" id="Shape" fill-rule="nonzero"></path>
                <path d="M200.7,21.7 C199.5,21.7 198.6,20.7 198.6,19.6 L198.6,4.6 L183.6,4.6 C182.4,4.6 181.5,3.6 181.5,2.5 C181.5,1.3 182.5,0.4 183.6,0.4 L200.8,0.4 C202,0.4 202.9,1.4 202.9,2.5 L202.9,19.7 C202.9,20.8 201.9,21.7 200.7,21.7 Z" id="Path"></path>
                <path d="M200.7,75.9 C199.5,75.9 198.6,74.9 198.6,73.8 L198.6,48.3 C198.6,47.1 199.6,46.2 200.7,46.2 C201.9,46.2 202.8,47.2 202.8,48.3 L202.8,73.8 C202.9,74.9 201.9,75.9 200.7,75.9 Z" id="Path"></path>
                <path d="M200.7,121.7 L183.5,121.7 C182.3,121.7 181.4,120.7 181.4,119.6 C181.4,118.5 182.4,117.5 183.5,117.5 L198.5,117.5 L198.5,102.5 C198.5,101.3 199.5,100.4 200.6,100.4 C201.8,100.4 202.7,101.4 202.7,102.5 L202.7,119.7 C202.9,120.8 201.9,121.7 200.7,121.7 Z" id="Path"></path>
                <path d="M152.2,121.7 L124.4,121.7 C123.2,121.7 122.3,120.7 122.3,119.6 C122.3,118.5 123.3,117.5 124.4,117.5 L152.2,117.5 C153.4,117.5 154.3,118.5 154.3,119.6 C154.3,120.7 153.4,121.7 152.2,121.7 Z M93,121.7 L65.2,121.7 C64,121.7 63.1,120.7 63.1,119.6 C63.1,118.5 64.1,117.5 65.2,117.5 L93,117.5 C94.2,117.5 95.1,118.5 95.1,119.6 C95.1,120.7 94.2,121.7 93,121.7 Z" id="Shape" fill-rule="nonzero"></path>
                <path d="M16.6,138.9 C15.4,138.9 14.5,137.9 14.5,136.8 L14.5,119.6 C14.5,118.4 15.5,117.5 16.6,117.5 L33.8,117.5 C35,117.5 35.9,118.5 35.9,119.6 C35.9,120.7 34.9,121.7 33.8,121.7 L18.8,121.7 L18.8,136.7 C18.8,138 17.8,138.9 16.6,138.9 Z" id="Path"></path>
                <path d="M16.6,182.5 C15.4,182.5 14.5,181.5 14.5,180.4 L14.5,159.9 C14.5,158.7 15.5,157.8 16.6,157.8 C17.7,157.8 18.7,158.8 18.7,159.9 L18.7,180.4 C18.8,181.5 17.8,182.5 16.6,182.5 Z" id="Path"></path>
                <path d="M33.8,222.8 C33.8,222.8 33.8,222.8 33.8,222.8 L16.6,222.7 C15.4,222.7 14.5,221.7 14.5,220.6 L14.5,203.4 C14.5,202.2 15.5,201.3 16.6,201.3 C17.7,201.3 18.7,202.3 18.7,203.4 L18.7,218.5 L33.8,218.6 C35,218.6 35.9,219.6 35.9,220.8 C36,221.9 35,222.8 33.8,222.8 Z" id="Path"></path>
                <path d="M74.1,223 C74.1,223 74.1,223 74.1,223 L55.1,222.9 C53.9,222.9 53,221.9 53,220.7 C53,219.5 54,218.6 55.1,218.6 C55.1,218.6 55.1,218.6 55.1,218.6 L74,218.7 C75.2,218.7 76.1,219.7 76.1,220.9 C76.2,222.1 75.3,223 74.1,223 Z" id="Path"></path>
                <path d="M112.6,223.3 C112.6,223.3 112.6,223.3 112.6,223.3 L95.4,223.2 C94.2,223.2 93.3,222.2 93.3,221 C93.3,219.8 94.3,218.9 95.4,218.9 C95.4,218.9 95.4,218.9 95.4,218.9 L112.6,219 C113.8,219 114.7,220 114.7,221.2 C114.7,222.3 113.8,223.3 112.6,223.3 Z" id="Path"></path>
            </g>
            <g id="Group" transform="translate(1090.000000, 218.000000)">
                <g transform="translate(22.000000, 22.000000)">
                    <circle id="Oval" fill="#FFFFFF" cx="42.6" cy="42.3" r="39.6"></circle>
                    <path d="M42.6,84.1 C19.6,84.1 0.9,65.4 0.9,42.4 C0.9,19.4 19.6,0.6 42.6,0.6 C65.6,0.6 84.4,19.3 84.4,42.4 C84.3,65.3 65.6,84.1 42.6,84.1 Z M42.6,4.9 C21.9,4.9 5.2,21.7 5.2,42.4 C5.2,63.1 22,79.8 42.6,79.8 C63.2,79.8 80.1,63 80.1,42.4 C80,21.7 63.2,4.9 42.6,4.9 Z" id="Shape" fill="#000000" fill-rule="nonzero"></path>
                </g>
                <g fill-rule="nonzero" id="Shape">
                    <path d="M64.6,2.7 C30.4,2.7 2.7,30.4 2.7,64.6 C2.7,77.7 6.8,89.9 13.8,99.9 L64.6,184.7 L115.4,99.9 C122.4,89.9 126.4,77.7 126.4,64.6 C126.5,30.4 98.8,2.7 64.6,2.7 Z M64.6,103.9 C42.7,103.9 25,86.2 25,64.3 C25,42.4 42.7,24.7 64.6,24.7 C86.5,24.7 104.2,42.4 104.2,64.3 C104.2,86.2 86.5,103.9 64.6,103.9 Z" fill="#114B4F"></path>
                    <path d="M64.6,186.7 C63.8,186.7 63.1,186.3 62.8,185.7 L12,100.9 C4.6,90.3 0.6,77.6 0.6,64.5 C0.6,29.2 29.3,0.5 64.6,0.5 C99.9,0.5 128.6,29.2 128.6,64.5 C128.6,77.6 124.7,90.2 117.2,101 L66.5,185.7 C66,186.3 65.3,186.7 64.6,186.7 Z M64.6,4.8 C31.7,4.8 4.9,31.6 4.9,64.5 C4.9,76.7 8.6,88.5 15.6,98.5 L64.6,180.3 L113.6,98.6 C120.7,88.4 124.3,76.7 124.3,64.4 C124.3,31.6 97.5,4.8 64.6,4.8 Z M64.6,106.1 C41.6,106.1 22.9,87.4 22.9,64.4 C22.9,41.4 41.6,22.6 64.6,22.6 C87.6,22.6 106.4,41.3 106.4,64.4 C106.3,87.3 87.6,106.1 64.6,106.1 Z M64.6,26.9 C43.9,26.9 27.2,43.7 27.2,64.4 C27.2,85.1 44,101.8 64.6,101.8 C85.2,101.8 102.1,85 102.1,64.4 C102,43.7 85.2,26.9 64.6,26.9 Z" fill="#000000"></path>
                </g>
            </g>
            <path d="M66.140625,601.3 C64.940625,601.3 64.040625,600.3 64.040625,599.2 L64.040625,443.3 C64.040625,442.8 64.040625,430.8 72.240625,422.5 C77.140625,417.5 83.940625,415 92.440625,415 L146.140625,415 C146.840625,415 147.440625,415.3 147.840625,415.8 L167.540625,440.2 C168.240625,441.1 168.140625,442.5 167.240625,443.2 C166.340625,443.9 164.940625,443.8 164.240625,442.9 L145.140625,419.3 L92.440625,419.3 C85.140625,419.3 79.440625,421.4 75.340625,425.5 C68.340625,432.5 68.440625,443.2 68.440625,443.3 L68.440625,599.2 C68.240625,600.3 67.340625,601.3 66.140625,601.3 Z" id="Path" fill="#000000"></path>
        </g>
    </g>
</svg>