<?xml version="1.0" encoding="UTF-8"?>
<svg width="1034px" height="791px" viewBox="0 0 1034 791" version="1.1" xmlns="http://www.w3.org/2000/svg" xmlns:xlink="http://www.w3.org/1999/xlink">
    <!-- Generator: Sketch 52.6 (67491) - http://www.bohemiancoding.com/sketch -->
    <title>Group 5</title>
    <desc>Created with Sketch.</desc>
    <g id="Page-1" stroke="none" stroke-width="1" fill="none" fill-rule="evenodd">
        <g id="Group-5">
            <g id="Group" transform="translate(277.000000, 338.000000)">
                <g transform="translate(0.000000, 44.000000)">
                    <path d="M375.3,195.8 C375.3,216.8 358.3,233.8 337.3,233.8 L41.8,233.8 C20.8,233.8 3.8,216.8 3.8,195.8 L3.8,41.3 C3.8,20.3 20.8,3.3 41.8,3.3 L337.3,3.3 C358.3,3.3 375.3,20.3 375.3,41.3 L375.3,195.8 Z" id="Path" fill="#FFFFFF"></path>
                    <path d="M337.3,237 L41.8,237 C19.1,237 0.6,218.5 0.6,195.8 L0.6,41.3 C0.6,18.6 19.1,0.1 41.8,0.1 L337.3,0.1 C360,0.1 378.5,18.6 378.5,41.3 L378.5,195.8 C378.5,218.5 360,237 337.3,237 Z M41.8,6.6 C22.7,6.6 7.1,22.2 7.1,41.3 L7.1,195.8 C7.1,214.9 22.6,230.5 41.8,230.5 L337.3,230.5 C356.4,230.5 372,215 372,195.8 L372,41.3 C372,22.2 356.5,6.6 337.3,6.6 L41.8,6.6 Z" id="Shape" fill="#231F20" fill-rule="nonzero"></path>
                </g>
                <g transform="translate(93.000000, 66.000000)">
                    <path d="M189.5,96.5 C189.5,147.8 147.9,189.4 96.6,189.4 C45.3,189.4 3.7,147.8 3.7,96.5 C3.7,45.2 45.3,3.6 96.6,3.6 C147.9,3.6 189.5,45.2 189.5,96.5 Z" id="Path" fill="#FFFFFF"></path>
                    <path d="M96.6,192.7 C43.6,192.7 0.4,149.5 0.4,96.5 C0.4,43.5 43.6,0.3 96.6,0.3 C149.6,0.3 192.8,43.5 192.8,96.5 C192.8,149.6 149.6,192.7 96.6,192.7 Z M96.6,6.9 C47.2,6.9 7,47.1 7,96.5 C7,145.9 47.2,186.1 96.6,186.1 C146,186.1 186.2,145.9 186.2,96.5 C186.2,47.1 146,6.9 96.6,6.9 Z" id="Shape" fill="#114B4F" fill-rule="nonzero"></path>
                </g>
                <g transform="translate(117.000000, 90.000000)">
                    <path d="M141.2,72.5 C141.2,110.4 110.5,141.1 72.5,141.1 C34.6,141.1 3.8,110.4 3.8,72.5 C3.8,34.6 34.5,3.8 72.5,3.8 C110.5,3.9 141.2,34.6 141.2,72.5 Z" id="Path" fill="#FF595E"></path>
                    <path d="M72.6,144.5 C32.9,144.5 0.7,112.2 0.7,72.6 C0.7,33 33,0.7 72.6,0.7 C112.3,0.7 144.5,33 144.5,72.6 C144.5,112.2 112.2,144.5 72.6,144.5 Z M72.6,7.2 C36.6,7.2 7.2,36.5 7.2,72.6 C7.2,108.6 36.5,138 72.6,138 C108.6,138 138,108.7 138,72.6 C137.9,36.5 108.6,7.2 72.6,7.2 Z" id="Shape" fill="#231F20" fill-rule="nonzero"></path>
                </g>
                <g transform="translate(281.000000, 66.000000)">
                    <rect id="Rectangle" fill="#114B4F" x="3.6" y="3.6" width="64.3" height="48.5"></rect>
                    <path d="M67.9,55.4 L3.6,55.4 C1.8,55.4 0.3,53.9 0.3,52.1 L0.3,3.6 C0.3,1.8 1.8,0.3 3.6,0.3 L67.9,0.3 C69.7,0.3 71.2,1.8 71.2,3.6 L71.2,52.1 C71.2,54 69.7,55.4 67.9,55.4 Z M6.9,48.9 L64.6,48.9 L64.6,7 L6.9,7 L6.9,48.9 Z" id="Shape" fill="#000000" fill-rule="nonzero"></path>
                </g>
                <g transform="translate(139.000000, 0.000000)">
                    <path d="M97.2,47.3 L97.2,22.5 C97.2,12 88.7,3.5 78.2,3.5 L22.9,3.5 C12.4,3.5 3.9,12 3.9,22.5 L3.9,47.3 L97.2,47.3 Z" id="Path" fill="#FFFFFF"></path>
                    <path d="M97.2,50.6 L3.9,50.6 C2.1,50.6 0.6,49.1 0.6,47.3 L0.6,22.5 C0.6,10.2 10.6,0.2 22.9,0.2 L78.2,0.2 C90.5,0.2 100.5,10.2 100.5,22.5 L100.5,47.3 C100.5,49.2 99,50.6 97.2,50.6 Z M7.2,44.1 L93.9,44.1 L93.9,22.6 C93.9,13.9 86.9,6.9 78.2,6.9 L22.9,6.9 C14.2,6.9 7.2,13.9 7.2,22.6 L7.2,44.1 Z" id="Shape" fill="#231F20" fill-rule="nonzero"></path>
                </g>
                <g transform="translate(122.000000, 15.000000)" id="Path">
                    <path d="M3.9,3.6 L131.2,3.6" fill="#FFFFFF"></path>
                    <path d="M131.2,6.9 L3.9,6.9 C2.1,6.9 0.6,5.4 0.6,3.6 C0.6,1.8 2.1,0.3 3.9,0.3 L131.2,0.3 C133,0.3 134.5,1.8 134.5,3.6 C134.5,5.5 133,6.9 131.2,6.9 Z" fill="#231F20"></path>
                </g>
                <g transform="translate(133.000000, 31.000000)" id="Path">
                    <path d="M3.3,3.5 L126.7,3.5" fill="#FFFFFF"></path>
                    <path d="M126.7,6.7 L3.3,6.7 C1.5,6.7 0,5.2 0,3.4 C0,1.6 1.5,0.1 3.3,0.1 L126.7,0.1 C128.5,0.1 130,1.6 130,3.4 C130,5.2 128.5,6.7 126.7,6.7 Z" fill="#231F20"></path>
                </g>
                <g transform="translate(154.000000, 127.000000)" id="Path">
                    <path d="M66.9,4.2 L4.2,66.9" fill="#FFFFFF"></path>
                    <path d="M4.2,70.2 C3.4,70.2 2.5,69.9 1.9,69.2 C0.6,67.9 0.6,65.8 1.9,64.6 L64.6,1.9 C65.9,0.6 68,0.6 69.2,1.9 C70.5,3.2 70.5,5.3 69.2,6.5 L6.4,69.3 C5.9,69.9 5,70.2 4.2,70.2 Z" fill="#231F20"></path>
                </g>
                <g transform="translate(187.000000, 158.000000)" id="Path">
                    <path d="M45.8,3.8 L3.9,45.7" fill="#FFFFFF"></path>
                    <path d="M3.9,49 C3.1,49 2.2,48.7 1.6,48 C0.3,46.7 0.3,44.6 1.6,43.4 L43.5,1.5 C44.8,0.2 46.9,0.2 48.1,1.5 C49.3,2.8 49.4,4.9 48.1,6.1 L6.2,48 C5.6,48.6 4.7,49 3.9,49 Z" fill="#231F20"></path>
                </g>
                <g transform="translate(24.000000, 79.000000)">
                    <path d="M20.7,11.7 C20.7,16.4 16.9,20.1 12.3,20.1 C7.6,20.1 3.9,16.3 3.9,11.7 C3.9,7 7.7,3.3 12.3,3.3 C17,3.3 20.7,7.1 20.7,11.7 Z" id="Path" fill="#114B4F"></path>
                    <path d="M12.3,23.5 C5.8,23.5 0.6,18.2 0.6,11.8 C0.6,5.3 5.9,0.1 12.3,0.1 C18.8,0.1 24,5.4 24,11.8 C24,18.2 18.8,23.5 12.3,23.5 Z M12.3,6.6 C9.5,6.6 7.1,8.9 7.1,11.7 C7.1,14.5 9.4,16.9 12.3,16.9 C15.2,16.9 17.5,14.6 17.5,11.7 C17.5,8.9 15.1,6.6 12.3,6.6 Z" id="Shape" fill="#000000" fill-rule="nonzero"></path>
                </g>
                <g transform="translate(57.000000, 79.000000)">
                    <path d="M21,11.7 C21,16.4 17.2,20.1 12.6,20.1 C7.9,20.1 4.2,16.3 4.2,11.7 C4.2,7 8,3.3 12.6,3.3 C17.2,3.3 21,7.1 21,11.7 Z" id="Path" fill="#FFFFFF"></path>
                    <path d="M12.6,23.5 C6.1,23.5 0.9,18.2 0.9,11.8 C0.9,5.3 6.2,0.1 12.6,0.1 C19.1,0.1 24.3,5.4 24.3,11.8 C24.3,18.2 19,23.5 12.6,23.5 Z M12.6,6.6 C9.8,6.6 7.5,8.9 7.5,11.7 C7.5,14.5 9.8,16.9 12.6,16.9 C15.4,16.9 17.8,14.6 17.8,11.7 C17.7,8.9 15.4,6.6 12.6,6.6 Z" id="Shape" fill="#000000" fill-rule="nonzero"></path>
                </g>
                <g transform="translate(38.000000, 33.000000)">
                    <rect id="Rectangle" fill="#FFFFFF" x="3.8" y="4" width="50.3" height="10.4"></rect>
                    <path d="M54.2,17.6 L3.9,17.6 C2.1,17.6 0.6,16.1 0.6,14.3 L0.6,4 C0.6,2.2 2.1,0.7 3.9,0.7 L54.2,0.7 C56,0.7 57.5,2.2 57.5,4 L57.5,14.4 C57.5,16.2 56,17.6 54.2,17.6 Z M7.1,11.1 L50.9,11.1 L50.9,7.3 L7.1,7.3 L7.1,11.1 Z" id="Shape" fill="#231F20" fill-rule="nonzero"></path>
                </g>
            </g>
            <g id="Group" transform="translate(120.672928, 365.147700) rotate(-35.000000) translate(-120.672928, -365.147700) translate(21.172928, 297.647700)">
                <rect id="Rectangle" fill="#FFFFFF" x="2.24148352" y="2.1402439" width="194.681044" height="130.884146"></rect>
                <path d="M196.977198,134.780488 L2.24148352,134.780488 C1.25741758,134.780488 0.437362637,133.957317 0.437362637,132.969512 L0.437362637,2.1402439 C0.437362637,1.15243902 1.25741758,0.329268293 2.24148352,0.329268293 L196.922527,0.329268293 C197.906593,0.329268293 198.726648,1.15243902 198.726648,2.1402439 L198.726648,133.02439 C198.726648,134.012195 197.961264,134.780488 196.977198,134.780488 Z M4.0456044,131.213415 L195.173077,131.213415 L195.173077,3.95121951 L4.0456044,3.95121951 L4.0456044,131.213415 Z" id="Shape" fill="#231F20" fill-rule="nonzero"></path>
            </g>
            <g id="Group" transform="translate(120.672928, 365.147700) rotate(-35.000000) translate(-120.672928, -365.147700) translate(21.172928, 297.647700)">
                <rect id="Rectangle" fill="#FFFFFF" x="2.24148352" y="2.1402439" width="194.681044" height="130.884146"></rect>
                <path d="M196.977198,134.780488 L2.24148352,134.780488 C1.25741758,134.780488 0.437362637,133.957317 0.437362637,132.969512 L0.437362637,2.1402439 C0.437362637,1.15243902 1.25741758,0.329268293 2.24148352,0.329268293 L196.922527,0.329268293 C197.906593,0.329268293 198.726648,1.15243902 198.726648,2.1402439 L198.726648,133.02439 C198.726648,134.012195 197.961264,134.780488 196.977198,134.780488 Z M4.0456044,131.213415 L195.173077,131.213415 L195.173077,3.95121951 L4.0456044,3.95121951 L4.0456044,131.213415 Z" id="Shape" fill="#231F20" fill-rule="nonzero"></path>
            </g>
            <g id="Group-4" transform="translate(288.000000, 80.200000)">
                <g id="Group" transform="translate(0.000000, 0.800000)">
                    <rect id="Rectangle" fill="#FFFFFF" x="2.4930685" y="2.37581448" width="266.133939" height="179.060403"></rect>
                    <path d="M269.317352,183.906016 L2.49511144,183.906016 C1.14676772,183.906016 0.0231479522,182.781375 0.0231479522,181.431807 L0.0231479522,2.68894967 C0.0231479522,1.33938112 1.14676772,0.214740655 2.49511144,0.214740655 L269.242444,0.214740655 C270.590788,0.214740655 271.714408,1.33938112 271.714408,2.68894967 L271.714408,181.506783 C271.714408,182.856351 270.665696,183.906016 269.317352,183.906016 Z M4.96707493,179.032574 L266.845389,179.032574 L266.845389,5.16315868 L4.96707493,5.16315868 L4.96707493,179.032574 Z" id="Shape" fill="#231F20" fill-rule="nonzero"></path>
                </g>
                <g id="living-room" transform="translate(59.000000, 14.800000)" fill-rule="nonzero">
                    <path d="M145.278978,100.476032 L145.278978,82.4574137 C145.268438,75.6875414 139.794836,70.2032573 133.042232,70.1967871 L115.359528,70.1967871 L115.359528,50.4056225 L128.934014,50.4056225 C129.52653,50.377531 130.07366,50.0791911 130.419171,49.5957931 C130.764682,49.1123951 130.870594,48.4970773 130.706664,47.9255422 L124.252391,26.3618313 C124.016526,25.5789518 123.295459,25.0445982 122.479741,25.0481928 L104.537941,25.0481928 C103.724834,25.0381129 103.002654,25.5672431 102.765291,26.346988 L96.3110177,47.906988 C96.1429555,48.4865764 96.2491223,49.1114181 96.5991081,49.6025341 C96.9421332,50.0876245 97.4909527,50.3848571 98.083668,50.4065502 L111.658153,50.4065502 L111.658153,70.1977149 L26.734725,70.1977149 C19.9823308,70.2041826 14.508612,75.6877537 14.497053,82.4574137 L14.497053,100.476032 C8.05852691,100.872496 3.04959897,106.241144 3.08447937,112.708209 L3.08447937,141.042972 C3.08566565,141.531873 3.28202531,141.999951 3.62973503,142.34274 C3.97744475,142.685529 4.44756215,142.874497 4.93516699,142.86747 L10.1787819,142.86747 L10.1787819,152.144578 C10.219689,153.18558 11.076704,154.006479 12.115835,154 L33.0492711,154 C33.535403,153.998117 34.0004091,153.800555 34.3398696,153.451679 C34.67933,153.102802 34.8647949,152.631851 34.8546169,152.144578 L34.8546169,142.86747 L124.921415,142.86747 L124.921415,152.144578 C124.911404,152.631909 125.097009,153.102857 125.436566,153.451714 C125.776124,153.800571 126.241191,153.998113 126.727377,154 L147.66143,154 C148.700276,154.006294 149.556832,153.185312 149.59725,152.144578 L149.59725,142.86747 L154.840864,142.86747 C155.328518,142.874665 155.798733,142.685752 156.146479,142.342926 C156.494226,142.000101 156.690533,141.531925 156.691552,141.042972 L156.691552,112.708209 C156.726432,106.241144 151.717505,100.872496 145.278978,100.476032 Z M105.915161,28.7590361 L121.102521,28.7590361 L126.44669,46.6947791 L100.570992,46.6947791 L105.915161,28.7590361 Z M26.734725,73.9076305 L133.042232,73.9076305 C137.751329,73.9123945 141.568765,77.7362769 141.577603,82.4574137 L141.577603,100.795165 C136.143601,102.18532 132.336914,107.086372 132.324165,112.708827 L132.324165,118.437751 L27.4518664,118.437751 L27.4518664,112.708209 C27.439117,107.085754 23.6324301,102.184701 18.1984283,100.794546 L18.1984283,82.4567952 C18.2076068,77.7355383 22.0255072,73.9118826 26.734725,73.9076305 Z M31.1532417,150.289157 L13.8801572,150.289157 L13.8801572,142.86747 L31.1532417,142.86747 L31.1532417,150.289157 Z M145.895874,150.289157 L128.62279,150.289157 L128.62279,142.86747 L145.895874,142.86747 L145.895874,150.289157 Z M152.990177,139.156627 L6.78585462,139.156627 L6.78585462,112.708209 C6.78585462,108.01157 10.5835179,104.204193 15.2681729,104.204193 C19.9528279,104.204193 23.7504912,108.01157 23.7504912,112.708209 L23.7504912,120.231325 C23.7907634,121.286174 24.6440947,122.126774 25.6967976,122.148594 L134.080159,122.148594 C135.132695,122.126749 135.985746,121.286025 136.02554,120.231325 L136.02554,112.708209 C136.02554,108.01157 139.823204,104.204193 144.507859,104.204193 C149.192514,104.204193 152.990177,108.01157 152.990177,112.708209 L152.990177,139.156627 Z" id="Shape" fill="#114B4F"></path>
                    <path d="M65.3909627,60.6840402 L65.3909627,15.3461928 C65.3904449,14.8679635 65.1940797,14.4109264 64.8478088,14.0820104 C64.5015379,13.7530943 64.0357419,13.5811573 63.5593988,13.6064257 L46.9278861,13.6064257 L34.0131709,0.601156627 C33.6757992,0.233782269 33.199616,0.0259673984 32.7015316,0.0287337647 C32.2034471,0.031500131 31.7295897,0.244591537 31.3962986,0.615690763 L18.4818919,13.6064257 L1.85068762,13.6064257 C1.37235907,13.5805021 0.904229459,13.7516164 0.554790547,14.0801118 C0.205351635,14.4086072 0.00493920275,14.865966 0,15.3461928 L0,60.6840402 C0.00287889628,61.1685958 0.201195884,61.6313665 0.549804406,61.9670032 C0.898412928,62.30264 1.36764751,62.4825812 1.85068762,62.4658635 L63.5593988,62.4658635 C64.0404125,62.4817278 64.5071979,62.3008962 64.8525901,61.964884 C65.1979823,61.6288717 65.3923112,61.1665433 65.3909627,60.6840402 Z M53.0530452,38.5927711 L40.0272888,44.6804096 L24.1715226,33.8438193 C23.499948,33.397897 22.6225304,33.4180043 21.9719804,33.8942249 L12.0294695,41.3406506 L12.0294695,24.7389558 L53.0530452,24.7389558 L53.0530452,38.5927711 Z M12.0294695,45.9801325 L23.1527191,37.658257 L38.8480923,48.3399197 C39.1610123,48.5494307 39.5288589,48.66124 39.9051434,48.6612169 C40.1550618,48.6611151 40.4014563,48.602113 40.624444,48.4889719 L53.0530452,42.6824297 L53.0530452,51.3333333 L12.0294695,51.3333333 L12.0294695,45.9801325 Z M54.3346464,21.0281124 L11.0081984,21.0281124 L6.55235953,17.3172691 L58.759332,17.3172691 L54.3346464,21.0281124 Z M8.3280943,23.8393855 L8.3280943,52.3228916 L3.70137525,56.5680964 L3.70137525,19.6281968 L8.3280943,23.8393855 Z M11.0115914,55.0441767 L54.3300196,55.0441767 L58.5764224,58.7550201 L6.73496071,58.7550201 L11.0115914,55.0441767 Z M56.7544204,52.3259839 L56.7544204,23.8353655 L61.6895874,19.5369719 L61.6895874,56.660249 L56.7544204,52.3259839 Z M32.7047348,4.59495181 L41.6935246,13.6064257 L23.7162534,13.6064257 L32.7047348,4.59495181 Z" id="Shape" fill="#000000"></path>
                    <path d="M38.9797996,39.0257028 C42.4232766,39.0257028 45.2147662,36.2270725 45.2147662,32.7747871 C45.2147662,29.3225018 42.4232766,26.5238715 38.9797996,26.5238715 C35.5363226,26.5238715 32.744833,29.3225018 32.744833,32.7747871 C32.7485729,36.2255183 35.537873,39.0219533 38.9797996,39.0257028 Z M38.9797996,30.2350241 C40.0045697,30.2350241 40.9284286,30.8539263 41.3205623,31.8031242 C41.712696,32.7523222 41.4958762,33.8448768 40.7712102,34.5713081 C40.0465441,35.2977393 38.9567507,35.5149808 38.0100224,35.1217284 C37.0632941,34.7284761 36.4460835,33.8021786 36.4462083,32.7747871 C36.4470581,31.3720968 37.5806887,30.2350129 38.9797996,30.2334779 L38.9797996,30.2350241 Z" id="Shape" fill="#000000"></path>
                    <path d="M106.965735,93.2163855 C105.798579,95.2959803 105.798579,97.8354816 106.965735,99.9150763 L104.350405,102.537096 C103.872256,103.003575 103.681556,103.691964 103.851278,104.338838 C104.021,104.985712 104.52487,105.490931 105.170074,105.661163 C105.815278,105.831396 106.501932,105.640288 106.967277,105.160972 L109.582607,102.538643 C111.656943,103.708602 114.18987,103.708602 116.264206,102.538643 L118.879228,105.160663 C119.601942,105.885311 120.773763,105.88538 121.496563,105.160817 C122.219362,104.436254 122.219432,103.261436 121.496717,102.536787 L118.878919,99.9119839 C120.036542,97.8318759 120.036542,95.2989675 118.878919,93.2188594 L121.496717,90.5940562 C122.219432,89.8694076 122.219362,88.6945894 121.496563,87.9700262 C120.773763,87.245463 119.601942,87.2455322 118.879228,87.9701807 L116.264206,90.5922008 C114.189918,89.4224788 111.657204,89.4224788 109.582916,90.5922008 L106.967277,87.9701807 C106.501932,87.4908643 105.815278,87.299757 105.170074,87.4699893 C104.52487,87.6402217 104.021,88.1454404 103.851278,88.7923147 C103.681556,89.4391889 103.872256,90.1275774 104.350405,90.5940562 L106.965735,93.2163855 Z M112.923715,93.4260482 C114.418273,93.4257896 115.704863,94.4840654 115.996595,95.953624 C116.288327,97.4231826 115.50394,98.8946877 114.123173,99.4681527 C112.742406,100.041618 111.149863,99.5573076 110.319558,98.3114309 C109.489254,97.0655543 109.652464,95.4051423 110.709367,94.3457189 C111.295056,93.7551026 112.092081,93.4239409 112.92279,93.4260482 L112.923715,93.4260482 Z" id="Shape" fill="#FF595E"></path>
                    <path d="M73.0364617,93.2163855 C71.8693055,95.2959803 71.8693055,97.8354816 73.0364617,99.9150763 L70.4211316,102.537096 C69.9429833,103.003575 69.7522827,103.691964 69.9220046,104.338838 C70.0917266,104.985712 70.5955969,105.490931 71.2408007,105.661163 C71.8860044,105.831396 72.572659,105.640288 73.0380039,105.160972 L75.653334,102.538643 C77.7276703,103.708602 80.2605968,103.708602 82.3349332,102.538643 L84.9499548,105.160663 C85.6726693,105.885311 86.8444901,105.88538 87.5672898,105.160817 C88.2900894,104.436254 88.2901585,103.261436 87.567444,102.536787 L84.9496464,99.9119839 C86.1072693,97.8318759 86.1072693,95.2989675 84.9496464,93.2188594 L87.567444,90.5940562 C88.2901585,89.8694076 88.2900894,88.6945893 87.5672898,87.9700261 C86.8444901,87.2454629 85.6726693,87.2455321 84.9499548,87.9701807 L82.3349332,90.5922008 C80.2606447,89.4224788 77.727931,89.4224788 75.6536424,90.5922008 L73.0380039,87.9701807 C72.572659,87.4908643 71.8860044,87.299757 71.2408007,87.4699893 C70.5955969,87.6402217 70.0917266,88.1454404 69.9220046,88.7923147 C69.7522827,89.4391889 69.9429833,90.1275774 70.4211316,90.5940562 L73.0364617,93.2163855 Z M78.994442,93.4260482 C80.489,93.4257896 81.7755904,94.4840654 82.0673222,95.953624 C82.3590539,97.4231826 81.574667,98.8946877 80.1939,99.4681527 C78.813133,100.041618 77.2205898,99.5573076 76.3902851,98.3114309 C75.5599805,97.0655543 75.7231905,95.4051423 76.7800943,94.3457189 C77.3657829,93.7551026 78.1628082,93.4239409 78.9935167,93.4260482 L78.994442,93.4260482 Z" id="Shape" fill="#FF595E"></path>
                    <path d="M39.1071886,93.2163855 C37.9400324,95.2959803 37.9400324,97.8354816 39.1071886,99.9150763 L36.4918585,102.537096 C36.0137102,103.003575 35.8230096,103.691964 35.9927316,104.338838 C36.1624535,104.985712 36.6663238,105.490931 37.3115276,105.661163 C37.9567314,105.831396 38.6433859,105.640288 39.1087308,105.160972 L41.7240609,102.538643 C43.7983973,103.708602 46.3313238,103.708602 48.4056601,102.538643 L51.0206817,105.160663 C51.7433962,105.885311 52.915217,105.88538 53.6380167,105.160817 C54.3608164,104.436254 54.3608854,103.261436 53.6381709,102.536787 L51.0203733,99.9119839 C52.1779962,97.8318759 52.1779962,95.2989675 51.0203733,93.2188594 L53.6381709,90.5940562 C54.1056852,90.1252908 54.288241,89.4420797 54.1170711,88.801782 C53.9459013,88.1614843 53.4470107,87.6613765 52.8083265,87.4898443 C52.1696424,87.318312 51.488196,87.5014153 51.0206817,87.9701807 L48.4056601,90.5922008 C46.3313716,89.4224788 43.7986579,89.4224788 41.7243694,90.5922008 L39.1087308,87.9701807 C38.6433859,87.4908643 37.9567314,87.299757 37.3115276,87.4699893 C36.6663238,87.6402217 36.1624535,88.1454404 35.9927316,88.7923147 C35.8230096,89.4391889 36.0137102,90.1275774 36.4918585,90.5940562 L39.1071886,93.2163855 Z M45.065169,93.4260482 C46.559727,93.4257896 47.8463173,94.4840654 48.1380491,95.953624 C48.4297808,97.4231826 47.6453939,98.8946877 46.2646269,99.4681527 C44.8838599,100.041618 43.2913167,99.5573076 42.4610121,98.3114309 C41.6307074,97.0655543 41.7939174,95.4051423 42.8508212,94.3457189 C43.4365099,93.7551026 44.2335351,93.4239409 45.0642436,93.4260482 L45.065169,93.4260482 Z" id="Shape" fill="#FF595E"></path>
                </g>
            </g>
            <rect id="Rectangle" fill="#FFFFFF" transform="translate(120.672928, 365.147700) rotate(-35.000000) translate(-120.672928, -365.147700) " x="41.1729283" y="317.6477" width="159" height="95"></rect>
            <path d="M76.2638373,413.6477 L40.9729283,413.6477 C39.9911101,413.6477 39.1729283,412.828302 39.1729283,411.845024 L39.1729283,317.450375 C39.1729283,316.467098 39.9911101,315.6477 40.9729283,315.6477 L199.372928,315.6477 C200.354746,315.6477 201.172928,316.467098 201.172928,317.450375 L201.172928,383.166094 C201.172928,383.930866 200.682019,384.641011 199.972928,384.859517 C199.263837,385.078023 198.445656,384.859517 197.954746,384.258625 L169.972928,347.877354 L136.863837,390.868435 C136.536565,391.305448 135.99111,391.57858 135.445656,391.57858 C135.445656,391.57858 135.445656,391.57858 135.445656,391.57858 C134.900201,391.57858 134.409292,391.360074 134.082019,390.923062 L114.827474,367.16052 L77.6820192,412.937555 C77.3547464,413.374567 76.8092919,413.6477 76.2638373,413.6477 Z M42.7729283,410.042348 L75.4456555,410.042348 L113.463837,363.172783 C114.118383,362.353385 115.59111,362.353385 116.245656,363.172783 L135.445656,386.880698 L168.554746,343.83499 C169.209292,342.960966 170.736565,342.960966 171.39111,343.83499 L197.572928,377.86732 L197.572928,319.253051 L42.7729283,319.253051 L42.7729283,410.042348 Z" id="Shape" fill="#231F20" fill-rule="nonzero" transform="translate(120.172928, 364.647700) rotate(-35.000000) translate(-120.172928, -364.647700) "></path>
            <g id="Group" transform="translate(121.672928, 392.647700) rotate(-35.000000) translate(-121.672928, -392.647700) translate(90.172928, 366.647700)">
                <polygon id="Path" fill="#E6EBE0" points="40.4068966 1.93617021 2.00948276 50.0638298 44.0456897 50.0638298 60.9362069 27.7148936"></polygon>
                <path d="M44.0456897,51.8893617 L2.00948276,51.8893617 C1.30344828,51.8893617 0.706034483,51.5021277 0.380172414,50.8382979 C0.10862069,50.2297872 0.162931034,49.4553191 0.597413793,48.9021277 L38.9405172,0.774468085 C39.5922414,-0.0553191489 41.0586207,-0.0553191489 41.7103448,0.774468085 L62.2396552,26.5531915 C62.7827586,27.2170213 62.7827586,28.1574468 62.2939655,28.8212766 L45.4034483,51.1702128 C45.1318966,51.612766 44.5887931,51.8893617 44.0456897,51.8893617 Z M5.75689655,48.2382979 L43.1224138,48.2382979 L58.6551724,27.7148936 L40.3525862,4.81276596 L5.75689655,48.2382979 Z" id="Shape" fill="#231F20" fill-rule="nonzero"></path>
            </g>
            <g id="Group" transform="translate(159.672928, 354.147700) rotate(-35.000000) translate(-159.672928, -354.147700) translate(117.172928, 318.647700)">
                <polygon id="Path" fill="#114B4F" points="53.6698718 2.18461538 19.1794872 47.0238462 2.23397436 69.0884615 37.0512821 69.0884615 83.0384615 69.0884615 83.0384615 40.4153846"></polygon>
                <path d="M83.0384615,70.8907692 L2.23397436,70.8907692 C1.52564103,70.8907692 0.926282051,70.5084615 0.653846154,69.9076923 C0.326923077,69.3069231 0.435897436,68.5423077 0.817307692,67.9961538 L52.2532051,1.09230769 C52.9070513,0.218461538 54.4326923,0.218461538 55.0865385,1.09230769 L84.4551282,39.3230769 C84.6730769,39.6507692 84.8365385,40.0330769 84.8365385,40.4153846 L84.8365385,69.0884615 C84.8365385,70.0715385 84.0192308,70.8907692 83.0384615,70.8907692 Z M5.88461538,67.2861538 L81.2403846,67.2861538 L81.2403846,41.0161538 L53.6698718,5.13384615 L5.88461538,67.2861538 Z" id="Shape" fill="#231F20" fill-rule="nonzero"></path>
            </g>
            <g id="Group" transform="translate(76.172928, 381.647700) rotate(-35.000000) translate(-76.172928, -381.647700) translate(59.172928, 364.647700)">
                <circle id="Oval" fill="#FF595E" cx="16.8903226" cy="16.9451613" r="14.8612903"></circle>
                <path d="M16.8903226,33.616129 C7.67741935,33.616129 0.219354839,26.1580645 0.219354839,16.9451613 C0.219354839,7.73225806 7.67741935,0.274193548 16.8903226,0.274193548 C26.1032258,0.274193548 33.5612903,7.73225806 33.5612903,16.9451613 C33.5612903,26.1032258 26.0483871,33.616129 16.8903226,33.616129 Z M16.8903226,3.89354839 C9.70645161,3.89354839 3.83870968,9.76129032 3.83870968,16.9451613 C3.83870968,24.1290323 9.70645161,29.9967742 16.8903226,29.9967742 C24.0741935,29.9967742 29.9419355,24.1290323 29.9419355,16.9451613 C29.9419355,9.70645161 24.0741935,3.89354839 16.8903226,3.89354839 Z" id="Shape" fill="#231F20" fill-rule="nonzero"></path>
            </g>
            <g id="Group-3" transform="translate(879.794969, 473.249956) rotate(26.000000) translate(-879.794969, -473.249956) translate(751.794969, 380.749956)">
                <g id="Group" transform="translate(0.490035, 0.226758)">
                    <rect id="Rectangle" fill="#FFFFFF" x="1.73076923" y="2.30721003" width="249.807692" height="178.231975"></rect>
                    <path d="M252.750207,184 L2.32009926,184 C1.05459057,184 0,182.873469 0,181.521633 L0,2.47836735 C0,1.12653061 1.05459057,0 2.32009926,0 L252.679901,0 C253.945409,0 255,1.12653061 255,2.47836735 L255,181.596735 C255,182.948571 254.015715,184 252.750207,184 Z M4.64019851,179.118367 L250.430108,179.118367 L250.430108,4.95673469 L4.64019851,4.95673469 L4.64019851,179.118367 Z" id="Shape" fill="#231F20" fill-rule="nonzero"></path>
                </g>
                <g id="Group-2" transform="translate(19.793653, 22.541872)">
                    <g id="Group">
                        <rect id="Rectangle" fill="#FFFFFF" x="2.37664835" y="2.25121951" width="206.420604" height="137.670732"></rect>
                        <path d="M208.85522,141.769106 L2.37664835,141.769106 C1.33324176,141.769106 0.463736264,140.903252 0.463736264,139.864228 L0.463736264,2.25121951 C0.463736264,1.21219512 1.33324176,0.346341463 2.37664835,0.346341463 L208.797253,0.346341463 C209.840659,0.346341463 210.710165,1.21219512 210.710165,2.25121951 L210.710165,139.921951 C210.710165,140.960976 209.898626,141.769106 208.85522,141.769106 Z M4.28956044,138.017073 L206.942308,138.017073 L206.942308,4.15609756 L4.28956044,4.15609756 L4.28956044,138.017073 Z" id="Shape" fill="#FF595E" fill-rule="nonzero"></path>
                    </g>
                    <rect id="Rectangle" fill="#FFFFFF" x="21.4478022" y="21.3577236" width="168.336264" height="99.7463415"></rect>
                </g>
                <g id="bed-(1)" transform="translate(68.130818, 40.002295)" fill="#114B4F" fill-rule="nonzero">
                    <path d="M116.870897,83.1549296 L106.409483,34.4867324 L106.409483,12.0169014 C106.409483,5.4083662 101.151543,0 94.5793707,0 L22.4203772,0 C15.8484569,0 10.5905172,5.4083662 10.5905172,12.0169014 L10.5905172,34.487493 L0.129103448,83.1549296 C0.0561935074,83.2315209 0.0107635854,83.3303667 0,83.435831 L0,96.5139718 C0.0382838639,97.387594 0.739199674,98.0842421 1.60849784,98.1126761 L10.3383621,98.1126761 L10.3383621,106.446169 C10.3383621,107.286338 10.9024332,108 11.7380754,108 L24.6153879,108 C25.4763158,107.992183 26.1818328,107.31075 26.2241379,106.446169 L26.2241379,98.1126761 L90.7758621,98.1126761 L90.7758621,106.446169 C90.8181672,107.31075 91.5236842,107.992183 92.3846121,108 L105.261925,108 C106.097567,108 106.661638,107.286338 106.661638,106.446169 L106.661638,98.1126761 L115.391502,98.1126761 C116.2608,98.0842421 116.961716,97.387594 117,96.5139718 L117,83.435831 C116.989167,83.3303351 116.943646,83.2314855 116.870644,83.1549296 L116.870897,83.1549296 Z M113.519754,81.8873239 L3.47974138,81.8873239 L6.39642026,68.1971831 L110.603075,68.1971831 L113.519754,81.8873239 Z M22.4203772,3.04225352 L94.5793707,3.04225352 C99.4830323,3.04225352 103.383621,7.08591549 103.383621,12.0169014 L103.383621,32.9577465 L80.9418103,32.9577465 L80.9418103,26.694 C80.9418103,21.528507 76.817056,17.2394366 71.6793944,17.2394366 L45.3206056,17.2394366 C40.182944,17.2394366 36.0581897,21.528507 36.0581897,26.694 L36.0581897,32.9577465 L13.6163793,32.9577465 L13.6163793,12.0169014 C13.6163793,7.08591549 17.5167155,3.04225352 22.4203772,3.04225352 Z M77.9159483,32.9577465 L39.0840517,32.9577465 L39.0840517,26.694 C39.0840517,23.2060563 41.8514547,20.2816901 45.3206056,20.2816901 L71.6793944,20.2816901 C75.1485453,20.2816901 77.9159483,23.2060563 77.9159483,26.694 L77.9159483,32.9577465 Z M13.2837866,36 L103.716213,36 L109.95428,65.1549296 L7.04571983,65.1549296 L13.2837866,36 Z M23.1982759,104.957746 L13.3642241,104.957746 L13.3642241,98.1126761 L23.1982759,98.1126761 L23.1982759,104.957746 Z M103.635776,104.957746 L93.8017241,104.957746 L93.8017241,98.1126761 L103.635776,98.1126761 L103.635776,104.957746 Z M113.974138,95.0704225 L3.02586207,95.0704225 L3.02586207,84.9295775 L113.974138,84.9295775 L113.974138,95.0704225 Z" id="Shape"></path>
                </g>
            </g>
            <path d="M195.9,618.6 L3.3,618.6 C1.5,618.6 0,617.1 0,615.3 C0,613.5 1.5,612 3.3,612 L195.9,612 C197.7,612 199.2,613.5 199.2,615.3 C199.2,617.2 197.7,618.6 195.9,618.6 Z" id="Path" fill="#000000"></path>
            <path d="M909.9,255.6 L717.3,255.6 C715.5,255.6 714,254.1 714,252.3 C714,250.5 715.5,249 717.3,249 L909.9,249 C911.7,249 913.2,250.5 913.2,252.3 C913.2,254.2 911.7,255.6 909.9,255.6 Z" id="Path" fill="#000000"></path>
            <path d="M546.8,791 L470.3,791 C468.5,791 467,789.5 467,787.7 C467,785.9 468.5,784.4 470.3,784.4 L546.8,784.4 C548.6,784.4 550.1,785.9 550.1,787.7 C550.1,789.6 548.7,791 546.8,791 Z" id="Path" fill="#231F20"></path>
            <path d="M399.2,711.6 L291.3,711.6 C289.5,711.6 288,710.1 288,708.3 C288,706.5 289.5,705 291.3,705 L399.2,705 C401,705 402.5,706.5 402.5,708.3 C402.5,710.1 401,711.6 399.2,711.6 Z" id="Path" fill="#231F20"></path>
            <path d="M767.2,149.6 L659.3,149.6 C657.5,149.6 656,148.1 656,146.3 C656,144.5 657.5,143 659.3,143 L767.2,143 C769,143 770.5,144.5 770.5,146.3 C770.5,148.1 769,149.6 767.2,149.6 Z" id="Path" fill="#231F20"></path>
            <path d="M505.597079,7.4 L89.7029215,7.4 C84.9558734,7.4 81,5.9 81,4.1 C81,2.3 84.9558734,0.8 89.7029215,0.8 L505.597079,0.8 C510.344127,0.8 514.3,2.3 514.3,4.1 C514.3,5.9 510.344127,7.4 505.597079,7.4 Z" id="Path" fill="#231F20"></path>
            <path d="M174.7,210.6 L66.3,210.6 C64.5,210.6 63,209.1 63,207.3 C63,205.5 64.5,204 66.3,204 L174.7,204 C176.5,204 178,205.5 178,207.3 C178,209.1 176.5,210.6 174.7,210.6 Z" id="Path" fill="#231F20"></path>
            <path d="M767.7,656.6 L659.3,656.6 C657.5,656.6 656,655.1 656,653.3 C656,651.5 657.5,650 659.3,650 L767.7,650 C769.5,650 771,651.5 771,653.3 C771,655.1 769.5,656.6 767.7,656.6 Z" id="Path" fill="#231F20"></path>
            <path d="M205.5,516.119965 L151.3,516.119965 C149.5,516.119965 148,514.619965 148,512.819965 C148,511.019965 149.5,509.519965 151.3,509.519965 L205.5,509.519965 C207.3,509.519965 208.8,511.019965 208.8,512.819965 C208.8,514.619965 207.3,516.119965 205.5,516.119965 Z" id="Path" fill="#231F20"></path>
        </g>
    </g>
</svg>