<?xml version="1.0" encoding="UTF-8"?>
<svg width="439px" height="476px" viewBox="0 0 439 476" version="1.1" xmlns="http://www.w3.org/2000/svg" xmlns:xlink="http://www.w3.org/1999/xlink">
    <!-- Generator: Sketch 52.6 (67491) - http://www.bohemiancoding.com/sketch -->
    <title>thumb-down</title>
    <desc>Created with Sketch.</desc>
    <g id="Page-1" stroke="none" stroke-width="1" fill="none" fill-rule="evenodd">
        <g id="thumb-down" fill="#FFFFFF" fill-rule="nonzero">
            <path d="M424.822,209.562 C426.537,203.279 427.392,196.715 427.392,189.86 C427.392,175.205 423.771,161.499 416.54,148.748 C417.107,144.753 417.395,140.66 417.395,136.473 C417.395,117.25 411.679,100.311 400.263,85.654 L400.263,84.227 C400.454,58.152 392.317,37.595 375.849,22.558 C359.387,7.521 337.831,0 311.186,0 L279.209,0 C259.224,0 240.189,2.093 222.107,6.28 C204.021,10.469 182.803,16.748 158.441,25.122 C136.361,32.738 123.23,36.544 119.042,36.544 L36.821,36.544 C26.733,36.544 18.119,40.111 10.981,47.248 C3.845,54.387 0.276,63 0.276,73.085 L0.276,255.813 C0.276,265.902 3.842,274.511 10.981,281.65 C18.123,288.789 26.733,292.355 36.821,292.355 L115.049,292.355 C121.898,296.927 134.938,311.679 154.162,336.61 C165.393,351.271 175.578,363.351 184.713,372.875 C188.325,376.872 191.277,382.964 193.561,391.146 C195.845,399.332 197.51,407.374 198.559,415.272 C199.606,423.17 202.034,431.788 205.84,441.109 C209.646,450.438 214.784,458.248 221.255,464.531 C228.678,471.574 237.24,475.092 246.952,475.092 C262.94,475.092 277.313,472.005 290.064,465.818 C302.818,459.634 312.527,449.973 319.19,436.837 C325.853,423.894 329.186,406.191 329.186,383.734 C329.186,366.032 324.618,347.76 315.484,328.915 L365.728,328.915 C385.529,328.915 402.653,321.685 417.122,307.215 C431.591,292.753 438.815,275.718 438.815,256.112 C438.809,239.165 434.15,223.652 424.822,209.562 Z M67.942,104.219 C64.326,107.834 60.044,109.643 55.095,109.643 C50.145,109.643 45.862,107.838 42.245,104.219 C38.63,100.598 36.821,96.321 36.821,91.368 C36.821,86.42 38.63,82.137 42.245,78.521 C45.866,74.904 50.145,73.097 55.095,73.097 C60.044,73.097 64.326,74.904 67.942,78.521 C71.559,82.137 73.368,86.419 73.368,91.368 C73.368,96.317 71.56,100.598 67.942,104.219 Z M391.135,281.377 C383.715,288.707 375.249,292.369 365.722,292.369 L265.227,292.369 C265.227,303.409 269.791,318.586 278.925,337.904 C288.063,357.225 292.635,372.502 292.635,383.733 C292.635,402.38 289.589,416.182 283.501,425.128 C277.409,434.077 265.227,438.55 246.955,438.55 C242.004,433.602 238.383,425.505 236.101,414.274 C233.825,403.049 230.916,391.106 227.395,378.444 C223.876,365.789 218.215,355.365 210.411,347.178 C206.227,342.805 198.895,334.14 188.429,321.198 C187.668,320.247 185.477,317.392 181.862,312.636 C178.248,307.879 175.249,303.978 172.87,300.933 C170.49,297.887 167.206,293.842 163.019,288.797 C158.83,283.753 155.024,279.565 151.597,276.232 C148.17,272.905 144.508,269.524 140.605,266.095 C136.704,262.669 132.895,260.099 129.184,258.388 C125.473,256.677 122.095,255.822 119.049,255.822 L109.913,255.822 L109.913,73.092 L119.049,73.092 C121.523,73.092 124.519,72.81 128.042,72.238 C131.56,71.667 134.7,71.046 137.461,70.38 C140.221,69.714 143.838,68.667 148.31,67.24 C152.786,65.815 156.114,64.718 158.304,63.957 C160.494,63.194 163.872,62.006 168.442,60.386 C173.012,58.771 175.772,57.773 176.722,57.39 C216.881,43.496 249.43,36.551 274.37,36.551 L310.912,36.551 C327.475,36.551 340.418,40.45 349.74,48.255 C359.068,56.059 363.729,68.05 363.729,84.23 C363.729,89.179 363.25,94.509 362.306,100.217 C368.014,103.263 372.537,108.259 375.865,115.204 C379.198,122.149 380.861,129.148 380.861,136.189 C380.861,143.228 379.15,149.799 375.72,155.89 C385.809,165.407 390.846,176.729 390.846,189.864 C390.846,194.623 389.898,199.903 387.999,205.71 C386.1,211.518 383.714,216.037 380.86,219.272 C386.951,219.464 392.044,223.937 396.136,232.694 C400.229,241.448 402.276,249.162 402.276,255.821 C402.277,265.525 398.561,274.043 391.135,281.377 Z" id="Shape"></path>
        </g>
    </g>
</svg>