<svg width="48" height="48" viewBox="0 0 48 48"><g fill="#FFF" fill-rule="evenodd" stroke="#1e1e1e"><circle cx="24" cy="24" r="23.5"></circle><g stroke-width="1.5"><path d="M32.68 28.793v5.113a1.37 1.37 0 0 1-1.376 1.358h-2.352a1.372 1.372 0 0 1-1.377-1.358v-5.113c-1.433-.167-2.554-1.377-2.554-2.832l2.218-3.15c.336-1.8-.35-3.23 1.259-3.605l3.61.013c1.635.358.959 2.24 1.232 3.592l1.894 3.15c0 1.455-1.12 2.665-2.553 2.832zm-2.487-16.538c-1.669 0-3.022 1.335-3.022 2.981s1.353 2.98 3.022 2.98c1.669 0 3.022-1.334 3.022-2.98s-1.353-2.98-3.022-2.98zM20.936 28.793v5.113c0 .747-.62 1.358-1.377 1.358h-2.352a1.372 1.372 0 0 1-1.377-1.358v-5.113c-1.433-.167-2.553-1.377-2.553-2.832v-3.919c0-1.568 1.3-2.851 2.89-2.851l4.432-.012c1.59 0 2.89 1.283 2.89 2.851v3.93c0 1.456-1.12 2.666-2.553 2.833zm.534-13.557c0-1.646-1.353-2.98-3.022-2.98-1.668 0-3.021 1.334-3.021 2.98s1.353 2.98 3.021 2.98c1.67 0 3.022-1.334 3.022-2.98"></path></g></g></svg>