<?xml version="1.0" encoding="UTF-8"?>
<svg width="507px" height="470px" viewBox="0 0 507 470" version="1.1" xmlns="http://www.w3.org/2000/svg" xmlns:xlink="http://www.w3.org/1999/xlink">
    <!-- Generator: Sketch 52.6 (67491) - http://www.bohemiancoding.com/sketch -->
    <title>elearning</title>
    <desc>Created with Sketch.</desc>
    <g id="Page-1" stroke="none" stroke-width="1" fill="none" fill-rule="evenodd">
        <g id="elearning">
            <path d="M497.847224,429.47118 C497.847224,449.568009 481.56294,465.871804 461.466112,465.871804 L40.33414,465.871804 C20.2334088,465.871804 3.94912439,449.568009 3.94912439,429.47118 L3.94912439,420.140788 C3.94912439,413.448349 9.38502362,408.012449 16.0774629,408.012449 L485.722789,408.012449 C492.415227,408.012449 497.847224,413.448349 497.847224,420.140788 L497.847224,429.47118 Z" id="Path" fill="#FFFFFF"></path>
            <path d="M497.847224,429.47118 C497.847224,449.568009 481.56294,465.871804 461.466112,465.871804 L70.7642512,465.871804 C50.66352,465.871804 34.3792345,449.568009 34.3792345,429.47118 L34.3792345,420.140788 C34.3792345,413.448349 39.8151348,408.012449 46.5075741,408.012449 L485.722789,408.012449 C492.415227,408.012449 497.847224,413.448349 497.847224,420.140788 L497.847224,429.47118 Z" id="Path" fill="#FFFFFF"></path>
            <path d="M307.099053,408.012449 L307.099053,418.224761 C307.099053,428.558043 298.709115,436.951882 288.37193,436.951882 L213.420516,436.951882 C203.087234,436.951882 194.693393,428.558043 194.693393,418.224761 L194.693393,408.012449 L307.099053,408.012449 Z" id="Path" fill="#FFFFFF"></path>
            <path d="M468.287326,76.5162362 L468.287326,155.91627 C468.287326,173.85903 414.962439,188.398989 349.185324,188.398989 C283.408209,188.398989 230.083323,173.85903 230.083323,155.91627 L230.083323,73.8119447 L468.287326,76.5162362 Z" id="Path" fill="#FFFFFF"></path>
            <path d="M268.602895,266.320052 L267.935602,266.320052 C262.421657,266.320052 257.945722,261.848019 257.945722,256.330172 L257.945722,231.023776 C257.945722,225.505929 262.421657,221.033896 267.935602,221.033896 L268.602895,221.033896 C274.11684,221.033896 278.592775,225.505929 278.592775,231.023776 L278.592775,256.330172 C278.592775,261.848019 274.11684,266.320052 268.602895,266.320052 Z" id="Path" fill="#FFFFFF"></path>
            <polygon id="Path" fill="#FFFFFF" points="503.009963 62.2748773 350.999893 123.158512 195.364588 62.2748773 350.999893 6.25350304"></polygon>
            <path d="M504.391377,56.5247693 L352.381306,0.503396041 C351.499387,0.175603107 350.531617,0.175603107 349.645796,0.4916899 L194.010491,56.5169652 C190.549155,57.7617971 190.478913,62.6552779 193.909032,63.997668 L226.091273,76.586477 L226.091273,120.717553 L82.837957,120.717553 C61.4650776,120.717553 44.0764429,138.106187 44.0764429,159.479067 L44.0764429,404.0204 L16.1242905,404.0204 C7.23095577,404.0204 5.68434189e-14,411.255258 5.68434189e-14,420.14469 L5.68434189e-14,429.486789 C5.68434189e-14,451.753295 18.1144614,469.867756 40.3809676,469.867756 L461.528548,469.867756 C483.795053,469.867756 501.909516,451.753295 501.909516,429.486789 L501.909516,420.14469 C501.909516,411.255258 494.67856,404.0204 485.785225,404.0204 L457.836975,404.0204 L457.836975,173.757571 C466.905913,168.762631 472.28718,162.803824 472.28718,155.91627 L472.28718,76.8869546 L504.496738,63.9859608 C507.880029,62.6279615 507.825398,57.7891135 504.391377,56.5247693 Z M263.93965,182.674319 L263.93965,217.623289 C258.172056,219.348104 253.94977,224.698153 253.94977,231.019874 L253.94977,256.330172 C253.94977,264.04111 260.224664,270.316004 267.935602,270.316004 L268.602895,270.316004 C276.313834,270.316004 282.588727,264.04111 282.588727,256.330172 L282.588727,231.019874 C282.588727,224.460113 278.034746,218.95007 271.931554,217.451588 L271.931554,184.66449 C318.314255,195.228008 383.736261,194.798756 428.26537,184.246945 L428.26537,404.008693 L73.6246345,404.008693 L73.6246345,156.259672 C73.6246345,152.954426 76.3133168,150.265744 79.6185624,150.265744 L226.087371,150.265744 L226.087371,155.91627 C226.091273,167.537309 241.360961,176.524299 263.93965,182.674319 Z M263.93965,174.339013 C244.693522,168.750924 234.079275,161.765813 234.079275,155.91627 L234.079275,79.7122175 L263.93965,91.3917917 L263.93965,174.339013 Z M267.935602,225.029848 L268.602895,225.029848 C271.908141,225.029848 274.596823,227.718532 274.596823,231.023776 L274.596823,256.330172 C274.596823,259.635418 271.908141,262.3241 268.602895,262.3241 L267.935602,262.3241 C264.630358,262.3241 261.941674,259.635418 261.941674,256.330172 L261.941674,231.023776 C261.941674,227.718532 264.630358,225.029848 267.935602,225.029848 Z M303.157734,412.020108 L303.157734,418.228663 C303.157734,426.349342 296.551145,432.959833 288.430465,432.959833 L213.475148,432.959833 C205.354468,432.959833 198.743977,426.349342 198.743977,418.228663 L198.743977,412.020108 L303.157734,412.020108 Z M52.0683468,159.479067 C52.0683468,142.51188 65.8707704,128.709456 82.837957,128.709456 L226.091273,128.709456 L226.091273,142.27384 L79.6185624,142.27384 C71.9076239,142.27384 65.6327306,148.552636 65.6327306,156.259672 L65.6327306,404.0204 L52.0683468,404.0204 L52.0683468,159.479067 Z M485.785225,412.012304 C490.268964,412.012304 493.913709,415.660951 493.913709,420.14469 L493.913709,429.486789 C493.913709,447.343699 479.385459,461.875852 461.524646,461.875852 L40.3809676,461.875852 C22.5201552,461.875852 7.98800185,447.347601 7.98800185,429.486789 L7.98800185,420.14469 C7.98800185,415.660951 11.6366496,412.012304 16.1203884,412.012304 C16.4559855,412.012304 44.4003328,412.02401 190.752073,412.02401 L190.752073,418.228663 C190.752073,430.758937 200.944873,440.951737 213.475148,440.951737 L288.430465,440.951737 C300.96074,440.951737 311.149638,430.758937 311.149638,418.228663 L311.149638,412.02401 C321.931683,412.020108 478.659631,412.012304 485.785225,412.012304 Z M436.257274,404.0204 L436.257274,182.16702 C441.189777,180.766096 445.74766,179.224689 449.845071,177.546701 L449.845071,404.0204 L436.257274,404.0204 Z M464.295276,155.91627 C464.295276,177.882299 349.438974,195.153864 271.931554,176.454057 L271.931554,94.5175312 L349.544336,124.877401 C350.492594,125.252021 351.542312,125.248119 352.486668,124.865694 L464.295276,80.082935 L464.295276,155.91627 Z M350.984284,116.862083 L278.854229,88.6445747 L351.265249,61.2699622 C356.209458,59.4007628 353.376391,51.9278641 348.439986,53.7931615 L267.748292,84.3013186 L231.956425,70.3037796 C231.671558,70.1476878 231.371081,70.0267163 231.047191,69.9447683 L206.728077,60.4348712 L350.984284,8.50700708 L491.872808,60.4309692 L350.984284,116.862083 Z" id="Shape" fill="#000000" fill-rule="nonzero"></path>
        </g>
    </g>
</svg>