<?xml version="1.0" encoding="UTF-8"?>
<svg width="373px" height="301px" viewBox="0 0 373 301" version="1.1" xmlns="http://www.w3.org/2000/svg" xmlns:xlink="http://www.w3.org/1999/xlink">
    <!-- Generator: Sketch 52.6 (67491) - http://www.bohemiancoding.com/sketch -->
    <title>Group</title>
    <desc>Created with Sketch.</desc>
    <g id="Page-1" stroke="none" stroke-width="1" fill="none" fill-rule="evenodd">
        <g id="Group">
            <g id="card" transform="translate(0.000000, 80.000000)">
                <path d="M260.318482,0 L33.6815185,0 C15.1046451,0 0,15.138896 0,33.7578939 L0,187.224121 C0,205.861104 15.1046451,221 33.6815185,221 L260.300537,221 C278.895355,221 294,205.861104 294,187.242106 L294,33.7758789 C294,15.138896 278.895355,0 260.318482,0 Z" id="Path" fill="#114B5C"></path>
                <path d="M247.893492,172 L181.106508,172 C176.077474,172 172,167.7417 172,162.5 C172,157.253662 176.077474,153 181.106508,153 L247.893492,153 C252.918079,153 257,157.253662 257,162.5 C257,167.7417 252.918079,172 247.893492,172 Z" id="Path" fill="#FFFFFF"></path>
                <path d="M247.893492,123 L181.106508,123 C176.077474,123 172,118.746338 172,113.5 C172,108.2583 176.077474,104 181.106508,104 L247.893492,104 C252.918079,104 257,108.2583 257,113.5 C257,118.746338 252.918079,123 247.893492,123 Z" id="Path" fill="#FDFDFD"></path>
                <path d="M247.893492,73 L181.106508,73 C176.077474,73 172,68.7416987 172,63.5000003 C172,58.2583013 176.077474,54 181.106508,54 L247.893492,54 C252.918079,54 257,58.2583013 257,63.5000003 C257,68.7416987 252.918079,73 247.893492,73 Z" id="Path" fill="#FFFFFF"></path>
                <path d="M122,79.5000002 C122,96.3446841 108.344684,110 91.5,110 C74.6553163,110 61,96.3446841 61,79.5000002 C61,62.6553163 74.6553163,49 91.5,49 C108.344684,49 122,62.6553163 122,79.5000002 Z" id="Path" fill="#FF595C"></path>
                <path d="M148,162.810257 C148,167.88077 143.891113,172 138.833333,172 L47.1666667,172 C42.1088873,172 38,167.88077 38,162.810257 L38,156.689744 C38,138.108333 53.0703942,123 71.6051431,123 L114.376953,123 C132.911702,123 147.982096,138.108333 147.982096,156.689744 L147.982096,162.810257 L148,162.810257 Z" id="Path" fill="#FF595C"></path>
            </g>
            <g id="checked" transform="translate(264.000000, 0.000000)">
                <path d="M45.1716623,80 C41.2670735,80 37.5958502,78.44931 34.8348161,75.6338162 C33.721728,74.498686 33.721728,72.6582261 34.8348161,71.5228802 C35.9479043,70.3881816 37.7526262,70.3881816 38.8659259,71.5228802 C40.5502625,73.2407867 42.7899795,74.1866925 45.1718738,74.1866925 C47.5537682,74.1866925 49.7932737,73.2407867 51.4778218,71.5228802 L100.694048,21.3322635 C102.378596,19.6145728 103.306134,17.3305037 103.306134,14.9014417 C103.306134,12.4723798 102.378596,10.1885265 100.694048,8.47083573 C97.2166259,4.92433624 91.5591507,4.924552 88.0823634,8.47061997 L60.6622271,36.4337447 C59.5489274,37.5684433 57.7446287,37.5684433 56.6311174,36.4337447 C55.5180292,35.2986146 55.5180292,33.4581546 56.6311174,32.3228087 L84.0512537,4.35925245 C89.7510436,-1.4527605 99.0247329,-1.45340779 104.725158,4.35925245 C110.424947,10.1721285 110.424947,19.6301077 104.725158,25.442768 L55.5089316,75.6338162 C52.7478975,78.4495257 49.0766742,80 45.1716623,80 Z" id="Path" fill="#507C5C"></path>
                <path d="M62,65.0570544 L53.5475279,73.5019821 C48.8793375,78.166006 41.3107743,78.166006 36.6425838,73.5019821 L6.50114283,43.3878734 C1.83295239,38.7238496 1.83295239,31.1620417 6.50114283,26.4980179 C11.1693333,21.833994 18.7378965,21.833994 23.4060869,26.4980179 L62,65.0570544 Z" id="Path" fill="#CFF09E"></path>
                <path d="M44.4391146,80 C40.5205577,80 36.8370251,78.4513112 34.0664141,75.6394509 L4.28967017,45.4168552 C-1.42989006,39.611481 -1.42989006,30.1659232 4.28967017,24.3605491 C7.06070581,21.5484733 10.7442385,20 14.6623708,20 C18.5809277,20 22.2644603,21.5486888 25.0350714,24.3605491 L63.1622882,63.0583748 C64.2792373,64.19204 64.2792373,66.0301248 63.1622882,67.1640054 L54.8120275,75.6392355 C52.0409919,78.4510957 48.3574592,80 44.4391146,80 Z M14.6623708,25.8060206 C12.2722145,25.8060206 10.0249411,26.7507057 8.33454995,28.4663952 C4.84549083,32.0076713 4.84549083,37.770164 8.33454995,41.3116556 L38.1112938,71.5336048 C39.8014727,73.2492943 42.0485338,74.1939794 44.4391146,74.1939794 C46.8292709,74.1939794 49.0765443,73.2492943 50.7669355,71.5336048 L57.0947563,65.1110824 L20.9899793,28.4663952 C19.2998004,26.7507057 17.0527393,25.8060206 14.6623708,25.8060206 Z" id="Shape" fill="#507C5C" fill-rule="nonzero"></path>
            </g>
        </g>
    </g>
</svg>