<svg xmlns="http://www.w3.org/2000/svg" width="90" height="105" viewBox="0 0 90 105">
    <g fill="none" fill-rule="evenodd">
        <ellipse cx="45" cy="98.38" fill="#F0F0F0" rx="31.349" ry="6.62"/>
        <path fill="#00BFB3" d="M39.258 56.26H11.683a10.864 10.864 0 0 0-7.68 3.173 10.834 10.834 0 0 0-3.18 7.668c0 5.99 4.862 10.845 10.86 10.845h.891l.087 6.663 10.938-6.663h15.66c2.88 0 5.641-1.143 7.677-3.177a10.834 10.834 0 0 0 3.178-7.668c0-5.988-4.86-10.842-10.856-10.842z"/>
        <path fill="#00BFB3" d="M39.258 56.64h.234c.702.047 1.4.13 2.094.25.292.046.581.11.865.19.277.104.546.216.827.35.476.272 1.047.484 1.527.813.251.147.472.302.684.432.194.104.405.173.623.203.114.274.27.53.463.756.154.217.35.4.575.54.346.172.596.489.684.864.084.234.203.452.355.648.093.115.193.225.298.329.113.116.221.242.351.371a2.77 2.77 0 0 0 .195 1.037c.056.165.117.333.177.502.06.168.087.345.13.514.043.168.09.341.134.51.043.168.07.332.104.505a5.42 5.42 0 0 1 .143 1.69c-.048.346-.074.713-.1 1.076-.026.363-.086.721-.13 1.067-.043.346-.103.557-.173.821-.08.269-.186.529-.316.778-.108.25-.242.505-.367.769l-.182.402c-.074.125-.152.25-.23.371a3.666 3.666 0 0 0-.631 1.362c-.349.16-.664.384-.93.66a2.679 2.679 0 0 0-.632.912 2.875 2.875 0 0 0-1.09.484 2.78 2.78 0 0 0-.775.744c-.26-.03-.525.008-.766.112-.982.406-2.038.562-3.029.864a.555.555 0 0 1-.29 0 3.973 3.973 0 0 0-.921-.047 3.219 3.219 0 0 0-.866.198 2.6 2.6 0 0 0-1-.198h-2.245a2.166 2.166 0 0 0-.714.108.594.594 0 0 1-.433 0 2.6 2.6 0 0 0-1.73.047.403.403 0 0 1-.403 0 2.313 2.313 0 0 0-.93-.164c-.528 0-.978.246-1.147.203a4.332 4.332 0 0 0-1.298-.203c-.657 0-1.354-.043-1.968 0a9.15 9.15 0 0 1-1.822 0c-.433-.043-.723.173-1.004.164h-.056l-.06.035-.074.03c-.377.118-.74.275-1.082.47l-1.683 1.03a2.133 2.133 0 0 0-.506.388c-.134.141-.3.247-.485.307a16.412 16.412 0 0 0-2.89 1.728.934.934 0 0 0-.234.264.368.368 0 0 1-.312.194 2.623 2.623 0 0 0-1.536.9.515.515 0 0 1-.303.194 2.765 2.765 0 0 0-1.622 1.05c-.082.013-.163.03-.243.051l.433.242a2.59 2.59 0 0 0 .104-.773 8.55 8.55 0 0 0-.177-1.033c0-.31.147-.618.151-1.08.004-.462-.23-.795-.16-1.132.091-.41.133-.83.125-1.249V77.506h-.484a5.2 5.2 0 0 0-.866.043 1.39 1.39 0 0 0-.61.186 4.058 4.058 0 0 0-1.051-.385 4.632 4.632 0 0 0-1.147 0 3.752 3.752 0 0 0-.934-.562 5.138 5.138 0 0 0-1.164-.25 1.703 1.703 0 0 0-.537-.566 24.68 24.68 0 0 1-2.423-1.928.536.536 0 0 1-.173-.181 3.518 3.518 0 0 0-1.134-1.422 2.797 2.797 0 0 0-.082-.432 2.111 2.111 0 0 0-.173-.492 6.938 6.938 0 0 1-.402-1.02c-.134-.337-.208-.691-.325-1.016-.1-.279-.169-.569-.203-.864 0-.142-.035-.29-.056-.432-.022-.142 0-.298 0-.454 0-.332 0-.678.021-1.024.022-.345 0-.695.043-1.024.016-.303.055-.605.117-.903.076-.293.169-.581.277-.864.143-.298.268-.622.398-.942.13-.32.281-.635.411-.938a9 9 0 0 1 .433-.812c.182-.242.372-.47.58-.713.208-.242.471-.467.696-.721.225-.255.49-.463.706-.7.228-.222.472-.425.731-.61.27-.175.555-.325.852-.45.577-.299 1.17-.564 1.779-.794.31-.094.603-.24.865-.432a.377.377 0 0 1 .38-.1c.3.068.61.08.914.035.298-.038.59-.118.865-.238a.377.377 0 0 1 .398 0c.296.117.613.171.93.16.529 0 .935-.242 1.152-.199.397.12.809.187 1.224.2.658 0 1.341.038 1.973 0a9.004 9.004 0 0 1 1.87 0h.056c.432 0 .679-.178.96-.17.281.01.567.173 1.013.17.753 0 1.527.042 2.25 0a10.68 10.68 0 0 1 1.73 0c.746.057 1.496.057 2.242 0 .597-.05 1.198-.05 1.796 0 .72.054 1.443.054 2.163 0a11.725 11.725 0 0 1 1.908 0c.673.051 1.348.051 2.02 0 .69-.057 1.384-.057 2.073 0 .636.042 1.299 0 1.97 0h.18v-.792h-.103c-.731 0-1.493-.047-2.194 0-.616.057-1.236.057-1.852 0-.566-.051-1.198 0-1.8 0-.5-.05-1.004.039-1.458.255a2.547 2.547 0 0 0-1.692-.194 1.568 1.568 0 0 1-1.138 0 2.83 2.83 0 0 0-1.73.177 2.166 2.166 0 0 0-1.06-.238c-.736 0-1.489-.039-2.194 0-.586.046-1.175.046-1.761 0a15.598 15.598 0 0 0-2.246 0 9.311 9.311 0 0 1-1.73 0c-.563-.056-1.2 0-1.796 0a2.92 2.92 0 0 0-1.523.251 2.6 2.6 0 0 0-2.25 0 2.49 2.49 0 0 0-1.203-.238c-.381.009-.753.118-1.078.316a1.516 1.516 0 0 0-.809-.108c-1.095.207-2.271.466-3.137 1.158a1.104 1.104 0 0 1-.277.138 3.849 3.849 0 0 0-.865.432c-.211.196-.395.42-.545.666-.325.108-.62.288-.866.527-.29.263-.532.57-.8.864-.269.294-.498.618-.732.916a2.258 2.258 0 0 0-.294.687.695.695 0 0 1-.22.406 3.024 3.024 0 0 0-.52.787c-.102.276-.149.57-.138.864a.432.432 0 0 1-.139.389c-.189.267-.323.57-.393.89-.1.54.086 1.028 0 1.188-.16.414-.244.853-.247 1.296 0 .337 0 .687.048 1.033.04.332.101.66.181.985.104.316.2.614.273.916.074.303.177.58.25.89.118.489.529.644.598.955.086.397.24.775.454 1.12.376.568.8 1.103 1.268 1.598.136.18.31.328.51.432.175.094.324.229.433.394a7.145 7.145 0 0 0 2.938 1.819.97.97 0 0 0 .364 0 .39.39 0 0 1 .355.125c.23.204.506.352.804.432.142.039.287.066.433.082.17.004.339-.005.506-.026a.542.542 0 0 1 .368.044c.308.145.642.223.982.229.17.004.34-.006.507-.03.174-.04.346-.09.515-.148.12.05.245.09.372.121l-.325-.32c-.049.209-.07.422-.065.636.038.347.096.692.173 1.033.026.31-.147.617-.151 1.075-.004.458.234.8.16 1.137a5.234 5.234 0 0 0-.125 1.244v2.239l.614-.363A2.513 2.513 0 0 0 13.907 84c.79-.073 1.505-.5 1.943-1.162a2.761 2.761 0 0 0 1.977-1.171c.272.004.54-.068.774-.208a18.41 18.41 0 0 0 2.696-1.728.545.545 0 0 1 .216-.138 2.847 2.847 0 0 0 1.537-1.063c.263-.026.518-.102.752-.225l-.203.056h.208c.748 0 1.531.048 2.245 0 .618-.05 1.239-.05 1.857 0 .708.054 1.42.054 2.129 0 .629-.054 1.261-.054 1.89 0 .709.058 1.42.058 2.13 0a11.265 11.265 0 0 1 1.907 0c.692.05 1.386.05 2.077 0 .684-.052 1.298-.039 1.99-.034a4.71 4.71 0 0 0 1.035-.1c.173-.03.35-.052.523-.095l.511-.134c.187-.043.37-.104.545-.181.138-.072.265-.164.377-.273a.39.39 0 0 1 .385-.142 2.195 2.195 0 0 0 1.679-.864.407.407 0 0 1 .359-.208c.314-.085.608-.232.865-.432.433-.341.554-.82.749-.929.37-.215.702-.488.986-.808.195-.276.433-.54.615-.825.183-.279.35-.567.502-.864.125-.316.246-.61.385-.9.138-.289.233-.587.385-.863v-.057c.142-.432 0-.725.095-.993.154-.317.271-.65.35-.994a8.367 8.367 0 0 0 .057-2.32c-.026-.316-.096-.597-.139-.865-.043-.268-.065-.579-.134-.89a5.18 5.18 0 0 0-.286-1.123 5.009 5.009 0 0 0-.48-1.059c-.307-.575-.61-1.041-.921-1.607a8.14 8.14 0 0 0-.663-.93 6.555 6.555 0 0 0-.804-.786l-1.536-1.244c-.277-.19-.576-.393-.866-.575-.29-.181-.644-.298-.956-.432-.312-.134-.692-.212-1.021-.333-.329-.12-.67-.194-1.021-.31a8.101 8.101 0 0 0-.995-.187c-.342-.056-.688-.034-1.03-.06h-.33l.005.696z"/>
        <path fill="#FFF" stroke="#FFF" stroke-linejoin="round" stroke-width=".614" d="M23.556 67.092a1.52 1.52 0 0 0 2.591 1.078 1.515 1.515 0 0 0-1.072-2.59c-.838 0-1.517.676-1.52 1.512zM12.838 67.092a1.52 1.52 0 0 0 2.591 1.078 1.515 1.515 0 0 0-1.072-2.59c-.837 0-1.517.676-1.519 1.512zM34.274 67.092a1.52 1.52 0 0 0 2.591 1.078 1.515 1.515 0 0 0-1.073-2.59c-.837 0-1.516.676-1.518 1.512z"/>
        <path fill="#F0F0F0" d="M24.188 31.271h49.76c8.407.002 15.223 6.809 15.226 15.206 0 8.398-6.817 15.207-15.227 15.21h-1.255l-.125 9.341-15.34-9.342h-33.04c-4.039 0-7.912-1.602-10.768-4.455a15.195 15.195 0 0 1 .002-21.506 15.237 15.237 0 0 1 10.767-4.454z"/>
        <path fill="#F0F0F0" d="M24.188 30.89h-.39c-.595.001-1.19.043-1.778.126l-.866.138c-.28.062-.558.139-.83.23l-.727.215-.688.26-.688.242c-.234.082-.459.194-.701.29a7.451 7.451 0 0 0-.64.284 6.61 6.61 0 0 0-.632.363c-.421.25-.828.52-1.22.813a4.838 4.838 0 0 0-1.615 1.702c-.41.243-.79.533-1.133.864a4.118 4.118 0 0 0-.757 1.068c-.17.328-.273.587-.433.82a5.022 5.022 0 0 1-.563.722 4.185 4.185 0 0 0-.575 1.072c-.043.108-.087.216-.126.332-.039.117-.051.238-.082.368a18.08 18.08 0 0 0-.134.8c-.065.086-.134.176-.199.28a3.688 3.688 0 0 0-.169.346 6.41 6.41 0 0 0-.311.937c-.121.58-.204 1.176-.294 1.763-.046.575-.06 1.152-.044 1.729.048.492.082.95.108 1.408.026.458.126.908.178 1.405.11.594.255 1.18.433 1.758l.324.865.169.432c.06.138.138.263.203.393l.338.626c.096.206.206.405.329.597.242.384.432.786.705 1.205.26.397.54.781.84 1.15l.999 1.08c.376.35.735.661 1.064.912.299.187.622.332.96.432.105.13.208.255.312.371.104.117.23.212.35.307.232.194.478.368.736.523.54.283 1.126.467 1.731.544.896.744 2.566 1.184 3.462.951.147.073.307.156.493.229.095.035.199.073.311.104.125.022.25.036.377.043l1.298.078h1.298c.847.013 1.694-.026 2.536-.117a1.69 1.69 0 0 1 .471 0c.938.16 1.9.121 2.821-.112a6.152 6.152 0 0 0 1.575.203h3.544a5.2 5.2 0 0 0 1.125-.104c.233-.06.477-.06.71 0 .9.187 1.832.17 2.726-.047a.936.936 0 0 1 .636 0c.478.116.97.17 1.462.16.827 0 1.536-.243 1.796-.204.667.134 1.345.202 2.025.203 1.03 0 2.125.048 3.085 0a21.747 21.747 0 0 1 2.86 0c.744.044 1.22-.22 1.705-.16.605.101 1.217.156 1.83.165h.762l-.208-.056 2 1.214c.28.182.576.337.886.462.283.109.545.265.775.462a41.336 41.336 0 0 0 4.504 2.77c.161.084.333.147.51.186a.865.865 0 0 1 .455.315c.67.664 1.48 1.17 2.371 1.483.183.056.35.154.489.285a6.696 6.696 0 0 0 2.618 1.534c.22.226.457.434.71.622l.484.363.074-.67c0-.194.034-.406.039-.652 0-.696-.126-1.12-.139-1.63-.013-.51.169-.963.186-1.685.017-.721-.203-1.261-.121-1.784.107-.647.163-1.302.169-1.958v-1.633l-.394.389h.666c.452.015.904-.01 1.35-.078a2.63 2.63 0 0 0 .97-.285 4.63 4.63 0 0 0 3.509-.782 6.3 6.3 0 0 0 .913-.147c.271-.085.536-.19.791-.315a5.59 5.59 0 0 0 1.54-1.158c.41-.095.793-.28 1.122-.54a11.992 11.992 0 0 0 3.413-3.825c.05-.126.12-.245.208-.35.18-.21.35-.429.506-.656.13-.224.245-.455.347-.692.095-.223.179-.45.25-.683a5.49 5.49 0 0 0 .104-.678c.325-.413.552-.892.667-1.404.073-.294.151-.592.23-.886.077-.294.099-.61.146-.907a8.941 8.941 0 0 0 .126-1.78v-.39l-.026-.375c0-.247-.03-.489-.044-.73 0-.485-.082-.96-.134-1.474a11.015 11.015 0 0 0-.921-3.293c-.212-.484-.468-.912-.675-1.36-.208-.45-.49-.865-.732-1.332-.242-.466-.636-.937-.977-1.413a15.259 15.259 0 0 0-1.199-1.218c-.433-.333-.783-.692-1.186-.99l-.597-.458a6.77 6.77 0 0 0-.618-.462l-.693-.432c-.12-.074-.238-.156-.363-.225L81 32.567a8.66 8.66 0 0 0-1.54-.635l-.766-.25c-.251-.078-.507-.126-.753-.195l-.749-.203c-.255-.065-.519-.1-.787-.16s-.52-.1-.783-.143c-.264-.043-.541-.034-.818-.047l-.814-.065h-.8a5.411 5.411 0 0 0-1.55.164.931.931 0 0 1-.63 0 6.222 6.222 0 0 0-2.904 0 .936.936 0 0 1-.636 0 5.606 5.606 0 0 0-1.467-.16c-.83 0-1.467.242-1.804.2-.636-.121-1.28-.19-1.926-.204-1.034 0-2.107-.034-3.094 0-.98.067-1.962.067-2.942 0h-.087c-.662 0-1.068.177-1.505.169-.502 0-.892-.178-1.593-.173-1.18 0-2.401-.04-3.535 0a25.1 25.1 0 0 1-2.734 0 36.828 36.828 0 0 0-3.522 0c-.94.047-1.882.047-2.822 0a33.666 33.666 0 0 0-3.43 0c-1 .054-2 .054-3 0a35.29 35.29 0 0 0-3.171 0c-1.084.056-2.17.056-3.254 0-1-.043-2.064 0-3.098 0h-.281v.769h.16c1.15 0 2.34.047 3.461 0 .97-.054 1.943-.054 2.912 0 .892.052 1.883 0 2.826 0a6.425 6.425 0 0 0 2.293-.26c.86.262 1.768.33 2.657.2a3.787 3.787 0 0 1 1.787 0c.9.12 1.815.06 2.691-.178.539.17 1.102.248 1.666.234 1.151 0 2.337.043 3.462 0 .965-.044 1.8-.044 2.765 0 1.133.051 2.388.051 3.522 0 .91-.052 1.82-.052 2.73 0 .865.056 1.878 0 2.821 0a6.932 6.932 0 0 0 2.393-.251 6.23 6.23 0 0 0 3.535 0 6.417 6.417 0 0 0 3.561 0 3.4 3.4 0 0 0 1.199.229c1.709.022 3.461.07 5.08.03.147.006.292.032.432.078.303.082.554.147.783.199.23.052.433.125.623.168.394.091.792.091 1.299.177.186.121.372.242.588.363.216.121.463.251.762.398l.778.376c.251.138.494.294.74.432.494.298.968.627 1.42.985l.25.182.225.177c.14.1.284.19.433.272.214.105.395.266.524.467.242.397.523.769.84 1.11.262.342.566.651.903.92a.773.773 0 0 1 .33.528c.056.205.131.405.224.596.113.212.221.458.338.726.165.325.355.637.567.933.127.188.233.39.315.6.143.627.148 1.163.364 1.954.112.488.156 1.007.234 1.508.077.501.056 1.003.116 1.473.03.471.03.943 0 1.413a3.996 3.996 0 0 1-.112.722c-.048.22-.09.432-.139.674a7.824 7.824 0 0 0-.112.925c.002.25-.036.497-.113.734-.1.277-.26.51-.38.77-.121.259-.238.535-.381.864-.225.432-.433.916-.666 1.352l-.394.644c-.13.22-.274.43-.433.63a4.93 4.93 0 0 0-.528.818 2.08 2.08 0 0 1-.575.67 24.339 24.339 0 0 1-4.068 3.154 1.96 1.96 0 0 0-.432.315.866.866 0 0 1-.51.255c-.9.154-1.775.433-2.597.83a.992.992 0 0 1-.545.13 9.688 9.688 0 0 0-1.493.064c-.497.045-.99.135-1.471.268a5.992 5.992 0 0 0-1.147-.177l-.355-.022-.03.398v.432c0 .696.126 1.119.139 1.629.013.51-.17.963-.19 1.685-.022.722.203 1.262.125 1.789a12.514 12.514 0 0 0-.173 1.953c0 .618 0 1.236-.022 1.85l.606-.333-.381-.238a6.174 6.174 0 0 0-2.107-.977 6.306 6.306 0 0 0-3.029-1.866 6.682 6.682 0 0 0-3.072-1.871 3.304 3.304 0 0 0-.913-.817 44.581 44.581 0 0 0-4.349-2.554 1.372 1.372 0 0 1-.342-.203 7.555 7.555 0 0 0-1.146-.82l-.104-.061h-.104a6.499 6.499 0 0 0-1.523.212 5.065 5.065 0 0 0-1.514-.208c-1.186 0-2.41-.047-3.535 0-.97.05-1.942.05-2.912 0a37.54 37.54 0 0 0-3.345 0c-.99.054-1.983.054-2.973 0a31.903 31.903 0 0 0-3.34 0c-.999.052-2 .052-2.999 0a34.231 34.231 0 0 0-3.262 0 29.39 29.39 0 0 1-3.085 0c-1.021-.052-2.12 0-3.18 0a5.793 5.793 0 0 0-1.55.151.866.866 0 0 1-.618-.03 5.31 5.31 0 0 0-.688-.164 7.949 7.949 0 0 0-.71-.147 6.62 6.62 0 0 0-.718-.065c-.238 0-.472-.043-.71-.039a.897.897 0 0 1-.601-.16 8.252 8.252 0 0 0-1.298-.622c-.195-.065-.373-.134-.537-.194-.164-.06-.329-.1-.476-.138a2.434 2.434 0 0 1-.675-.234l-.684-.57a5.937 5.937 0 0 0-.372-.281c-.138-.095-.264-.22-.432-.337-.416-.29-.81-.61-1.177-.96l-.558-.505c-.182-.173-.342-.358-.515-.527l-.52-.519a9.78 9.78 0 0 1-.432-.561c-.134-.186-.282-.38-.433-.575-.151-.194-.225-.432-.333-.626l-.043-.074c-.31-.389-.6-.794-.866-1.214a3.548 3.548 0 0 1-.22-.679 4.51 4.51 0 0 0-.217-.825 12.897 12.897 0 0 1-.476-1.668 8.221 8.221 0 0 1-.156-.864c-.047-.28-.095-.557-.151-.83a21.292 21.292 0 0 1-.108-1.326c-.006-.446.02-.893.078-1.335l.043-.432.074-.433c.046-.288.093-.576.142-.864.104-.566.26-1.127.368-1.672.143-.458.286-.864.433-1.296.147-.432.398-.804.623-1.227.294-.432.597-.934.913-1.405.169-.224.337-.432.497-.682l.238-.337.256-.312c.296-.393.63-.758.995-1.088.35-.335.728-.64 1.13-.912.432-.277.834-.596 1.297-.864l.662-.432.662-.273c.243-.134.48-.268.719-.376l.74-.276a8.572 8.572 0 0 1 1.523-.432c.471-.121.973-.164 1.47-.25.5-.081 1.005-.128 1.51-.14.174 0 .334-.025.49-.038l-.005-.743z"/>
        <path fill="#F4CC21" stroke="#F4CC21" stroke-linejoin="round" stroke-width=".5" d="M51.356 46.688a2.365 2.365 0 0 1-2.37 2.36 2.365 2.365 0 0 1-2.363-2.365 2.365 2.365 0 0 1 4.042-1.669c.444.444.692 1.047.691 1.674zM67.695 46.688a2.365 2.365 0 0 1-2.37 2.36 2.365 2.365 0 0 1-2.364-2.365 2.365 2.365 0 0 1 4.042-1.669c.444.444.693 1.047.692 1.674zM35.48 46.688a2.365 2.365 0 0 1-2.369 2.36 2.365 2.365 0 0 1-2.364-2.365 2.365 2.365 0 0 1 4.042-1.669c.444.444.693 1.047.692 1.674z"/>
        <path fill="#333" d="M37.038 31.703h.312c.948 0 1.925.052 2.834 0a15.252 15.252 0 0 1 2.393 0c.731.06 1.549 0 2.323 0 .644.06 1.291-.04 1.887-.29.69.294 1.45.372 2.185.225a2.257 2.257 0 0 1 1.471 0 4.18 4.18 0 0 0 2.216-.203c.43.19.897.282 1.367.268.948 0 1.925.043 2.834 0a16.608 16.608 0 0 1 2.272 0 22.38 22.38 0 0 0 2.899 0c.746-.06 1.495-.06 2.241 0 .727.06 1.55 0 2.324.022a4.215 4.215 0 0 0 1.964-.29c.932.39 1.98.39 2.912 0 .94.364 1.981.364 2.92 0 .288.177.613.282.948.307.342.03.68.108 1.017.164l.51.09c.17.035.33.092.498.13.33.091.662.17.996.234.32.1.647.18.977.242a.918.918 0 0 1 .35.142c.619.47 1.332.797 2.09.96.122.151.252.295.39.432.167.169.344.326.532.47l.567.433c.19.138.355.311.533.467l.523.475c.173.155.32.346.485.514.202.226.433.424.688.588.163.1.287.253.354.432a4.584 4.584 0 0 0 1.251 1.81.536.536 0 0 1 .22.458c.05.395.16.78.325 1.141.204.622.701 1.059.692 1.296-.008.238 0 .515.03.774.031.26.074.527.118.864.06.406.13.825.164 1.24.011.403.043.806.095 1.206a6.96 6.96 0 0 1 0 1.162c0 .186-.021.372-.047.557-.026.186-.078.363-.122.554-.138.574.104 1.01-.077 1.374-.221.432-.373.82-.585 1.356-.151.385-.26.787-.432 1.154-.173.367-.355.743-.541 1.11a3.023 3.023 0 0 0-.346.722c-.07.235-.2.447-.381.614-.926 1.054-1.865 2.095-2.89 3.085-.109.1-.2.22-.269.35a.523.523 0 0 1-.372.285c-.35.114-.688.259-1.012.432a7.744 7.744 0 0 0-.926.705.77.77 0 0 1-.411.207c-.247.048-.455.108-.65.16a2.92 2.92 0 0 0-.54.16c-.373.172-.733.37-1.078.592a4.367 4.367 0 0 0-1.298.09c-.429.102-.852.228-1.268.376-.393.048-.791-.134-1.367-.116-.575.017-1.008.237-1.423.181l-.225-.034-.061.315a.22.22 0 0 1 0 .039 7.832 7.832 0 0 0-.182 1.603c0 .63 0 1.266-.026 1.893-.073.646.02 1.3.269 1.9a3.815 3.815 0 0 0-.061 2.922 4.498 4.498 0 0 0-.264.98l.658-.362A4.434 4.434 0 0 0 71 69.862a2.05 2.05 0 0 0-.713-.735C69.1 68.41 67.954 67.56 66.7 67.05a.74.74 0 0 1-.282-.164 4.207 4.207 0 0 0-2.12-1.15 3.179 3.179 0 0 0-.943-.864c-.831-.506-1.666-1.08-2.488-1.5a17.061 17.061 0 0 1-2.042-1.248c-.433-.29-.866-.58-1.299-.864l-.12-.074h-.13c-.403 0-.801 0-1.182.043-.813.063-1.63.063-2.444 0a19.437 19.437 0 0 0-2.748 0c-.821.059-1.645.059-2.466 0a20.585 20.585 0 0 0-2.683 0c-.844.059-1.692.059-2.536 0-.84-.056-1.73 0-2.596 0a3.267 3.267 0 0 0-1.272.186.563.563 0 0 1-.52 0 3.748 3.748 0 0 0-2.392 0 .572.572 0 0 1-.52 0 3.522 3.522 0 0 0-1.206-.186c-.68 0-1.203.281-1.485.23a7.066 7.066 0 0 0-1.583-.23c-.866 0-1.731-.038-2.544 0-.805.074-1.615.074-2.42 0h-.073c-.54 0-.865.203-1.237.195-.372-.009-.74-.19-1.298-.208-.472-.021-.952-.043-1.42-.09-.467-.048-.934-.147-1.384-.182a7.688 7.688 0 0 1-2.094-.618c-.208-.09-.433-.181-.636-.268l-.637-.32a21.655 21.655 0 0 0-.649-.297l-.61-.325a7.788 7.788 0 0 1-1.843-1.296 20.877 20.877 0 0 0-.986-.963c-.342-.316-.632-.679-.952-.977-.32-.298-.524-.622-.758-.938a7.922 7.922 0 0 1-.601-1.028c-.203-.354-.368-.752-.554-1.14-.09-.19-.186-.385-.285-.571-.1-.186-.16-.385-.247-.566a5.668 5.668 0 0 1-.433-1.227c-.052-.208-.1-.41-.147-.623a3.966 3.966 0 0 1-.1-.648c-.034-.397-.099-.803-.155-1.21-.056-.406-.052-.834-.078-1.244 0-.078-.022-.151-.03-.225h-.866v.139c0 .483.035.98.052 1.469.017.488.147.968.251 1.421.104.454.242.795.338 1.184.095.39.22.765.333 1.18.246.759.57 1.49.969 2.182.433.691.8 1.257 1.298 1.456.066.391.197.768.39 1.115.208.297.469.553.77.756.46.228.843.586 1.103 1.029.198.276.457.504.757.665.174.105.353.2.537.285.211.084.428.153.649.208.116.17.25.326.402.466.09.087.188.166.29.238.117.069.247.142.39.212.858.462 1.77.815 2.717 1.05.402.077.77.16 1.138.255.368.095.748.13 1.15.216.487.103.983.158 1.48.164.49.032.98.032 1.467 0a13.388 13.388 0 0 1 2.242 0c.727.065 1.549 0 2.323.021a4.276 4.276 0 0 0 1.965-.285c.93.387 1.977.387 2.908 0a3.9 3.9 0 0 0 2.929 0c.304.163.641.254.986.264 1.407 0 2.852.134 4.21-.091a.953.953 0 0 1 .386 0c.769.182 1.574.138 2.319-.125.416.15.855.228 1.298.229h2.92c.312.005.623-.036.922-.121a.867.867 0 0 1 .584 0c.735.21 1.517.191 2.242-.052a.572.572 0 0 1 .523 0c.387.132.794.195 1.203.186.68 0 1.26-.277 1.476-.23.216.048.476.109.718.152l-.195-.056c.237.21.493.396.766.557.731.432 1.467.955 2.163 1.296.703.351 1.374.763 2.004 1.232.497.363.986.311 1.298.579.363.352.762.666 1.19.938l2.163 1.322c.23.154.478.276.74.363.24.074.459.203.64.376 1.163.87 2.4 1.636 3.7 2.286.136.067.282.11.433.125a.455.455 0 0 1 .298.13l.251.228.091-.432c.01-.051.025-.102.043-.15a3.802 3.802 0 0 0 .065-2.3.772.772 0 0 1 0-.466 4.056 4.056 0 0 0-.021-2.494c.152-.415.231-.853.233-1.296 0-.575-.147-.925-.164-1.344-.017-.419.164-.747.203-1.296l-.432.432h.09c.64 0 1.03-.233 1.476-.181.268.039.532.069.8.082.29.024.58.01.866-.04l.965-.15c.32-.04.631-.152.947-.216a3.108 3.108 0 0 0 1.753-.865 3.203 3.203 0 0 0 2.64-1.322l.393-.095c.116-.043.23-.092.342-.147.212-.1.414-.221.601-.363.422-.337.767-.76 1.013-1.24.15-.038.296-.095.432-.168.17-.103.323-.23.455-.376.229-.273.502-.515.718-.8l.662-.864c.204-.291.39-.596.554-.912a4.47 4.47 0 0 0 .433-.959.82.82 0 0 1 .138-.307c.144-.178.274-.368.39-.566.1-.19.18-.39.237-.596.12-.374.174-.766.156-1.158.262-.348.448-.747.545-1.171.096-.493.173-.994.26-1.49.05-.49.07-.982.056-1.474.002-.211-.01-.422-.034-.631 0-.203-.03-.402-.04-.6-.008-.2 0-.398 0-.601 0-.203-.038-.407-.056-.618a9.21 9.21 0 0 0-.636-2.753 17.727 17.727 0 0 1-.471-1.162c-.139-.385-.342-.739-.502-1.15a8.934 8.934 0 0 0-1.532-2.367c-.281-.346-.584-.631-.865-.938l-.433-.471c-.138-.151-.294-.298-.433-.432a7.56 7.56 0 0 0-1.025-.93c-.186-.142-.377-.28-.563-.431l-.285-.195-.294-.16c-.407-.203-.77-.432-1.147-.626s-.757-.385-1.151-.605c-.404-.186-.82-.35-1.242-.488a4.331 4.331 0 0 0-.653-.19l-.662-.165a2.6 2.6 0 0 0-1.298-.064.58.58 0 0 1-.589-.06 3.08 3.08 0 0 0-1.203-.277 3.778 3.778 0 0 0-.627 0 3.4 3.4 0 0 0-.584.146.568.568 0 0 1-.524 0 3.431 3.431 0 0 0-1.207-.181c-.68 0-1.203.277-1.484.229a7.027 7.027 0 0 0-1.584-.229c-.865 0-1.73-.039-2.544 0-.805.076-1.614.076-2.419 0h-.073c-.541 0-.866.207-1.238.194-.372-.013-.731-.198-1.298-.194-.974 0-1.973-.043-2.908 0-.749.056-1.5.056-2.25 0a22.314 22.314 0 0 0-2.894 0 16.62 16.62 0 0 1-2.32 0 20.555 20.555 0 0 0-2.825 0 16.2 16.2 0 0 1-2.466 0 19.468 19.468 0 0 0-2.597 0c-.89.065-1.783.065-2.674 0-.822-.048-1.696 0-2.548 0h-.433l.017.903z"/>
        <path fill="#519FED" stroke="#519FED" stroke-linejoin="round" stroke-width=".5" d="M32.62 9.364C20.454 11.73 16.179.402 16.179.402S13.535 12.22 1.151 11.593c0 0 .242 23.943 17.805 27.897 16.81-6.391 13.665-30.126 13.665-30.126z"/>
        <path fill="#FFF" stroke="#FFF" stroke-linejoin="round" stroke-width=".5" d="M18.939 39.49C35.766 33.099 32.62 9.364 32.62 9.364 20.453 11.73 16.178.402 16.178.402l2.76 39.088z"/>
        <path fill="#333" d="M15.82.575c0 .039.034.082.055.12.164.376.365.734.602 1.068.221.261.405.552.545.864.168.29.357.568.567.83.148.26.408.438.705.48a.864.864 0 0 0 .468.833c.227.046.4.23.432.458.07.277.364.432.814.523a.752.752 0 0 0 .329.575c.302.279.635.523.99.73.293.152.57.333.827.54.322.266.688.474 1.082.614.303.1.594.237.865.406.297.158.609.286.93.385a1 1 0 0 0 .866 0 .865.865 0 0 0 1.203.302.865.865 0 0 0 1.233.207c.09.14.232.239.393.277.6.134 1.222.134 1.822 0a.195.195 0 0 1 .165 0 .897.897 0 0 0 .995-.156c.17.115.375.167.58.147l.363-.051-.467-.36.047.865a.73.73 0 0 0 .13.385.19.19 0 0 1 .026.242.824.824 0 0 0 .1.942c.082.103.073.138 0 .22a.807.807 0 0 0-.152.514c0 .285.255.523.216.614a1.45 1.45 0 0 0-.19.704c0 .359-.048.735 0 1.067.05.328.038.662-.035.986-.047.254.212.432.143.596a1.727 1.727 0 0 0-.203.622l-.065 1.067c-.017.12 0 .24.048.35.056.117 0 .186-.026.311a5.226 5.226 0 0 0-.234 1.811c.005.071.032.14.078.194.056.083.047.117-.03.2a.829.829 0 0 0-.182.95.164.164 0 0 1 0 .194.902.902 0 0 0-.16 1.037.92.92 0 0 0-.299.493c-.047.238.056.432.03.583-.026.151-.238.285-.311.523-.074.238.104.48 0 .635-.145.18-.258.383-.333.6-.078.256-.156.506-.243.753a.971.971 0 0 0-.03.838.885.885 0 0 0-.471 1.132c-.485.268-.593.527-.52 1.132a.58.58 0 0 0-.39.268c-.138.255-.29.506-.432.752-.162.24-.28.508-.346.79a.16.16 0 0 1-.065.117.92.92 0 0 0-.472.9.805.805 0 0 0-.471.297c-.255.316-.532.627-.744.947-.175.283-.401.532-.667.734a6.18 6.18 0 0 0-.813.8 2.5 2.5 0 0 1-.766.66 4.664 4.664 0 0 0-.904.688c-.254.233-.547.42-.866.553a5.73 5.73 0 0 0-.947.592c-.286.203-.607.35-.948.432-.337.095-.666.259-1.012.367a.8.8 0 0 0-.433.307c-.06.1-.1.095-.208.052a1.053 1.053 0 0 0-.433-.078h.078a.914.914 0 0 0-.528.104c-.116.064-.147.039-.212-.048a.866.866 0 0 0-.432-.268c-.26-.082-.545.108-.64.026a1.73 1.73 0 0 0-.555-.402c-.328-.125-.649-.294-.969-.397a5.147 5.147 0 0 1-.476-.173 2.055 2.055 0 0 1-.41-.285h-.027c-.19-.113-.406 0-.532-.1-.125-.099-.169-.315-.368-.432-.199-.116-.342-.22-.506-.337a4.487 4.487 0 0 0-.493-.333 2.388 2.388 0 0 1-.792-.596 4.952 4.952 0 0 0-.909-.786 3.278 3.278 0 0 1-.692-.67 5.408 5.408 0 0 0-.8-.864 2.676 2.676 0 0 1-.684-.787 3.825 3.825 0 0 0-.675-.864 2.865 2.865 0 0 1-.65-.907c-.178-.3-.376-.59-.592-.864-.022-.03-.048-.048-.07-.074l-.648.432.026.052c.208.349.441.682.696.998.235.245.442.516.615.808.184.277.387.54.606.791.148.257.417.42.713.432a.864.864 0 0 0 .476.825c.226.048.399.23.433.458.078.268.368.433.805.532 0 .223.101.433.277.57.292.286.608.548.943.782.29.157.557.353.792.584.313.288.668.528 1.051.713.312.113.604.273.866.475.286.18.587.332.9.458a.98.98 0 0 0 .865.086.865.865 0 0 0 1.186.38.865.865 0 0 0 1.242.234.54.54 0 0 0 .095.095h.047a.507.507 0 0 0 .36.07 3.846 3.846 0 0 0 1.73-.636.234.234 0 0 1 .16-.056.9.9 0 0 0 .866-.51c.2.037.406.008.588-.082.368-.208.736-.432 1.086-.653a.7.7 0 0 0 .273-.306.212.212 0 0 1 .199-.156.822.822 0 0 0 .748-.63c.03-.126.065-.14.174-.14a.75.75 0 0 0 .506-.206c.225-.19.238-.55.333-.58.247-.053.474-.176.653-.354.126-.134.264-.263.398-.393.126-.132.237-.277.334-.432.183-.287.404-.549.657-.778.195-.186.091-.475.243-.57.196-.107.367-.254.502-.432.203-.303.41-.605.592-.925a.674.674 0 0 0 .126-.337c0-.13.065-.182.156-.277.206-.234.38-.494.519-.773a4.27 4.27 0 0 0 .35-.864.35.35 0 0 0 0-.212c-.03-.095 0-.13.082-.19a.808.808 0 0 0 .433-.89.173.173 0 0 1 .06-.19.864.864 0 0 0 .33-1.011.912.912 0 0 0 .354-.467c.078-.233 0-.432.022-.596.022-.165.255-.277.329-.523.073-.247-.1-.484 0-.644.147-.186.255-.401.316-.631.056-.264.112-.527.173-.795a.915.915 0 0 0-.091-.864.864.864 0 0 0 .23-1.219.898.898 0 0 0 .177-1.244.583.583 0 0 0 .264-.38c.056-.588.255-1.184.09-1.768a.142.142 0 0 1 0-.138.937.937 0 0 0-.043-1.033.73.73 0 0 0 .234-.518 7.892 7.892 0 0 0 0-1.236 3.823 3.823 0 0 1 0-1.02 4.453 4.453 0 0 0-.026-1.175 3.331 3.331 0 0 1 0-1.037c.041-.39.02-.784-.065-1.167a3.737 3.737 0 0 1-.06-1.05V8.901l-.485.056a6.43 6.43 0 0 0-.693.117c-.34.082-.694.1-1.042.052-.35-.048-.723 0-1.082-.035a.806.806 0 0 0-.54.126c-.092.073-.13.06-.217 0a.84.84 0 0 0-.991-.126c-.117.06-.147.044-.212-.039a.788.788 0 0 0-.463-.254c-.273-.065-.541.13-.645.06a1.731 1.731 0 0 0-.584-.363c-.337-.095-.67-.242-1.004-.315a2.165 2.165 0 0 1-.904-.402h-.026c-.203-.091-.402 0-.537-.065-.134-.065-.199-.285-.406-.398-.208-.112-.35-.203-.524-.306a4.376 4.376 0 0 0-.515-.294 2.505 2.505 0 0 1-.761-.527 5.727 5.727 0 0 0-.926-.752 2.525 2.525 0 0 1-.701-.683 5.746 5.746 0 0 0-.796-.864 2.671 2.671 0 0 1-.64-.79c-.18-.311-.391-.6-.633-.865a3.193 3.193 0 0 1-.588-.938 8.82 8.82 0 0 0-.502-.929 1.167 1.167 0 0 0-.095-.142l-.684.35z"/>
    </g>
</svg>
