<?xml version="1.0" encoding="UTF-8"?>
<svg width="306px" height="434px" viewBox="0 0 306 434" version="1.1" xmlns="http://www.w3.org/2000/svg" xmlns:xlink="http://www.w3.org/1999/xlink">
    <!-- Generator: Sketch 52.6 (67491) - http://www.bohemiancoding.com/sketch -->
    <title>lock</title>
    <desc>Created with Sketch.</desc>
    <g id="Page-1" stroke="none" stroke-width="1" fill="none" fill-rule="evenodd">
        <g id="lock">
            <g id="Path">
                <path d="M239.905046,198.496124 C230.429206,198.496124 222.766954,190.410897 222.766954,180.448919 L222.766954,108.270012 C222.766954,68.461751 192.026953,36.0911057 154.224,36.0911057 C116.421047,36.0911057 85.6810461,68.461751 85.6810461,108.270012 L85.6810461,180.448919 C85.6810461,190.410897 78.0187936,198.496124 68.5429539,198.496124 C59.0671143,198.496124 51.408,190.410897 51.408,180.448919 L51.408,108.270012 C51.408,48.5576202 97.5195701,0 154.224,0 C210.92843,0 257.04,48.5576202 257.04,108.270012 L257.04,180.448919 C257.04,190.410897 249.380886,198.496124 239.905046,198.496124 Z" fill="#607D8B"></path>
                <path d="M267.75,162.609819 L38.25,162.609819 C17.170166,162.609819 0,180.863724 0,203.318346 L0,393.291473 C0,415.746095 17.170166,434 38.25,434 L267.75,434 C288.829834,434 306,415.746095 306,393.291473 L306,203.318346 C306,180.863724 288.829834,162.609819 267.75,162.609819 Z" fill="#FF595C"></path>
            </g>
            <g id="shield" transform="translate(62.000000, 199.000000)">
                <path d="M186.999735,30.4687258 C187.179612,30.4687258 95.8374926,0.761631115 93.4999994,0 C91.7021384,0.60922753 -0.179613656,30.4687258 0.000263764316,30.4687258 L0.000263764316,86.531197 C0.000263764316,125.379025 13.1262935,176.109691 93.4999994,195 C173.693827,176.109305 186.819857,124.464604 186.819857,86.531197 C186.999735,67.3360815 186.999735,30.4687258 186.999735,30.4687258 Z" id="Path" fill="#F3F3F3"></path>
                <path d="M3.3422339e-15,86.531412 C3.3422339e-15,125.379164 13.5238265,176.109729 96.3333333,195 L96.3333333,0 C92.8134975,1.06643617 0,30.4686654 0,30.4686654 C0,30.4686654 0.000470377604,86.531412 3.3422339e-15,86.531412 Z" id="Path" fill="#E7E7E7"></path>
                <path d="M169.863462,40.8194958 C170.045513,40.8194958 95.4335381,15.6109631 93.4318963,15 C91.7938953,15.4585133 16.8182796,39.7500194 17.000331,39.5971817 L17.000331,86.80543 C17.000331,119.49991 24.6437186,164.11108 93.4318963,180 C162.038485,164.11108 169.863462,118.736109 169.863462,86.80543 C170.045513,70.6112215 170.045513,40.8194958 169.863462,40.8194958 Z" id="Path" fill="#114B5C"></path>
                <path d="M96.3333333,15 C94.633152,15.4585133 16.8113813,39.7500194 17.0003436,39.5971817 L17.0003436,86.80543 C17.0003436,119.49991 24.9338823,164.11108 96.3333333,180 L96.3333333,15 Z" id="Path" fill="#114B5C"></path>
                <path d="M129.997247,82.3624515 C129.443343,80.787839 127.782568,79.685451 125.752524,79.3703685 L106.558012,77.0080505 L98.2527297,62.5198595 C97.3300246,60.945247 95.4841465,60 93.4541017,60 C91.4240569,60 89.5781788,60.9448475 88.6554737,62.5198595 L80.3501923,77.0080505 L61.1556799,79.3703685 C59.1256351,79.685451 57.4643917,80.787839 56.9109561,82.3624515 C56.3575205,83.9370635 56.7263214,85.6696165 58.2029306,86.772005 L72.229545,98.582796 L68.9075263,114.960681 C68.5382568,116.535293 69.4614305,118.267847 71.1222053,119.212694 C72.0449103,119.685317 73.1522501,120 74.2595898,120 C75.1822949,120 76.1049993,119.842459 76.8435383,119.527377 L93.6387364,111.968198 L110.433935,119.527377 C111.172005,119.842459 112.095179,120 113.017883,120 C114.125223,120 115.232563,119.684918 116.155268,119.212694 C117.816512,118.267847 118.739216,116.535693 118.369947,114.960681 L115.047928,98.582796 L129.074543,86.772005 C130.181882,85.5120755 130.735318,83.9370635 129.997247,82.3624515 Z" id="Path" fill="#F9F9F9"></path>
            </g>
        </g>
    </g>
</svg>