<?xml version="1.0" encoding="UTF-8"?>
<svg width="512px" height="512px" viewBox="0 0 512 512" version="1.1" xmlns="http://www.w3.org/2000/svg" xmlns:xlink="http://www.w3.org/1999/xlink">
    <!-- Generator: Sketch 52.6 (67491) - http://www.bohemiancoding.com/sketch -->
    <title>Group 2</title>
    <desc>Created with Sketch.</desc>
    <g id="Page-1" stroke="none" stroke-width="1" fill="none" fill-rule="evenodd">
        <g id="Group-2">
            <path d="M37.845,274.751 C-11.498,194.593 13.472,89.6 93.629,40.245 C173.786,-9.11 278.779,15.859 328.135,96.017 C345.118,123.592 353.884,155.441 353.421,187.825 C350.377,282.068 272.631,356.625 178.351,355.712 L21.045,355.712 L37.602,327.589 C47.463,311.372 47.549,291.052 37.845,274.751 Z" id="Path" fill="#FFFFFF"></path>
            <path d="M474.181,420.845 C523.5,340.664 498.481,235.683 418.3,186.364 C398.005,173.885 375.324,165.789 351.705,162.624 C352.898,170.976 353.458,179.388 353.409,187.825 C350.365,282.068 272.619,356.625 178.339,355.712 L160.564,355.712 C174.467,440.374 247.892,502.342 333.686,501.806 L490.981,501.806 L474.424,473.683 C464.575,457.466 464.478,437.147 474.181,420.845 Z" id="Path" fill="#FF595E"></path>
            <g id="Group" fill="#114B4F">
                <path d="M484.894,465.473 C477.431,453.116 477.431,437.654 484.894,425.297 C537.731,339.393 510.935,226.913 425.032,174.076 C406.04,162.388 385.063,154.28 363.149,150.153 C356.088,111.876 336.974,76.85 308.607,50.2 C271.122,14.334 220.049,-3.709 168.356,0.65 C67.807,8.527 -7.31,96.415 0.567,196.964 C2.844,226.098 12.084,254.257 27.509,279.081 C34.972,291.438 34.972,306.9 27.509,319.257 L10.586,347.502 C7.153,353.285 9.064,360.76 14.847,364.181 C16.722,365.289 18.865,365.885 21.056,365.885 L150.593,365.885 C169.707,451.362 245.627,512.089 333.211,511.979 L490.993,511.979 C497.713,511.979 503.168,506.525 503.168,499.804 C503.168,497.625 502.584,495.47 501.464,493.595 L484.894,465.473 Z M48.194,331.676 C60.344,311.576 60.344,286.399 48.194,266.299 C2.381,191.851 25.598,94.369 100.033,48.557 C174.468,2.745 271.962,25.949 317.775,100.396 C333.529,125.987 341.661,155.534 341.235,185.581 C338.325,273.189 265.996,342.45 178.34,341.537 L42.35,341.537 L48.194,331.676 Z M175.418,365.886 L178.34,365.886 C279.267,366.726 362.419,286.837 365.584,185.946 C365.584,182.415 365.584,178.885 365.584,175.354 C450.684,195.332 503.473,280.505 483.494,365.605 C479.61,382.138 473.097,397.928 464.197,412.392 C452.047,432.492 452.047,457.669 464.197,477.769 L470.041,487.63 L333.687,487.63 C259.288,488.057 194.094,437.91 175.418,365.886 Z" id="Shape" fill-rule="nonzero"></path>
                <rect id="Rectangle" x="82" y="127" width="189.741" height="27.254"></rect>
                <rect id="Rectangle" x="82" y="168" width="189.741" height="27.254"></rect>
                <rect id="Rectangle" x="82" y="209" width="189.741" height="27.254"></rect>
            </g>
            <rect id="Rectangle" fill="#114B4F" x="270" y="356" width="141.741" height="23.254"></rect>
            <rect id="Rectangle" fill="#114B4F" x="270" y="394" width="141.741" height="23.254"></rect>
        </g>
    </g>
</svg>