<svg xmlns="http://www.w3.org/2000/svg" width="80" height="105" viewBox="0 0 80 105">
    <g fill="none" fill-rule="evenodd">
        <ellipse cx="39.605" cy="98.514" fill="#F0F0F0" rx="30.525" ry="6.486"/>
        <path fill="#3A89D8" d="M63.267 49.371l2.237-2.185a.229.229 0 0 0 0-.368l-2.658-2.752a.238.238 0 0 1 0-.372l2.928-2.85.56-.546 6.741 7.003a.796.796 0 0 0 .367.254l-6.1 5.927a.588.588 0 0 1-.844 0l-3.202-3.315a.655.655 0 0 1-.03-.796z"/>
        <path fill="#4A90E2" d="M66.347 40.298L51.074 24.476l-.422-.423 5.288-5.17.421.423 21.973 22.766c.665.686.337 2.117-.784 3.188l-1.243 1.215c-.935.91-2.107 1.198-2.836.944-.122 0-.244-.127-.362-.254l-6.703-6.943-.06.076z"/>
        <path fill="#519FED" fill-rule="nonzero" d="M43.848 3.357A9.548 9.548 0 0 1 50.82.567c2.6.067 5.073 1.143 6.901 3.002 3.744 3.912 3.652 10.124-.206 13.921l-1.433 1.393-5.313 5.157-1.803 1.761a9.876 9.876 0 0 1-6.969 2.79 10.047 10.047 0 0 1-6.884-3.001c-3.743-3.913-3.649-10.125.21-13.921l8.524-8.312zm1.571 17.893l7.344-7.16a4.066 4.066 0 0 0 .084-5.665 4.014 4.014 0 0 0-5.637-.089l-7.344 7.16a4.062 4.062 0 0 0-.088 5.673 3.971 3.971 0 0 0 5.642.08z"/>
        <path fill="#333" d="M66.149 40.497c.017.026.037.05.059.072.172.22.369.42.585.597.198.132.365.305.49.508.139.181.294.35.463.504.128.182.351.27.568.224-.03.322.08.568.308.597.228.03.282.093.303.313.021.22.228.318.578.348-.04.16.003.33.113.453.18.213.378.411.59.592.186.127.345.29.468.479.158.24.36.449.594.614.19.12.347.284.46.478.138.182.293.35.463.504a.58.58 0 0 0 .577.246.629.629 0 0 0 .11.47c.056.064.129.113.21.14.125.048.263.048.388 0h-.063l.075-.035a.518.518 0 0 0 .476.318.484.484 0 0 0 .422-.271.42.42 0 0 0 .354.16 1.784 1.784 0 0 0 1.192-.634.122.122 0 0 1 .105-.064c.346-.08.451-.207.476-.55a.55.55 0 0 0 .422-.127l.615-.601a.424.424 0 0 0 .122-.263c0-.085 0-.114.118-.131a.463.463 0 0 0 .421-.559c0-.106 0-.119.097-.131a.447.447 0 0 0 .333-.242c.122-.194-.03-.47.03-.512a.736.736 0 0 0 .345-.461 1.625 1.625 0 0 0 0-.898 4.784 4.784 0 0 0-.421-.804c-.093-.161-.354-.068-.392-.195a.925.925 0 0 0-.198-.424l-.514-.567a.358.358 0 0 0-.215-.127c-.101 0-.114-.068-.156-.152a2.535 2.535 0 0 0-.876-.94.23.23 0 0 0-.16-.021c-.085 0-.101 0-.101-.098a.463.463 0 0 0-.451-.512c-.06 0-.089 0-.101-.093-.055-.356-.169-.453-.548-.491a.544.544 0 0 0-.13-.424c-.119-.122-.287-.101-.388-.178-.101-.076-.055-.27-.169-.423-.114-.152-.366-.068-.421-.212a.903.903 0 0 0-.228-.423c-.13-.131-.265-.262-.387-.423a.542.542 0 0 0-.57-.229c.039-.449-.138-.63-.585-.63 0-.424-.13-.594-.61-.627a.383.383 0 0 0-.047-.365c-.287-.292-.497-.669-.906-.821-.034 0-.063-.025-.067-.068a.506.506 0 0 0-.57-.423.48.48 0 0 0-.113-.423 4.112 4.112 0 0 0-.594-.555 1.749 1.749 0 0 1-.489-.508 2.188 2.188 0 0 0-.556-.572 1.69 1.69 0 0 1-.501-.52 1.93 1.93 0 0 0-.56-.593 1.762 1.762 0 0 1-.506-.525 2.277 2.277 0 0 0-.548-.572 1.8 1.8 0 0 1-.518-.538 4.749 4.749 0 0 0-.535-.563.42.42 0 0 0-.375-.156c-.097 0-.106 0-.106-.11a.459.459 0 0 0-.492-.508c-.106 0-.11-.026-.102-.115a.45.45 0 0 0-.134-.364c-.131-.152-.422-.089-.422-.178a.909.909 0 0 0-.185-.474 4.827 4.827 0 0 0-.531-.53 1.314 1.314 0 0 1-.489-.52c-.105-.118-.303-.068-.37-.148-.068-.08-.03-.275-.148-.394a5.49 5.49 0 0 0-.607-.605 1.614 1.614 0 0 1-.459-.483 2.221 2.221 0 0 0-.636-.627 1.757 1.757 0 0 1-.476-.49 2.049 2.049 0 0 0-.577-.598 1.758 1.758 0 0 1-.502-.529 2.01 2.01 0 0 0-.535-.55 1.91 1.91 0 0 1-.548-.572 4.175 4.175 0 0 0-.514-.546s-.042 0-.059-.038l-.535.525.025.03c.173.22.37.42.586.596.198.133.364.306.489.509.14.18.295.35.463.503.13.178.35.266.565.225-.025.322.084.567.312.597.227.03.282.093.303.313.021.22.228.318.577.347-.039.16.004.328.114.449.177.216.375.415.59.593.185.129.344.293.468.482.159.24.36.448.594.614.188.12.345.282.459.475.137.184.293.354.463.508a.58.58 0 0 0 .578.245c-.03.449.16.644.594.618a.506.506 0 0 0 .126.481.5.5 0 0 0 .476.137c0 .123-.046.271.042.365.287.3.502.685.919.846.05 0 .055.047.071.09.11.321.207.393.552.423a.552.552 0 0 0 .127.423l.606.605a.378.378 0 0 0 .262.123c.08 0 .113 0 .126.119a.458.458 0 0 0 .493.423c.101 0 .114 0 .101.115-.01.135.04.267.135.364.13.152.421.101.442.173a.81.81 0 0 0 .203.491c.157.195.335.373.53.53.199.125.363.298.477.503.092.161.354.068.396.19a.917.917 0 0 0 .193.424l.527.538c.054.067.13.112.215.127.101 0 .118.068.156.152.21.383.51.706.876.94a.29.29 0 0 0 .16.022c.085 0 .102 0 .102.097a.463.463 0 0 0 .45.512c.06 0 .089 0 .101.09.06.359.169.456.548.494a.544.544 0 0 0 .13.424c.119.123.287.102.388.178.102.076.055.27.169.423.114.153.367.068.421.212.037.159.115.305.228.423.13.131.265.263.387.424a.534.534 0 0 0 .57.224c-.034.453.138.635.585.635 0 .423.13.593.61.627a.374.374 0 0 0 .047.36c.287.296.497.673.906.846.034 0 .063.026.072.068a.5.5 0 0 0 .568.423c-.035.151.006.31.11.424.09.093.175.192.253.296.055.076.092.157.151.242.1.163.113.366.034.541-.077.22-.14.445-.19.674a.996.996 0 0 1-.324.559 2.57 2.57 0 0 0-.484.563 1.69 1.69 0 0 1-.519.508c-.22.148-.412.335-.568.55a1.22 1.22 0 0 1-.523.466c-.206.093-.388.25-.598.347a.423.423 0 0 0-.257.275c-.025.09-.055.09-.135.043a.42.42 0 0 0-.632.097c-.067.072-.093.063-.135 0a.48.48 0 0 0-.261-.203.164.164 0 0 0-.063 0l-.118-.021c.084.033 0 .088-.038.097-.038.008-.114 0-.127-.034a.892.892 0 0 0-.18-.47 4.485 4.485 0 0 0-.532-.53 1.365 1.365 0 0 1-.488-.516c-.106-.118-.304-.063-.371-.148-.068-.085-.03-.275-.148-.394a5.858 5.858 0 0 0-.606-.605 1.55 1.55 0 0 1-.46-.479 2.18 2.18 0 0 0-.594-.618 1.69 1.69 0 0 1-.476-.487 2.011 2.011 0 0 0-.577-.6 1.75 1.75 0 0 1-.501-.526 2.028 2.028 0 0 0-.535-.554 1.948 1.948 0 0 1-.548-.568 4.175 4.175 0 0 0-.607-.626l-.56.44z"/>
        <path fill="#333" d="M73.273 47.225c-.037.03-.1.033-.096.105.004.072 0 .094-.089.08-.088-.012-.055.052-.093.073-.038.021-.02.08.11.245-.198-.152-.29-.186-.215-.059.076.127.067.131-.05.051-.118-.08-.089 0 .042.199-.106-.08-.186-.14-.211-.114-.025.025-.093.038-.093.105 0 .068-.02.085-.08.08-.059-.003-.105.035-.1.107.003.072 0 .089-.08.076-.081-.013-.06.05-.098.068-.038.017-.03.076.101.245-.27-.207-.303-.173-.11.098-.273-.22-.282-.136-.1.106-.076-.064-.173-.14-.19-.127-.017.012-.181 0-.097.203 0 .025 0 0-.021 0-.135-.068-.135-.038 0 .156-.08-.059-.16-.114-.181-.093l-.105.102s0 .05.042.106c.042.055.033.059 0 .03-.152-.102-.169-.064-.047.11.042.059.034.059-.025 0-.059-.06-.126-.081-.152-.073-.025.009.123.216.085.195-.038-.021-.177-.114-.194-.084-.017.03-.097.03-.08.101.017.072-.026.089-.093.076-.067-.012.11.187.055.157s-.143-.085-.164-.06a.422.422 0 0 1-.089.09v.076c0 .046 0 .042-.021.034-.143-.047-.177.025-.169.135a.335.335 0 0 0 .055.09c.038.05.034.054 0 .02-.177-.127-.202-.11-.1.055 0 .034.029.051 0 .026-.182-.115-.19-.09-.056.123-.084-.064-.151-.11-.177-.09-.025.022.064.128.064.157 0 .03-.135-.08-.165-.067-.03.012.114.19.047.156-.068-.034-.135-.068-.152-.046a.274.274 0 0 1-.072.067c-.033 0-.03.077.11.246-.274-.208-.304-.178-.118.089-.261-.195-.287-.17-.105.106-.08-.068-.173-.14-.186-.123-.013.017-.177 0-.097.203 0 0 0 .025 0 0-.156-.097-.139 0 0 .161-.092-.076-.164-.119-.18-.102-.018.017-.106.034-.098.11.009.077-.03.085-.088.08a.08.08 0 0 0-.076.022.08.08 0 0 0-.021.076c0 .068-.021.093-.089.085-.067-.009-.11.025-.1.097.008.072-.026.09-.085.085-.06-.004-.105.025-.101.093.004.068-.025.093-.089.09-.063-.005-.067.054-.1.084-.035.03 0 .059.062.156.064.098.038.06 0 0-.185-.13-.214-.101-.084.085.042.064.03.06-.025 0s-.127-.085-.152-.072c-.025.013.122.212.084.19-.037-.02-.172-.11-.193-.084-.021.025-.085.038-.085.097 0 .06 0 .11-.088.08 0 0 .088.157.071.162-.016.004-.143-.098-.164-.077-.02.022-.097.043-.093.115.005.072-.02.084-.08.076-.059-.009-.11.03-.105.102.004.072-.021.084-.084.08-.063-.004-.11.025-.101.097.008.072-.03.09-.093.085-.063-.004-.097.025-.088.093.008.068-.034.093-.102.09-.067-.005-.067.05-.096.084-.03.034 0 0 0 0l.518.542s.1-.034.097-.102c-.005-.068 0-.097.088-.085.089.013.055-.05.093-.072.038-.02.02-.076-.11-.245.198.152.291.186.211.063-.08-.122-.063-.13.055-.05s.088 0-.042-.204c.105.085.185.14.21.119.026-.021.093-.042.093-.11s0-.085.08-.08a.084.084 0 0 0 .079-.023c.02-.02.029-.05.022-.08 0-.058 0-.092.08-.075s.06-.051.097-.072c.038-.022.03-.077-.101-.242.27.204.303.17.11-.101.273.22.282.135.1-.106.076.063.173.14.19.127.017-.013.181 0 .097-.203 0-.022 0 0 .021 0 .135.063.135.033 0-.161.08.059.16.118.181.097.033-.036.069-.07.106-.102 0 0 0-.05-.042-.11-.043-.059-.034-.059 0-.025.151.097.168.064.046-.11-.042-.064-.034-.06.025 0 .06.06.127.085.152.072.025-.013-.122-.216-.084-.195.038.021.177.114.193.085.017-.03.097-.03.08-.098-.016-.067.026-.088.093-.076.068.013-.11-.19-.055-.16.055.029.144.084.165.063a.613.613 0 0 1 .088-.093v-.077c0-.046 0-.042.021-.033.144.05.177-.026.169-.136a.33.33 0 0 0-.055-.085c-.038-.055-.034-.059 0-.02.177.126.202.11.101-.06 0-.03-.03-.047 0-.021.181.114.19.085.055-.123.084.06.152.106.177.089.025-.017-.063-.131-.063-.16 0-.03.134.08.164.067.03-.013-.114-.19-.046-.153.067.039.134.068.151.043a.35.35 0 0 1 .072-.064c.034 0 .03-.08-.11-.25.274.212.304.183.118-.088.262.194.287.169.106-.106.08.067.172.14.185.122.013-.016.177 0 .097-.199 0 0 0-.03 0 0 .156.098.139 0 0-.156.093.072.164.118.181.097.017-.021.105-.034.097-.106-.008-.072.03-.084.089-.084a.08.08 0 0 0 .075-.022.08.08 0 0 0 .021-.076c0-.067.022-.093.089-.084.067.008.11-.022.101-.094-.008-.071.025-.088.084-.088.06 0 .106-.026.101-.094-.004-.067.026-.093.089-.084.063.008.067-.06.101-.085.034-.025 0-.063-.063-.157-.063-.093-.038-.059 0-.02.185.135.215.105.084-.085-.042-.064-.03-.055.025 0s.127.08.152.067c.025-.012-.122-.211-.084-.19.038.021.173.114.194.084.02-.03.084-.033.084-.097 0-.063 0-.11.088-.08.021 0-.088-.157-.071-.165.017-.009.143.097.164.076.021-.021.097-.043.093-.11-.004-.068.02-.085.08-.08.059.003.11-.03.105-.098-.004-.068.021-.09.084-.085.064.004.11 0 .102-.097-.009-.098.029-.085.092-.085s.097-.021.089-.093c-.009-.072.033-.089.1-.089.068 0 .068-.05.098-.085a.03.03 0 0 0 0-.02l-.519-.5zM41.994 28.837a.67.67 0 0 0 .097 0c.295.026.593.01.885-.047.235-.074.482-.104.729-.089.237-.01.471-.05.699-.118a.57.57 0 0 0 .493-.39c.27.174.556.182.682-.025a.304.304 0 0 1 .422-.16c.21.063.396-.107.54-.424a.478.478 0 0 0 .471 0c.265-.12.513-.273.737-.458a2.33 2.33 0 0 1 .57-.423c.267-.136.5-.332.682-.572.128-.188.294-.347.488-.465.184-.138.353-.294.506-.466a.581.581 0 0 0 .244-.584c.451.03.645-.157.62-.597a.504.504 0 0 0 .479-.128.51.51 0 0 0 .14-.478c.122 0 .266.047.362-.046.304-.284.683-.504.843-.923 0-.051.046-.06.089-.072.316-.115.391-.212.42-.56a.53.53 0 0 0 .422-.126l.62-.601a.395.395 0 0 0 .122-.267c0-.08 0-.114.118-.127a.454.454 0 0 0 .442-.495c0-.106.025-.115.114-.106a.445.445 0 0 0 .362-.136c.156-.131.106-.423.177-.423a.803.803 0 0 0 .489-.203c.196-.158.374-.336.53-.534.123-.201.296-.366.502-.478.16-.098.068-.36.194-.402a.891.891 0 0 0 .421-.195l.531-.576a.386.386 0 0 0 .122-.229c0-.101.055-.13.135-.182.35-.27.609-.643.742-1.067a.225.225 0 0 0 0-.165c-.03-.08 0-.101.071-.127.316-.093.4-.283.346-.605 0-.064 0-.09.055-.132a.625.625 0 0 0 .295-.287.706.706 0 0 0-.051-.424.579.579 0 0 0 .312-.313c.067-.165-.042-.31-.03-.423.013-.115.207-.195.262-.373.054-.178-.123-.351-.038-.466a.93.93 0 0 0 .214-.495c.026-.19.06-.385.072-.576a.556.556 0 0 0-.215-.593c.367-.292.333-.58 0-.88.32-.33.27-.568-.088-.885a.424.424 0 0 0 .177-.335 51.03 51.03 0 0 0-.11-.635 1.095 1.095 0 0 0-.265-.58c-.026-.03-.047-.055-.034-.093a.51.51 0 0 0-.337-.656.463.463 0 0 0 .034-.424 2.625 2.625 0 0 0-.422-.796 2.153 2.153 0 0 1-.366-.639 2.426 2.426 0 0 0-.493-.69 1.911 1.911 0 0 1-.48-.559c-.14-.25-.342-.46-.586-.61a2.485 2.485 0 0 1-.573-.495 1.93 1.93 0 0 0-.657-.495 2.362 2.362 0 0 1-.662-.424 3 3 0 0 0-.708-.38.457.457 0 0 0-.421 0c-.089.05-.11.029-.148-.056a.46.46 0 0 0-.678-.245c-.093.046-.114.025-.147-.055A.468.468 0 0 0 53.256.5c-.202-.068-.421.144-.484.08a.843.843 0 0 0-.422-.288 3.473 3.473 0 0 0-.77-.101c-.248.034-.5.012-.738-.064-.169 0-.274.17-.384.16-.11-.008-.223-.173-.42-.16a3.43 3.43 0 0 0-.89.097c-.22.076-.45.116-.682.119a1.864 1.864 0 0 0-.843.229 2.18 2.18 0 0 1-.67.237 1.883 1.883 0 0 0-.788.355c-.2.156-.426.278-.666.36a1.781 1.781 0 0 0-.67.424c-.189.198-.408.365-.648.495a3.076 3.076 0 0 0-.59.512s-.025.043-.042.06l.518.537.034-.021c.212-.166.411-.347.598-.542.139-.187.325-.333.54-.423.194-.105.38-.222.56-.352a.571.571 0 0 0 .345-.487c.3.115.552.102.649-.11.097-.211.181-.228.383-.165.203.064.363-.08.544-.377.116.1.272.14.421.106.261-.076.535-.093.78-.19.201-.082.42-.113.636-.09.273.022.548.005.817-.05.21-.052.43-.045.636.021.217.043.437.07.658.08.21.07.442.01.594-.152.236.381.467.424.842.186a.503.503 0 0 0 .814.255c.042.114.071.262.19.309.344.208.724.351 1.12.423.05 0 .067.025.088.063a.5.5 0 0 0 .628.255.56.56 0 0 0 .194.372c.225.16.442.33.649.512a.37.37 0 0 0 .265.098c.085 0 .118 0 .13.11a.454.454 0 0 0 .481.423c.101 0 .11.03.093.119a.472.472 0 0 0 .11.364c.122.144.42.131.42.207a.816.816 0 0 0 .115.508c.155.187.231.424.391.606.166.157.274.366.308.593.03.177.308.177.3.309a1.03 1.03 0 0 0 0 .453l.227.69c.02.08.065.152.126.207.08.06.063.119.055.208-.018.208-.004.418.042.622.029.208.078.412.147.61 0 .046.072.089.114.114.042.026.076.068.021.14a.424.424 0 0 0 0 .665c.038.05.055.072 0 .135-.206.288-.215.423 0 .724a.555.555 0 0 0-.215.356c-.025.16.097.28.097.423 0 .144-.185.2-.223.364-.038.165.139.335.042.424a.822.822 0 0 0-.249.423 4.324 4.324 0 0 1-.176.512.557.557 0 0 0 .042.606c-.422.127-.535.33-.388.762-.421.11-.527.258-.421.74a.42.42 0 0 0-.342.11c-.28.284-.512.612-.686.97 0 .038 0 .064-.06.072-.307.072-.42.28-.42.58a.479.479 0 0 0-.422.115 4.14 4.14 0 0 0-.607.61 1.766 1.766 0 0 1-.488.52 2.2 2.2 0 0 0-.582.572 1.69 1.69 0 0 1-.518.504 1.862 1.862 0 0 0-.586.58 1.812 1.812 0 0 1-.522.508 2.204 2.204 0 0 0-.569.55c-.143.21-.326.388-.54.525-.197.162-.38.34-.547.534a.424.424 0 0 0-.164.376c0 .098 0 .11-.11.106a.454.454 0 0 0-.497.483c0 .106-.03.114-.118.106a.45.45 0 0 0-.362.135c-.152.131-.089.424-.182.445-.164.05-.332.046-.467.19-.193.162-.37.34-.531.534-.126.209-.305.38-.518.495-.118.11-.064.3-.148.368-.084.068-.265 0-.387.123-.207.187-.46.322-.64.521a1.305 1.305 0 0 1-.54.347c-.26.102-.502.245-.716.424a1.4 1.4 0 0 1-.603.275c-.263.05-.516.143-.75.275-.205.123-.44.188-.678.19a2.211 2.211 0 0 0-.725.149c-.24.092-.5.123-.754.089a5.87 5.87 0 0 0-.72 0 .461.461 0 0 0-.114 0l-.034.766z"/>
        <path fill="#333" d="M47.467 8.603h.034c.092-.068.202-.118.253-.228a.287.287 0 0 1 .235-.166c.102 0 .165-.088.25-.13.083-.043.134-.12.096-.331.19.186.308.233.329.068.02-.165.059-.17.168-.055.11.114.16 0 .22-.246.075.119.142.203.214.186.072-.017.236 0 .341-.059a.264.264 0 0 1 .274 0 .457.457 0 0 0 .35 0 .235.235 0 0 1 .27.03c.08.068.185.03.273.068.089.038.186 0 .3-.178.033.355.113.39.354.122-.022.365.122.386.345.153 0 .102-.042.224 0 .254.147.093.228.27.472.22.03 0 .03 0 .034.038 0 .186.05.203.286.106-.034.106-.067.207 0 .25.068.042.156.178.232.262.042.037.1.047.152.026.059 0 .075 0 .05.055-.088.19-.025.237.194.207.08 0 .076 0 .03.06-.047.059-.09.152-.068.207.021.055.282.03.257.076-.025.047-.135.195-.097.267.038.072.025.216.118.288a.23.23 0 0 1 .063.275c-.025.08.232.08.186.14-.047.059-.144.14-.131.211.022.102.032.206.03.31-.001.043.026.082.067.097.067.03.042.055 0 .093a.531.531 0 0 0-.067.534.22.22 0 0 0 .092.067c.06.034.06.043 0 .06-.223.063-.253.122-.097.279.03.03.047.042 0 .06-.227.067-.236.11-.05.313-.11 0-.202.02-.228.084-.025.064.076.157.072.212-.004.055-.177.025-.22.085-.041.059.123.211.034.224-.088.013-.185.034-.219.097a1.743 1.743 0 0 1-.139.182c-.063.072-.08.161.047.343-.346-.13-.392-.072-.278.263-.32-.131-.388-.068-.283.28-.092-.056-.202-.107-.244-.064-.13.131-.346.182-.341.423 0 .026 0 .043-.03.034-.21-.042-.244.08-.16.3-.114-.054-.206-.076-.257-.025-.05.051-.223.148-.27.28a.384.384 0 0 1-.231.22.46.46 0 0 0-.262.258.363.363 0 0 1-.235.229.422.422 0 0 0-.266.254.372.372 0 0 1-.236.233.452.452 0 0 0-.257.25.384.384 0 0 1-.244.232c-.114.047-.169.161-.257.242-.089.08-.063.118 0 .228.063.11.02.076-.05.051-.224-.089-.308 0-.224.224.025.077 0 .077-.055.043a.214.214 0 0 0-.227 0c-.072.055.05.288 0 .28-.051-.01-.228-.06-.287 0-.059.059-.194.135-.236.245a.304.304 0 0 1-.236.224c-.055.047.038.208 0 .237-.038.03-.19-.055-.24 0-.05.055-.215.157-.27.284a.33.33 0 0 1-.215.207.465.465 0 0 0-.278.271.376.376 0 0 1-.223.216.422.422 0 0 0-.27.263.372.372 0 0 1-.24.228.422.422 0 0 0-.248.246.422.422 0 0 1-.257.246.844.844 0 0 0-.253.232v.034l.518.538c.097-.085.215-.148.266-.271a.342.342 0 0 1 .231-.224c.106-.03.152-.14.232-.208.08-.068.11-.16 0-.355.24.11.388.097.346-.064-.043-.16 0-.186.139-.14.139.047.168-.08.092-.33.122.064.232.097.291.038.059-.06.21-.152.261-.275a.363.363 0 0 1 .22-.212.498.498 0 0 0 .273-.275.312.312 0 0 1 .215-.207c.11-.03.152-.14.236-.204.084-.063.122-.165 0-.36.333.144.421.06.282-.27.329.169.422 0 .278-.276.093.047.207.11.249.068.139-.127.354-.182.35-.449 0-.03 0-.03.042-.03.198 0 .223-.046.147-.291.106.038.207.071.261 0l.279-.276a.157.157 0 0 0 0-.16c0-.06 0-.081.05-.064.202.055.261-.025.181-.241-.025-.077 0-.077.055-.043a.197.197 0 0 0 .223 0c.076-.055-.042-.288 0-.28.123 0 .236.056.3 0 .063-.054.198-.13.231-.249.03-.11.12-.193.232-.212.088-.03-.05-.245.03-.241.08.004.197.03.252-.03l.24-.241a.11.11 0 0 0 .034-.123c-.021-.072 0-.067.063-.076a.553.553 0 0 0 .422-.39.2.2 0 0 0-.03-.114c-.03-.063 0-.068.042-.046.228.08.291.03.245-.2 0-.042 0-.063.038-.054.244.033.303-.034.198-.301.105.025.206.03.257-.034.05-.063-.026-.186 0-.25.025-.063.185 0 .24-.084.055-.085-.106-.233 0-.254a.286.286 0 0 0 .223-.149c.042-.084.076-.173.11-.258.033-.085.042-.22-.144-.339.358-.033.396-.177.118-.39.337-.075.354-.202.064-.422.105-.022.219-.055.223-.119 0-.199.126-.423-.072-.601 0 0-.025-.03 0-.047.173-.144.084-.262-.143-.33.114-.064.19-.131.168-.207-.02-.077 0-.301-.105-.424a.425.425 0 0 1-.105-.334.56.56 0 0 0-.164-.373.462.462 0 0 1-.173-.313.423.423 0 0 0-.224-.335.529.529 0 0 1-.223-.283.477.477 0 0 0-.27-.288.536.536 0 0 1-.282-.246.843.843 0 0 0-.303-.233.189.189 0 0 0-.24.038c-.064.051-.068.034-.064-.038.022-.254-.105-.309-.299-.152-.063.05-.067.034-.063-.038a.212.212 0 0 0-.097-.216c-.092-.047-.248.165-.27.11-.02-.055-.058-.237-.155-.254-.097-.017-.24-.102-.367-.076a.344.344 0 0 1-.345-.064c-.08 0-.148.165-.194.153-.046-.013-.093-.178-.177-.178a1.027 1.027 0 0 0-.421 0 .42.42 0 0 1-.325.03.491.491 0 0 0-.421.076.533.533 0 0 1-.329.093.45.45 0 0 0-.383.144.513.513 0 0 1-.329.148.471.471 0 0 0-.329.195.497.497 0 0 1-.32.224.979.979 0 0 0-.324.292l.497.58z"/>
        <path d="M74.575 43.444c.422-.11.51-.364.519-.542a.382.382 0 0 0-.114-.292L60.768 27.889"/>
        <path fill="#04B2A1" d="M25.617 36.5a1.21 1.21 0 0 1-1.652-.461l-9.037-16.14a6.394 6.394 0 0 0-5.547-3.581 6.39 6.39 0 0 0-5.748 3.245 6.454 6.454 0 0 0 .159 6.623l2.064 3.692a1.218 1.218 0 0 1-.459 1.656c-.582.33-1.32.123-1.647-.462L1.685 27.38C-.64 23.12.881 17.772 5.096 15.39c4.215-2.382 9.552-.911 11.968 3.298l9.016 16.153a1.22 1.22 0 0 1-.463 1.66z"/>
        <path fill="#04B2A1" d="M25.722 36.686c.065-.033.127-.071.186-.114.27-.21.456-.51.526-.847a1.34 1.34 0 0 0-.143-.956c-.258-.409-.49-.833-.695-1.27-.186-.394-.447-.8-.666-1.207a2.793 2.793 0 0 0-.674-.906 2.648 2.648 0 0 0-.535-1.186 1.594 1.594 0 0 1-.421-.762 2.939 2.939 0 0 0-.734-1.071 2.25 2.25 0 0 0-.282-.775c-.278-.491-.54-1.008-.843-1.465-.236-.37-.451-.753-.644-1.147a16.255 16.255 0 0 0-.843-1.499 9.845 9.845 0 0 1-.649-1.164c-.185-.394-.446-.805-.665-1.207-.165-.36-.4-.682-.691-.948a2.675 2.675 0 0 0-.843-1.512 2.584 2.584 0 0 0-.383-.847 2.305 2.305 0 0 0-.624-.571 1.411 1.411 0 0 0-.312-.52l-.223-.234-.236-.216c-.164-.144-.32-.296-.489-.423a4.63 4.63 0 0 0-1.095-.635.686.686 0 0 1-.198-.119 2.63 2.63 0 0 0-.65-.36 3.094 3.094 0 0 0-.298-.097c-.106 0-.224-.025-.358-.038a1.955 1.955 0 0 0-.717-.33 7.484 7.484 0 0 0-.868-.17 6.08 6.08 0 0 0-.876-.084 2.24 2.24 0 0 0-.56.038.663.663 0 0 1-.35.03 2.123 2.123 0 0 0-1.336.19.44.44 0 0 1-.303.072 2.005 2.005 0 0 0-.725.11 7.53 7.53 0 0 0-.788.423c-.329.075-.645.197-.94.364l-.665.424c-.206.16-.421.322-.585.483-.165.16-.342.35-.514.508-.173.156-.333.287-.485.461-.11.115-.201.246-.27.39-.042.119-.103.23-.18.33-.224.21-.415.452-.565.72a6.29 6.29 0 0 0-.35.694c-.111.234-.21.475-.295.72a2.283 2.283 0 0 0-.118.482c-.023.145-.06.286-.11.424a6.031 6.031 0 0 0-.265 2.616c.012.09.038.177.076.259.04.09.048.192.02.287-.069.471.014.952.237 1.372.052.08.08.175.08.271.032.515.24 1.003.59 1.38.044.261.134.512.265.741.169.301.337.424.468.652.13.229.156.453.324.767.169.313.422.474.497.72.108.3.24.593.397.872l.139.245c.047.091.1.179.16.263.13.177.298.322.493.423.384.244.884.2 1.221-.106.334-.053.619-.27.759-.58a1.037 1.037 0 0 0-.068-.978 2.158 2.158 0 0 0-.273-.847 3.774 3.774 0 0 0-.57-.732 1.41 1.41 0 0 0-.18-.55 23.455 23.455 0 0 0-1.218-2.117.649.649 0 0 1-.089-.17 4.674 4.674 0 0 0-.219-.707 3.144 3.144 0 0 0-.282-.601 2.553 2.553 0 0 0 0-.728 8.709 8.709 0 0 1 .06-1.664c.056-.458.189-.903.39-1.317.227-.473.486-.93.776-1.367.128-.193.27-.377.422-.55.163-.166.34-.32.526-.458.21-.144.421-.31.653-.423.232-.115.455-.276.67-.424a4.2 4.2 0 0 1 1.332-.457 12.34 12.34 0 0 1 1.525-.123c.485-.012.969.063 1.428.22.474.152.934.347 1.374.58.21.13.433.237.665.322a.325.325 0 0 1 .24.182c.267.38.595.714.97.987.09.052.157.139.185.241a2.5 2.5 0 0 0 .295.635c.194.36.468.559.526.716.104.301.234.593.388.872.253.423.485.906.746 1.312.265.405.499.83.7 1.27v.039c.155.279.345.423.42.592.076.17.131.424.3.724.282.504.552 1.033.842 1.503.24.375.459.764.653 1.165.253.516.534 1.018.843 1.503.263.386.501.789.712 1.206.245.502.518.99.818 1.46.262.41.5.834.712 1.271.228.464.481.914.758 1.35.152.234.282.458.421.687.124.25.265.492.422.724.402.468 1.061.619 1.626.372a1.49 1.49 0 0 0 .139-.08l-.21-.373-.06.026a1.046 1.046 0 0 1-1.23-.305 2.906 2.906 0 0 1-.185-.28c-.06-.106-.118-.203-.177-.3-.11-.204-.22-.424-.325-.631-.185-.394-.446-.805-.665-1.211a2.793 2.793 0 0 0-.674-.906 2.648 2.648 0 0 0-.536-1.186 1.62 1.62 0 0 1-.42-.762 2.965 2.965 0 0 0-.726-1.096 2.25 2.25 0 0 0-.307-.78c-.278-.49-.54-1.007-.843-1.464-.237-.379-.454-.77-.649-1.173a16.216 16.216 0 0 0-.842-1.499 9.802 9.802 0 0 1-.653-1.164c-.182-.39-.422-.8-.662-1.207a2.887 2.887 0 0 0-.695-.948 2.65 2.65 0 0 0-.843-1.507 2.052 2.052 0 0 0-1.045-1.41 1.139 1.139 0 0 0-.345-.504 4.943 4.943 0 0 0-2.237-1.22.664.664 0 0 1-.224-.08 3.06 3.06 0 0 0-.712-.22 2.688 2.688 0 0 0-.674.034 1.875 1.875 0 0 0-.784-.119 6.502 6.502 0 0 0-1.752.322 2.208 2.208 0 0 0-.502.254.66.66 0 0 1-.316.16c-.12.033-.238.072-.354.12a2.68 2.68 0 0 0-.568.376c-.076.08-.147.165-.211.254a.422.422 0 0 1-.249.19 2.268 2.268 0 0 0-.585.45c-.12.143-.225.3-.312.465a1.48 1.48 0 0 1-.156.314c-.253.23-.46.505-.61.813a5.336 5.336 0 0 0-.49 1.469c-.084.508-.126.948-.168 1.435 0 .377.143.605.139.847-.017.308.014.616.093.914.138.508.335.998.585 1.461.071.152.162.295.27.423.097.112.17.241.219.381.365.785.787 1.54 1.264 2.261a.845.845 0 0 0 .177.2c.077.06.126.148.139.245.064.187.112.38.143.576a1.74 1.74 0 0 1 0 .592.305.305 0 0 1-.118.212 1.742 1.742 0 0 1-.547.3 1.712 1.712 0 0 1-.62.11 1.976 1.976 0 0 1-.476-.456c-.076-.102-.16-.23-.24-.326a2.962 2.962 0 0 1-.223-.293c-.127-.203-.152-.453-.32-.766-.17-.313-.422-.474-.498-.72a5.704 5.704 0 0 0-.396-.876c-.181-.326-.383-.652-.54-.982a6.055 6.055 0 0 0-.302-.56 1.82 1.82 0 0 0-.283-.389 3.437 3.437 0 0 0-.05-.423 3.147 3.147 0 0 0-.072-.424 5.817 5.817 0 0 0-.32-.817 5.28 5.28 0 0 0 .038-.846 8.118 8.118 0 0 0-.156-.898c.084-.18.137-.373.156-.572.122-.791.294-1.575.514-2.345a.552.552 0 0 1 .076-.178 3.95 3.95 0 0 0 .581-1.27c.198-.148.37-.328.51-.534.16-.228.366-.423.548-.647.18-.225.396-.394.573-.597.16-.169.337-.322.526-.458l.27-.203.303-.178c.422-.262.948-.512 1.403-.74.228-.098.422-.191.653-.267.232-.077.451-.11.691-.161a28.335 28.335 0 0 1 1.568-.203c.238-.026.478-.026.716 0 .117 0 .234.007.35.02l.354.06c.256.039.51.091.762.157.253.059.51.101.746.177.476.12.933.307 1.357.555.202.131.42.254.644.377l.628.423c.184.174.394.317.624.424.101.03.183.107.219.207.114.208.255.399.421.568.147.183.317.346.506.486.126.09.155.132.177.246.066.228.167.445.299.644.198.347.467.554.53.71.089.293.203.576.342.848.248.423.484.906.741 1.312.266.404.5.829.7 1.27v.038c.156.284.341.424.442.597.101.174.127.424.295.724.287.5.552 1.033.843 1.503.238.376.455.764.649 1.165.254.515.535 1.017.842 1.503.25.385.474.785.674 1.198.247.502.52.991.818 1.465.264.408.503.832.716 1.27.226.464.478.915.754 1.35.152.233.287.458.422.686l.18.343c.062.11.116.223.16.34.144.396.036.84-.273 1.125l-.156.123.22.351z"/>
        <ellipse cx="19.811" cy="41.721" fill="#04B2A1" rx="13.933" ry="14.001"/>
        <path fill="#04B2A1" d="M32.139 34.752l-.08-.144a11.196 11.196 0 0 0-.809-1.24 9.165 9.165 0 0 1-.771-.992c-.244-.296-.556-.588-.843-.884a1.878 1.878 0 0 0-.842-.547 2.273 2.273 0 0 0-.363-.49 1.684 1.684 0 0 0-.463-.293 1.264 1.264 0 0 1-.632-.423 2.228 2.228 0 0 0-1.05-.483 1.306 1.306 0 0 0-.58-.423l-.683-.31a4.787 4.787 0 0 0-.695-.232c-.422-.106-.734-.233-1.138-.335a5.873 5.873 0 0 0-1.483-.283c-.421 0-.754-.085-1.163-.119a8.176 8.176 0 0 0-1.188-.034 2.224 2.224 0 0 0-1.011.203 1.947 1.947 0 0 0-1.492.22 1.986 1.986 0 0 0-1.458.424c-.176-.02-.355 0-.522.06-.7.22-1.363.541-1.972.952a.572.572 0 0 1-.173.101 2.28 2.28 0 0 0-.986.699c-.218.07-.422.18-.602.322l-.607.461-.552.525c-.118.11-.22.238-.303.377a.604.604 0 0 1-.207.225c-.326.225-.582.539-.737.906a.372.372 0 0 1-.164.215c-.167.13-.31.287-.421.466a4.184 4.184 0 0 0-.33.703 3.526 3.526 0 0 0-.522.703 5.09 5.09 0 0 0-.303.605 6.56 6.56 0 0 0-.249.606c-.037.101-.071.199-.11.296l-.096.292c-.063.19-.135.377-.215.568-.126.3-.05.533-.122.728-.11.24-.198.489-.261.745-.053.217-.091.438-.114.66l-.084.665a1.23 1.23 0 0 0 0 .424.94.94 0 0 1 0 .39 5.369 5.369 0 0 0-.068 1.134c.026.38.064.762.118 1.139.018.078.05.152.093.22.05.07.065.158.042.241a1.995 1.995 0 0 0 .063.88c.04.105.088.205.144.301.045.071.068.154.067.238-.02.449.13.89.421 1.232 0 .23.04.46.118.677.097.216.22.42.367.605.101.182.105.424.24.695.135.27.37.423.45.622.104.264.231.517.38.758.181.275.421.525.598.792.115.148.239.29.371.423.112.098.24.174.38.225.182.497.576.887 1.074 1.062.117.23.273.44.459.618.224.161.473.283.737.36.082.161.204.298.354.398.3.203.62.381.931.568.307.19.64.333.99.423a.42.42 0 0 1 .156.068c.34.266.762.402 1.193.385.17.145.368.253.581.318.488.135.983.24 1.483.317.416.03.83.084 1.239.161.477.05.958.06 1.437.034.419-.056.84-.084 1.264-.085a8.784 8.784 0 0 0 1.411-.241c.413-.14.836-.25 1.264-.33.447-.137.885-.303 1.31-.496a11.48 11.48 0 0 1 1.189-.588c.402-.214.792-.451 1.167-.712.197-.11.364-.269.484-.461a.3.3 0 0 1 .21-.17c.2-.072.386-.177.553-.308.161-.139.294-.307.392-.496a.304.304 0 0 1 .198-.186c.191-.096.366-.222.518-.373.236-.27.303-.571.421-.664.232-.159.437-.353.607-.576.267-.354.514-.723.737-1.105.18-.385.387-.755.62-1.11v-.033c.118-.259.097-.462.177-.631.13-.19.247-.388.353-.593.181-.475.332-.962.451-1.456.063-.39.149-.774.257-1.152.106-.496.165-1 .177-1.507-.012-.406 0-.811.034-1.215.006-.495-.03-.99-.11-1.478a11.313 11.313 0 0 1-.21-1.27 9.822 9.822 0 0 0-.354-1.321 10.307 10.307 0 0 1-.493-1.313c-.169-.398-.388-.8-.586-1.198l-.063-.106-.375.212.03.06c.202.423.42.884.632 1.27.17.369.311.75.42 1.143.085.364.207.757.304 1.138.05.324.16.635.32.92-.04.193-.055.39-.046.588-.004.18.02.36.072.533.093.238.109.498.046.745-.067.379-.042.768.072 1.135a2.55 2.55 0 0 0-.19.682c-.063.478-.13.97-.223 1.422a4.676 4.676 0 0 1-.287 1.122c-.18.424-.32.944-.501 1.38-.068.191-.135.365-.21.534l-.119.254c-.046.08-.1.16-.156.246-.215.304-.375.69-.598 1.016-.218.261-.374.57-.455.901a2.165 2.165 0 0 0-.96 1.148c-.471.208-.853.577-1.08 1.041a1.194 1.194 0 0 0-.475.212l-.422.326a3.93 3.93 0 0 1-.446.3 6.65 6.65 0 0 0-.843.623.366.366 0 0 1-.173.093c-.39.096-.747.299-1.032.584-.222.023-.44.07-.653.14l-.687.263c-.231.089-.476.135-.712.203-.147.04-.289.1-.421.178a.42.42 0 0 1-.287.08 1.972 1.972 0 0 0-1.125.212.26.26 0 0 1-.26.03 1.895 1.895 0 0 0-.654-.051c-.345 0-.636.19-.746.152a3.423 3.423 0 0 0-.842-.144c-.422 0-.877-.114-1.264-.123a3.893 3.893 0 0 1-1.167-.232c-.295-.098-.531 0-.712-.094a4.25 4.25 0 0 0-.696-.326 9.476 9.476 0 0 1-1.192-.503 1.73 1.73 0 0 0-.396-.132.909.909 0 0 1-.329-.182c-.295-.22-.615-.394-.922-.601-.308-.207-.611-.423-.927-.601a1.118 1.118 0 0 0-.21-.098.278.278 0 0 1-.186-.152c-.21-.333-.5-.606-.843-.796a.422.422 0 0 1-.168-.17 2.438 2.438 0 0 0-.38-.516c-.139-.131-.286-.25-.493-.423a2.018 2.018 0 0 0-.585-.83 2.77 2.77 0 0 1-.207-.237c-.118-.17-.143-.39-.299-.648a1.997 1.997 0 0 0-.261-.326.784.784 0 0 1-.173-.288 4.247 4.247 0 0 0-.295-.77 7.176 7.176 0 0 1-.358-.894c-.1-.306-.25-.592-.447-.847a2.444 2.444 0 0 0-.332-1.464 2.645 2.645 0 0 0-.19-1.503c.074-.16.106-.337.093-.513-.008-.354.003-.71.033-1.062v-.53c.01-.172.01-.344 0-.516a.455.455 0 0 1 0-.17c.076-.205.124-.42.144-.639a2.068 2.068 0 0 0 0-.58c.123-.178.209-.38.252-.593.144-.474.333-.952.46-1.405a9.37 9.37 0 0 1 .526-1.143c.25-.395.477-.802.683-1.22.211-.355.448-.695.708-1.016.32-.338.622-.694.901-1.067.28-.303.58-.586.898-.847.35-.27.741-.554 1.062-.846.339-.264.7-.498 1.078-.699.186-.11.384-.203.582-.305l.594-.305c.118-.059.227-.123.32-.178a1.1 1.1 0 0 0 .236-.169.303.303 0 0 1 .248-.093c.419-.037.82-.181 1.168-.42a.277.277 0 0 1 .257-.063c.197.009.395-.015.585-.072.337-.067.577-.237.72-.241.271.019.543.019.814 0 .421-.03.872-.047 1.264-.085.41-.02.82-.005 1.226.047h.034c.273.038.455-.042.636 0s.354.144.644.182l1.429.334c.369.095.73.215 1.083.36.42.22.901.424 1.335.606.354.167.697.36 1.024.576.376.295.767.57 1.171.825.334.25.65.523.944.817.287.336.593.654.919.953.308.333.59.69.842 1.067a31.282 31.282 0 0 0 .81 1.266l.391-.22z"/>
        <ellipse cx="19.811" cy="41.721" fill="#04B2A1" rx="7.453" ry="7.49"/>
        <path fill="#333" d="M26.607 37.876a2.94 2.94 0 0 0-.489-.762 1.692 1.692 0 0 1-.421-.546 3.804 3.804 0 0 0-.45-.495.517.517 0 0 0-.561-.182.705.705 0 0 0-.101-.386.32.32 0 0 0-.278-.135c-.211 0-.279-.038-.346-.246-.067-.207-.308-.237-.624-.17a.423.423 0 0 0-.257-.359 2.584 2.584 0 0 0-.75-.3 2.682 2.682 0 0 1-.627-.187 1.678 1.678 0 0 0-.818-.152 2.168 2.168 0 0 1-.661-.055c-.22-.04-.444-.05-.666-.03a.555.555 0 0 0-.543.267.467.467 0 0 0-.805.122.474.474 0 0 0-.788.225c-.097-.064-.21-.144-.329-.097-.41.073-.788.271-1.082.567-.03.042-.055.042-.097.05-.32.043-.422.128-.502.424a.487.487 0 0 0-.421.076l-.333.263-.303.292a.373.373 0 0 0-.122.254c0 .076-.022.102-.11.127a.42.42 0 0 0-.38.512c0 .093 0 .11-.092.115a.421.421 0 0 0-.316.199c-.126.156 0 .423-.08.453a.78.78 0 0 0-.392.321c-.13.21-.23.436-.295.674-.04.224-.121.44-.24.635-.097.156.101.33.025.423a.95.95 0 0 0-.24.39c-.055.24-.067.486-.105.732a.306.306 0 0 0 .038.237c.059.08.03.131 0 .216-.14.412-.14.858 0 1.27a.24.24 0 0 0 .114.11c.067.043.071.064.025.136a.425.425 0 0 0 .093.647c.046.039.067.056.042.128-.114.321-.072.478.248.66a.51.51 0 0 0-.03.423c.051.161.22.195.291.293.072.097-.029.266.043.423.071.157.32.157.324.296a.905.905 0 0 0 .135.466c.101.148.227.284.329.423.06.089.135.165.223.225.095.048.204.06.307.034-.038.423.144.626.573.584.026.423.198.572.653.512a.378.378 0 0 0 .118.33c.342.204.653.513 1.083.5a.076.076 0 0 1 .085.034.464.464 0 0 0 .674.148.452.452 0 0 0 .282.292c.264.09.539.147.817.17a1.85 1.85 0 0 1 .683.089c.261.052.53.052.792 0 .23-.063.469-.078.704-.043.266.013.532-.033.779-.135a1.78 1.78 0 0 1 .687-.182c.255-.047.5-.139.725-.271.195-.149.417-.26.653-.326.23-.103.448-.233.648-.386a.381.381 0 0 0 .207-.334c0-.093.03-.102.118-.093a.42.42 0 0 0 .51-.424c0-.101.03-.105.113-.097a.454.454 0 0 0 .35-.135c.14-.144.06-.424.14-.445.147-.064.324-.072.42-.241.164-.188.306-.394.422-.614.065-.228.183-.437.345-.61.068-.144-.046-.3 0-.39.047-.088.236-.13.291-.287.112-.258.192-.528.24-.805.008-.219.056-.434.143-.635.096-.271.129-.56.097-.847a2.008 2.008 0 0 1 0-.673c.041-.272.023-.55-.054-.813a1.837 1.837 0 0 1-.114-.703 1.95 1.95 0 0 0-.198-.728 1.979 1.979 0 0 1-.27-.728 3.818 3.818 0 0 0-.32-.66s-.03-.034-.042-.056l-.611.348v.033c.088.233.2.456.333.665.117.177.192.378.219.589.031.201.08.4.147.592.05.204.101.365.325.45-.194.232-.249.452-.11.605.14.152.143.228.025.385s-.063.343.148.597a.504.504 0 0 0-.244.343c-.034.25-.093.5-.11.74a1.11 1.11 0 0 1-.148.577c-.116.227-.203.47-.257.72a.984.984 0 0 1-.252.533 3.97 3.97 0 0 0-.316.52.518.518 0 0 0-.114.56c-.421.033-.56.19-.501.605a.458.458 0 0 0-.44.113.463.463 0 0 0-.13.437c-.113-.025-.244-.067-.336 0-.291.242-.662.343-.877.695-.025.042-.05.042-.092.042-.308 0-.388.064-.51.368a.533.533 0 0 0-.388-.042 4.682 4.682 0 0 1-.724.237.363.363 0 0 0-.211.161c-.038.064-.063.085-.148.047a.394.394 0 0 0-.581.14c-.055.076-.08.076-.14 0a.42.42 0 0 0-.328-.128c-.177 0-.324.25-.383.204a.761.761 0 0 0-.421-.2c-.22-.03-.44-.048-.662-.055a.927.927 0 0 1-.602-.127c-.144-.076-.308.14-.397.047a.843.843 0 0 0-.328-.267 4.122 4.122 0 0 1-.62-.25.298.298 0 0 0-.223-.03c-.088 0-.118-.029-.177-.092a2.012 2.012 0 0 0-.446-.36 2.646 2.646 0 0 0-.506-.275.252.252 0 0 0-.147 0c-.076 0-.093 0-.102-.08-.029-.297-.151-.386-.42-.424-.056 0-.08 0-.094-.085-.037-.334-.147-.394-.48-.466a.497.497 0 0 0-.076-.38c-.092-.115-.248-.12-.324-.204-.076-.085 0-.258-.068-.394-.067-.135-.316-.135-.307-.275a.778.778 0 0 0-.072-.423 2.93 2.93 0 0 1-.185-.462.533.533 0 0 0-.384-.423c.24-.356.165-.546-.164-.775.249-.334.21-.487-.101-.796.093-.072.194-.156.185-.275a4.02 4.02 0 0 1 .034-.55 1.62 1.62 0 0 0-.055-.547.077.077 0 0 1 0-.089.475.475 0 0 0 .135-.321.578.578 0 0 0-.118-.33.423.423 0 0 0 .253-.28c.099-.235.176-.479.232-.728.042-.209.13-.405.257-.576.154-.187.273-.4.35-.63.08-.201.206-.38.366-.526.21-.137.387-.319.518-.533a1.47 1.47 0 0 1 .464-.45c.206-.108.393-.251.552-.422.154-.166.346-.291.56-.365.202-.08.421-.203.61-.309a.46.46 0 0 0 .25-.27c0-.09.05-.09.126-.051a.42.42 0 0 0 .602-.25c.047-.085.072-.08.14-.03.1.068.224.09.34.06.173-.026.27-.276.355-.25a.84.84 0 0 0 .421.122c.221 0 .443-.016.661-.05a1.12 1.12 0 0 1 .637.03c.139.025.244-.132.34-.115.098.017.17.186.321.203.244.069.492.124.742.165.198.019.39.083.56.187.21.145.444.251.691.313.196.06.377.161.53.296.173.18.38.324.608.424.191.103.358.248.488.423.123.194.283.361.472.491.181.15.325.34.422.555a3.839 3.839 0 0 0 .42.652l.654-.318z"/>
        <path fill="#333" d="M20.443 40.171a1.302 1.302 0 0 0-1.73-.436 1.316 1.316 0 0 0-.55 1.706c.212.375.593.623 1.02.665l.636 2.286 1.138-.643 1.138-.644-1.618-1.732c.181-.383.169-.83-.034-1.202z"/>
        <path fill="#333" d="M20.258 40.277a.03.03 0 0 0 0 .021.484.484 0 0 0 .08.178.153.153 0 0 1 .038.16c-.022.051 0 .107 0 .157 0 .051.02.098.139.144-.148.043-.207.08-.135.14.071.06.059.089-.03.102-.088.012-.063.055 0 .156v.14h.034c-.038.072-.055.135 0 .174.055.038.088.13.16.165a.24.24 0 0 1 .13.135c.03.077.09.14.165.174a.203.203 0 0 1 .126.135c0 .064.085.093.123.148.037.055.096.077.21 0-.08.195-.03.246.165.174-.097.195 0 .254.164.174-.025.055-.063.122-.038.148.025.025.114.216.27.224v.026c0 .025 0 .097.038.11l.05-.343a.272.272 0 0 0-.021.14c-.05-.039-.105-.073-.147-.047l-.207.118c-.025 0-.038.03-.038.09 0 .033 0 .046-.038.029-.11-.06-.156-.021-.147.11 0 .05 0 .047-.038 0a.108.108 0 0 0-.13-.03c-.039.017-.026.17-.051.157-.026-.013-.127-.063-.177-.034-.05.03-.135.051-.177.115a.194.194 0 0 1-.169.088c-.055 0 0 .149-.059.132-.059-.017-.11-.043-.151 0l-.182.106a.072.072 0 0 0-.038.067c0 .043 0 .034-.05.034a.362.362 0 0 0-.32.161.136.136 0 0 0 0 .072c0 .038 0 .042-.034 0a.252.252 0 0 0-.101-.047l.316.132c0-.043 0-.072-.097-.102s-.038 0 0-.034c.093-.11.072-.148-.084-.19.05-.043.088-.085.076-.132-.013-.046-.097-.05-.114-.084s.063-.085.059-.136c-.004-.05-.143-.046-.114-.093.03-.046.059-.101.042-.148-.017-.047-.03-.102-.042-.152-.013-.051-.05-.11-.181-.11.168-.132.147-.204-.05-.238.151-.13.134-.186-.068-.233.05-.033.11-.076.097-.114-.03-.11 0-.237-.135-.317v-.026c.067-.084.038-.135-.059-.16l-.13-.115-.03.047c0-.072-.034-.119-.072-.127-.038-.009-.122-.06-.194-.051a.151.151 0 0 1-.147-.072.257.257 0 0 0-.156-.106.152.152 0 0 1-.118-.119.216.216 0 0 0-.11-.152.157.157 0 0 1-.075-.152.285.285 0 0 0-.055-.174.153.153 0 0 1-.025-.174.85.85 0 0 0 0-.177c0-.034 0-.068-.08-.102-.08-.034-.034-.03 0-.038.134-.03.151-.072.046-.17-.034-.033 0-.038 0-.038s.097 0 .114-.038-.076-.144-.042-.148c.033-.004.13 0 .155-.03.026-.03.089-.076.114-.13a.127.127 0 0 1 .13-.102c.03 0 0-.119.026-.132.025-.012.093.064.127.047.033-.017.13-.034.185-.076a.134.134 0 0 1 .147-.03.26.26 0 0 0 .203 0 .151.151 0 0 1 .156.021.248.248 0 0 0 .185.06.156.156 0 0 1 .147.08.228.228 0 0 0 .144.106.16.16 0 0 1 .126.131.56.56 0 0 0 .097.148l.37-.211a.461.461 0 0 0-.155-.22.355.355 0 0 1-.16-.166c-.034-.067-.114-.097-.173-.14-.059-.042-.135-.054-.22.039 0-.153-.058-.242-.142-.178-.085.063-.097.055-.131-.038s-.126-.055-.215.067c0-.08-.059-.135-.122-.135a.533.533 0 0 0-.27.03.39.39 0 0 1-.21.05.336.336 0 0 0-.249.115.299.299 0 0 1-.181.114c-.076 0-.118.093-.177.14a.157.157 0 0 0 0 .228c-.207-.046-.266.051-.14.216-.214 0-.24.132-.092.237-.063 0-.135 0-.143.055-.038.123-.11.271 0 .398v.034c-.08.102-.055.153.088.204-.05.042-.097.088-.08.143.025.09.06.176.101.259a.093.093 0 0 0 .093.05c.038 0 .05 0 .034.043-.046.118 0 .182.143.152.046 0 .046 0 .03.034a.123.123 0 0 0 0 .144c.046.055.177 0 .177 0s0 .148.059.182.139.11.219.106a.307.307 0 0 1 .215.076c.05.043.117-.097.143-.059a.283.283 0 0 0 .097.102l-.19-.161a.064.064 0 0 0 0 .03l.06.198a.063.063 0 0 0 .054.055c.042 0 .03.03 0 .06a.357.357 0 0 0 .08.347h.067c.026 0 .042 0 0 .038-.1.093-.092.144.034.186.025 0 .034 0 0 .034-.088.114-.072.153.084.19-.046.047-.084.09-.076.136.009.047.097.05.118.08.021.03-.067.085-.059.136.009.05.14.05.11.093a.183.183 0 0 0-.042.153.85.85 0 0 1 .042.148c0 .068.055.114.181.114-.164.131-.147.2.055.233l.143.06c.16.114.207.084.202-.124.047.043.102.085.135.068.097-.06.232-.06.274-.207h.021c.118.055.156 0 .143-.148.06.046.106.072.144.05.038-.02.156-.055.206-.122a.257.257 0 0 1 .173-.098.295.295 0 0 0 .194-.11.231.231 0 0 1 .177-.097.27.27 0 0 0 .198-.115.236.236 0 0 1 .172-.097.295.295 0 0 0 .194-.11.236.236 0 0 1 .089-.072.186.186 0 0 0 .084-.25.08.08 0 0 0 0-.038.424.424 0 0 1-.046-.085c-.026-.067-.093-.105-.144-.16a.11.11 0 0 0-.134 0c-.047 0-.047 0-.03-.034.05-.132 0-.187-.139-.14-.042 0-.042 0-.025-.034a.128.128 0 0 0 0-.135c-.034-.047-.169 0-.165 0 .005 0 .03-.136 0-.174-.03-.038-.084-.114-.147-.148a.194.194 0 0 1-.135-.148c-.025-.034-.122 0-.139 0-.017 0 .034-.11 0-.144-.034-.034-.093-.136-.168-.17a.207.207 0 0 1-.123-.135.317.317 0 0 0-.164-.174h-.034l.076.212a.348.348 0 0 1 .08-.157.353.353 0 0 0 .068-.262.353.353 0 0 1 .02-.237.323.323 0 0 0-.02-.25.425.425 0 0 1-.06-.25.5.5 0 0 0-.092-.224l-.025-.034-.358.199zM22.33 27.592s-.025-.05-.059 0c-.033.05-.046.042-.046 0s-.034 0-.046-.025c-.013-.026-.038.03-.093.216.042-.225.042-.314 0-.187s-.046.127-.03 0c.017-.127 0-.059-.08.149a.596.596 0 0 0 0-.216s-.033-.043-.058 0c-.026.042-.038.034-.047 0-.008-.034-.033-.055-.063 0s-.038.046-.042 0c-.004-.047-.034 0-.046-.026-.013-.025-.038.03-.076.225.03-.318 0-.318-.06 0 .034-.326 0-.284-.054 0 .007-.07.007-.142 0-.212-.03 0-.042-.119-.093.06 0-.136 0-.12-.059.092a.532.532 0 0 0 0-.186h-.059s0 .034-.03.093c-.029.06 0 .064 0 0 0-.165 0-.156-.05.038 0 .068 0 .06 0 0v-.152c0-.009-.046.22-.046.182v-.186c0 .008-.034-.047-.055 0-.02.046-.034.042-.046 0-.013-.043-.034.199-.038.14-.004-.06 0-.153 0-.149a.201.201 0 0 1-.05 0v.06c0 .059 0 .033 0 0 0-.132-.051-.102-.085-.026a.698.698 0 0 0 0 .093c0 .06 0 .06 0 0 0-.203 0-.207-.042-.034 0 .034 0 .051 0 0 0-.194-.025-.182-.055.047a.425.425 0 0 0 0-.178s-.025.127-.034.144c-.008.017 0-.14 0-.152 0-.013-.03.203-.033.13-.005-.071 0-.13-.03-.13a.042.042 0 0 1-.038 0s-.03.033-.042.237c0-.322-.03-.322-.059 0 0-.3-.03-.3-.059 0a.74.74 0 0 0 0-.204c-.025 0-.055-.101-.08.072 0 0 0 .026 0 0 0-.169-.034-.105-.046.102a.664.664 0 0 0-.025-.19s-.043-.047-.06 0c-.016.046-.029.042-.046 0-.017-.043-.038-.047-.055 0-.016.046-.033.046-.05 0-.017-.047-.038-.055-.055 0s-.034.042-.05 0c-.017-.043-.038-.051-.055 0-.017.05-.03.046-.05 0-.022-.047-.035 0-.051 0-.017 0 0 .038 0 .148 0 .11 0 .063 0 0-.026-.208-.043-.208-.047 0 0 .072 0 .059 0 0a.336.336 0 0 0-.03-.148v.186c0-.043-.029-.186-.041-.182-.013.004-.034-.03-.05 0-.018.03-.026.072-.047 0v.16c0-.004-.026-.16-.038-.156-.013.004-.038-.034-.055 0s-.025.047-.046 0c-.021-.047-.042-.05-.06 0-.016.05-.025.047-.041 0-.017-.047-.047-.055-.06 0-.012.055-.029.042-.05 0s-.038-.047-.05 0c-.013.047-.034.047-.055 0-.021-.047-.038 0-.055 0l-.22.669s.039.038.051 0c.013-.038 0-.055.043 0 .042.055.029 0 .046 0 .017 0 0-.042 0-.237.03.228.05.313.055.173.004-.14 0-.13.025 0 .025.132.03.051.034-.165 0 .073.012.144.038.212 0 0 .037.034.054 0s.026-.047.042 0c.017.047.038.042.055 0s.026-.055.042 0c.017.055.03 0 .047 0s.025-.034.025-.229c.034.314.05.31.055 0 .033.326.055.276.059 0 .002.072.01.142.025.212.025 0 .059.106.076-.076 0-.026 0 0 0 0 .025.131.03.114.042-.102a.66.66 0 0 0 .03.182h.054v-.097c0-.064 0-.064 0 0 0 .165.034.152.042-.042 0-.072 0-.064 0 0a.383.383 0 0 0 .026.148s0-.225.025-.186c.025.038 0 .19.034.186.033-.004.033.038.046 0 .013-.038.03-.043.046 0 .017.042 0-.2.026-.144.025.055 0 .152.03.148a.084.084 0 0 1 .045 0v-.063c0-.064 0-.034 0 0 .026.13.051.101.08 0a.425.425 0 0 0 0-.094c0-.063 0-.059 0 0 0 .204 0 .208.043.03 0-.034 0-.05 0 0 0 .195.025.182.05-.042a.65.65 0 0 0 0 .173s0-.127.03-.144c.03-.017 0 .14.02.153.022.012.03-.203.034-.136.005.068 0 .136.026.136a.042.042 0 0 1 .038 0s.03-.03.046-.233c0 .317 0 .322.055 0 0 .3 0 .3.055 0a.97.97 0 0 0 0 .203c.025 0 .046.106.084-.068 0 0 0-.025 0 0 0 .17.025.11.055-.093v.19c0 .005.033.047.054 0 .021-.046.034-.037.043 0 .008.039.033.047.054 0 .021-.046.034-.046.042 0 .009.047.03.06.051 0 .021-.059.038-.037.046 0 .009.039.03.056.05 0 .022-.054.039-.042.047 0 .009.043.03 0 .047 0 .016 0 0-.033.042-.143.042-.11 0-.06 0 0 0 .207 0 .211.042 0 0-.072 0-.06 0 0a.476.476 0 0 0 0 .148s.059-.22.059-.178v.186s.025.039.046 0c.021-.038.042-.063.042 0 0 0 .047-.156.05-.148.005.009 0 .161 0 .161s.03.042.056 0c.025-.042.033-.038.038 0 .004.038.025.06.054 0 .03-.06.034-.038.038 0 .004.038 0 .064.05 0 .051-.063.039-.03.043 0 .004.03 0 .055.046 0 .047-.055.038-.034.042 0 .005.034.026 0 .043 0l.412-.525z"/>
        <path fill="#FFE029" stroke="#FFE029" stroke-linejoin="round" stroke-width=".681" d="M33.226 58.283l-16.01 8.045a2.385 2.385 0 0 0-1.058 3.192l8.751 17.609c.28.565.773.995 1.368 1.195.596.2 1.247.154 1.809-.128l15.913-7.99c-3.67-7.273-7.297-14.56-10.773-21.923z"/>
        <path fill="#FFD00B" stroke="#FFD00B" stroke-linejoin="round" stroke-width=".681" d="M48.735 50.502l-15.509 7.781c3.476 7.363 7.104 14.65 10.782 21.91l15.59-7.823a2.39 2.39 0 0 0 1.06-3.197l-8.746-17.604a2.371 2.371 0 0 0-1.368-1.195 2.357 2.357 0 0 0-1.809.128z"/>
        <path fill="#F9C900" d="M18.183 73.186l35.44-17.787 1.727 3.477-35.439 17.787z"/>
        <g fill="#333">
            <path d="M52.082 56.177l.128-.064 1.728 3.477-.128.065zM49.685 57.38l.129-.065 1.728 3.477-.128.065zM47.3 58.58l.127-.065 1.729 3.477-.129.065zM44.903 59.778l.128-.065 1.729 3.478-.129.064zM42.515 60.978l.128-.064 1.728 3.477-.128.064zM40.12 62.18l.129-.064 1.728 3.477-.128.064zM37.733 63.376l.128-.064 1.728 3.477-.128.064zM35.339 64.578l.128-.064 1.728 3.477-.128.064zM32.95 65.778l.129-.064 1.728 3.477-.128.065zM30.556 66.98l.128-.064 1.729 3.477-.129.064zM28.168 68.177l.128-.065 1.729 3.477-.129.065zM25.774 69.383l.128-.065 1.728 3.477-.128.065zM23.386 70.579l.128-.065 1.728 3.478-.128.064zM20.996 71.78l.128-.064 1.728 3.477-.128.065zM18.604 72.981l.128-.064 1.728 3.477-.128.064zM52.94 55.748l.129-.064 1.728 3.477-.128.064zM50.548 56.944l.129-.064 1.728 3.477-.128.064zM48.157 58.147l.128-.065 1.728 3.477-.128.065zM45.766 59.347l.128-.065 1.729 3.477-.129.065zM43.374 60.545l.128-.065 1.729 3.477-.129.065zM40.984 61.749l.128-.065 1.728 3.478-.128.064zM38.592 62.947l.128-.064 1.728 3.477-.128.064zM36.206 64.147l.128-.064 1.728 3.477-.128.064zM33.81 65.345l.128-.064 1.728 3.477-.128.064zM31.422 66.545l.128-.064 1.728 3.477-.128.064zM29.027 67.747l.129-.064 1.728 3.477-.128.064zM26.64 68.943l.127-.064 1.729 3.477-.128.064zM24.245 70.15l.128-.065 1.728 3.477-.128.065zM21.857 71.346l.128-.065 1.728 3.477-.128.065zM19.463 72.547l.128-.064 1.728 3.477-.128.065zM53.661 55.366l.128-.065 2.433 4.894-.129.064zM51.253 56.535l.128-.064 1.753 3.526-.128.064zM48.861 57.733l.129-.064 1.752 3.526-.128.065zM46.47 58.93l.127-.065 1.753 3.526-.128.065zM44.08 60.131l.127-.064 1.753 3.526-.128.065zM41.687 61.332l.128-.065 1.753 3.527-.128.064zM39.297 62.533l.128-.064 1.753 3.527-.128.064zM36.906 63.731l.128-.064 1.905 3.833-.128.064zM34.515 64.936l.128-.065 1.752 3.527-.128.064zM32.126 66.132l.129-.064 1.752 3.526-.128.064zM29.732 67.334l.128-.065 1.753 3.527-.128.064zM27.365 68.578l.129-.064 1.728 3.477-.128.064zM24.95 69.736l.128-.064 1.753 3.526-.128.064zM22.562 70.932l.128-.064 1.753 3.526-.128.065zM20.166 72.13l.128-.064 1.753 3.526-.129.065z"/>
        </g>
        <path stroke="#F9C900" stroke-linejoin="round" stroke-width=".681" d="M18.183 73.186l35.44-17.787 1.727 3.477-35.439 17.787z"/>
        <path fill="#FFE861" stroke="#FFE861" stroke-linejoin="round" stroke-width=".681" d="M48.554 68.165a.499.499 0 0 0-.223.674l1.967 3.958c.018.037.04.071.068.102.842-2.287 1.651-4.59 2.528-6.901l-4.34 2.167z"/>
        <path fill="#FFE861" stroke="#FFE861" stroke-linejoin="round" stroke-width=".681" d="M53.509 65.672l-.649.326c-.843 2.311-1.685 4.614-2.528 6.9.148.178.397.23.603.128l4.967-2.494a.51.51 0 0 0 .228-.677l-1.968-3.959a.504.504 0 0 0-.653-.224z"/>
        <path fill="#333" d="M55.236 58.643h-.03a.534.534 0 0 0-.23.123.236.236 0 0 1-.203.098c-.076 0-.13.063-.198.088-.068.026-.105.085-.076.238-.139-.123-.236-.149-.244-.03-.009.118-.03.127-.123.063-.092-.063-.126 0-.13.2-.068-.068-.13-.115-.186-.085a.677.677 0 0 0-.231.122.24.24 0 0 1-.19.098.362.362 0 0 0-.24.123.202.202 0 0 1-.185.093c-.076 0-.131.06-.198.084-.068.026-.118.085-.089.238-.19-.17-.265-.127-.244.118-.181-.182-.278-.093-.24.127-.055-.05-.114-.118-.152-.101-.118.059-.274.046-.329.228h-.033c-.131-.046-.16 0-.16.165-.06-.046-.123-.093-.17-.072l-.243.123a.115.115 0 0 0-.043.106c0 .042 0 .055-.046.03-.122-.077-.181-.039-.173.122 0 .06 0 .055-.042.022-.042-.034-.11-.068-.152-.051-.042.017-.029.203-.063.186-.033-.017-.143-.089-.198-.055-.055.034-.16.047-.206.114a.202.202 0 0 1-.198.093c-.068 0 0 .178-.072.157-.071-.021-.126-.063-.173-.038l-.21.11a.072.072 0 0 0-.047.076c0 .051-.025.043-.063.034a.379.379 0 0 0-.366.17v.08c0 .03 0 .05-.038.025-.135-.106-.19-.08-.203.077 0 .03 0 .042-.037.025-.148-.089-.186-.06-.19.135-.063-.05-.118-.088-.169-.063-.05.025-.033.123-.063.152-.03.03-.114-.059-.164-.042-.05.017 0 .178-.08.152-.08-.025-.127-.05-.177-.02-.05.029-.101.054-.156.075-.055.022-.114.085-.08.238-.19-.17-.261-.136-.249.114-.19-.161-.244-.131-.248.123-.05-.055-.114-.115-.148-.094-.118.06-.27.047-.32.22 0 0 0 .026-.03 0-.13-.076-.176 0-.164.17-.067-.063-.122-.097-.168-.076-.047.021-.181.05-.24.127a.24.24 0 0 1-.198.097.337.337 0 0 0-.228.119.248.248 0 0 1-.206.101.286.286 0 0 0-.228.115.252.252 0 0 1-.206.101.311.311 0 0 0-.224.115.27.27 0 0 1-.21.101.702.702 0 0 0-.22.106c-.046.021-.071.064-.058.152.012.09 0 .056-.043 0-.134-.11-.206-.071-.198.102 0 .06 0 .055-.046 0s-.105-.063-.147-.046c-.042.016-.026.199-.064.182-.037-.017-.139-.085-.193-.055-.055.03-.156.05-.207.114a.206.206 0 0 1-.206.097c-.047.021 0 .148-.05.161-.051.013-.115-.08-.165-.055s-.173.06-.236.131a.219.219 0 0 1-.185.093.328.328 0 0 0-.245.123.24.24 0 0 1-.19.098.311.311 0 0 0-.235.114.244.244 0 0 1-.207.102.315.315 0 0 0-.219.11.27.27 0 0 1-.223.11.626.626 0 0 0-.215.101l.236.47a.572.572 0 0 0 .236-.122.24.24 0 0 1 .198-.102c.08 0 .13-.06.198-.089.067-.03.11-.085.08-.237.135.127.236.148.24.03.004-.119.03-.123.122-.06.093.064.13 0 .13-.203.072.072.136.114.186.089.05-.025.173-.055.232-.127a.257.257 0 0 1 .19-.093.332.332 0 0 0 .24-.127.231.231 0 0 1 .19-.093c.075 0 .13-.06.197-.085.068-.025.114-.085.085-.237.193.17.27.131.244-.119.185.182.278.093.244-.122.05.05.114.114.152.097.118-.055.274-.047.324-.225 0-.02 0 0 .034 0 .135.047.16 0 .16-.165.063.047.122.094.173.068l.24-.123a.102.102 0 0 0 .046-.101c0-.047 0-.06.043-.034.126.08.18.038.172-.123 0-.055 0-.055.047 0a.147.147 0 0 0 .147.05c.063-.02.034-.202.063-.185.03.017.144.089.203.055.059-.034.156-.047.206-.119a.21.21 0 0 1 .198-.093c.063 0 0-.174.068-.152.067.02.126.063.176.038.068-.041.139-.078.211-.11a.076.076 0 0 0 .046-.077c0-.055.026-.042.06-.038a.387.387 0 0 0 .37-.165.17.17 0 0 0 0-.085c0-.046 0-.05.038 0 .13.102.186.08.202-.076 0-.03 0-.046.034-.025.148.089.185.06.194-.136.059.051.118.085.164.064.047-.021.034-.127.063-.157.03-.03.114.064.169.047.055-.017 0-.182.076-.153a.197.197 0 0 0 .177 0c.051-.03.105-.057.16-.08.067-.026.114-.085.08-.237.19.173.261.135.248-.11.186.156.245.127.245-.127.055.059.114.114.152.097.113-.06.265-.05.32-.224 0 0 0-.026.025 0 .135.076.177 0 .169-.165.063.059.122.097.164.076.042-.021.181-.055.24-.131a.265.265 0 0 1 .202-.098.311.311 0 0 0 .228-.118.236.236 0 0 1 .202-.098c.09 0 .174-.042.228-.114a.257.257 0 0 1 .206-.106.315.315 0 0 0 .223-.11.265.265 0 0 1 .215-.106c.084 0 .143-.068.22-.101.075-.034.067-.068.054-.153-.013-.085 0-.055.046-.025.131.11.203.076.198-.102 0-.055 0-.05.043 0a.151.151 0 0 0 .151.05c.06-.02.026-.202.063-.185.038.017.14.089.194.055.055-.034.152-.047.207-.11a.198.198 0 0 1 .202-.098c.046-.021 0-.148.05-.156.051-.009.114.076.16.05.047-.025.178-.059.237-.13a.257.257 0 0 1 .19-.094.311.311 0 0 0 .24-.119.256.256 0 0 1 .202-.05.315.315 0 0 0 .235-.119.265.265 0 0 1 .207-.102.282.282 0 0 0 .215-.11.294.294 0 0 1 .223-.11.56.56 0 0 0 .215-.101.055.055 0 0 0 .03-.026l-.24-.487zM42.331 61.361h.025c.068-.025.144-.033.186-.097a.16.16 0 0 1 .164-.08c.063 0 .101-.051.16-.072.06-.021.084-.072.046-.22.127.13.211.16.207.046-.004-.114 0-.114.097-.046.097.067.11 0 .097-.187.063.072.122.123.16.102.038-.021.143-.042.19-.106a.164.164 0 0 1 .151-.076c.078 0 .15-.038.194-.102a.135.135 0 0 1 .147-.072c.068 0 .106-.046.165-.068.059-.02.088-.072.054-.22.173.178.232.144.194-.097.169.19.245.114.194-.102.05.055.105.123.14.11.033-.012.227-.025.256-.19 0-.021 0 0 .03 0 .113.055.134.03.122-.144.055.05.11.097.147.08l.194-.101c.025 0 .034-.043.03-.093-.005-.051 0-.055.033-.03.114.085.156.05.14-.102 0-.055 0-.055.033 0 .034.055.097.072.13.06.034-.013 0-.19.039-.174.037.017.13.097.172.068.042-.03.13-.03.165-.093.03-.061.099-.092.164-.072.055 0 0-.17.046-.144.047.025.11.072.148.046l.168-.089s.038-.025.038-.067c0-.043 0-.038.047-.03a.257.257 0 0 0 .299-.131v-.08c0-.03 0-.047.03 0 .121.105.164.088.164-.06 0-.03 0-.042.029 0 .13.097.16.072.152-.114.054.05.105.093.147.072.042-.021 0-.115.038-.144.038-.03.101.072.143.055.042-.017 0-.17.055-.136s.114.055.152.034a.589.589 0 0 1 .126-.063c.06 0 .089-.077.05-.225.173.182.232.153.203-.084.169.165.215.14.198-.102.046.055.105.119.135.102.03-.017.219-.026.253-.187 0 0 0-.025 0 0 .113.085.147 0 .126-.148.059.068.11.106.147.085.038-.021.148-.034.19-.102a.168.168 0 0 1 .16-.08.215.215 0 0 0 .186-.093.16.16 0 0 1 .164-.08.194.194 0 0 0 .185-.094.164.164 0 0 1 .165-.085c.071.004.14-.03.18-.089a.177.177 0 0 1 .17-.084c.07 0 .117-.055.176-.08.06-.026.055-.06.038-.145-.017-.084 0-.05.034 0 .122.115.181.085.16-.08 0-.055 0-.05.038 0s.093.068.13.055c.038-.013 0-.19.038-.17.038.022.123.094.165.068.042-.025.13-.038.168-.093.038-.055.085-.101.165-.076.038 0 0-.14.033-.144.034-.004.101.08.14.06.037-.022.143-.043.189-.107a.156.156 0 0 1 .152-.076c.076.005.15-.03.193-.093a.156.156 0 0 1 .156-.08.21.21 0 0 0 .19-.094.156.156 0 0 1 .164-.08.202.202 0 0 0 .177-.093.185.185 0 0 1 .177-.085.42.42 0 0 0 .173-.08l-.236-.474c-.067.03-.143.038-.19.101a.151.151 0 0 1-.16.08c-.063 0-.105.047-.16.068-.055.022-.084.077-.046.22-.127-.126-.21-.156-.207-.046.005.11 0 .119-.1.05-.102-.067-.106 0-.093.183-.064-.072-.123-.119-.165-.098-.042.022-.139.043-.185.102a.168.168 0 0 1-.152.08.223.223 0 0 0-.194.098.147.147 0 0 1-.151.076c-.064 0-.106.047-.16.064-.055.017-.089.076-.055.224-.173-.178-.232-.148-.194.093-.173-.19-.244-.11-.198.102-.046-.055-.105-.123-.135-.106-.097.042-.227 0-.257.19 0 .022 0 0-.03 0-.113-.055-.134-.025-.122.149-.054-.051-.11-.102-.147-.08l-.194.097c-.025 0-.034.046-.03.097.005.05 0 .055-.037.025-.11-.084-.156-.05-.135.106 0 .055 0 .051-.038 0-.038-.05-.093-.068-.13-.06-.039.01 0 .196-.034.175-.034-.022-.13-.094-.177-.068-.047.025-.13.03-.165.097a.135.135 0 0 1-.16.072c-.054 0 0 .165-.046.144-.046-.021-.11-.072-.148-.05a1.682 1.682 0 0 1-.172.088.06.06 0 0 0-.034.068c0 .055 0 .042-.046.034a.257.257 0 0 0-.3.131.123.123 0 0 0 0 .076c0 .051 0 .051-.033 0-.118-.11-.164-.093-.164.055 0 .03 0 .047-.026 0-.135-.093-.164-.067-.151.119-.055-.055-.11-.093-.148-.076-.038.017 0 .118-.038.144-.038.025-.1-.068-.147-.055-.047.012 0 .169-.05.14-.051-.03-.115-.056-.153-.035a1.261 1.261 0 0 1-.13.064c-.055 0-.089.072-.046.224-.173-.182-.232-.152-.203.085-.168-.165-.215-.144-.198.102-.046-.06-.105-.119-.135-.102-.03.017-.223.025-.252.186 0 0 0 .026 0 0-.118-.08-.148 0-.127.148-.063-.063-.11-.101-.147-.084-.038.017-.148.038-.19.106a.168.168 0 0 1-.164.076.215.215 0 0 0-.181.097.172.172 0 0 1-.165.08.185.185 0 0 0-.185.094.168.168 0 0 1-.164.08.231.231 0 0 0-.182.09.172.172 0 0 1-.168.084c-.072 0-.122.055-.181.084-.06.03-.05.056-.034.14.017.085 0 .055-.038.021-.118-.118-.177-.089-.156.08 0 .056 0 .052-.038 0-.038-.05-.092-.067-.13-.058-.038.008 0 .19-.038.173-.038-.017-.127-.093-.169-.068-.042.026-.126.034-.164.094a.143.143 0 0 1-.164.076c-.038 0 0 .14-.034.148-.034.008-.101-.085-.14-.064-.037.022-.142.043-.189.11a.156.156 0 0 1-.151.072.223.223 0 0 0-.194.098.173.173 0 0 1-.156.08.202.202 0 0 0-.19.093.172.172 0 0 1-.168.08.194.194 0 0 0-.173.09.185.185 0 0 1-.181.089.34.34 0 0 0-.173.08.05.05 0 0 0-.02 0l.235.44z"/>
    </g>
</svg>
