<svg xmlns="http://www.w3.org/2000/svg" xmlns:xlink="http://www.w3.org/1999/xlink" width="81" height="105" viewBox="0 0 81 105">
    <defs>
        <ellipse id="a" cx="40.608" cy="40.046" rx="39.932" ry="39.854"/>
    </defs>
    <g fill="none" fill-rule="evenodd" transform="translate(-1)">
        <ellipse cx="41.5" cy="97.882" fill="#F0F0F0" rx="33.727" ry="7.118"/>
        <g transform="translate(.897 .686)">
            <mask id="b" fill="#fff">
                <use xlink:href="#a"/>
            </mask>
            <use fill="#F0F0F0" xlink:href="#a"/>
            <path fill="#00BFB3" stroke="#00BFB3" stroke-width=".5" d="M35.888 58.597s-18.78 1.18-20.097-5.055c-1.317-6.234-.465-44.713 24.868-43.398C65.993 11.459 64.401 48 62.664 53.817c-1.736 5.816-19.402 4.799-19.402 4.799l-7.374-.019z" mask="url(#b)"/>
            <path fill="#F4CC21" stroke="#F4CC21" stroke-linejoin="round" stroke-width=".511" d="M36.321 56.251h7.155v5.993h-7.155z" mask="url(#b)"/>
            <path fill="#F4CC21" stroke="#F4CC21" stroke-linejoin="round" stroke-width=".511" d="M45.59 16.453a17.517 17.517 0 0 1 11.307 16.382v6.263c0 9.671-7.856 17.51-17.546 17.51s-17.545-7.839-17.545-17.51" mask="url(#b)"/>
            <path fill="#00BFB3" d="M18.026 41.881C33.388 39.985 52.53 19.557 52.53 19.557l-5.968-5.278-28.536 27.602z" mask="url(#b)"/>
            <path fill="#00BFB3" d="M18.43 41.686l.131-.116c.368-.349.782-.716 1.066-1.018.294-.303.605-.59.931-.86.335-.283.591-.557.899-.84.307-.284.502-.502.428-.581a3.443 3.443 0 0 0 1.029-.86c.06-.167.172-.278.558-.53.3-.158.526-.426.634-.747.284-.15.548-.336.786-.553.359-.34.778-.692 1.062-1.008.264-.293.55-.565.856-.813.392-.315.757-.66 1.094-1.032.253-.297.537-.566.847-.803.34-.26.592-.549.899-.827.307-.28.53-.54.465-.716.796-.348 1.132-.655 1.104-1.055.758-.278 1.196-.743 1.098-1.059.231-.059.448-.163.638-.306.535-.502 1.206-.98 1.485-1.524a.354.354 0 0 1 .158-.135c.559-.325.685-.465.75-.874.26-.078.502-.21.707-.39L37.15 24a.701.701 0 0 0 .228-.377c0-.102.042-.149.205-.218.508-.205.759-.465.796-.832 0-.125.051-.153.2-.186.233-.06.446-.178.62-.344.265-.232.218-.59.344-.645.306-.096.588-.254.829-.465.333-.286.644-.596.93-.93.246-.327.547-.61.89-.835.27-.19.167-.516.372-.614.262-.1.504-.245.717-.427l.931-.93a.832.832 0 0 0 .247-.348c.037-.148.13-.19.27-.274a6.558 6.558 0 0 0 1.648-1.556.464.464 0 0 0 .074-.242c0-.12.042-.149.177-.176l.21-.06h-.517c.142.334.443.576.8.645a.21.21 0 0 1 .192.153c.137.458.542.785 1.019.823.055.24.182.456.363.622.224.2.466.195.652.32.186.126.19.414.414.633.224.218.582.167.694.38.122.27.298.512.517.711.25.219.502.437.744.66.159.163.347.294.554.386l-.028-.581a.751.751 0 0 0-.06.39 1.135 1.135 0 0 0-1.09 1.078c-.66.112-.93.372-1.103 1.092a.732.732 0 0 0-.554.172c-.521.506-1.154.93-1.508 1.561a.2.2 0 0 1-.126.12 1.2 1.2 0 0 0-.842.953c-.24 0-.47.091-.643.256-.398.315-.774.656-1.126 1.022a4.56 4.56 0 0 1-.931.822 5.532 5.532 0 0 0-1.09.93c-.287.317-.62.591-.986.812-.414.257-.79.57-1.118.93a4.077 4.077 0 0 1-1.01.799c-.398.245-.77.531-1.108.855-.311.318-.67.587-1.061.799-.387.241-.759.507-1.113.794a.962.962 0 0 0-.433.54c-.032.139-.079.152-.223.157-.458-.005-.87.28-1.024.711-.06.149-.107.163-.233.149a1.016 1.016 0 0 0-.628.195c-.303.186-.368.58-.522.618-.29.024-.57.11-.824.25-.368.251-.791.437-1.122.707a3.083 3.083 0 0 1-1.089.636.06.06 0 0 0-.033 0c-.251.135-.293.41-.465.493-.172.083-.433 0-.698.158-.456.216-.899.458-1.327.724a4.16 4.16 0 0 1-1.052.512 6.728 6.728 0 0 0-1.369.622 3.504 3.504 0 0 1-1.112.465 6.917 6.917 0 0 0-1.369.515c-.379.202-.79.335-1.215.395a5.37 5.37 0 0 0-1.294.372 4.9 4.9 0 0 1-1.346.302.569.569 0 0 0-.381.107 3.655 3.655 0 0 1-.466.316l-.116.06-.82.39h.075a9.3 9.3 0 0 0 .973.112c.337.015.674-.028.996-.125.4-.157.82-.253 1.248-.284a7.66 7.66 0 0 0 1.2-.32c.367-.045.689-.265.862-.59.39.18.848.116 1.173-.163a.67.67 0 0 1 .726-.288c.34.042.685-.186 1.001-.641.252.093.531.08.773-.037.47-.18.923-.398 1.355-.656.338-.22.698-.404 1.075-.548.48-.18.934-.427 1.345-.734.312-.248.66-.446 1.034-.585a8.551 8.551 0 0 0 1.061-.614 1.25 1.25 0 0 0 .726-.799 1.117 1.117 0 0 0 1.29-.827 1.154 1.154 0 0 0 1.275-.864c.196.049.403.02.578-.079.61-.418 1.312-.752 1.75-1.394.039-.056.1-.095.167-.106.437-.086.788-.412.904-.841.247-.001.488-.079.689-.223l1.21-.93a.897.897 0 0 0 .302-.4.251.251 0 0 1 .229-.204c.426-.059.775-.369.884-.785.042-.153.084-.172.214-.172a.997.997 0 0 0 .61-.255c.289-.219.326-.646.442-.683.302-.06.585-.193.824-.386.354-.272.687-.57.996-.892a3.67 3.67 0 0 1 .931-.813c.275-.176.224-.543.429-.632.26-.083.502-.215.712-.39l.982-.93a.804.804 0 0 0 .26-.352c.047-.154.14-.19.28-.274.64-.413 1.2-.937 1.653-1.548a.464.464 0 0 0 .079-.246c0-.12.037-.148.172-.181.436-.071.785-.4.88-.832.033-.093.042-.139.168-.18.29-.078.541-.264.698-.521l.27-.465-.303-.148a1.865 1.865 0 0 0-.465-.154 1.198 1.198 0 0 0-.359-.622c-.228-.2-.465-.195-.656-.32-.19-.126-.19-.414-.414-.633-.224-.218-.582-.167-.694-.38a2.124 2.124 0 0 0-.521-.688c-.252-.219-.503-.437-.745-.66a1.174 1.174 0 0 0-.931-.432 1.13 1.13 0 0 0-1.136-1.036 2.482 2.482 0 0 0-.08-.274l-.041-.116-.424.125c-.465.135-.684.423-.838 1.027a.76.76 0 0 0-.568.18c-.526.517-1.173.93-1.508 1.595a.2.2 0 0 1-.12.125 1.167 1.167 0 0 0-.843.943c-.252.03-.488.14-.67.316-.39.337-.757.699-1.1 1.083-.267.337-.58.636-.93.887a5.93 5.93 0 0 0-1.025 1.027 4.79 4.79 0 0 1-.93.929 5.34 5.34 0 0 0-1.048 1.022 5.046 5.046 0 0 1-.931.93 6.302 6.302 0 0 0-1.02.998c-.283.348-.608.66-.968.93-.372.297-.666.645-1 .97-.2.195-.322.377-.299.516.024.14-.032.126-.195.19-.554.233-.885.567-.899.888 0 .107-.055.135-.21.19-.24.099-.458.244-.642.428-.274.25-.167.464-.325.571a3.92 3.92 0 0 0-.834.576c-.316.316-.698.646-.93.93a5.33 5.33 0 0 1-.932.906l-.028.023c-.214.204-.12.32-.265.464-.144.144-.466.288-.698.502-.354.363-.787.744-1.076 1.083a6.883 6.883 0 0 1-.847.836c-.39.332-.754.694-1.09 1.083-.27.305-.56.593-.87.86-.377.324-.732.675-1.061 1.05-.29.328-.601.639-.931.928-.343.304-.668.626-.973.967-.32.341-.66.666-1.015.97-.354.326-.647.637-.963.93l-.14.149.81-.372z" mask="url(#b)"/>
            <path fill="#17787A" d="M15.61 80.959l2.793-11.55a5.878 5.878 0 0 1 5.884-5.868l12.057-1.297 3.491 1.58 3.664-1.58 11.512 1.297a5.878 5.878 0 0 1 5.88 5.868l2.635 11.55" mask="url(#b)"/>
            <path fill="#17787A" d="M63.986 80.847a.696.696 0 0 0 0-.135 6.67 6.67 0 0 0-.284-1.194 2.51 2.51 0 0 1-.228-1.008 6.285 6.285 0 0 0-.205-.985.86.86 0 0 0-.507-.72c.247-.376.284-.762.037-.976a.437.437 0 0 1-.14-.622c.122-.279-.05-.572-.437-.883a.714.714 0 0 0 .163-.641 7.208 7.208 0 0 0-.289-1.194 2.709 2.709 0 0 1-.218-.957 3.683 3.683 0 0 0-.284-1.222 2.273 2.273 0 0 1-.215-.93v-.069.112a3.96 3.96 0 0 0-.074-1.013.864.864 0 0 0-.517-.804.76.76 0 0 0-.521-1.19.765.765 0 0 0-.773-1.05c0-.171.056-.394-.102-.53-.466-.464-.973-.98-1.658-1.03a.196.196 0 0 1-.158-.089.931.931 0 0 0-.465-.316.863.863 0 0 0-.564.103.74.74 0 0 0-.53-.377 7.28 7.28 0 0 0-1.006-.088h.023l-.33-.037a.61.61 0 0 0-.41.093.172.172 0 0 1-.256 0 .709.709 0 0 0-.973-.051c-.116.088-.149.074-.223-.028a.708.708 0 0 0-.494-.27c-.293-.046-.577.256-.665.19a1.267 1.267 0 0 0-.685-.343 6.007 6.007 0 0 0-1.098-.102 2.234 2.234 0 0 1-1.01-.126c-.256-.088-.466.233-.624.135-.184-.143-.4-.24-.629-.283L46.54 62.1a.56.56 0 0 0-.363.047c-.121.074-.191.028-.322-.023a4.043 4.043 0 0 0-1.862-.242.373.373 0 0 0-.204.112c-.084.079-.117.074-.205 0l-.07-.07h-.186a.703.703 0 0 0-.834.38c-.05.075-.07.112-.181.094-.508-.084-.703.023-.968.488a.802.802 0 0 0-.615 0c-.233.093-.293.325-.465.418-.173.093-.396-.047-.638.042h-.037.419c-.233-.089-.494.088-.62-.07a1.363 1.363 0 0 0-.558-.465c-.252-.111-.503-.218-.75-.339a.816.816 0 0 0-.884-.032c-.154-.428-.368-.628-.698-.632l-.242-.037a1.312 1.312 0 0 0-.345.297c-.493-.372-.796-.34-1.275.144a.554.554 0 0 0-.466-.242c-.6.065-1.229 0-1.778.293a.14.14 0 0 1-.14.023.788.788 0 0 0-1.024.251.699.699 0 0 0-.563-.209c-.416.02-.829.078-1.234.172a2.859 2.859 0 0 1-1.029.107c-.4-.025-.801.02-1.187.13-.34.107-.697.145-1.052.111-.398-.033-.8.01-1.182.126a2.42 2.42 0 0 1-.778.12h.051l-.307-.023a2.104 2.104 0 0 0-.638 0 1.8 1.8 0 0 0-.61.168c-.19.083-.372.144-.553.218-.182.074-.373.107-.568.172-.39.14-.753.348-1.07.613a.641.641 0 0 0-.327.53c0 .14-.037.153-.177.158a.717.717 0 0 0-.707.822c0 .149 0 .167-.15.181a.75.75 0 0 0-.465.367c-.172.28.037.642-.07.725-.176.177-.41.298-.465.604-.128.38-.199.776-.21 1.176.026.201.035.405.028.608v-.102c-.035.164-.096.32-.181.465v.028c-.06.227.14.427.093.576-.047.148-.298.255-.35.497a8.293 8.293 0 0 0-.274 1.226 2.556 2.556 0 0 1-.233.93 3.67 3.67 0 0 0-.293 1.217 2.695 2.695 0 0 1-.228.975 3.326 3.326 0 0 0-.289 1.19c-.017.358-.104.71-.256 1.036a3.2 3.2 0 0 0-.26 1.096c-.019.39-.112.771-.275 1.125a6.768 6.768 0 0 0-.265 1.068.751.751 0 0 0 0 .102l.973.233v-.056a6.08 6.08 0 0 0 .279-1.194c.01-.348.092-.69.242-1.004.111-.316.195-.64.251-.97a.854.854 0 0 0-.135-.874c.391-.228.596-.553.466-.86a.436.436 0 0 1 .144-.608c.238-.195.21-.534 0-.985a.72.72 0 0 0 .433-.502c.125-.39.216-.792.27-1.199.022-.32.1-.635.233-.929.161-.389.257-.801.284-1.222a2.38 2.38 0 0 1 .228-.929c.028-.052.051-.106.07-.162v-.126c.046-.237 0-.506.056-.748a.928.928 0 0 0-.154-.85c.275-.144.465-.274.512-.465a.867.867 0 0 0-.042-.664.782.782 0 0 0 .698-1.004c.173 0 .368.033.466-.093.414-.394.931-.59 1.303-1.064a.15.15 0 0 1 .145-.055c.168.009.337-.02.493-.084.142-.102.26-.234.345-.386.167.112.368.16.568.14.307-.052.619-.082.93-.088h.098l.22-.024a.592.592 0 0 0 .38-.18.172.172 0 0 1 .252-.038c.313.21.736.136.96-.167.097-.107.134-.102.227 0a.709.709 0 0 0 .54.153c.294 0 .508-.376.605-.33.225.135.484.2.745.186a5.918 5.918 0 0 0 1.094-.14 2.169 2.169 0 0 1 1.015-.097c.27.028.4-.325.582-.27.208.103.439.151.67.14l1.099-.12a.578.578 0 0 0 .344-.126c.103-.102.182-.07.317-.047a4.086 4.086 0 0 0 1.862-.172.377.377 0 0 0 .177-.153c.065-.097.098-.097.205-.028.205.18.498.22.745.102l-.247-.041c.097.01.196.01.293 0 .089 0 .126-.024.191.074a.769.769 0 0 0 1.01.386c.07.202.217.37.41.464.228.107.442 0 .619.051s.228.325.466.442c.237.116.432 0 .577.032l.167.056.089-.051a.14.14 0 0 1 .098-.023c.242.027.488-.01.712-.107.251-.112.503-.223.754-.32.326-.126.577-.303.624-.633a.774.774 0 0 0 1.173-.464c.113.041.23.07.349.088l-.219.032c.293.219.573.177 1.02-.111.066.17.212.295.39.334.601.066 1.192.284 1.798.098a.145.145 0 0 1 .144 0c.306.26.758.25 1.052-.023a.708.708 0 0 0 .507.325c.413.08.832.122 1.253.125.347-.023.696.018 1.028.121.386.108.787.152 1.187.13.356-.031.714.01 1.053.121.381.12.783.164 1.182.13.299-.026.6.001.89.08h.055l.158.032c.346.076.698.122 1.052.14.335.01.66.12.931.315.28.19.61.316.899.516a.662.662 0 0 0 .535.144c.126 0 .15 0 .158.144.006.18.07.352.182.492.127.123.29.201.465.223.14 0 .15.06.122.177a.765.765 0 0 0 .083.52c.13.228.503.284.508.414 0 .237-.117.464 0 .687.046.163.079.33.116.493.018.158.054.314.107.464.06.2.091.406.093.614v-.005.065c.017.125.017.251 0 .376a.065.065 0 0 0 0 .033c.047.232.312.32.335.465.024.144-.153.357-.093.599.07.414.169.822.298 1.222.13.293.202.609.214.929.018.42.113.835.28 1.222.134.31.21.642.223.98.02.41.11.812.27 1.19.146.328.225.681.233 1.04.019.378.105.75.256 1.097.152.358.237.74.251 1.129a7.3 7.3 0 0 0 .233 1.078c.017.057.037.112.06.167l1.043-.214z" mask="url(#b)"/>
            <path d="M53.927 35.525c2.29 2.286-2.63 5.859-5.875 5.859s-7.914-3.345-5.87-5.859c1.843-2.295 9.668-2.072 11.745 0zM37.345 35.525c2.295 2.286-2.626 5.859-5.87 5.859-3.245 0-8.166-3.573-5.87-5.859 2.071-2.072 9.659-2.072 11.74 0zM37.317 36.018s2.77-2.03 4.888 0" mask="url(#b)"/>
            <path fill="#17787A" d="M47.959 62.75l-.596 13.39-.047 4.819h-15.33V62.714l4.079-.813s4.394 1.491 7.723-.047l4.17.897z" mask="url(#b)"/>
            <path fill="#17787A" d="M48.354 62.449a6.29 6.29 0 0 0-1.299-.34 2.798 2.798 0 0 1-1-.255 6.467 6.467 0 0 0-.973-.246.886.886 0 0 0-.89.144 1.07 1.07 0 0 0-.302-.362l-.298.032a.415.415 0 0 0-.433.21c-.135.26-.265.278-.526.166-.26-.111-.465.038-.777.414a.666.666 0 0 0-.564-.237c-.358.037-.726 0-1.075.07-.29.06-.59.05-.875-.028a3.591 3.591 0 0 0-1.113-.121 1.679 1.679 0 0 1-.852-.163 7.175 7.175 0 0 0-.865-.241 1.212 1.212 0 0 0-.29-.065l-.246-.023a.665.665 0 0 0-.395.394c-.49-.357-.848-.283-1.141.223a.69.69 0 0 0-1.15.233c-.13-.107-.27-.246-.465-.214-.312.06-.638.074-.931.14l-.466.092v.437c-.003.25.048.497.15.725a.148.148 0 0 1 0 .153.677.677 0 0 0 .139.93.761.761 0 0 0-.261.515v1.185a.538.538 0 0 0 .14.367c.074.083.093.13 0 .237a.617.617 0 0 0 .06.896c.098.098.089.13 0 .205a.631.631 0 0 0-.21.465c0 .274.317.506.261.59-.158.186-.252.42-.265.664-.033.338-.033.679 0 1.017.078.305.078.625 0 .93-.056.246.284.4.205.557-.12.18-.192.388-.21.604v1.018c-.01.117.021.233.089.33.088.106.051.176 0 .297a3.487 3.487 0 0 0-.028 1.737.32.32 0 0 0 .135.172c.088.07.084.103 0 .19a.627.627 0 0 0-.042.93c.051.07.075.098 0 .186-.28.4-.26.604.065.999a.734.734 0 0 0-.251.52c0 .228.186.367.21.534.023.168-.2.316-.215.558-.014.242.289.413.191.585a1.11 1.11 0 0 0-.074.149l-.089.181.494.223c.154.077.325.115.498.112h.758a.75.75 0 0 0 .76-.34.685.685 0 0 0 1.172.028c.415.423.699.423 1.187 0a.521.521 0 0 0 .396.288c.554 0 1.122.144 1.657-.102.052 0 .084-.037.135 0a.685.685 0 0 0 .964-.14.624.624 0 0 0 .498.27c.387.038.777.038 1.164 0 .316-.065.643-.065.959 0 .364.068.738.068 1.103 0 .322-.069.656-.069.978 0 .362.077.736.077 1.098 0 .326-.067.662-.067.987 0 .336.056.68.056 1.015 0l.582-.097-.07-.41v-.064a2.453 2.453 0 0 1 0-1.008 5.564 5.564 0 0 0 0-1.046.585.585 0 0 0-.205-.51c-.102-.084-.088-.122 0-.21a.617.617 0 0 0 0-.929c-.102-.102-.084-.135 0-.21a.622.622 0 0 0 .214-.464c0-.274-.311-.492-.246-.604.156-.183.256-.407.288-.645.04-.346.049-.694.028-1.041-.069-.329-.051-.67.051-.99v-.028c0-.227-.214-.33-.195-.464.019-.135.237-.33.242-.567.03-.394.03-.79 0-1.185a2.5 2.5 0 0 1 .037-.929c.085-.39.1-.79.047-1.185a2.523 2.523 0 0 1 .028-.929c.082-.38.096-.772.042-1.157a2.782 2.782 0 0 1 .037-1.008c.066-.35.076-.71.028-1.064a3.506 3.506 0 0 1 .037-1.092c.039-.345.053-.693.042-1.04v-.084l-.652.544v.055a6.617 6.617 0 0 0-.06 1.106c.037.31.018.625-.056.93a6.2 6.2 0 0 0-.07.928c-.028.312 0 .54.256.586-.307.432-.438.808-.275.97.163.163.154.275-.032.572a.566.566 0 0 0 .167.79 1.068 1.068 0 0 0-.316.632c-.046.365-.06.734-.042 1.101a2.29 2.29 0 0 1-.047.883c-.083.369-.1.75-.05 1.124.055.29.04.59-.043.874a4.86 4.86 0 0 0-.07.929.715.715 0 0 0 .294.762c-.466.413-.49.743-.047 1.152a.687.687 0 0 0 0 1.17c-.135.098-.298.21-.302.386 0 .563-.168 1.143.083 1.687a.14.14 0 0 1 0 .153.691.691 0 0 0 .135.93 1.394 1.394 0 0 0-.167.204l.423-.418a.536.536 0 0 0-.311-.093h-1.169a.536.536 0 0 0-.372.14.154.154 0 0 1-.233 0 .62.62 0 0 0-.899.06c-.097.097-.13.083-.209 0a.615.615 0 0 0-.466-.21c-.274 0-.507.316-.59.26a1.151 1.151 0 0 0-.666-.26 4.953 4.953 0 0 0-1.02 0 1.894 1.894 0 0 1-.931 0c-.247-.06-.4.28-.563.2a1.245 1.245 0 0 0-.6-.209h-1.02a.499.499 0 0 0-.33.088c-.108.093-.178.052-.299 0a3.507 3.507 0 0 0-1.74-.032.377.377 0 0 0-.178.135c-.065.088-.097.088-.186 0a.629.629 0 0 0-.93-.047c-.07.051-.099.075-.187 0-.405-.274-.605-.255-1 .065a.75.75 0 0 0-.522-.246c-.228 0-.368.181-.536.21-.167.027-.223-.09-.358-.159l.465.465a.557.557 0 0 0 .06-.2c0-.256-.288-.414-.19-.59.118-.193.183-.415.186-.641v-.758a.734.734 0 0 0-.335-.757.683.683 0 0 0 0-1.17c.428-.419.428-.698 0-1.185a.516.516 0 0 0 .293-.395c0-.553.145-1.12-.107-1.659 0-.046-.037-.084 0-.13a.691.691 0 0 0-.14-.962c.162-.115.26-.299.266-.497.04-.386.04-.775 0-1.161a2.365 2.365 0 0 1 0-.957 3.019 3.019 0 0 0 0-1.102 2.319 2.319 0 0 1 0-.975 2.638 2.638 0 0 0 0-1.097c-.07-.324-.07-.66 0-.985a3.079 3.079 0 0 0 0-1.073 2.56 2.56 0 0 1 0-1.013c.034-.308.034-.62 0-.929l-.414.502h.102a.587.587 0 0 0 .466-.307c.06-.116.097-.111.204-.042a.62.62 0 0 0 .931-.19c.08-.116.117-.107.21-.028a.63.63 0 0 0 .512.107c.27-.037.41-.404.53-.367.209.106.443.151.676.13.144-.033.298-.056.465-.079h-.274c.187.075.385.124.586.144.338.004.67.083.973.232h.028c.219.051.396-.167.54-.13.144.037.265.27.503.298.395.074.799.1 1.2.079.31-.048.623-.048.932 0 .203.02.407.02.61 0 .203-.027.404-.07.6-.13.31-.114.634-.185.964-.21a2.41 2.41 0 0 0 1.14-.404l-.312.037c.3 0 .598.066.87.19.296.123.613.183.932.177.333-.003.663.057.973.177.306.077.617.132.93.163h.169l.758-.595z" mask="url(#b)"/>
        </g>
        <path fill="#333" d="M81.953 40.708a.97.97 0 0 0 0-.116 4.345 4.345 0 0 0-.088-1.05 1.855 1.855 0 0 1-.065-.887 4.173 4.173 0 0 0-.042-.864.664.664 0 0 0-.4-.665c.311-.297.386-.627.158-.831-.228-.205-.238-.302-.075-.54.163-.236 0-.496-.349-.78a.613.613 0 0 0 .247-.548 4.026 4.026 0 0 0-.177-1.04 1.976 1.976 0 0 1-.172-.832 2.741 2.741 0 0 0-.219-1.055 1.6 1.6 0 0 1-.168-.836 3.07 3.07 0 0 0-.186-.846.716.716 0 0 0-.526-.618c.35-.464.252-.822-.284-1.036a.594.594 0 0 0-.316-1.036c.097-.135.223-.283.167-.465-.167-.497-.205-1.059-.628-1.44-.051-.046-.042-.083-.033-.144.051-.432 0-.571-.465-.748a.654.654 0 0 0 .06-.543l-.442-1a.465.465 0 0 0-.27-.255c-.098-.037-.135-.065-.102-.19a.515.515 0 0 0-.42-.725c-.134-.033-.139-.065-.083-.172a.552.552 0 0 0 0-.497c-.107-.232-.512-.26-.503-.358a.974.974 0 0 0-.051-.678c-.08-.14-.14-.293-.21-.437a1.631 1.631 0 0 0-.284-.376c-.222-.201-.383-.46-.465-.748-.075-.228-.466-.163-.466-.33a1.122 1.122 0 0 0-.079-.553c-.172-.27-.377-.516-.558-.776a.428.428 0 0 0-.256-.195c-.135-.023-.14-.102-.173-.214-.17-.53-.508-.989-.963-1.31a.364.364 0 0 0-.214-.037c-.112 0-.13 0-.121-.13.041-.414-.112-.6-.522-.678-.079 0-.116 0-.12-.126-.033-.465-.16-.618-.667-.646a.645.645 0 0 0-.153-.525c-.15-.158-.377-.116-.508-.209-.13-.093-.055-.358-.2-.525-.144-.167-.465-.065-.521-.25a1.008 1.008 0 0 0-.317-.549c-.177-.153-.358-.307-.526-.464a.662.662 0 0 0-.759-.21c.038-.608-.232-.808-.819-.706-.028-.58-.242-.752-.866-.673a.51.51 0 0 0-.111-.465c-.42-.302-.778-.725-1.332-.8-.051 0-.088 0-.107-.064a.576.576 0 0 0-.824-.377.553.553 0 0 0-.247-.464 4.974 4.974 0 0 0-.93-.558 2.329 2.329 0 0 1-.778-.441 2.413 2.413 0 0 0-.908-.502 2.33 2.33 0 0 1-.81-.423 2.222 2.222 0 0 0-.93-.44 2.297 2.297 0 0 1-.839-.387 2.55 2.55 0 0 0-.93-.39 2.395 2.395 0 0 1-.88-.358 4.89 4.89 0 0 0-.932-.353.527.527 0 0 0-.516.038c-.107.078-.13.05-.182-.066a.53.53 0 0 0-.842-.269c-.122.065-.145.042-.182-.07a.577.577 0 0 0-.363-.348c-.238-.098-.526.181-.605.097-.154-.162-.252-.362-.494-.422a5.04 5.04 0 0 0-.93-.242c-.307.01-.61-.07-.871-.228h-.028c-.196-.055-.377.158-.503.117-.126-.042-.21-.298-.419-.34a6.244 6.244 0 0 0-1.066-.204 2.024 2.024 0 0 1-.824-.163 2.448 2.448 0 0 0-1.061-.19 1.982 1.982 0 0 1-.857-.126A2.294 2.294 0 0 0 45.41.664a2.169 2.169 0 0 1-.93-.106 2.164 2.164 0 0 0-.974-.089A2.402 2.402 0 0 1 42.51.4a4.142 4.142 0 0 0-.963-.046.68.68 0 0 0-.094.023v1.018h.047c.338.046.68.056 1.02.028a1.66 1.66 0 0 1 .865.06c.278.057.56.088.843.093a.676.676 0 0 0 .726-.274c.224.372.512.539.759.367.247-.172.354-.153.535.07.182.223.466.153.838-.112.068.2.236.35.442.395.333.092.675.148 1.02.167.28-.007.56.05.815.168.326.14.677.217 1.033.223.278-.004.553.064.796.2.264.102.537.181.815.236a.69.69 0 0 0 .782-.13c.233.553.55.627 1.024.307a.595.595 0 0 0 1.024.33c.047.158.089.348.242.404.466.176.931.506 1.48.427.07 0 .089 0 .126.065.289.312.428.353.847.177a.66.66 0 0 0 .33.437c.327.134.657.264.979.418.116.049.247.049.363 0 .097-.037.144-.037.2.079a.52.52 0 0 0 .768.297c.126-.056.149-.032.167.088.036.167.143.31.294.39.21.13.558-.074.6 0a.99.99 0 0 0 .405.53c.26.167.534.31.82.428.281.082.533.244.726.464.158.168.465-.055.544.089.072.185.195.346.354.464.26.167.512.349.768.525a.41.41 0 0 0 .298.093c.13 0 .159.051.228.144.157.216.35.405.568.558.214.16.443.298.685.413a.298.298 0 0 0 .21 0c.106-.032.13 0 .143.102.042.414.21.558.634.558.079 0 .116 0 .14.093.088.464.232.567.725.557a.64.64 0 0 0 .182.507c.154.144.377.083.512.167s.074.34.214.506c.14.168.466.056.512.242.035.207.13.4.275.553.163.163.33.32.465.492.166.23.454.339.731.274-.111.595.08.823.675.832-.093.576.07.757.703.822a.529.529 0 0 0-.023.465c.302.404.465.93.982 1.152.042 0 .075.037.075.093a.57.57 0 0 0 .167.465.722.722 0 0 0 .466.19.566.566 0 0 0 0 .54c.156.315.348.61.572.882.223.2.385.46.466.748.092.323.25.624.465.883.2.224.343.493.415.785.041.161.102.317.181.465.067.152.153.296.256.427.184.242.308.524.363.822.068.32.199.624.387.892.195.247.313.546.34.86.069.31.172.613.307.901a.512.512 0 0 0 .358.363c.13.037.126.074.065.18a.529.529 0 0 0 .294.823c.125.056.116.093.042.186a.57.57 0 0 0-.089.465c.051.241.433.33.405.464-.1.195-.137.415-.107.632.062.303.15.6.265.887.161.256.229.56.191.86.033.195.298.265.317.395.018.13-.182.311-.135.516.048.35.126.697.233 1.036.124.248.177.526.153.803-.029.355.02.711.14 1.046.105.267.146.555.12.84a2.25 2.25 0 0 0 .14 1.023c.11.285.138.596.08.896-.043.312-.018.629.074.93.096.316.118.65.065.975-.011.311.007.622.056.93a.816.816 0 0 0 .033.153l1.084.018zM41.537 80.07l-.116-.024a4.548 4.548 0 0 0-1.057-.083 1.866 1.866 0 0 1-.889-.084 4.044 4.044 0 0 0-.861-.098.704.704 0 0 0-.745.284c-.228-.367-.521-.548-.777-.381-.256.167-.354.14-.54-.084-.187-.223-.466-.153-.857.112a.59.59 0 0 0-.466-.39 6.25 6.25 0 0 0-1.047-.15 2.024 2.024 0 0 1-.824-.18 2.681 2.681 0 0 0-1.057-.228 1.618 1.618 0 0 1-.819-.181 8.62 8.62 0 0 0-.829-.237.704.704 0 0 0-.796.12c-.242-.552-.558-.64-1.047-.31a.623.623 0 0 0-1.052-.312c-.047-.163-.089-.362-.242-.418-.494-.19-.931-.52-1.508-.465-.07 0-.094 0-.13-.06-.29-.32-.443-.335-.867-.172a.702.702 0 0 0-.335-.465l-.987-.464a.466.466 0 0 0-.372 0c-.103.037-.15.037-.205-.08a.553.553 0 0 0-.782-.301c-.126.046-.149 0-.168-.102a.567.567 0 0 0-.293-.41c-.214-.134-.568.066-.61 0a.985.985 0 0 0-.41-.534 8.598 8.598 0 0 0-.828-.464 1.583 1.583 0 0 1-.73-.465c-.154-.172-.466.047-.55-.107a1.101 1.101 0 0 0-.35-.464 7.449 7.449 0 0 1-.777-.54.4.4 0 0 0-.293-.11c-.135 0-.163-.056-.228-.159a3.188 3.188 0 0 0-1.262-1.008.308.308 0 0 0-.214 0c-.107.028-.13 0-.135-.111-.032-.423-.195-.581-.619-.6-.079 0-.116 0-.14-.102-.083-.464-.237-.562-.74-.567a.71.71 0 0 0-.163-.53c-.149-.153-.372-.106-.502-.2-.13-.092-.06-.357-.205-.524-.145-.167-.489-.065-.526-.251a1.318 1.318 0 0 0-.266-.571c-.153-.172-.312-.349-.465-.53a.676.676 0 0 0-.731-.311c.112-.581-.084-.818-.67-.865.116-.58-.038-.78-.67-.878a.464.464 0 0 0 0-.464c-.313-.41-.466-.93-.932-1.213-.042-.023-.074-.046-.074-.097.023-.423-.219-.609-.615-.674a.584.584 0 0 0 0-.548 4.97 4.97 0 0 0-.554-.93 1.607 1.607 0 0 1-.428-.775 2.502 2.502 0 0 0-.465-.93 1.676 1.676 0 0 1-.4-.813 2.135 2.135 0 0 0-.42-.929 1.903 1.903 0 0 1-.368-.836 2.441 2.441 0 0 0-.363-.93 2.005 2.005 0 0 1-.335-.882 4.988 4.988 0 0 0-.302-.93.53.53 0 0 0-.363-.376c-.126-.041-.122-.079-.061-.185a.543.543 0 0 0-.265-.85c-.126-.061-.117-.098-.042-.191a.557.557 0 0 0 .079-.493c-.056-.246-.466-.339-.414-.464.06-.214.186-.4.116-.641a5.367 5.367 0 0 0-.251-.93 1.512 1.512 0 0 1-.182-.882c-.037-.2-.307-.27-.326-.405-.018-.134.172-.315.13-.525a6.104 6.104 0 0 0-.214-1.059 1.679 1.679 0 0 1-.13-.827 2.783 2.783 0 0 0-.154-1.064 1.934 1.934 0 0 1-.107-.86 2.606 2.606 0 0 0-.107-1.04c-.1-.3-.123-.619-.065-.93a2.5 2.5 0 0 0-.06-.966c-.091-.322-.1-.662-.028-.99a5.69 5.69 0 0 0 0-.928.538.538 0 0 0 0-.084l-1.038-.042v.056a3.89 3.89 0 0 0 0 1.092c.08.303.089.621.027.929-.023.296-.013.593.028.887a.692.692 0 0 0 .4.688c-.316.297-.409.632-.185.846.223.213.218.315.055.557-.163.242 0 .506.34.8a.613.613 0 0 0-.246.557c.024.36.084.716.181 1.064.105.27.156.56.149.85-.008.37.063.737.21 1.078.129.26.191.547.181.836a3.6 3.6 0 0 0 .172.864c.01.307.21.575.503.67-.354.492-.27.835.28 1.058a.622.622 0 0 0 .32 1.06c-.106.135-.237.288-.19.464.167.507.2 1.078.619 1.478.051.046.042.083.037.144-.06.464.037.576.466.771a.677.677 0 0 0-.075.553c.144.344.26.692.42 1.027a.502.502 0 0 0 .278.265c.103.041.135.07.103.195a.552.552 0 0 0 .405.752c.135.042.135.075.074.182a.557.557 0 0 0 0 .506c.107.237.517.279.503.376-.066.227-.05.47.042.688.114.302.27.587.465.845.222.215.383.484.466.781.065.232.466.177.466.348-.027.21.012.423.111.61l.54.807a.465.465 0 0 0 .252.21c.13.032.135.106.167.227.159.54.485 1.014.931 1.357.064.04.14.056.214.046.112 0 .13 0 .112.144a.561.561 0 0 0 .494.72c.083 0 .12.024.13.126.023.465.172.609.67.674a.682.682 0 0 0 .13.543c.14.167.373.14.494.242.121.102.047.367.2.534.154.167.494.074.536.265.041.215.145.414.297.571.173.168.345.335.508.516a.657.657 0 0 0 .773.228c-.033.599.223.827.814.748 0 .59.21.794.857.724a.464.464 0 0 0 .116.465c.42.316.764.771 1.327.869.047 0 .084 0 .102.07.126.422.466.492.843.39a.58.58 0 0 0 .242.492c.288.229.6.425.931.586.145.051.283.122.41.209.133.075.258.164.372.265.275.225.591.394.931.497.305.088.584.248.815.464.263.236.584.396.93.465.312.064.605.198.857.39.281.199.597.342.931.423.318.065.622.184.899.353.298.15.61.27.93.362a.55.55 0 0 0 .532-.037c.107-.079.135-.05.186.065a.544.544 0 0 0 .856.298c.121-.075.145-.047.187.065a.558.558 0 0 0 .372.334c.247.089.535-.19.62-.102.157.163.255.362.502.427.302.113.614.198.93.256.313-.005.62.07.895.218h.028c.2.051.381-.167.512-.125.13.042.219.293.433.334.354.104.717.177 1.084.219.288.001.572.058.838.167.348.13.719.187 1.09.167a2.01 2.01 0 0 1 .875.13c.336.13.697.185 1.056.163.315-.024.63.013.931.107.32.095.656.123.987.084.342-.043.688-.01 1.015.097.316.063.637.096.96.098a.886.886 0 0 0 .157 0l.084-1.088z"/>
        <path fill="#489CFF" stroke="#489CFF" stroke-width="1.008" d="M64.366 7.829a5.427 5.427 0 0 0 5.434 5.417c3-.001 5.43-2.427 5.431-5.42a5.427 5.427 0 0 0-5.428-5.424 5.432 5.432 0 0 0-5.437 5.427z"/>
    </g>
</svg>
