<?xml version="1.0" encoding="UTF-8"?>
<svg width="404px" height="356px" viewBox="0 0 404 356" version="1.1" xmlns="http://www.w3.org/2000/svg" xmlns:xlink="http://www.w3.org/1999/xlink">
    <!-- Generator: Sketch 52.6 (67491) - http://www.bohemiancoding.com/sketch -->
    <title>BED</title>
    <desc>Created with Sketch.</desc>
    <g id="Page-1" stroke="none" stroke-width="1" fill="none" fill-rule="evenodd">
        <g id="BED" transform="translate(0.613333, 0.506667)" fill="#000000" fill-rule="nonzero">
            <path d="M389.12,213.108053 L389.12,211.718827 C389.12,197.741227 380.675413,185.73312 368.64,180.42368 L368.64,72.64256 L368.64,48.36352 L368.64,6.82666667 C368.64,3.05664 365.586773,1.42108547e-14 361.813333,1.42108547e-14 C358.039893,1.42108547e-14 354.986667,3.05664 354.986667,6.82666667 L354.986667,39.55712 C254.16704,13.36832 150.910293,13.3853867 47.7866667,39.6066133 L47.7866667,6.82666667 C47.7866667,3.05664 44.73344,1.42108547e-14 40.96,1.42108547e-14 C37.18656,1.42108547e-14 34.1333333,3.05664 34.1333333,6.82666667 L34.1333333,48.36352 L34.1333333,72.6442667 L34.1333333,180.425387 C22.09792,185.734827 13.6533333,197.742933 13.6533333,211.720533 L13.6533333,213.10976 C5.68661333,216.198827 0,223.894187 0,232.937813 L0,313.197227 C0,324.94592 9.56074667,334.506667 21.3128533,334.506667 L27.3066667,334.506667 L27.3066667,348.16 C27.3066667,351.930027 30.3598933,354.986667 34.1333333,354.986667 L95.5733333,354.986667 C99.3467733,354.986667 102.4,351.930027 102.4,348.16 L102.4,334.506667 L300.373333,334.506667 L300.373333,348.16 C300.373333,351.930027 303.42656,354.986667 307.2,354.986667 L368.64,354.986667 C372.41344,354.986667 375.466667,351.930027 375.466667,348.16 L375.466667,334.506667 L381.46048,334.506667 C393.214293,334.506667 402.773333,324.94592 402.773333,313.197227 L402.773333,232.937813 C402.773333,223.894187 397.08672,216.19712 389.12,213.108053 Z M227.135147,177.493333 C226.947413,177.140053 226.855253,176.756053 226.599253,176.43008 C225.993387,175.6672 225.28,174.3872 225.28,172.624213 L225.28,135.343787 C225.28,131.95776 228.032853,129.199787 231.420587,129.199787 L307.887787,129.199787 C311.273813,129.199787 314.028373,131.956053 314.028373,135.343787 L314.028373,172.624213 C314.028373,174.394027 313.301333,175.680853 312.695467,176.447147 C312.441173,176.768 312.349013,177.14688 312.16128,177.493333 L227.135147,177.493333 Z M307.88608,115.546453 L231.41888,115.546453 C220.504747,115.546453 211.62496,124.42624 211.62496,135.343787 L211.62496,172.624213 C211.62496,174.277973 211.90144,175.90272 212.307627,177.49504 L197.290667,177.49504 C197.696853,175.904427 197.971627,174.277973 197.971627,172.624213 L197.971627,135.343787 C197.971627,124.427947 189.09184,115.546453 178.177707,115.546453 L94.8872533,115.546453 C83.97312,115.546453 75.0933333,124.42624 75.0933333,135.343787 L75.0933333,172.624213 C75.0933333,174.277973 75.3698133,175.90272 75.776,177.49504 L47.8805333,177.49504 C47.8481067,177.49504 47.8190933,177.50528 47.7866667,177.50528 L47.7866667,77.9264 C150.944427,50.37056 254.22848,50.3552 354.986667,77.8973867 L354.986667,177.501867 C354.95424,177.501867 354.925227,177.491627 354.8928,177.491627 L326.995627,177.491627 C327.401813,175.901013 327.68,174.276267 327.68,172.6208 L327.68,135.340373 C327.68,124.42624 318.800213,115.546453 307.88608,115.546453 Z M90.6052267,177.493333 C90.41408,177.13664 90.3202133,176.74752 90.0590933,176.41984 C89.4583467,175.660373 88.74496,174.3872 88.74496,172.622507 L88.74496,135.34208 C88.74496,131.956053 91.4978133,129.19808 94.8855467,129.19808 L178.179413,129.19808 C181.56544,129.19808 184.32,131.954347 184.32,135.34208 L184.32,172.622507 C184.32,174.385493 183.606613,175.665493 183.000747,176.428373 C182.744747,176.754347 182.652587,177.138347 182.464853,177.491627 L90.6052267,177.491627 L90.6052267,177.493333 Z M354.986667,53.5893333 L354.986667,63.7764267 C254.170453,36.8725333 150.905173,36.8896 47.7866667,63.8293333 L47.7866667,53.6200533 C150.946133,26.8168533 254.247253,26.8066133 354.986667,53.5893333 Z M47.8805333,191.146667 L354.894507,191.146667 C366.209707,191.146667 375.406933,200.328533 375.458133,211.626667 L27.3169067,211.626667 C27.3681067,200.328533 36.5653333,191.146667 47.8805333,191.146667 Z M88.7466667,341.333333 L40.96,341.333333 L40.96,334.506667 L88.7466667,334.506667 L88.7466667,341.333333 Z M361.813333,341.333333 L314.026667,341.333333 L314.026667,334.506667 L361.813333,334.506667 L361.813333,341.333333 Z M389.12,313.197227 C389.12,317.421227 385.686187,320.853333 381.46048,320.853333 L21.3128533,320.853333 C17.08544,320.853333 13.6533333,317.41952 13.6533333,313.197227 L13.6533333,299.92448 L137.120427,299.92448 C453.952343,297.04338 394.040791,297.04338 394.040791,293.273354 C394.040791,289.503327 471.612953,286.271147 137.120427,286.271147 L13.6533333,286.271147 L13.6533333,232.937813 C13.6533333,228.713813 17.0871467,225.281707 21.3128533,225.281707 L381.458773,225.281707 C385.686187,225.281707 389.118293,228.71552 389.118293,232.937813 L389.118293,313.197227 L389.12,313.197227 Z" id="Shape"></path>
        </g>
    </g>
</svg>