<?xml version="1.0" encoding="UTF-8"?>
<svg width="512px" height="486px" viewBox="0 0 512 486" version="1.1" xmlns="http://www.w3.org/2000/svg" xmlns:xlink="http://www.w3.org/1999/xlink">
    <!-- Generator: Sketch 52.6 (67491) - http://www.bohemiancoding.com/sketch -->
    <title>couple</title>
    <desc>Created with Sketch.</desc>
    <g id="Page-1" stroke="none" stroke-width="1" fill="none" fill-rule="evenodd">
        <g id="couple" fill="#000000" fill-rule="nonzero">
            <path d="M246.334,258.007 L192.501,241.857 L192.501,220.052 C212.396,205.32 225.856,182.368 227.767,156.247 C238.159,153.119 245.751,143.46 245.751,132.062 C245.751,124.684 242.435,117.691 236.876,112.937 L236.876,61.062 C236.876,46.84 229.673,33.537 217.868,25.565 C213.921,10.737 200.621,0.312 185,0.312 L114,0.312 C75.608,0.312 44.375,31.545 44.375,69.937 L44.375,112.937 C38.816,117.691 35.5,124.683 35.5,132.062 C35.5,143.46 43.092,153.119 53.484,156.247 C55.395,182.368 68.854,205.32 88.75,220.052 L88.75,241.857 L24.319,261.186 C9.773,265.55 0,278.685 0,293.872 L0,380.562 C0,384.704 3.358,388.062 7.5,388.062 L8.875,388.062 L8.875,478.187 C8.875,482.329 12.233,485.687 16.375,485.687 C20.517,485.687 23.875,482.329 23.875,478.187 L23.875,388.062 L53.25,388.062 L53.25,478.187 C53.25,482.329 56.608,485.687 60.75,485.687 C64.892,485.687 68.25,482.329 68.25,478.187 L68.25,336.187 C68.25,335.022 67.979,333.874 67.458,332.833 L49.708,297.333 C47.856,293.628 43.352,292.126 39.646,293.979 C35.941,295.831 34.439,300.336 36.292,304.041 L53.25,337.958 L53.25,373.062 L16.375,373.062 L15,373.062 L15,293.872 C15,285.361 20.478,277.999 28.63,275.553 L55.563,267.473 C64.719,306.378 99.955,334.811 140.626,334.811 C161.537,334.811 181.771,327.308 197.6,313.683 C211.658,301.583 221.465,285.347 225.671,267.467 L242.023,272.374 C242.742,272.59 243.467,272.692 244.181,272.692 C247.407,272.692 250.387,270.594 251.362,267.345 C252.552,263.378 250.301,259.197 246.334,258.007 Z M68.25,149.812 C68.25,145.67 64.892,142.312 60.75,142.312 C55.098,142.312 50.5,137.714 50.5,132.062 C50.5,128.424 52.424,125.132 55.647,123.256 C55.813,123.159 55.964,123.045 56.121,122.937 C57.548,122.212 59.131,121.812 60.75,121.812 L72.103,121.812 C79.163,121.812 85.406,117.312 87.638,110.615 L92.805,95.115 C110.437,94.726 166.005,92.258 197.229,76.645 C200.934,74.793 202.436,70.288 200.583,66.583 C198.731,62.878 194.227,61.376 190.521,63.229 C157.03,79.974 88.067,80.187 87.374,80.187 C84.146,80.188 81.28,82.253 80.26,85.315 L73.408,105.872 C73.22,106.434 72.697,106.812 72.103,106.812 L60.75,106.812 C60.291,106.812 59.833,106.832 59.375,106.857 L59.375,69.937 C59.375,39.817 83.88,15.312 114,15.312 L185,15.312 C194.408,15.312 202.313,22.092 203.796,31.433 C204.155,33.693 205.526,35.666 207.519,36.79 C216.374,41.784 221.874,51.084 221.874,61.062 L221.874,116.774 C221.874,119.444 223.294,121.913 225.602,123.256 C228.825,125.132 230.749,128.424 230.749,132.062 C230.749,137.714 226.151,142.312 220.499,142.312 C216.357,142.312 212.999,145.67 212.999,149.812 C212.999,189.72 180.532,222.187 140.624,222.187 C100.716,222.187 68.25,189.719 68.25,149.812 Z M177.5,229.005 L177.5,247.437 C177.5,267.77 160.958,284.312 140.625,284.312 C120.324,284.312 103.805,267.822 103.752,247.533 C103.752,247.497 103.75,247.461 103.75,247.426 L103.75,229.005 C114.961,234.246 127.454,237.187 140.625,237.187 C153.796,237.187 166.289,234.247 177.5,229.005 Z M187.813,302.315 C174.705,313.598 157.946,319.812 140.625,319.812 C106.625,319.812 77.224,295.825 69.976,263.15 L89.691,257.236 C94.286,281.169 115.372,299.312 140.625,299.312 C165.879,299.312 186.964,281.169 191.559,257.235 L211.273,263.15 C207.912,278.302 199.696,292.088 187.813,302.315 Z" id="Shape"></path>
            <path d="M490.549,322.529 L429.693,298.186 C429.176,297.979 428.684,297.732 428.218,297.453 C469.436,289.153 488.739,281.352 489.593,281.002 C492.727,279.718 494.612,276.492 494.192,273.131 C494.104,272.425 485.375,201.889 485.375,140.936 C485.375,82.97 438.216,35.811 380.25,35.811 C322.284,35.811 275.125,82.971 275.125,140.938 C275.125,201.862 266.396,272.427 266.308,273.133 C265.888,276.494 267.772,279.719 270.907,281.004 C271.761,281.354 291.064,289.154 332.282,297.455 C331.816,297.734 331.324,297.981 330.807,298.188 L269.952,322.53 C256.921,327.742 248.501,340.179 248.501,354.214 L248.501,373.063 L228,373.063 L228,337.959 L244.958,304.042 C246.811,300.337 245.309,295.832 241.604,293.98 C237.899,292.127 233.394,293.629 231.542,297.334 L213.792,332.834 C213.271,333.876 213,335.023 213,336.188 L213,478.188 C213,482.33 216.358,485.688 220.5,485.688 C224.642,485.688 228,482.33 228,478.188 L228,388.063 L248.5,388.063 L248.5,398.317 C248.5,400.307 249.291,402.215 250.698,403.622 C252.104,405.028 254.011,405.817 256,405.817 C256.001,405.817 256.002,405.817 256.004,405.817 L257.375,405.817 L257.375,478.188 C257.375,482.33 260.733,485.688 264.875,485.688 C269.017,485.688 272.375,482.33 272.375,478.188 L272.375,405.813 L292.875,405.813 L292.875,478.188 C292.875,482.33 296.233,485.688 300.375,485.688 C304.517,485.688 307.875,482.33 307.875,478.188 L307.875,380.563 C307.875,376.421 304.517,373.063 300.375,373.063 C296.233,373.063 292.875,376.421 292.875,380.563 L292.875,390.813 L263.5,390.813 L263.5,354.213 C263.5,346.347 268.219,339.377 275.522,336.456 L305.439,324.489 C315.718,356.903 345.872,379.187 380.25,379.187 C414.628,379.187 444.782,356.902 455.061,324.489 L484.978,336.456 C492.281,339.377 497,346.348 497,354.213 L497,390.813 L467.625,390.813 L467.625,380.563 C467.625,376.421 464.267,373.063 460.125,373.063 C455.983,373.063 452.625,376.421 452.625,380.563 L452.625,478.188 C452.625,482.33 455.983,485.688 460.125,485.688 C464.267,485.688 467.625,482.33 467.625,478.188 L467.625,405.813 L488.125,405.813 L488.125,478.188 C488.125,482.33 491.483,485.688 495.625,485.688 C499.767,485.688 503.125,482.33 503.125,478.188 L503.125,405.813 L504.5,405.813 C508.642,405.813 512,402.455 512,398.313 L512,354.213 C512,340.178 503.58,327.742 490.549,322.529 Z M290.124,140.937 C290.125,91.241 330.555,50.812 380.25,50.812 C429.945,50.812 470.375,91.242 470.375,140.937 C470.375,192.427 476.499,250.56 478.606,269.035 C470.297,271.858 452.113,277.421 423.25,283.149 L423.25,270.237 C427.414,267.887 431.397,265.198 435.14,262.172 C450.379,249.855 461.146,232.604 465.459,213.599 C466.896,207.266 467.625,200.735 467.625,194.187 C467.625,150.502 435.982,144.22 405.382,138.145 C385.812,134.26 365.576,130.242 349.435,117.33 C347.67,115.917 345.358,115.381 343.149,115.864 C340.94,116.346 339.064,117.803 338.046,119.823 C338.004,119.906 333.802,128.178 326.695,136.233 C320.676,143.055 311.223,151.187 300.374,151.187 C296.682,151.187 293.175,151.99 290.011,153.421 C290.084,149.234 290.124,145.064 290.124,140.937 Z M380.25,266.563 C363.504,266.563 347.784,261.01 334.789,250.506 C322.16,240.298 313.239,226.012 309.668,210.279 C308.478,205.034 307.875,199.619 307.875,194.187 C307.875,190.045 304.517,186.687 300.375,186.687 C294.723,186.687 290.125,182.089 290.125,176.437 C290.125,170.785 294.723,166.187 300.375,166.187 C323.118,166.187 339.614,145.593 347.063,134.071 C364.554,145.332 384.559,149.304 402.461,152.859 C435.424,159.403 452.625,164.213 452.625,194.188 C452.625,199.621 452.021,205.035 450.832,210.28 C447.262,226.013 438.34,240.299 425.711,250.507 C412.716,261.011 396.996,266.563 380.25,266.563 Z M281.894,269.035 C283.221,257.397 286.142,230.024 288.122,198.49 C289.693,199.366 291.357,200.094 293.11,200.622 C293.43,205 294.075,209.344 295.041,213.599 C299.354,232.604 310.122,249.855 325.36,262.172 C329.103,265.198 333.086,267.887 337.25,270.237 L337.25,283.149 C308.382,277.42 290.198,271.857 281.894,269.035 Z M380.25,364.188 C352.07,364.188 327.392,345.687 319.404,318.904 L336.377,312.115 C346.019,308.258 352.25,299.056 352.25,288.671 L352.25,276.926 C361.22,279.96 370.682,281.564 380.25,281.564 C389.818,281.564 399.28,279.96 408.25,276.926 L408.25,288.671 C408.25,299.056 414.48,308.258 424.122,312.115 L441.096,318.905 C433.108,345.685 408.431,364.188 380.25,364.188 Z" id="Shape"></path>
        </g>
    </g>
</svg>