<svg height="512pt" viewBox="-16 0 512 512.00037" width="512pt" xmlns="http://www.w3.org/2000/svg"><path d="m150.519531 311.855469h21.257813c4.140625 0 7.5-3.359375 7.5-7.503907 0-4.144531-3.359375-7.5-7.5-7.5h-21.257813c-4.144531 0-7.503906 3.355469-7.503906 7.5 0 4.144532 3.359375 7.503907 7.503906 7.503907zm0 0"/><path d="m464.785156 232.304688h-18.019531v-58.453126c0-7.234374-5.886719-13.117187-13.117187-13.117187h-17v-10.335937c0-7.230469-5.882813-13.117188-13.117188-13.117188h-18.882812c-2.003907 0-3.902344.453125-5.601563 1.257812-1.699219-.804687-3.597656-1.257812-5.597656-1.257812h-18.882813c-7.234375 0-13.117187 5.886719-13.117187 13.117188v81.90625h-196.414063c-.449218-13.136719-11.277344-23.683594-24.519531-23.683594h-14.269531v-74.109375c4.09375-4.347657 6.714844-10.101563 7.050781-16.453125l22.144531-23.605469c-.007812-.136719-.011718-.277344-.015625-.417969.328125 11.664063 3.695313 23.34375 10.277344 33.8125 3.007813 4.785156 9.878906 5.714844 14.046875 1.910156l45.851562-41.84375c3.058594-2.789062 3.273438-7.535156.480469-10.597656-2.789062-3.058594-7.535156-3.273437-10.597656-.484375l-40.402344 36.871094c-9.269531-20.335937-4.558593-44.691406 12.371094-60.140625 16.929687-15.453125 41.613281-17.921875 61.019531-6.835938l-7.167968 6.542969c-3.058594 2.792969-3.277344 7.539063-.484376 10.597657 2.792969 3.0625 7.539063 3.277343 10.597657.484374 0 0 12.605469-11.503906 12.617187-11.511718 4.179688-3.816406 3.863282-10.734375-.617187-14.164063-16.5625-12.65625-37.390625-16.539062-56.542969-11.914062 0 0-14.894531-16.320313-14.898438-16.324219-11.90625-13.050781-32.746093-13.992188-45.785156-2.09375-12.683594 11.574219-14.046875 30.992188-3.449218 44.203125l-35.648438 38.074219c-14.273438.101562-25.855469 11.746094-25.855469 26.046875 0 6.898437 2.695313 13.175781 7.085938 17.839843v74.113282h-14.269531c-13.242188 0-24.070313 10.546875-24.519532 23.679687h-14.324218c-8.386719 0-15.210938 6.824219-15.210938 15.214844v19.125c0 8.386719 6.824219 15.210937 15.210938 15.210937h44.144531v214.820313c0 .179687-.144531.324219-.324219.324219h-13.828125c-.179687 0-.324219-.144532-.324219-.324219v-187.449219c0-4.144531-3.359375-7.5-7.5-7.5-4.144531 0-7.503906 3.355469-7.503906 7.5v187.449219c0 8.453125 6.878906 15.328125 15.328125 15.328125h13.828125c8.453125 0 15.328125-6.875 15.328125-15.328125v-75.203125h183.484375c7.710938 0 13.980469-6.273438 13.980469-13.984375v-125.632813h130.140625v214.820313c0 8.453125 6.875 15.328125 15.328125 15.328125h13.824219c8.453124 0 15.328124-6.875 15.328124-15.328125v-187.484375c0-4.144531-3.359374-7.503906-7.5-7.503906-4.144531 0-7.503906 3.359375-7.503906 7.503906v187.484375c0 .179687-.144531.324219-.324218.324219h-13.824219c-.179688 0-.324219-.144532-.324219-.324219v-214.820313h47.816406c8.386719 0 15.214844-6.824218 15.214844-15.210937v-19.125c-.003906-8.386719-6.828125-15.210937-15.214844-15.210937zm-48.136718-56.570313h15.113281v56.570313h-15.113281zm-30.117188-23.449219h15.113281v80.019532h-15.113281zm-30.082031 0h15.078125v80.019532h-15.078125zm-220.144531-132.859375c6.894531-6.289062 18.328124-5.738281 24.589843 1.125l10.839844 11.875c-5.117187 2.65625-9.960937 6.007813-14.394531 10.050781-4.429688 4.042969-8.210938 8.5625-11.320313 13.414063l-10.839843-11.875c-6.46875-7.085937-5.964844-18.117187 1.125-24.589844zm-33.480469 76.351563 30.019531-32.0625 5.355469 5.867187-29.832031 31.804688c.003906.003906.007812.007812.011718.011719-1.558594-2.144532-3.4375-4.046876-5.5625-5.628907zm-15.539063 9.847656c6.089844 0 11.042969 4.953125 11.042969 11.042969 0 6.089843-4.953125 11.042969-11.042969 11.042969s-11.042968-4.953126-11.042968-11.042969c0-6.089844 4.953124-11.042969 11.042968-11.042969zm3.957032 36.789062v66.207032h-7.914063v-66.203125c.027344.511719 7.914063.285156 7.914063-.003907zm-37.1875 81.210938h66.460937c4.96875 0 9.0625 3.820312 9.496094 8.679688h-85.449219c.433594-4.859376 4.523438-8.679688 9.492188-8.679688zm202.769531 182.839844h-182.464844v-61.394532h182.460937v61.394532zm0-76.398438h-182.464844v-48.214844h182.460937v48.214844zm208.167969-63.425781c0 .113281-.089844.207031-.207032.207031h-449.574218c-.113282 0-.207032-.09375-.207032-.207031v-19.125c0-.113281.09375-.207031.207032-.207031h449.574218c.117188 0 .210938.09375.210938.207031v19.125zm0 0"/></svg>