<svg id="dining_x5F_table2" enable-background="new 0 0 300 300" height="512" viewBox="0 0 300 300" width="512" xmlns="http://www.w3.org/2000/svg"><path d="m270 112h-48v-28.59c0-10.703-8.707-19.41-19.41-19.41h-21.18c-10.703 0-19.41 8.707-19.41 19.41v28.59h-20v-28.59c0-10.703-8.707-19.41-19.41-19.41h-21.18c-10.703 0-19.41 8.707-19.41 19.41v28.59h-52c-2.209 0-4 1.791-4 4v20c0 2.209 1.791 4 4 4h8.275c1.113 4.281 3.943 7.832 7.725 9.934v82.066c0 2.209 1.791 4 4 4h12c2.209 0 4-1.791 4-4v-80h4.737c-.448 1.257-.737 2.591-.737 4 0 5.208 3.354 9.606 8 11.263v8.737c0 2.209 1.791 4 4 4h4v44c0 2.209 1.791 4 4 4s4-1.791 4-4v-15.604h36v15.604c0 2.209 1.791 4 4 4s4-1.791 4-4v-44h4c2.209 0 4-1.791 4-4v-8.737c2.467-.88 4.576-2.505 6-4.654 1.424 2.148 3.533 3.774 6 4.654v8.737c0 2.209 1.791 4 4 4h4v44c0 2.209 1.791 4 4 4s4-1.791 4-4v-15.604h36v15.604c0 2.209 1.791 4 4 4s4-1.791 4-4v-44h4c2.209 0 4-1.791 4-4v-8.737c4.646-1.656 8-6.055 8-11.263 0-1.409-.289-2.743-.737-4h.737v4 76c0 2.209 1.791 4 4 4h12c2.209 0 4-1.791 4-4v-82.066c3.782-2.101 6.612-5.652 7.725-9.934h8.275c2.209 0 4-1.791 4-4v-20c0-2.209-1.791-4-4-4zm-100-28.59c0-6.291 5.119-11.41 11.41-11.41h21.18c6.291 0 11.41 5.119 11.41 11.41v28.59h-44zm-80 0c0-6.291 5.119-11.41 11.41-11.41h21.18c6.291 0 11.41 5.119 11.41 11.41v28.59h-44zm-32 144.59h-4v-76h4zm72-27.604h-36v-20.396h36zm8-28.396h-52v-4h52zm4-12h-60c-2.205 0-4-1.795-4-4s1.795-4 4-4h60c2.205 0 4 1.795 4 4s-1.795 4-4 4zm68 40.396h-36v-20.396h36zm8-28.396h-52v-4h52zm8-16c0 2.205-1.795 4-4 4h-60c-2.205 0-4-1.795-4-4s1.795-4 4-4h60c2.205 0 4 1.795 4 4zm16 72v-76h4v76zm4.293-84h-192.586c-2.948 0-5.5-1.62-6.887-4h206.36c-1.387 2.38-3.939 4-6.887 4zm19.707-12h-232v-12h232z"/></svg>