<?xml version="1.0" encoding="iso-8859-1"?>
<!-- Generator: Adobe Illustrator 19.0.0, SVG Export Plug-In . SVG Version: 6.00 Build 0)  -->
<svg version="1.1" id="Capa_1" xmlns="http://www.w3.org/2000/svg" xmlns:xlink="http://www.w3.org/1999/xlink" x="0px" y="0px"
	 viewBox="0 0 512 512" style="enable-background:new 0 0 512 512;" xml:space="preserve">
<g>
	<g>
		<path d="M406,30H305.635L292.708,4.146C291.438,1.605,288.841,0,286,0h-60c-2.841,0-5.438,1.605-6.708,4.146L206.365,30H106
			c-4.142,0-7.5,3.357-7.5,7.5v422c0,4.143,3.358,7.5,7.5,7.5h52.5v22.5c0,12.406,10.093,22.5,22.5,22.5s22.5-10.094,22.5-22.5V467
			h105v22.5c0,12.406,10.093,22.5,22.5,22.5c12.407,0,22.5-10.094,22.5-22.5V467H406c4.142,0,7.5-3.357,7.5-7.5v-422
			C413.5,33.357,410.142,30,406,30z M230.635,15h50.729l7.5,15h-65.729L230.635,15z M188.5,489.5c0,4.136-3.364,7.5-7.5,7.5
			s-7.5-3.364-7.5-7.5V467h15V489.5z M338.5,489.5c0,4.136-3.364,7.5-7.5,7.5s-7.5-3.364-7.5-7.5V467h15V489.5z M398.5,60H166
			c-4.142,0-7.5,3.357-7.5,7.5s3.358,7.5,7.5,7.5h232.5v377h-285V75H136c4.142,0,7.5-3.357,7.5-7.5S140.142,60,136,60h-22.5V45
			h187.477c0.063,0,97.523,0,97.523,0V60z"/>
	</g>
</g>
<g>
	<g>
		<path d="M256,362c-20.678,0-37.5,16.822-37.5,37.5c0,20.678,16.822,37.5,37.5,37.5s37.5-16.822,37.5-37.5
			C293.5,378.822,276.678,362,256,362z M256,422c-12.407,0-22.5-10.094-22.5-22.5c0-9.777,6.271-18.114,15-21.21v21.21
			c0,4.143,3.358,7.5,7.5,7.5c4.142,0,7.5-3.357,7.5-7.5v-21.21c8.729,3.096,15,11.433,15,21.21C278.5,411.906,268.407,422,256,422z
			"/>
	</g>
</g>
<g>
</g>
<g>
</g>
<g>
</g>
<g>
</g>
<g>
</g>
<g>
</g>
<g>
</g>
<g>
</g>
<g>
</g>
<g>
</g>
<g>
</g>
<g>
</g>
<g>
</g>
<g>
</g>
<g>
</g>
</svg>
