<svg height="496pt" viewBox="0 0 496 496" width="496pt" xmlns="http://www.w3.org/2000/svg"><path d="m458.777344 177.121094c-23.992188-22.855469-55.417969-34.546875-88.679688-32.976563-58.9375 2.832031-107.722656 49.136719-113.496094 107.71875-5.769531 58.570313 31.46875 112.34375 87.398438 127.761719v84.375c0 17.648438 14.351562 32 32 32s32-14.351562 32-32v-84.382812c51.359375-14.226563 88-61.832032 88-115.617188 0-33.152344-13.214844-64-37.222656-86.878906zm-186.257813 76.304687c5-50.738281 47.273438-90.851562 98.335938-93.296875 1.746093-.089844 3.472656-.128906 5.191406-.128906 26.863281 0 52.152344 10.089844 71.6875 28.703125 20.808594 19.824219 32.265625 46.570313 32.265625 75.296875 0 20.351562-6.121094 39.648438-16.648438 56h-174.792968c-12.261719-19.167969-18.421875-42.375-16.039063-66.574219zm125.777344 112.117188c-3.679687.800781-6.296875 4.058593-6.296875 7.816406v90.640625c0 8.824219-7.175781 16-16 16s-16-7.175781-16-16v-90.640625c0-3.757813-2.617188-7.015625-6.296875-7.816406-20.742187-4.535157-38.71875-15.136719-52.542969-29.542969h149.617188c-13.898438 14.480469-31.960938 25.0625-52.480469 29.542969zm0 0"/><path d="m448 264h16c0-48.519531-39.480469-88-88-88v16c39.695312 0 72 32.296875 72 72zm0 0"/><path d="m125.902344 144.144531c-33.191406-1.578125-64.695313 10.128907-88.679688 32.976563-24.007812 22.878906-37.222656 53.726562-37.222656 86.878906 0 53.785156 36.640625 101.390625 88 115.617188v84.382812c0 17.648438 14.351562 32 32 32s32-14.351562 32-32v-84.375c55.929688-15.417969 93.167969-69.191406 87.398438-127.769531-5.765626-58.582031-54.558594-104.886719-113.496094-107.710938zm16.394531 221.398438c-3.679687.800781-6.296875 4.058593-6.296875 7.816406v90.640625c0 8.824219-7.175781 16-16 16s-16-7.175781-16-16v-90.640625c0-3.757813-2.617188-7.015625-6.296875-7.816406-20.519531-4.480469-38.582031-15.0625-52.488281-29.542969h149.617187c-13.824219 14.40625-31.800781 25.015625-52.535156 29.542969zm65.144531-45.542969h-174.792968c-10.527344-16.351562-16.648438-35.648438-16.648438-56 0-28.726562 11.457031-55.472656 32.265625-75.296875 19.535156-18.613281 44.8125-28.703125 71.6875-28.703125 1.71875 0 3.453125.039062 5.183594.128906 51.0625 2.445313 93.335937 42.558594 98.335937 93.296875 2.390625 24.199219-3.769531 47.40625-16.03125 66.574219zm0 0"/><path d="m120 176v16c39.695312 0 72 32.296875 72 72h16c0-48.519531-39.480469-88-88-88zm0 0"/><path d="m296 112c0-26.472656-21.527344-48-48-48s-48 21.527344-48 48 21.527344 48 48 48 48-21.527344 48-48zm-48 32c-17.648438 0-32-14.351562-32-32s14.351562-32 32-32 32 14.351562 32 32-14.351562 32-32 32zm0 0"/><path d="m408 96c26.472656 0 48-21.527344 48-48s-21.527344-48-48-48-48 21.527344-48 48 21.527344 48 48 48zm0-80c17.648438 0 32 14.351562 32 32s-14.351562 32-32 32-32-14.351562-32-32 14.351562-32 32-32zm0 0"/><path d="m88 96c26.472656 0 48-21.527344 48-48s-21.527344-48-48-48-48 21.527344-48 48 21.527344 48 48 48zm0-80c17.648438 0 32 14.351562 32 32s-14.351562 32-32 32-32-14.351562-32-32 14.351562-32 32-32zm0 0"/></svg>