<?xml version="1.0"?>
<svg xmlns="http://www.w3.org/2000/svg" id="Layer_1" data-name="Layer 1" viewBox="0 0 512 512" width="512" height="512"><title>tablet bottle</title><path d="M163,493H353c17.09,0,29-17.918,29-34V210c0-25.158-17.194-50.571-37.259-65.274A29.937,29.937,0,0,0,366,116.114V48.886A29.919,29.919,0,0,0,336.115,19H175.885A29.919,29.919,0,0,0,146,48.886v67.228a29.926,29.926,0,0,0,25.827,29.6,115.828,115.828,0,0,0-12.49,9.678C141.193,171.534,130.5,191.368,130,209.811q0,.094,0,.189V459C130,475.841,146.654,493,163,493ZM368,379H144V229H368ZM353,479H163c-8.523,0-19-11.028-19-20V393H368v66C368,468.059,361.309,479,353,479ZM175.885,132A15.9,15.9,0,0,1,160,116.114V48.886A15.9,15.9,0,0,1,175.885,33h160.23A15.9,15.9,0,0,1,352,48.886v67.228A15.9,15.9,0,0,1,336.115,132H175.885Zm33.224,14H312.094c10.22,0,24.269,7.917,35.794,20.171C360.67,179.76,368,195.735,368,210v5H144v-4.9C144.939,178.293,186.414,146,209.109,146Z"/><path d="M185,46a7,7,0,0,0-7,7v53a7,7,0,0,0,14,0V53A7,7,0,0,0,185,46Z"/><path d="M221,46a7,7,0,0,0-7,7v53a7,7,0,0,0,14,0V53A7,7,0,0,0,221,46Z"/><path d="M255,46a7,7,0,0,0-7,7v53a7,7,0,0,0,14,0V53A7,7,0,0,0,255,46Z"/><path d="M291,46a7,7,0,0,0-7,7v53a7,7,0,0,0,14,0V53A7,7,0,0,0,291,46Z"/><path d="M326,113a7,7,0,0,0,7-7V53a7,7,0,0,0-14,0v53A7,7,0,0,0,326,113Z"/><path d="M205,328h29v29a9.01,9.01,0,0,0,9,9h25a9.01,9.01,0,0,0,9-9V328h29a9.01,9.01,0,0,0,9-9V294a9.01,9.01,0,0,0-9-9H277V256a9.01,9.01,0,0,0-9-9H243a9.01,9.01,0,0,0-9,9v29H205a9.01,9.01,0,0,0-9,9v25A9.01,9.01,0,0,0,205,328Zm5-29h29a9.01,9.01,0,0,0,9-9V261h15v29a9.01,9.01,0,0,0,9,9h29v15H272a9.01,9.01,0,0,0-9,9v29H248V323a9.01,9.01,0,0,0-9-9H210Z"/></svg>
