<?xml version="1.0" encoding="UTF-8"?>
<svg width="836px" height="840px" viewBox="0 0 836 840" version="1.1" xmlns="http://www.w3.org/2000/svg" xmlns:xlink="http://www.w3.org/1999/xlink">
    <!-- Generator: Sketch 52.6 (67491) - http://www.bohemiancoding.com/sketch -->
    <title>Group 2</title>
    <desc>Created with Sketch.</desc>
    <g id="Page-1" stroke="none" stroke-width="1" fill="none" fill-rule="evenodd">
        <g id="Group-2" fill="#000000" fill-rule="nonzero">
            <g id="stop">
                <path d="M418,0 C187.518789,0 0,188.403187 0,420 C0,651.596813 187.506029,840 418,840 C648.493971,840 836,651.596813 836,420 C836,188.403187 648.481211,0 418,0 Z M52.1453646,422.5 C52.1453646,220.490857 216.490857,56.1453646 418.5,56.1453646 C509.517064,56.1453646 592.839846,89.5922189 656.981684,144.752831 L140.752831,660.981684 C85.5922189,596.839846 52.1453646,513.517064 52.1453646,422.5 Z M418.5,788.854635 C337.066562,788.854635 261.780335,762.116319 200.883238,717.004823 L712.991132,204.896929 C758.102628,265.794026 784.840944,341.080253 784.840944,422.513691 C784.854635,624.509143 620.509143,788.854635 418.5,788.854635 Z" id="Shape"></path>
            </g>
            <g id="man" transform="translate(246.000000, 103.000000)">
                <path d="M360.978656,451.303811 C356.549916,451.303811 352.95945,454.956947 352.95945,459.46299 L352.95945,536.17451 C352.95945,538.658164 350.972826,540.679465 348.53178,540.679465 L305.423739,540.679465 L305.423739,380.001283 C305.423739,375.49524 301.833273,371.842104 297.404533,371.842104 C292.975793,371.842104 289.385328,375.49524 289.385328,380.001283 L289.385328,540.680553 L202.580101,540.680553 L227.752922,512.504186 C230.502974,509.425455 231.799947,505.040168 231.221495,500.769109 C231.210803,500.68643 231.197972,500.60375 231.184072,500.52107 L207.208786,356.411463 L213.667989,346.518186 C217.239208,349.098662 219.990331,351.583404 225.149353,351.583404 C230.397121,351.583404 235.303805,348.594969 237.718121,343.675527 L237.718121,343.674439 L263.005349,292.108424 L320.611045,314.807262 C322.694969,315.716738 352.957312,329.582992 352.957312,366.197039 L352.957312,421.38573 C352.956243,425.890686 356.546708,429.54491 360.976518,429.54491 C365.405257,429.54491 368.995723,425.891773 368.995723,421.38573 L368.995723,366.197039 C368.995723,317.955617 328.398228,300.419908 326.670356,299.696461 C326.620103,299.674703 326.56878,299.654033 326.517457,299.634451 L230.641974,261.856361 L230.641974,238.978021 C245.869911,226.928545 256.428531,209.066469 259.079146,188.688102 C266.67173,188.144156 273.716869,185.25907 279.470382,180.2254 C286.983843,173.651277 291.294968,164.083279 291.294968,153.978951 C291.294968,145.59349 288.321446,137.586615 283.022355,131.347563 L283.022355,101.122697 C283.021286,45.3639512 238.436642,0 183.63446,0 C128.832279,0 84.2476348,45.3639512 84.2476348,101.122697 L84.2476348,132.139547 C78.8918747,138.315502 75.9792993,145.917682 75.9792993,153.977863 C75.9792993,164.085455 80.2882857,173.652365 87.8038851,180.227576 C93.5531209,185.25907 100.593983,188.140893 108.184429,188.685926 C110.856428,209.446143 121.722986,227.974008 138.247896,240.18558 L138.247896,261.856361 L42.4761278,299.633363 C42.4258741,299.652945 42.3756205,299.673615 42.3253668,299.694285 C40.5964261,300.417732 0,317.953441 0,366.194863 L0,536.172334 C0,547.65502 9.18145571,556.996736 20.467151,556.996736 L96.8709335,556.996736 C101.299673,556.996736 104.890139,553.3436 104.890139,548.837557 C104.890139,544.331514 101.299673,540.678377 96.8709335,540.678377 L79.6168109,540.678377 L79.6168109,380.001283 C79.6168109,375.49524 76.0263453,371.842104 71.5976054,371.842104 C67.1688655,371.842104 63.5783999,375.49524 63.5783999,380.001283 L63.5783999,540.680553 L20.4682202,540.680553 C18.027174,540.680553 16.0405495,538.659252 16.0405495,536.175598 L16.0405495,366.195951 C16.0405495,329.458973 46.5060459,315.624268 48.3771939,314.810525 L105.937982,292.106248 L131.227348,343.674439 C133.64701,348.605848 138.56011,351.583404 143.797186,351.583404 C148.930547,351.583404 151.654938,349.136738 155.27855,346.518186 L161.737752,356.411463 L137.764605,500.522158 C137.750705,500.60375 137.738943,500.685342 137.727182,500.768021 C137.147661,505.036904 138.444633,509.424367 141.195756,512.505273 L166.368576,540.681641 L134.2971,540.681641 C129.86836,540.681641 126.277895,544.334777 126.277895,548.84082 C126.277895,553.346863 129.86836,557 134.2971,557 L348.532849,557 C359.818544,557 369,547.657195 369,536.175598 L369,459.464078 C368.997862,454.956947 365.407396,451.303811 360.978656,451.303811 Z M247.983773,286.190299 L224.408378,334.264186 C223.822442,333.840996 211.328519,324.809328 196.055675,313.774854 C202.682747,305.451402 194.929779,315.188023 225.176083,277.203234 L247.983773,286.190299 Z M200.582784,337.064416 L194.468942,346.427891 L174.471182,346.427891 L168.357339,337.064416 L184.470596,325.420723 L200.582784,337.064416 Z M154.285237,264.489057 L154.285237,249.219424 C164.028038,253.215246 174.440174,255.067924 184.608527,255.067924 C195.12224,255.067924 205.432799,252.787705 214.602494,248.708115 L214.602494,264.555418 L184.470596,302.397693 L154.285237,264.489057 Z M275.255487,153.978951 C275.254418,159.323758 272.979102,164.381361 269.012269,167.85282 C266.389454,170.14827 263.221333,171.615834 259.75169,172.19024 L259.75169,135.770926 C268.96843,137.293973 275.255487,145.072391 275.255487,153.978951 Z M107.521508,172.19024 C98.1999832,170.650875 92.0177103,162.809359 92.0177103,153.977863 C92.0177103,145.255156 99.1248649,138.155582 107.521508,136.181061 L107.521508,172.19024 Z M107.952406,119.554828 C105.398022,119.85291 102.470477,120.556775 100.288184,121.311771 L100.288184,101.122697 C100.288184,54.3618945 137.676928,16.3194473 183.63553,16.3194473 C229.594131,16.3194473 266.982875,54.3618945 266.982875,101.122697 L266.982875,120.751508 C264.651959,120.030236 262.234436,119.55374 259.752759,119.329635 C259.752759,111.45657 259.820121,112.975266 234.506162,85.2851855 C229.850746,80.1960332 222.15017,79.1299004 216.289735,83.0256367 C188.350822,101.594842 154.269199,110.923504 122.823221,108.625879 C115.925635,108.100428 109.642855,112.722875 107.952406,119.554828 Z M123.560988,178.614234 L123.560988,127.709656 L123.560988,125.028006 C158.177225,127.090646 194.470011,116.627314 223.789296,97.5228672 C235.398967,110.205496 241.686024,116.857947 243.713279,119.388381 C243.713279,125.789529 243.713279,171.286203 243.713279,178.613146 C243.713279,211.736152 217.168639,238.747389 184.609596,238.747389 C148.048434,238.748477 123.560988,209.89109 123.560988,178.614234 Z M144.533883,334.264186 L120.958488,286.190299 L143.725548,277.218465 L172.852371,313.798787 C158.040364,324.500367 145.877902,333.292699 144.533883,334.264186 Z M153.734585,502.281277 L176.946443,362.745162 L191.991542,362.745162 L215.2034,502.281277 L184.469527,536.683643 L153.734585,502.281277 Z" id="Shape"></path>
            </g>
        </g>
    </g>
</svg>