<?xml version="1.0" encoding="iso-8859-1"?>
<!-- Generator: Adobe Illustrator 19.0.0, SVG Export Plug-In . SVG Version: 6.00 Build 0)  -->
<svg version="1.1" id="Capa_1" xmlns="http://www.w3.org/2000/svg" xmlns:xlink="http://www.w3.org/1999/xlink" x="0px" y="0px"
	 viewBox="0 0 512 512" style="enable-background:new 0 0 512 512;" xml:space="preserve">
<g>
	<g>
		<path d="M379.847,420.942c-3.094-4.576-9.312-5.777-13.885-2.685l-0.263,0.178c-4.596,3.063-5.837,9.272-2.773,13.867
			c1.927,2.891,5.098,4.454,8.329,4.454c1.906,0,3.834-0.544,5.538-1.681l0.368-0.248
			C381.737,431.734,382.939,425.517,379.847,420.942z"/>
	</g>
</g>
<g>
	<g>
		<path d="M149.037,79.634c-3.092-4.576-9.31-5.778-13.885-2.686l-0.351,0.237c-4.563,3.112-5.737,9.334-2.625,13.896
			c1.936,2.838,5.075,4.366,8.269,4.366c1.941,0,3.903-0.563,5.627-1.74l0.28-0.188C150.928,90.426,152.13,84.209,149.037,79.634z"
			/>
	</g>
</g>
<g>
	<g>
		<path d="M512,256c0-68.38-26.629-132.667-74.98-181.02C388.667,26.629,324.38,0,256,0c-54.254,0-106.161,16.815-150.108,48.627
			c-4.474,3.238-5.475,9.49-2.237,13.964c3.238,4.475,9.491,5.475,13.964,2.237C158.133,35.501,205.984,20,256,20
			c130.131,0,236,105.869,236,236c0,59.693-22.024,115.993-62.209,159.648l-14.165-14.164c24.594-26.977,41.972-59.747,50.473-95.37
			c13.393-56.12,4.128-114.097-26.086-163.249C409.8,93.714,362.254,59.27,306.134,45.878
			c-48.839-11.653-100.542-5.854-145.584,16.334c-4.955,2.44-6.992,8.436-4.552,13.39c2.441,4.954,8.435,6.992,13.39,4.552
			c40.871-20.133,87.787-25.395,132.104-14.822c105.122,25.085,170.238,131.017,145.154,236.14
			c-7.642,32.023-23.207,61.491-45.194,85.837L298.895,284.752l56.695-54.023c3.998-3.81,4.151-10.14,0.342-14.138l-8.118-8.52
			l22.345-21.291l15.091,15.837c1.965,2.063,4.601,3.102,7.241,3.102c2.478,0,4.961-0.916,6.896-2.761
			c3.998-3.81,4.151-10.14,0.341-14.138l-68.646-72.041c-3.809-3.998-10.14-4.151-14.138-0.341s-4.151,10.14-0.341,14.138
			l15.332,16.09l-22.345,21.292l-8.117-8.519c-3.809-3.998-10.14-4.151-14.138-0.341l-58.424,55.671L51.638,37.497
			c-3.905-3.904-10.236-3.904-14.142,0c-3.905,3.905-3.905,10.237,0,14.143l30.562,30.562
			c-20.593,22.244-36.92,47.704-48.571,75.832C6.556,189.25,0,222.21,0,256c0,68.38,26.628,132.668,74.98,181.019
			C123.332,485.371,187.62,512,256,512c54.253,0,106.159-16.814,150.107-48.627c4.475-3.238,5.476-9.49,2.237-13.964
			c-3.238-4.474-9.491-5.475-13.964-2.237C353.866,476.499,306.015,492,256,492C125.869,492,20,386.13,20,256
			c0-59.692,22.024-115.992,62.208-159.648l14.158,14.158c-24.592,26.977-41.968,59.746-50.467,95.365
			c-13.392,56.12-4.127,114.096,26.086,163.248s77.759,83.597,133.879,96.987c16.475,3.932,33.273,5.877,50.035,5.877
			c32.925,0,65.701-7.508,95.549-22.211c4.954-2.44,6.992-8.435,4.552-13.39c-2.44-4.953-8.434-6.993-13.39-4.552
			c-40.873,20.133-87.789,25.397-132.104,14.822c-50.923-12.151-94.067-43.406-121.483-88.008
			c-27.416-44.601-35.822-97.208-23.67-148.132c7.64-32.02,23.203-61.487,45.188-85.834L214.428,228.57l-50.059,47.699
			c-1.662,1.583-2.729,3.69-3.021,5.968l-7.512,58.591L132.8,360.873c-3.998,3.81-4.151,10.14-0.341,14.138
			c1.966,2.063,4.601,3.102,7.241,3.102c2.478,0,4.961-0.916,6.897-2.761l21.036-20.045l58.885-4.678
			c2.289-0.182,4.445-1.146,6.106-2.729l51.786-49.346l175.95,175.95c1.953,1.952,4.512,2.929,7.071,2.929s5.118-0.977,7.071-2.929
			c3.905-3.905,3.905-10.237,0-14.143l-30.563-30.563c20.594-22.244,36.92-47.703,48.571-75.832C505.443,322.75,512,289.79,512,256z
			 M345.731,161.146l10.63,11.155l-22.345,21.292l-10.63-11.156L345.731,161.146z M221.397,330.973l-31.833,2.528l10.112-10.111
			c3.905-3.905,3.905-10.237,0-14.143c-3.905-3.904-10.236-3.904-14.142,0l-8.586,8.586l3.787-29.532l47.839-45.584l41.69,41.69
			L221.397,330.973z M243.058,228.916l50.835-48.44l40.661,42.673l-49.805,47.458L243.058,228.916z"/>
	</g>
</g>
<g>
	<g>
		<path d="M220.579,288.345c-3.905-3.904-10.236-3.904-14.142,0l-0.336,0.336c-3.905,3.905-3.905,10.237,0,14.143
			c1.953,1.952,4.512,2.929,7.071,2.929s5.118-0.977,7.071-2.929l0.336-0.336C224.484,298.583,224.484,292.25,220.579,288.345z"/>
	</g>
</g>
<g>
</g>
<g>
</g>
<g>
</g>
<g>
</g>
<g>
</g>
<g>
</g>
<g>
</g>
<g>
</g>
<g>
</g>
<g>
</g>
<g>
</g>
<g>
</g>
<g>
</g>
<g>
</g>
<g>
</g>
</svg>
