<?xml version="1.0" encoding="UTF-8"?>
<svg width="836px" height="840px" viewBox="0 0 836 840" version="1.1" xmlns="http://www.w3.org/2000/svg" xmlns:xlink="http://www.w3.org/1999/xlink">
    <!-- Generator: Sketch 52.6 (67491) - http://www.bohemiancoding.com/sketch -->
    <title>Group</title>
    <desc>Created with Sketch.</desc>
    <g id="Page-1" stroke="none" stroke-width="1" fill="none" fill-rule="evenodd">
        <g id="Group" fill="#000000" fill-rule="nonzero">
            <g id="woman" transform="translate(227.000000, 142.000000)">
                <path d="M347.186,366.807 C340.437,333.002 308.725,327.248 308.625,327.202 L308.625,327.203 C308.284,327.103 311.534,327.918 231.284,308.026 L231.284,305.303 L290.359,305.303 C302.536,305.303 312.442,295.396 312.442,283.22 L312.442,170.554 C313.435,166.365 313.437,162.01 312.442,157.812 L312.442,116.693 C312.442,112.549 309.083,109.192 304.941,109.192 C300.797,109.192 297.44,112.549 297.44,116.693 L297.44,138.22 C293.48,135.856 288.957,134.161 284.083,133.322 C282.323,125.505 275.831,119.325 267.598,118.244 C259.016,117.116 252.512,112.113 248.267,103.375 C246.28,99.284 242.388,96.597 237.858,96.185 C233.324,95.775 229.031,97.712 226.344,101.37 C213.45,118.918 177.605,158.277 115.708,158.275 C110.999,158.275 107.806,158.052 106.694,158.002 C95.32,157.317 85.703,166.405 85.703,177.802 L85.703,195.037 C85.703,222.584 97.131,249.29 117.055,268.306 C123.663,274.613 130.952,279.874 138.725,284.069 L138.725,290.303 L79.92,290.303 C76.015,290.303 72.838,287.126 72.838,283.222 L72.838,114.672 C72.838,60.029 117.391,15.003 171.209,15.003 C171.383,15.003 171.557,15.004 171.73,15.005 C191.012,15.108 213.275,20.585 228.446,28.954 C238.061,34.261 244,30.043 253.495,30.043 C276.67,30.043 295.242,53.873 297.468,75.306 C297.482,75.62 297.515,76.877 297.519,81.693 C297.524,88.934 305.702,89.49 305.026,89.188 C309.17,89.185 312.524,85.823 312.521,81.681 C312.52,80.349 312.531,75.126 312.406,73.914 C309.39,44.077 283.939,15.041 253.496,15.041 C241.606,15.041 239.753,18.055 235.694,15.819 C218.491,6.328 193.415,0.119 171.811,0.003 C109.539,-0.4 57.835,51.477 57.835,114.671 L57.835,283.221 C57.835,295.398 67.742,305.304 79.919,305.304 L138.725,305.304 L138.725,308.027 L61.687,327.12 C61.585,327.145 61.485,327.174 61.384,327.203 L55.756,328.863 C55.587,328.913 55.421,328.968 55.256,329.029 C45.212,332.777 27.643,342.668 22.822,366.811 C-0.008,481.493 0.953,476.596 0.898,476.989 C-1.852,496.44 7.885,511.999 31.308,511.999 L112.423,511.999 C116.567,511.999 119.924,508.641 119.924,504.498 C119.924,500.354 116.566,496.997 112.423,496.997 L84.196,496.997 L84.196,426.247 C84.196,422.103 80.838,418.746 76.695,418.746 C72.552,418.746 69.194,422.104 69.194,426.247 L69.194,496.997 L31.308,496.997 C21.344,496.997 15.558,493.789 15.462,483.322 C15.42,478.216 15.219,483.193 37.535,369.744 C40.894,352.921 53.11,345.894 60.267,343.173 L65.469,341.639 L109.709,330.674 C158.922,388.65 156.008,385.578 158.852,388.352 C175.278,404.375 198.716,403.244 214.142,385.128 L260.467,330.715 L304.538,341.638 C305.813,342.224 327.751,346.083 332.474,369.741 C354.598,482.208 354.59,478.192 354.548,483.316 C354.472,493.568 348.926,496.998 338.702,496.998 L301.085,496.998 L301.085,426.247 C301.085,422.103 297.728,418.746 293.584,418.746 C289.44,418.746 286.083,422.104 286.083,426.247 L286.083,496.997 L147.428,496.997 C143.284,496.997 139.927,500.355 139.927,504.498 C139.927,508.642 143.285,511.999 147.428,511.999 L338.703,511.999 C357.235,511.999 369.38,501.802 369.551,483.436 C369.614,474.859 369.103,478.957 347.186,366.807 Z M284.574,148.797 C290.838,150.66 295.669,154.788 297.441,159.886 L297.441,168.48 C295.669,173.579 290.838,177.707 284.574,179.569 L284.574,148.797 Z M284.574,196.343 L284.574,194.958 C289.262,194.092 293.615,192.432 297.441,190.147 L297.441,283.221 C297.441,287.126 294.264,290.301 290.36,290.301 L231.284,290.301 L231.284,284.504 C263.088,267.877 284.574,234.586 284.574,196.343 Z M127.414,257.452 C110.441,241.251 100.707,218.502 100.707,195.035 C101.153,178.703 99.626,176.724 102.232,174.27 C103.155,173.4 104.396,172.895 105.793,172.975 C159.577,176.213 205.837,152.569 236.379,112.981 C244.614,127.441 256.691,131.943 265.645,133.12 C267.883,133.414 269.572,135.324 269.572,137.565 C269.572,158.316 269.572,175.742 269.572,196.344 C269.572,270.98 180.22,307.851 127.414,257.452 Z M202.717,375.402 C192.266,387.679 177.636,387.646 167.21,375.34 L151.559,356.867 L218.497,356.867 L202.717,375.402 Z M231.271,341.864 L138.85,341.864 L125.959,326.648 L148.033,321.176 C151.381,320.347 153.729,317.269 153.729,313.821 L153.73,290.615 C174.37,297.495 196.167,297.42 216.282,290.829 C216.423,314.804 215.96,314.255 216.7,316.37 C217.518,318.708 219.467,320.553 221.977,321.175 L244.196,326.682 L231.271,341.864 Z" id="Shape"></path>
            </g>
            <g id="stop">
                <path d="M418,0 C187.518789,0 0,188.403187 0,420 C0,651.596813 187.506029,840 418,840 C648.493971,840 836,651.596813 836,420 C836,188.403187 648.481211,0 418,0 Z M52.1453646,422.5 C52.1453646,220.490857 216.490857,56.1453646 418.5,56.1453646 C509.517064,56.1453646 592.839846,89.5922189 656.981684,144.752831 L140.752831,660.981684 C85.5922189,596.839846 52.1453646,513.517064 52.1453646,422.5 Z M418.5,788.854635 C337.066562,788.854635 261.780335,762.116319 200.883238,717.004823 L712.991132,204.896929 C758.102628,265.794026 784.840944,341.080253 784.840944,422.513691 C784.854635,624.509143 620.509143,788.854635 418.5,788.854635 Z" id="Shape"></path>
            </g>
        </g>
    </g>
</svg>