<svg height="512pt" viewBox="0 0 512 512" width="512pt" xmlns="http://www.w3.org/2000/svg"><path d="m310.03125 327.078125c-.003906-.003906-.007812-.007813-.011719-.011719l-210.375-210.1875c-1.492187-1.488281-3.535156-2.277344-5.652343-2.1875-2.105469.101563-4.074219 1.082032-5.421876 2.707032-32.148437 38.792968-49.855468 87.9375-49.855468 138.382812 0 54.832031 20.511718 107.183594 57.761718 147.40625 37.039063 39.996094 87.257813 64.480469 141.40625 68.949219.210938.019531.417969.023437.625.023437 3.863282 0 7.144532-2.964844 7.46875-6.882812.339844-4.128906-2.730468-7.75-6.859374-8.089844-50.402344-4.160156-97.152344-26.957031-131.636719-64.191406-34.671875-37.441406-53.765625-86.171875-53.765625-137.214844 0-44.199219 14.601562-87.328125 41.273437-122.351562l84.238281 84.164062-37.976562 5.445312c-7.085938 1.015626-13.476562 4.074219-18.621094 8.511719-4.929687-3.804687-8.597656-9.164062-10.328125-15.292969-2.238281-7.902343-1.101562-16.132812 3.203125-23.171874 2.160156-3.535157 1.046875-8.152344-2.488281-10.3125-3.53125-2.160157-8.148437-1.046876-10.3125 2.488281-6.507813 10.648437-8.226563 23.105469-4.839844 35.078125 2.617188 9.242187 8.15625 17.335937 15.617188 23.089844-2.339844 4.824218-3.648438 10.207031-3.648438 15.832031v2.910156c0 20.652344 9.640625 39.921875 25.984375 52.324219v65.003906c0 18.011719 14.660156 32.660156 32.679688 32.660156 9.488281 0 17.207031-7.714844 17.207031-17.199218v-67.097657h20.949219c4.140625 0 7.5-3.359375 7.5-7.5 0-4.144531-3.359375-7.5-7.5-7.5h-28.449219c-4.140625 0-7.5 3.355469-7.5 7.5v74.597657c0 1.214843-.988281 2.199218-2.207031 2.199218-9.746094 0-17.679688-7.921875-17.679688-17.660156v-68.871094c0-2.488281-1.3125-4.890625-3.351562-6.246094-14.175782-9.441406-22.632813-25.21875-22.632813-42.210937v-2.90625c0-10.671875 7.972657-19.859375 18.546875-21.378906l49.109375-7.042969 104.734375 104.640625v59.480469c0 1.210937-.992187 2.195312-2.207031 2.195312-9.75 0-17.683594-7.921875-17.683594-17.65625v-59.140625c0-4.144531-3.355469-7.5-7.5-7.5h-28.179687c-4.144532 0-7.5 3.355469-7.5 7.5s3.355468 7.5 7.5 7.5h20.679687v51.640625c0 18.007813 14.660157 32.65625 32.683594 32.65625 9.488281 0 17.207031-7.714844 17.207031-17.195312v-44.496094l66.238282 66.183594c-30.6875 23.378906-67.015626 37.351562-105.578126 40.535156-4.128906.339844-7.199218 3.960938-6.859374 8.089844.34375 4.128906 3.964843 7.203125 8.09375 6.859375 44.378906-3.664063 86.003906-20.628907 120.375-49.066407 1.628906-1.347656 2.613281-3.316406 2.710937-5.429687.101563-2.109375-.695313-4.164063-2.1875-5.65625zm0 0"/><path d="m437.015625 74.914062c-48.351563-48.308593-112.636719-74.914062-181.015625-74.914062s-132.664062 26.605469-181.019531 74.914062c-48.351563 48.308594-74.980469 112.542969-74.980469 180.867188 0 68.320312 26.628906 132.554688 74.980469 180.863281 48.355469 48.308594 112.640625 74.914063 181.019531 74.914063s132.664062-26.605469 181.015625-74.914063c48.355469-48.308593 74.984375-112.542969 74.984375-180.863281 0-68.324219-26.628906-132.558594-74.984375-180.867188zm-10.601563 351.121094c-45.519531 45.480469-106.039062 70.523438-170.414062 70.523438s-124.894531-25.042969-170.414062-70.523438c-45.519532-45.476562-70.585938-105.941406-70.585938-170.253906s25.066406-124.777344 70.585938-170.257812c45.519531-45.476563 106.039062-70.523438 170.414062-70.523438s124.894531 25.046875 170.414062 70.523438c45.519532 45.480468 70.585938 105.945312 70.585938 170.257812s-25.066406 124.777344-70.585938 170.253906zm0 0"/><path d="m409.644531 102.261719c-41.042969-41-95.605469-63.582031-153.644531-63.582031-50.734375 0-100.113281 17.851562-139.039062 50.269531-1.621094 1.351562-2.597657 3.316406-2.691407 5.425781-.097656 2.105469.699219 4.152344 2.191407 5.644531l295.445312 295.1875c1.410156 1.40625 3.320312 2.191407 5.304688 2.191407.109374 0 .222656 0 .335937-.007813 2.105469-.09375 4.070313-1.070313 5.421875-2.6875 32.449219-38.890625 50.316406-88.226563 50.316406-138.925781 0-57.988282-22.601562-112.507813-63.640625-153.515625zm6.941407 276.414062-78.949219-78.878906c6.691406-10.148437 10.335937-22.125 10.335937-34.371094 0-16.277343-6.113281-31.457031-17.277344-43.105469v-16.328124h49.410157c12.164062 0 22.0625-9.890626 22.0625-22.050782v-13.996094c0-9.953124-6.71875-18.707031-16.332031-21.289062l-64.054688-17.207031-23.121094-27.617188c-3.371094-4.03125-8.746094-5.476562-13.691406-3.679687-4.941406 1.792968-8.132812 6.351562-8.132812 11.605468v39.953126c0 4.144531 3.355468 7.5 7.5 7.5 4.140624 0 7.5-3.355469 7.5-7.5v-32.667969l18.976562 22.671875c1.636719 1.957031 3.804688 3.339844 6.273438 4.003906l64.859374 17.421875c3.074219.828125 5.222657 3.625 5.222657 6.804687v13.996094c0 3.886719-3.164063 7.050782-7.058594 7.050782h-56.914063c-4.144531 0-7.5 3.355468-7.5 7.5v26.957031c0 2.042969.871094 4.058593 2.363282 5.457031 9.617187 9.046875 14.914062 21.308594 14.914062 34.519531 0 8.265625-2.175781 16.375-6.230468 23.484375l-67.675782-67.617187s23.402344-3.246094 25.253906-3.296875c.003907 0 .007813.003906.015626.003906 4.140624 0 7.5-3.359375 7.5-7.5v-23.789062c0-4.144532-3.359376-7.5-7.5-7.5-4.144532 0-7.5 3.355468-7.5 7.5v16.886718c-.074219.011719-.152344.015625-.226563.027344l-30.804687 4.417969-112.808594-112.707031c35.164062-26.921876 78.523437-41.65625 123.003906-41.65625 111.539062 0 202.285156 90.660156 202.285156 202.101562 0 44.441406-14.753906 87.765625-41.699218 122.894531zm0 0"/></svg>