<svg height="511pt" viewBox="1 -46 511.999 511" width="511pt" xmlns="http://www.w3.org/2000/svg"><path d="m502 171.867188h-39.550781c-7.726563-41.71875-27.652344-79.550782-57.957031-109.859376-39.664063-39.664062-92.402344-61.507812-148.492188-61.507812-41.390625 0-81.4375 12.035156-115.808594 34.800781-4.605468 3.050781-5.867187 9.253907-2.816406 13.859375 3.050781 4.601563 9.257812 5.863282 13.859375 2.8125 31.089844-20.589844 67.316406-31.472656 104.765625-31.472656 50.75 0 98.460938 19.761719 134.347656 55.648438 26.535156 26.535156 44.273438 59.433593 51.730469 95.71875h-20.511719c-5.539062-23.75-16.25-46.292969-31.273437-65.621094-1.761719-2.265625-4.410157-3.664063-7.273438-3.84375-2.867187-.171875-5.664062.878906-7.691406 2.910156l-224.511719 224.507812c-2.027344 2.027344-3.085937 4.832032-2.90625 7.695313.175782 2.863281 1.578125 5.511719 3.84375 7.273437 30.046875 23.359376 66.097656 35.707032 104.246094 35.707032 30.4375 0 60.296875-8.140625 86.363281-23.539063 4.753907-2.8125 6.332031-8.941406 3.519531-13.695312-2.808593-4.753907-8.9375-6.332031-13.695312-3.523438-22.984375 13.582031-49.328125 20.757813-76.1875 20.757813-29.832031 0-58.207031-8.554688-82.730469-24.847656l86.519531-86.519532h141.183594c-3.492187 13.160156-8.757812 25.753906-15.738281 37.566406-2.808594 4.753907-1.230469 10.886719 3.523437 13.695313 1.597657.941406 3.347657 1.390625 5.078126 1.390625 3.417968 0 6.75-1.757812 8.617187-4.914062 8.816406-14.921876 15.230469-30.945313 19.125-47.738282h20.496094c-7.453125 36.285156-25.191407 69.183594-51.726563 95.71875-35.886718 35.886719-83.597656 55.648438-134.347656 55.648438s-98.460938-19.761719-134.347656-55.648438c-26.535156-26.535156-44.273438-59.433594-51.726563-95.71875h20.507813c5.539062 23.75 16.25 46.292969 31.273437 65.621094 1.761719 2.265625 4.410157 3.664062 7.273438 3.84375.207031.011719.417969.019531.621093.019531 2.644532 0 5.191407-1.046875 7.074219-2.929687l224.507813-224.507813c2.027344-2.03125 3.089844-4.832031 2.910156-7.695312s-1.578125-5.511719-3.84375-7.269531c-30.054688-23.363282-66.105469-35.710938-104.253906-35.710938-45.410156 0-88.101563 17.683594-120.207032 49.789062-22.640624 22.640626-38.214843 50.703126-45.371093 81.578126h-20.480469c4.855469-23.625 14.089844-45.828126 27.542969-66.140626 3.050781-4.605468 1.789062-10.808593-2.816407-13.859374-4.601562-3.050782-10.808593-1.789063-13.855468 2.816406-15.640625 23.613281-26.117188 49.542968-31.238282 77.183594h-39.570312c-5.523438 0-10 4.480468-10 10v57.261718c0 5.523438 4.476562 10 10 10h39.550781c7.726563 41.722656 27.652344 79.554688 57.957031 109.859375 39.667969 39.664063 92.402344 61.507813 148.492188 61.507813s108.824219-21.84375 148.492188-61.507813c30.304687-30.308593 50.230468-68.140625 57.957031-109.859375h39.550781c5.519531 0 10-4.476562 10-10v-57.261718c0-5.523438-4.476562-10-10-10zm-442 20h172.210938l-37.265626 37.261718h-134.945312zm70.859375 101.351562c-8.945313-13.523438-15.65625-28.46875-19.824219-44.089844h63.910156zm19.074219-188.785156c28.328125-28.332032 66-43.933594 106.066406-43.933594 29.832031 0 58.207031 8.554688 82.730469 24.847656l-86.519531 86.519532h-141.183594c6.738281-25.445313 20.042968-48.570313 38.90625-67.433594zm-129.933594 87.433594h20v37.261718h-20zm361.140625-64.089844c8.945313 13.527344 15.65625 28.472656 19.824219 44.089844h-63.910156zm-64.085937 64.089844h45.546874v37.261718h-82.8125zm174.945312 37.261718h-109.398438v-37.261718h71.328126.019531.015625 38.035156zm0 0"/><path d="m10 151.867188c5.523438 0 10-4.480469 10-10v-45.367188c0-13.234375 10.765625-24 24-24 24.261719 0 44-19.738281 44-44v-18c0-5.523438-4.476562-10-10-10s-10 4.476562-10 10v18c0 13.230469-10.765625 24-24 24-24.261719 0-44 19.734375-44 44v45.363281c0 5.523438 4.476562 10.003907 10 10.003907zm0 0"/><path d="m38 34.75c5.519531 0 10-4.480469 10-10v-14.25c0-5.523438-4.480469-10-10-10-5.523438 0-10 4.476562-10 10v14.25c0 5.519531 4.476562 10 10 10zm0 0"/><path d="m114.582031 79.074219c2.558594 0 5.121094-.976563 7.074219-2.929688 3.902344-3.90625 3.902344-10.238281 0-14.144531-3.90625-3.902344-10.238281-3.902344-14.144531 0l-.003907.007812c-3.90625 3.902344-3.902343 10.230469.003907 14.136719 1.953125 1.953125 4.511719 2.929688 7.070312 2.929688zm0 0"/><path d="m369.125 333.636719c2.867188 0 5.714844-1.226563 7.695312-3.601563 3.53125-4.242187 2.960938-10.546875-1.28125-14.082031-4.242187-3.535156-10.546874-2.964844-14.085937 1.277344l-.003906.007812c-3.535157 4.242188-2.960938 10.546875 1.28125 14.082031 1.871093 1.554688 4.140625 2.316407 6.394531 2.316407zm0 0"/></svg>