<?xml version="1.0" encoding="iso-8859-1"?>
<!-- Generator: Adobe Illustrator 17.1.0, SVG Export Plug-In . SVG Version: 6.00 Build 0)  -->
<!DOCTYPE svg PUBLIC "-//W3C//DTD SVG 1.1//EN" "http://www.w3.org/Graphics/SVG/1.1/DTD/svg11.dtd">
<svg version="1.1" id="Capa_1" xmlns="http://www.w3.org/2000/svg" xmlns:xlink="http://www.w3.org/1999/xlink" x="0px" y="0px"
	 viewBox="0 0 158.131 158.131" style="enable-background:new 0 0 158.131 158.131;" xml:space="preserve">
<path style="fill:#000002;" d="M140.232,158.131H17.899C8.029,158.131,0,150.102,0,140.232V17.898C0,8.029,8.029,0,17.899,0h122.333
	c9.869,0,17.898,8.029,17.898,17.898v122.333C158.131,150.102,150.102,158.131,140.232,158.131z M17.899,5
	C10.787,5,5,10.786,5,17.898v122.333c0,7.112,5.787,12.899,12.899,12.899h122.333c7.112,0,12.898-5.787,12.898-12.899V17.898
	c0-7.112-5.786-12.898-12.898-12.898H17.899z M137.215,148.613H20.917c-6.285,0-11.398-5.113-11.398-11.399V20.917
	c0-6.285,5.113-11.398,11.398-11.398h116.298c6.285,0,11.398,5.113,11.398,11.398v116.297
	C148.613,143.5,143.5,148.613,137.215,148.613z M20.917,14.518c-3.528,0-6.398,2.87-6.398,6.398v116.297
	c0,3.528,2.87,6.399,6.398,6.399h116.298c3.528,0,6.398-2.871,6.398-6.399V20.917c0-3.528-2.87-6.398-6.398-6.398H20.917z
	 M64.076,127.691h-10.84c-1.381,0-2.5-1.119-2.5-2.5V32.939c0-1.381,1.119-2.5,2.5-2.5h10.84c15.543,0,47.887,0,47.887,33.838
	c0,14.03-4.812,23.779-14.3,28.976c-7.853,4.301-17.599,4.895-26.962,4.895c-1.197,0-2.372-0.009-3.514-0.018
	c-0.205-0.001-0.408-0.003-0.611-0.004v27.065C66.576,126.572,65.457,127.691,64.076,127.691z M55.736,122.691h5.84V95.615
	c0-1.381,1.119-2.5,2.5-2.5c1.016,0,2.067,0.008,3.148,0.016c1.13,0.008,2.292,0.017,3.477,0.017c8.698,0,17.694-0.519,24.561-4.28
	c7.874-4.313,11.701-12.357,11.701-24.591c0-26.609-22.138-28.838-42.887-28.838h-8.34V122.691z M72.234,88.774
	c-1.505,0-2.983-0.024-4.41-0.048c-1.301-0.021-2.558-0.042-3.748-0.042c-1.381,0-2.5-1.119-2.5-2.5V44.356
	c0-1.381,1.119-2.5,2.5-2.5l1.826-0.001c12.647,0,36.19,0,36.19,23.415c0,9.536-3.435,16.235-10.21,19.911
	C86.049,88.348,78.677,88.774,72.234,88.774z M66.576,83.706c0.438,0.006,0.882,0.014,1.331,0.021
	c1.399,0.023,2.851,0.047,4.327,0.047c5.814,0,12.412-0.355,17.265-2.987c5.109-2.773,7.594-7.848,7.594-15.517
	c0-16.751-14.973-18.372-30.517-18.414V83.706z"/>
<g>
</g>
<g>
</g>
<g>
</g>
<g>
</g>
<g>
</g>
<g>
</g>
<g>
</g>
<g>
</g>
<g>
</g>
<g>
</g>
<g>
</g>
<g>
</g>
<g>
</g>
<g>
</g>
<g>
</g>
</svg>
