<svg id="icons" enable-background="new 0 0 64 64" height="512" viewBox="0 0 64 64" width="512" xmlns="http://www.w3.org/2000/svg"><path d="m18.002 64h27.996c2.757 0 5-2.243 5-5v-7.996-34.004-12c0-2.757-2.243-5-5-5h-27.996c-2.757 0-5 2.243-5 5v12 34.004 7.996c0 2.757 2.243 5 5 5zm27.996-2h-27.996c-1.654 0-3-1.346-3-3v-4.021c.838.635 1.87 1.025 3 1.025h27.996c1.13 0 2.162-.391 3-1.025v4.021c0 1.654-1.346 3-3 3zm-30.996-57c0-1.654 1.346-3 3-3h27.996c1.654 0 3 1.346 3 3v12 34.004c0 1.654-1.346 3-3 3h-27.996c-1.654 0-3-1.346-3-3v-34.004z"/><path d="m20.998 58h-3c-.553 0-1 .447-1 1s.447 1 1 1h3c.553 0 1-.447 1-1s-.447-1-1-1z"/><path d="m26.997 58h-3c-.553 0-1 .447-1 1s.447 1 1 1h3c.553 0 1-.447 1-1s-.447-1-1-1z"/><path d="m46.016 58h-3c-.553 0-1 .447-1 1s.447 1 1 1h3c.553 0 1-.447 1-1s-.448-1-1-1z"/><path d="m28.025 28.09c.007.07.02.135.041.201.019.061.041.117.07.172.029.056.064.105.104.155.044.054.09.101.144.145.025.021.04.049.067.067.034.023.072.033.108.051.033.017.064.034.101.047.112.042.229.07.345.07h.001 4.131l-2.963 4.442c-.307.459-.183 1.08.277 1.387.17.113.363.168.554.168.323 0 .641-.156.833-.445l4-5.997c.018-.026.02-.057.034-.083.032-.059.057-.12.076-.186s.034-.13.04-.198c.003-.03.018-.057.018-.088 0-.033-.016-.061-.019-.093-.007-.069-.02-.134-.041-.201-.019-.061-.041-.117-.07-.172-.029-.056-.064-.105-.104-.155-.044-.054-.09-.101-.144-.145-.025-.021-.04-.049-.067-.067-.026-.018-.057-.02-.084-.034-.059-.032-.119-.056-.185-.076s-.131-.034-.199-.04c-.03-.003-.056-.018-.087-.018h-4.132l2.964-4.444c.307-.459.183-1.08-.277-1.387-.462-.308-1.081-.183-1.387.277l-4 5.999c-.018.026-.02.057-.034.084-.032.059-.057.119-.076.185s-.034.13-.04.198c-.003.03-.018.057-.018.088.001.034.016.062.019.093z"/><path d="m32 38.995c6.065 0 11-4.935 11-10.999 0-6.065-4.935-11-11-11s-11 4.935-11 11 4.935 10.999 11 10.999zm0-19.998c4.963 0 9 4.037 9 9 0 4.962-4.037 8.999-9 8.999s-9-4.037-9-8.999c0-4.963 4.037-9 9-9z"/></svg>