<?xml version="1.0"?>
<svg xmlns="http://www.w3.org/2000/svg" viewBox="0 0 64 64" width="512" height="512"><g id="Policeman"><path d="M48.461,40.6,37,36.307V32.786A11,11,0,0,0,43,23V20.281l1.243-.311A1,1,0,0,0,45,19V16a1,1,0,0,0-1-1H43V13.265L46.868,6.5A1,1,0,0,0,46.6,5.2l-4-3A1,1,0,0,0,42,2H22a1,1,0,0,0-.6.2l-4,3a1,1,0,0,0-.268,1.3L21,13.265V15H20a1,1,0,0,0-1,1v3a1,1,0,0,0,.757.97L21,20.281V23a10.992,10.992,0,0,0,6,9.794v3.513L15.538,40.6A7.038,7.038,0,0,0,11,47.16V61a1,1,0,0,0,1,1H52a1,1,0,0,0,1-1V47.16A7.037,7.037,0,0,0,48.461,40.6Zm-9.907-1.578-2.581,4.131L33.46,39.388l2.6-1.3Zm-4.6,14.6L32,55.586l-1.958-1.958L30.905,45H33.1ZM32,40.8,33.465,43h-2.93ZM22.333,4H41.667l3.027,2.271L41.42,12H22.58L19.306,6.271ZM23,14H41v1H23Zm-2,3H43v1.219L39.877,19H24.123L21,18.219Zm2,6V20.781l.757.189A1,1,0,0,0,24,21H40a1,1,0,0,0,.243-.03L41,20.781V23a9,9,0,0,1-18,0Zm9,11a10.966,10.966,0,0,0,3-.426v2.808l-3,1.5-3-1.5v-2.8A11.04,11.04,0,0,0,32,34Zm-4.057,4.09,2.6,1.3-2.513,3.769-2.581-4.131ZM51,60H45V51H43v9H21V51H19v9H13V47.16a5.025,5.025,0,0,1,3.241-4.683l7.294-2.735,3.617,5.788a1,1,0,0,0,1.68.025l.009-.013L28.005,53.9a1,1,0,0,0,.288.807l3,3a1,1,0,0,0,1.414,0l3-3a1,1,0,0,0,.288-.807l-.836-8.358.009.013A1,1,0,0,0,36,46h.015a1,1,0,0,0,.833-.47l3.617-5.788,7.293,2.734A5.027,5.027,0,0,1,51,47.16Z"/><path d="M37,25H35a3,3,0,0,1-6,0H27a5,5,0,0,0,10,0Z"/><rect x="38" y="47" width="6" height="2"/><path d="M29.553,9.9l2,1a1,1,0,0,0,.894,0l2-1A1,1,0,0,0,35,9V6a1,1,0,0,0-1-1H30a1,1,0,0,0-1,1V9A1,1,0,0,0,29.553,9.9ZM31,7h2V8.382l-1,.5-1-.5Z"/></g></svg>
