<svg xmlns="http://www.w3.org/2000/svg" height="69pt" version="1.1" viewBox="0 -6 69.39879 69" width="69pt">
<g id="surface1">
<path d="M 68.167969 44.917969 L 5.207031 44.917969 C 4.527344 44.917969 3.976562 45.46875 3.976562 46.148438 L 3.976562 57.042969 C 3.976562 57.722656 4.527344 58.273438 5.207031 58.273438 L 68.167969 58.273438 C 68.847656 58.273438 69.398438 57.722656 69.398438 57.042969 L 69.398438 46.148438 C 69.398438 45.46875 68.847656 44.917969 68.167969 44.917969 Z M 15.246094 53.175781 L 17.074219 50.816406 C 17.335938 50.460938 17.390625 49.992188 17.210938 49.589844 L 16.1875 47.425781 L 45.90625 47.425781 L 45.90625 55.816406 L 17.058594 55.816406 Z M 6.433594 47.378906 L 13.488281 47.378906 L 14.71875 49.910156 L 12.800781 52.363281 C 12.480469 52.792969 12.480469 53.386719 12.800781 53.816406 L 14.089844 55.816406 L 6.433594 55.816406 C 6.433594 55.816406 6.433594 47.378906 6.433594 47.378906 Z M 66.941406 55.816406 L 48.367188 55.816406 L 48.367188 47.378906 L 66.941406 47.378906 Z M 66.941406 55.816406 " style=" stroke:none;fill-rule:nonzero;fill:rgb(0%,0%,0%);fill-opacity:1;" />
<path d="M 4.664062 40.066406 C 4.40625 40.691406 4.707031 41.414062 5.332031 41.671875 C 5.839844 41.878906 6.425781 41.730469 6.765625 41.292969 C 12.539062 31.675781 8.351562 27.78125 5.292969 24.929688 C 2.234375 22.078125 0.378906 20.3125 6.605469 13.554688 C 7.101562 13.089844 7.125 12.3125 6.664062 11.816406 C 6.203125 11.324219 5.421875 11.300781 4.929688 11.757812 C 4.886719 11.796875 4.847656 11.839844 4.8125 11.886719 C -2.558594 19.808594 -0.210938 23.171875 3.582031 26.738281 C 6.605469 29.539062 9.40625 32.152344 4.664062 40.066406 Z M 4.664062 40.066406 " style=" stroke:none;fill-rule:nonzero;fill:rgb(0%,0%,0%);fill-opacity:1;" />
<path d="M 16.285156 15.386719 C 20.121094 11.820312 22.429688 8.453125 15.0625 0.527344 C 14.5625 0.0703125 13.789062 0.09375 13.324219 0.585938 C 12.902344 1.035156 12.878906 1.722656 13.265625 2.203125 C 19.542969 8.960938 17.578125 10.800781 14.582031 13.578125 C 11.582031 16.351562 7.367188 20.335938 13.191406 29.941406 C 13.449219 30.570312 14.171875 30.871094 14.792969 30.609375 C 15.425781 30.351562 15.722656 29.632812 15.460938 29.007812 C 15.417969 28.902344 15.359375 28.804688 15.292969 28.710938 C 10.5 20.777344 13.3125 18.148438 16.285156 15.386719 Z M 16.285156 15.386719 " style=" stroke:none;fill-rule:nonzero;fill:rgb(0%,0%,0%);fill-opacity:1;" />
</g>
</svg>