<svg height="512pt" viewBox="-26 0 512 512" width="512pt" xmlns="http://www.w3.org/2000/svg"><path d="m430 0h-400c-16.542969 0-30 13.457031-30 30v452c0 16.542969 13.457031 30 30 30h400c16.539062 0 30-13.457031 30-30v-452c0-16.542969-13.460938-30-30-30zm10 30v70.003906h-279.996094v-80.003906h269.996094c5.511719 0 10 4.484375 10 10zm-410-10h110.003906v80.003906h-120.003906v-70.003906c0-5.515625 4.484375-10 10-10zm400 472h-400c-5.515625 0-10-4.484375-10-10v-361.996094h420v331.996094h-44.996094c-5.523437 0-10 4.476562-10 10 0 5.519531 4.476563 10 10 10h44.996094v10c0 5.515625-4.488281 10-10 10zm0 0"/><path d="m205.003906 70h54.992188c5.523437 0 10-4.476562 10-10s-4.476563-10-10-10h-54.992188c-5.523437 0-10 4.476562-10 10s4.476563 10 10 10zm0 0"/><path d="m304.996094 70h.003906c5.523438 0 10-4.476562 10-10s-4.480469-10-10.003906-10c-5.523438 0-10 4.476562-10 10s4.476562 10 10 10zm0 0"/><path d="m349.992188 70h.007812c5.523438 0 9.996094-4.476562 9.996094-10s-4.480469-10-10.003906-10c-5.523438 0-10 4.476562-10 10s4.480468 10 10 10zm0 0"/><path d="m394.992188 70h.007812c5.523438 0 9.996094-4.476562 9.996094-10s-4.480469-10-10.003906-10c-5.523438 0-10 4.476562-10 10s4.480468 10 10 10zm0 0"/><path d="m230 160.996094c-79.957031 0-145.007812 65.046875-145.007812 145.003906s65.050781 145.007812 145.007812 145.007812 145.003906-65.050781 145.003906-145.007812-65.046875-145.003906-145.003906-145.003906zm-74.738281 151.117187c17.160156-6.8125 37.460937-1.242187 60.621093 5.117188 17.652344 4.847656 36.613282 10.058593 56.277344 10.054687 10.1875 0 20.5625-1.410156 31.039063-4.976562-7.464844 33.539062-37.441407 58.699218-73.199219 58.699218-39.300781 0-71.613281-30.386718-74.738281-68.894531zm65.917969-14.167969c-21.585938-5.925781-43.753907-12.007812-64.636719-7.128906 7.039062-34.105468 37.300781-59.820312 73.457031-59.820312 39.371094 0 71.730469 30.496094 74.753906 69.105468-27.691406 13.183594-56.074218 5.398438-83.574218-2.15625zm-86.183594 8.273438v.078125c.023437 6.757813.753906 13.347656 2.121094 19.703125h-30.515626c-1.054687-6.515625-1.609374-13.191406-1.609374-20 0-6.804688.554687-13.484375 1.609374-20h30.515626c-1.386719 6.453125-2.125 13.140625-2.125 20 0 .074219.003906.144531.003906.21875zm95.003906 124.789062c-54.945312 0-101.726562-35.632812-118.445312-85.007812h32.28125c15.128906 32.457031 48.058593 55.007812 86.164062 55.007812 52.386719 0 95.003906-42.621093 95.003906-95.007812 0-.070312 0-.140625 0-.214844-.003906-.027344 0-.054687-.003906-.082031-.160156-52.25-42.714844-94.707031-95-94.707031-38.105469 0-71.035156 22.550781-86.164062 55.007812h-32.28125c16.71875-49.375 63.5-85.007812 118.445312-85.007812 68.929688 0 125.003906 56.078125 125.003906 125.003906 0 68.929688-56.074218 125.007812-125.003906 125.007812zm0 0"/><path d="m350.003906 452h-.003906c-5.523438 0-10 4.476562-10 10 0 5.519531 4.484375 10 10.003906 10 5.523438 0 10-4.480469 10-10 0-5.523438-4.476562-10-10-10zm0 0"/></svg>